<svg width="130" height="46" fill="none" xmlns="http://www.w3.org/2000/svg"><path fill-rule="evenodd" clip-rule="evenodd" d="M4.155 8.352h1.053L4.74 20.49H1.054L4.155 8.352zm3.453 0h1.054l.175 12.137H5.21l2.4-12.137zm4.038 0h.995l.35 12.137H9.365l2.282-12.137zm3.744 0h.995l.761 12.137h-3.628l1.873-12.137zm3.863 0h.995L21.3 20.49h-3.628l1.58-12.137zm3.862 0h.995l1.346 12.137H21.77l1.345-12.137zm4.155 0h.995L29.61 20.49h-3.686L27.27 8.352zm3.862 0h.995l1.638 12.137H30.08l1.053-12.137zm3.862 0h1.053L37.92 20.49h-3.687l.761-12.137zm3.745 0h.995l2.34 12.137h-3.686l.35-12.137zm4.038 0h.994L46.23 20.49h-3.687l.235-12.137zm3.451 0h.995l3.102 12.137h-3.628l-.469-12.137z" fill="#219653"/><path fill-rule="evenodd" clip-rule="evenodd" d="M49.155 5.174L58.108.78c1.112-.52 2.34.058 2.867 1.214.527 1.156-.058 2.543-1.17 3.063L50.91 9.451c-.117.057-.234.115-.35.115-.352.231-.703.347-1.054.347H2.166C.994 9.913 0 8.815 0 7.543c0-1.271.995-2.312 2.165-2.312h46.873c.058-.057.117-.057.117-.057z" fill="#219653"/><path fill-rule="evenodd" clip-rule="evenodd" d="M92.889 1.777v2.4c0 .669-.758 1.227-1.75 1.227H59.02c-.933 0-1.75-.558-1.75-1.228v-2.4c0-.669.817-1.227 1.75-1.227h32.12c.933 0 1.75.558 1.75 1.228z" fill="#219653"/><path d="M1 44.2a2 2 0 012-2h125a2 2 0 012 2v1H1v-1z" fill="#219653"/><mask id="a" maskUnits="userSpaceOnUse" x="51.163" y="12.573" width="79" height="25" fill="#000"><path fill="#fff" d="M51.163 12.573h79v25h-79z"/><path d="M63.486 36.905c-1.584 0-3.07-.291-4.459-.874a11.576 11.576 0 01-3.608-2.476 12.011 12.011 0 01-2.405-3.728c-.567-1.418-.85-2.952-.85-4.603 0-1.63.283-3.146.85-4.544a11.654 11.654 0 012.405-3.7 11.34 11.34 0 013.608-2.504c1.369-.602 2.855-.903 4.459-.903 1.506 0 2.796.194 3.872.582 1.095.389 2.19 1.03 3.285 1.923.156.116.274.243.352.378a.75.75 0 01.176.38c.04.116.059.261.059.436 0 .37-.137.68-.41.932a1.595 1.595 0 01-.94.408c-.371.02-.733-.107-1.085-.379a8.618 8.618 0 00-2.259-1.427c-.762-.33-1.78-.495-3.05-.495a7.72 7.72 0 00-3.256.699 8.773 8.773 0 00-2.699 1.922 8.958 8.958 0 00-1.79 2.855 9.111 9.111 0 00-.645 3.437c0 1.243.216 2.408.646 3.496a9.04 9.04 0 001.79 2.825 8.775 8.775 0 002.698 1.923 8.007 8.007 0 003.256.67c.997 0 1.936-.165 2.816-.495.9-.35 1.76-.826 2.581-1.428.352-.252.694-.359 1.027-.32.352.02.645.155.88.408.234.233.352.563.352.99 0 .194-.04.389-.118.583a1.63 1.63 0 01-.352.495 11.77 11.77 0 01-3.402 1.893 11.143 11.143 0 01-3.784.641zm14.442-.291c-.86 0-1.623-.233-2.288-.7-.665-.465-1.183-1.096-1.555-1.893-.371-.815-.557-1.747-.557-2.796V15.32c0-.427.137-.776.41-1.048.274-.272.626-.408 1.056-.408.43 0 .783.136 1.056.408.274.272.411.621.411 1.048v15.905c0 .718.137 1.31.41 1.777.275.466.627.699 1.057.699h.733c.391 0 .704.136.939.408.254.272.381.621.381 1.048 0 .428-.186.777-.557 1.049-.372.272-.85.408-1.438.408h-.058zm10.018.116c-1.623 0-3.07-.34-4.341-1.02a7.865 7.865 0 01-2.963-2.854c-.704-1.223-1.056-2.621-1.056-4.194 0-1.593.332-2.991.997-4.195a7.345 7.345 0 012.816-2.855c1.193-.699 2.562-1.048 4.107-1.048 1.525 0 2.836.34 3.93 1.02 1.096.66 1.927 1.582 2.494 2.767.587 1.165.88 2.514.88 4.048 0 .37-.127.68-.381.933-.255.233-.577.35-.968.35H81.639V27.35h11.734l-1.203.815c-.02-.97-.215-1.835-.587-2.592A4.411 4.411 0 0090 23.739c-.684-.447-1.515-.67-2.493-.67-1.115 0-2.073.243-2.875.728a4.715 4.715 0 00-1.789 2.01c-.41.835-.616 1.787-.616 2.855s.245 2.02.733 2.854a5.34 5.34 0 002.024 1.981c.86.486 1.848.728 2.963.728.606 0 1.222-.107 1.848-.32.645-.233 1.164-.495 1.555-.787.293-.213.606-.32.938-.32.352-.02.655.078.91.291.332.291.508.612.528.962.02.349-.137.65-.47.902-.664.525-1.496.952-2.493 1.282-.978.33-1.916.495-2.816.495zm15.182 0c-1.428 0-2.709-.35-3.843-1.048a7.836 7.836 0 01-2.698-2.884c-.646-1.224-.968-2.602-.968-4.136 0-1.534.352-2.913 1.056-4.137a7.925 7.925 0 012.904-2.883c1.232-.719 2.61-1.078 4.136-1.078 1.525 0 2.894.359 4.106 1.078a7.702 7.702 0 012.875 2.883c.723 1.224 1.085 2.603 1.085 4.137h-1.144c0 1.534-.332 2.913-.997 4.136a7.602 7.602 0 01-2.669 2.884c-1.135.699-2.416 1.048-3.843 1.048zm.587-2.621c.997 0 1.887-.233 2.669-.7a5.232 5.232 0 001.848-1.951c.45-.835.675-1.767.675-2.796 0-1.05-.225-1.981-.675-2.797a4.959 4.959 0 00-1.848-1.951c-.782-.486-1.672-.729-2.669-.729-.978 0-1.868.243-2.67.729a5.17 5.17 0 00-1.877 1.951c-.45.816-.675 1.748-.675 2.797 0 1.029.225 1.96.675 2.796a5.467 5.467 0 001.877 1.952c.802.466 1.692.699 2.67.699zm6.57 2.534c-.43 0-.792-.136-1.085-.408a1.513 1.513 0 01-.411-1.078v-4.456l.558-3.088 2.434 1.049v6.495c0 .428-.146.787-.44 1.078-.274.272-.626.408-1.056.408zm17.888 0c-.43 0-.792-.136-1.085-.408a1.513 1.513 0 01-.411-1.078v-7.165c0-1.107-.205-2.01-.616-2.71a3.762 3.762 0 00-1.672-1.543c-.685-.35-1.477-.524-2.376-.524-.821 0-1.565.165-2.229.495-.665.33-1.193.776-1.584 1.34-.392.543-.587 1.174-.587 1.893h-1.848c0-1.223.293-2.31.88-3.263a6.51 6.51 0 012.464-2.3c1.036-.564 2.2-.845 3.491-.845 1.349 0 2.552.29 3.608.873 1.075.564 1.916 1.399 2.522 2.506.626 1.106.939 2.466.939 4.078v7.165c0 .428-.147.787-.44 1.078-.274.272-.626.408-1.056.408zm-12.056 0c-.43 0-.792-.136-1.085-.408a1.513 1.513 0 01-.411-1.078V22.166c0-.447.137-.806.411-1.078.293-.272.655-.408 1.085-.408.45 0 .811.136 1.085.408.274.272.411.631.411 1.078v12.991c0 .428-.137.787-.411 1.078-.274.272-.635.408-1.085.408z"/></mask><path d="M63.486 36.905c-1.584 0-3.07-.291-4.459-.874a11.576 11.576 0 01-3.608-2.476 12.011 12.011 0 01-2.405-3.728c-.567-1.418-.85-2.952-.85-4.603 0-1.63.283-3.146.85-4.544a11.654 11.654 0 012.405-3.7 11.34 11.34 0 013.608-2.504c1.369-.602 2.855-.903 4.459-.903 1.506 0 2.796.194 3.872.582 1.095.389 2.19 1.03 3.285 1.923.156.116.274.243.352.378a.75.75 0 01.176.38c.04.116.059.261.059.436 0 .37-.137.68-.41.932a1.595 1.595 0 01-.94.408c-.371.02-.733-.107-1.085-.379a8.618 8.618 0 00-2.259-1.427c-.762-.33-1.78-.495-3.05-.495a7.72 7.72 0 00-3.256.699 8.773 8.773 0 00-2.699 1.922 8.958 8.958 0 00-1.79 2.855 9.111 9.111 0 00-.645 3.437c0 1.243.216 2.408.646 3.496a9.04 9.04 0 001.79 2.825 8.775 8.775 0 002.698 1.923 8.007 8.007 0 003.256.67c.997 0 1.936-.165 2.816-.495.9-.35 1.76-.826 2.581-1.428.352-.252.694-.359 1.027-.32.352.02.645.155.88.408.234.233.352.563.352.99 0 .194-.04.389-.118.583a1.63 1.63 0 01-.352.495 11.77 11.77 0 01-3.402 1.893 11.143 11.143 0 01-3.784.641zm14.442-.291c-.86 0-1.623-.233-2.288-.7-.665-.465-1.183-1.096-1.555-1.893-.371-.815-.557-1.747-.557-2.796V15.32c0-.427.137-.776.41-1.048.274-.272.626-.408 1.056-.408.43 0 .783.136 1.056.408.274.272.411.621.411 1.048v15.905c0 .718.137 1.31.41 1.777.275.466.627.699 1.057.699h.733c.391 0 .704.136.939.408.254.272.381.621.381 1.048 0 .428-.186.777-.557 1.049-.372.272-.85.408-1.438.408h-.058zm10.018.116c-1.623 0-3.07-.34-4.341-1.02a7.865 7.865 0 01-2.963-2.854c-.704-1.223-1.056-2.621-1.056-4.194 0-1.593.332-2.991.997-4.195a7.345 7.345 0 012.816-2.855c1.193-.699 2.562-1.048 4.107-1.048 1.525 0 2.836.34 3.93 1.02 1.096.66 1.927 1.582 2.494 2.767.587 1.165.88 2.514.88 4.048 0 .37-.127.68-.381.933-.255.233-.577.35-.968.35H81.639V27.35h11.734l-1.203.815c-.02-.97-.215-1.835-.587-2.592A4.411 4.411 0 0090 23.739c-.684-.447-1.515-.67-2.493-.67-1.115 0-2.073.243-2.875.728a4.715 4.715 0 00-1.789 2.01c-.41.835-.616 1.787-.616 2.855s.245 2.02.733 2.854a5.34 5.34 0 002.024 1.981c.86.486 1.848.728 2.963.728.606 0 1.222-.107 1.848-.32.645-.233 1.164-.495 1.555-.787.293-.213.606-.32.938-.32.352-.02.655.078.91.291.332.291.508.612.528.962.02.349-.137.65-.47.902-.664.525-1.496.952-2.493 1.282-.978.33-1.916.495-2.816.495zm15.182 0c-1.428 0-2.709-.35-3.843-1.048a7.836 7.836 0 01-2.698-2.884c-.646-1.224-.968-2.602-.968-4.136 0-1.534.352-2.913 1.056-4.137a7.925 7.925 0 012.904-2.883c1.232-.719 2.61-1.078 4.136-1.078 1.525 0 2.894.359 4.106 1.078a7.702 7.702 0 012.875 2.883c.723 1.224 1.085 2.603 1.085 4.137h-1.144c0 1.534-.332 2.913-.997 4.136a7.602 7.602 0 01-2.669 2.884c-1.135.699-2.416 1.048-3.843 1.048zm.587-2.621c.997 0 1.887-.233 2.669-.7a5.232 5.232 0 001.848-1.951c.45-.835.675-1.767.675-2.796 0-1.05-.225-1.981-.675-2.797a4.959 4.959 0 00-1.848-1.951c-.782-.486-1.672-.729-2.669-.729-.978 0-1.868.243-2.67.729a5.17 5.17 0 00-1.877 1.951c-.45.816-.675 1.748-.675 2.797 0 1.029.225 1.96.675 2.796a5.467 5.467 0 001.877 1.952c.802.466 1.692.699 2.67.699zm6.57 2.534c-.43 0-.792-.136-1.085-.408a1.513 1.513 0 01-.411-1.078v-4.456l.558-3.088 2.434 1.049v6.495c0 .428-.146.787-.44 1.078-.274.272-.626.408-1.056.408zm17.888 0c-.43 0-.792-.136-1.085-.408a1.513 1.513 0 01-.411-1.078v-7.165c0-1.107-.205-2.01-.616-2.71a3.762 3.762 0 00-1.672-1.543c-.685-.35-1.477-.524-2.376-.524-.821 0-1.565.165-2.229.495-.665.33-1.193.776-1.584 1.34-.392.543-.587 1.174-.587 1.893h-1.848c0-1.223.293-2.31.88-3.263a6.51 6.51 0 012.464-2.3c1.036-.564 2.2-.845 3.491-.845 1.349 0 2.552.29 3.608.873 1.075.564 1.916 1.399 2.522 2.506.626 1.106.939 2.466.939 4.078v7.165c0 .428-.147.787-.44 1.078-.274.272-.626.408-1.056.408zm-12.056 0c-.43 0-.792-.136-1.085-.408a1.513 1.513 0 01-.411-1.078V22.166c0-.447.137-.806.411-1.078.293-.272.655-.408 1.085-.408.45 0 .811.136 1.085.408.274.272.411.631.411 1.078v12.991c0 .428-.137.787-.411 1.078-.274.272-.635.408-1.085.408z" fill="#222"/><path d="M59.027 36.031l-.112.256.004.002.108-.258zm-3.608-2.476l-.202.193.003.004.2-.197zm-2.405-3.728l-.26.103.002.004.258-.107zm0-9.147l-.258-.107-.001.002.259.105zm2.405-3.7l-.2-.194.2.195zm3.608-2.504l-.112-.256.112.256zm8.33-.32l-.094.262h.001l.094-.263zm3.286 1.922l-.177.216.01.008.167-.224zm.352.378l-.242.14.012.021.016.02.214-.18zm.176.38l-.276.039.003.025.008.024.265-.089zm-.352 1.368l.189.206-.189-.206zm-.939.408l.015.28.007-.001.007-.001-.029-.278zm-1.085-.379l-.182.212.006.005.005.005.171-.222zm-2.259-1.427l-.11.256.002.002.108-.258zm-9.005 2.127l-.202-.194-.002.003.204.19zm-1.79 2.854l.26.105v-.002l-.26-.103zm0 6.933l-.259.103v.001l.26-.104zm1.79 2.825l-.204.191.003.003.201-.194zm2.699 1.923l-.117.254.004.002.113-.256zm6.072.175l.098.261h.003l-.101-.261zm2.581-1.428l-.163-.227-.002.002.165.225zm1.027-.32l-.033.277.009.001h.008l.016-.278zm.88.408l-.205.19.008.008.197-.198zm.234 1.573l.256.114.004-.01-.26-.104zm-.352.495l.174.219.012-.01.011-.01-.197-.2zm-3.402 1.893l-.093-.263h-.001l.094.263zm8.37-.35l-.16.23.16-.23zm-1.555-1.893l-.254.116.001.002.253-.118zm-.146-19.75l.196.2-.197-.2zm2.933 18.73l.24-.14-.24.14zM79.6 34.11l-.212.182.008.009.204-.191zm-.176 2.097l.165.225-.165-.225zm4.18-.495l-.135.244.004.002.132-.246zm-2.962-2.855l-.242.14.003.004.24-.144zm-.059-8.389l-.243-.136-.001.001.244.135zm2.816-2.855l.139.243.003-.002-.142-.24zm8.038-.029l-.148.238.004.002.144-.24zm2.493 2.768l-.252.12.003.005.25-.125zm.499 4.98l.189.207.008-.008-.197-.198zm-12.79.35h-.279v.28h.28v-.28zm0-2.33v-.28h-.279v.28h.28zm11.734 0l.157.231.752-.51h-.91v.279zm-1.203.815l-.28.006.011.514.426-.288-.157-.232zm-.587-2.592l-.252.12.002.003.25-.123zm-6.952-1.777l-.144-.239-.003.002.147.237zm-1.789 2.01l.25.123.002-.002-.252-.121zm.117 5.71l-.24.14.24-.14zm2.024 1.98l.138-.243-.138.243zm4.811.408l.09.264.005-.001-.095-.263zm1.555-.787l-.165-.226-.002.002.167.224zm.938-.32v.28h.008l.008-.001-.016-.28zm.91.291l.184-.21-.005-.004-.18.214zm.528.962l.279-.016-.28.016zm-.47.902l-.169-.222-.004.003.173.22zm-2.493 1.282l-.088-.265h-.001l.09.265zm8.523-.553l-.15.236.004.002.146-.238zm-2.698-2.884l-.248.13.003.005.245-.135zm.088-8.273l-.24-.142-.003.003.243.14zm2.904-2.883l.14.242v-.001l-.14-.241zm8.242 0l-.142.24.003.002.139-.242zm2.875 2.883l-.242.14.001.003.241-.143zm-.059 4.137v-.28h-.279v.28h.279zm-.997 4.136l-.246-.134v.002l.246.132zm-2.669 2.884l.146.237.003-.001-.149-.236zm-.587-2.272l.143.24.004-.003-.147-.237zm1.848-1.952l.245.135.001-.003-.246-.132zm0-5.593l-.246.133.001.002.245-.135zm-1.848-1.951l-.147.237.004.003.143-.24zm-5.339 0l.143.24.002-.002-.145-.238zm-1.877 1.951l-.244-.137v.002l.244.135zm0 5.593l-.246.133.004.006.242-.139zm1.877 1.952l-.147.237.007.004.14-.241zm8.155 2.825l-.204.191.007.008.007.006.19-.205zm-.411-5.534l-.275-.05-.004.025v.025h.279zm.558-3.088l.11-.257-.323-.139-.062.346.275.05zm1.994 8.622l.197.198-.197-.198zm15.747 0l-.204.191.007.008.007.006.19-.205zm-1.027-10.952l-.241.141.241-.141zm-1.672-1.544l-.127.249.008.004.119-.253zm-4.605-.03l-.125-.25.125.25zm-1.584 1.34l.226.164.003-.004-.229-.16zm-.587 1.894v.28h.279v-.28h-.279zm-1.848 0h-.28v.28h.28v-.28zm.88-3.263l-.237-.147h-.001l.238.147zm2.464-2.3l.133.245-.133-.246zm7.099.029l-.135.244.005.003.13-.247zm2.522 2.505l-.245.134.002.003.243-.137zm.499 12.321l-.197-.198.197.198zm-14.197 0l-.204.191.007.008.007.006.19-.205zm0-15.147l-.19-.205-.007.007.197.198zm2.17 15.147l.197.199.007-.008-.204-.19zm-53.716.39c-1.55 0-2.998-.284-4.35-.851l-.217.515c1.424.597 2.948.895 4.567.895v-.558zm-4.346-.85a11.296 11.296 0 01-3.522-2.416l-.398.393a11.857 11.857 0 003.695 2.535l.224-.511zm-3.519-2.412a11.732 11.732 0 01-2.35-3.643l-.515.214a12.311 12.311 0 002.46 3.814l.405-.385zm-2.348-3.64c-.553-1.382-.83-2.88-.83-4.499h-.56c0 1.684.29 3.253.871 4.706l.52-.207zm-.83-4.499c0-1.598.277-3.076.83-4.439l-.518-.21c-.582 1.434-.871 2.985-.871 4.65h.559zm.829-4.437a11.378 11.378 0 012.348-3.612l-.401-.389a11.937 11.937 0 00-2.463 3.787l.516.214zm2.348-3.612a11.06 11.06 0 013.52-2.444l-.225-.511a11.622 11.622 0 00-3.696 2.566l.4.39zm3.52-2.444c1.33-.585 2.778-.879 4.346-.879v-.559c-1.64 0-3.164.308-4.571.927l.224.511zm4.346-.879c1.483 0 2.74.192 3.777.566l.19-.525c-1.114-.403-2.439-.6-3.967-.6v.56zm3.778.567c1.06.375 2.127.998 3.203 1.875l.353-.433c-1.115-.909-2.238-1.568-3.369-1.969l-.187.527zm3.212 1.883a.994.994 0 01.277.294l.484-.279a1.55 1.55 0 00-.427-.463l-.334.448zm.305.334c.068.081.102.16.114.239l.553-.08a1.028 1.028 0 00-.239-.518l-.428.36zm.125.288c.027.079.044.192.044.348h.56c0-.193-.022-.371-.074-.526l-.53.178zm.044.348a.94.94 0 01-.32.727l.379.41c.33-.304.5-.689.5-1.137h-.559zm-.32.726c-.206.19-.461.303-.779.336l.058.556a1.874 1.874 0 001.099-.48l-.378-.412zm-.764.335c-.293.015-.59-.081-.9-.32l-.342.441c.394.305.82.46 1.271.437l-.03-.558zm-.889-.311a8.895 8.895 0 00-2.332-1.473l-.217.515a8.338 8.338 0 012.185 1.381l.364-.424zm-2.33-1.472c-.81-.352-1.87-.518-3.161-.518v.558c1.25 0 2.225.163 2.94.473l.221-.513zm-3.161-.518a8.001 8.001 0 00-3.373.724l.233.508a7.443 7.443 0 013.14-.674v-.558zm-3.373.724a9.055 9.055 0 00-2.783 1.983l.403.387a8.497 8.497 0 012.613-1.862l-.233-.508zm-2.786 1.986a9.238 9.238 0 00-1.845 2.942l.52.206a8.68 8.68 0 011.733-2.767l-.408-.381zm-1.844 2.94a9.391 9.391 0 00-.666 3.542h.559c0-1.19.209-2.3.625-3.332l-.518-.21zm-.666 3.542a9.7 9.7 0 00.665 3.599l.52-.206a9.136 9.136 0 01-.626-3.393h-.559zm.666 3.6a9.322 9.322 0 001.844 2.912l.408-.381a8.762 8.762 0 01-1.734-2.74l-.518.21zm1.847 2.915a9.051 9.051 0 002.783 1.983l.233-.508a8.495 8.495 0 01-2.613-1.862l-.403.387zm2.787 1.985a8.286 8.286 0 003.369.693v-.559a7.727 7.727 0 01-3.144-.646l-.225.512zm3.369.693c1.029 0 2-.17 2.914-.513l-.196-.523a7.673 7.673 0 01-2.718.477v.56zm2.917-.514a11.533 11.533 0 002.645-1.462l-.33-.451a10.976 10.976 0 01-2.517 1.392l.202.521zm2.643-1.46c.313-.225.586-.3.831-.27l.065-.556c-.42-.049-.83.09-1.222.371l.326.454zm.848-.27a.975.975 0 01.691.32l.41-.38a1.53 1.53 0 00-1.07-.497l-.03.558zm.699.328c.168.166.27.417.27.792h.558c0-.479-.133-.889-.434-1.188l-.394.396zm.27.792c0 .156-.032.315-.098.478l.519.21c.09-.226.137-.455.137-.688h-.559zm-.094.469a1.374 1.374 0 01-.293.41l.393.397a1.93 1.93 0 00.41-.58l-.51-.227zm-.27.39A11.488 11.488 0 0167.177 36l.186.527a12.047 12.047 0 003.483-1.938l-.347-.438zm-3.323 1.85a10.86 10.86 0 01-3.69.624v.559c1.36 0 2.653-.22 3.878-.658l-.188-.526zm10.752.332c-.807 0-1.513-.217-2.128-.648l-.32.458c.714.5 1.534.75 2.448.75v-.56zm-2.128-.648c-.621-.436-1.11-1.027-1.462-1.783l-.506.236c.39.837.94 1.508 1.648 2.005l.32-.458zm-1.46-1.78c-.353-.774-.533-1.666-.533-2.681h-.558c0 1.082.191 2.054.582 2.912l.508-.231zm-.533-2.681V15.32h-.558v15.905h.558zm0-15.905c0-.361.113-.636.328-.85l-.393-.396c-.333.33-.493.754-.493 1.246h.558zm.328-.85c.216-.214.494-.327.86-.327v-.558c-.495 0-.921.159-1.253.489l.393.396zm.86-.327c.365 0 .643.113.859.327l.393-.396c-.332-.33-.758-.49-1.252-.49v.56zm.859.327c.215.214.328.489.328.85h.558c0-.492-.16-.916-.493-1.246l-.393.396zm.328.85v15.905h.558V15.32h-.558zm0 15.905c0 .752.143 1.398.449 1.918l.482-.283c-.242-.411-.373-.95-.373-1.635h-.558zm.449 1.918c.309.526.741.837 1.297.837v-.558c-.305 0-.577-.156-.815-.562l-.482.283zm1.297.837h.733v-.558h-.733v.558zm.733 0c.318 0 .55.107.727.311l.423-.365c-.293-.34-.686-.505-1.15-.505v.56zm.735.32c.198.212.306.49.306.857h.558c0-.486-.146-.908-.456-1.24l-.408.383zm.306.857c0 .33-.137.6-.443.824l.33.45c.437-.32.671-.75.671-1.274h-.558zm-.443.824c-.312.228-.729.353-1.272.353v.56c.63 0 1.17-.147 1.602-.462l-.33-.451zm-1.272.353h-.06v.56h.06v-.56zm9.96.117c-1.584 0-2.985-.331-4.21-.986l-.264.492c1.317.704 2.81 1.053 4.473 1.053v-.559zm-4.206-.984a7.588 7.588 0 01-2.86-2.755l-.478.288a8.145 8.145 0 003.066 2.955l.272-.488zm-2.857-2.75c-.677-1.176-1.019-2.526-1.019-4.055h-.558c0 1.616.362 3.063 1.093 4.334l.484-.28zm-1.019-4.055c0-1.553.324-2.903.963-4.06l-.49-.27c-.69 1.251-1.031 2.697-1.031 4.33h.558zm.962-4.059a7.066 7.066 0 012.71-2.748l-.276-.485a7.624 7.624 0 00-2.921 2.96l.487.273zm2.714-2.75c1.145-.67 2.464-1.01 3.965-1.01v-.559c-1.588 0-3.007.36-4.248 1.087l.283.482zm3.965-1.01c1.483 0 2.74.33 3.783.978l.295-.475c-1.147-.712-2.51-1.062-4.078-1.062v.56zm3.787.98c1.047.63 1.84 1.511 2.385 2.648l.504-.241c-.59-1.233-1.458-2.197-2.601-2.886l-.288.479zm2.388 2.653c.563 1.12.85 2.425.85 3.923h.558c0-1.57-.3-2.964-.91-4.174l-.498.251zm.85 3.923c0 .297-.1.536-.3.734l.395.397c.308-.307.463-.69.463-1.13h-.558zm-.291.727c-.196.179-.448.276-.78.276v.558c.452 0 .845-.136 1.158-.422l-.378-.412zm-.78.276H81.64v.558h11.82v-.558zm-11.541.28V27.35h-.559v2.33h.559zm-.28-2.052h11.734v-.559H81.639v.56zm11.577-.51l-1.203.815.314.463 1.203-.816-.314-.462zm-.767 1.04c-.02-1.005-.223-1.91-.615-2.71l-.501.247c.35.716.539 1.539.558 2.475l.558-.011zm-.614-2.707a4.692 4.692 0 00-1.683-1.948l-.305.468a4.123 4.123 0 011.484 1.722l.504-.242zm-1.683-1.948c-.738-.482-1.625-.715-2.646-.715v.558c.934 0 1.71.213 2.34.625l.306-.468zm-2.646-.715c-1.156 0-2.166.252-3.02.768l.29.478c.75-.454 1.657-.688 2.73-.688v-.558zm-3.022.77a4.994 4.994 0 00-1.894 2.126l.504.242a4.435 4.435 0 011.685-1.894l-.295-.474zm-1.893 2.124c-.432.878-.644 1.873-.644 2.978h.558c0-1.032.199-1.94.588-2.732l-.502-.246zm-.644 2.978c0 1.112.255 2.113.771 2.995l.483-.282c-.462-.788-.695-1.69-.695-2.713h-.56zm.771 2.995a5.62 5.62 0 002.128 2.083l.275-.486a5.06 5.06 0 01-1.92-1.879l-.483.282zm2.128 2.083c.908.512 1.944.765 3.1.765v-.56c-1.073 0-2.012-.232-2.825-.691l-.275.486zm3.1.765c.64 0 1.286-.113 1.938-.336l-.18-.529c-.6.205-1.185.306-1.758.306v.559zm1.943-.337c.662-.24 1.207-.513 1.627-.826l-.334-.448c-.362.27-.854.52-1.483.748l.19.526zm1.624-.824c.25-.182.506-.267.774-.267v-.558c-.397 0-.766.129-1.103.373l.33.452zm.79-.267a.975.975 0 01.714.226l.36-.428a1.533 1.533 0 00-1.105-.356l.03.558zm.71.222c.291.256.418.511.433.767l.558-.031c-.025-.443-.25-.829-.623-1.156l-.368.42zm.433.767c.013.238-.085.456-.36.665l.338.445c.39-.296.605-.68.58-1.141l-.558.031zm-.364.668c-.634.5-1.434.914-2.408 1.236l.176.53c1.02-.338 1.883-.779 2.578-1.327l-.346-.439zm-2.41 1.236c-.952.322-1.86.481-2.726.481v.559c.934 0 1.903-.172 2.906-.51l-.18-.53zm12.456.481c-1.38 0-2.609-.337-3.696-1.007l-.293.475c1.181.729 2.513 1.09 3.989 1.09v-.558zm-3.693-1.005a7.558 7.558 0 01-2.604-2.783l-.489.27a8.116 8.116 0 002.794 2.985l.299-.472zm-2.601-2.778c-.622-1.18-.936-2.513-.936-4.006h-.559c0 1.574.332 2.998 1 4.266l.495-.26zm-.936-4.006c0-1.49.341-2.82 1.019-3.997l-.485-.28c-.73 1.27-1.093 2.698-1.093 4.277h.559zm1.017-3.994a7.647 7.647 0 012.803-2.784l-.279-.485a8.205 8.205 0 00-3.005 2.984l.481.285zm2.804-2.785c1.187-.692 2.516-1.04 3.996-1.04v-.559c-1.572 0-2.999.371-4.277 1.116l.281.483zm3.996-1.04c1.479 0 2.798.348 3.964 1.039l.285-.48c-1.259-.747-2.678-1.118-4.249-1.118v.56zm3.967 1.04a7.431 7.431 0 012.772 2.782l.484-.28a7.984 7.984 0 00-2.977-2.986l-.279.485zm2.773 2.785c.697 1.176 1.047 2.505 1.047 3.994h.559c0-1.58-.374-3.01-1.125-4.279l-.481.285zm1.326 3.714h-1.144v.559h1.144v-.559zm-1.423.28c0 1.492-.323 2.824-.964 4.002l.491.267c.69-1.268 1.032-2.693 1.032-4.27h-.559zm-.964 4.004a7.324 7.324 0 01-2.573 2.78l.299.472a7.884 7.884 0 002.766-2.988l-.492-.264zm-2.57 2.778c-1.087.67-2.316 1.007-3.696 1.007v.559c1.475 0 2.808-.362 3.989-1.09l-.293-.476zm-3.109-1.056c1.042 0 1.982-.244 2.812-.738l-.286-.48c-.735.438-1.574.66-2.526.66v.558zm2.816-.741a5.509 5.509 0 001.946-2.054l-.49-.27a4.95 4.95 0 01-1.75 1.85l.294.474zm1.947-2.056c.473-.88.708-1.858.708-2.93h-.559c0 .988-.215 1.874-.641 2.665l.492.264zm.708-2.93c0-1.09-.234-2.069-.709-2.93l-.49.27c.425.768.64 1.653.64 2.66h.559zm-.708-2.928a5.24 5.24 0 00-1.951-2.06l-.286.48a4.677 4.677 0 011.745 1.845l.492-.265zm-1.947-2.057c-.83-.515-1.772-.77-2.816-.77v.559c.949 0 1.787.23 2.522.686l.294-.475zm-2.816-.77a5.33 5.33 0 00-2.814.769l.289.477a4.776 4.776 0 012.525-.687v-.559zm-2.813.768a5.45 5.45 0 00-1.978 2.054l.487.274a4.888 4.888 0 011.777-1.848l-.286-.48zm-1.979 2.056c-.475.862-.71 1.842-.71 2.932h.56c0-1.008.215-1.893.64-2.662l-.49-.27zm-.71 2.932c0 1.071.235 2.05.709 2.928l.492-.264c-.426-.791-.641-1.677-.641-2.664h-.56zm.713 2.935a5.747 5.747 0 001.972 2.05l.295-.475a5.179 5.179 0 01-1.783-1.853l-.484.278zm1.979 2.054c.847.492 1.785.737 2.81.737v-.559c-.932 0-1.773-.221-2.529-.66l-.281.482zm9.38 2.713c-.365 0-.658-.114-.895-.334l-.38.41c.349.324.78.482 1.275.482v-.558zm-.882-.32a1.237 1.237 0 01-.334-.887h-.559c0 .493.16.923.486 1.27l.407-.383zm-.334-.887v-4.456h-.559v4.456h.559zm-.005-4.407l.558-3.087-.55-.1-.558 3.088.55.1zm.172-2.88l2.435 1.048.221-.513-2.435-1.049-.221.513zm2.266.792v6.495h.559v-6.495h-.559zm0 6.495c0 .356-.119.643-.358.88l.394.396a1.74 1.74 0 00.523-1.276h-.559zm-.358.88c-.215.214-.493.327-.859.327v.558c.495 0 .921-.159 1.253-.489l-.394-.396zm17.029.327a1.26 1.26 0 01-.896-.334l-.379.41c.349.324.78.482 1.275.482v-.558zm-.882-.32a1.238 1.238 0 01-.335-.887h-.559c0 .493.161.923.487 1.27l.407-.383zm-.335-.887v-7.165h-.559v7.165h.559zm0-7.165c0-1.14-.211-2.096-.654-2.85l-.482.282c.378.643.577 1.493.577 2.568h.559zm-.654-2.85a4.038 4.038 0 00-1.795-1.656l-.237.506a3.48 3.48 0 011.55 1.432l.482-.283zm-1.786-1.652c-.73-.373-1.567-.555-2.503-.555v.559c.863 0 1.61.167 2.249.494l.254-.498zm-2.503-.555c-.86 0-1.646.173-2.354.524l.249.5c.622-.308 1.322-.465 2.105-.465v-.559zm-2.354.524c-.703.35-1.269.826-1.689 1.431l.459.319a3.825 3.825 0 011.479-1.25l-.249-.5zm-1.686 1.428c-.428.594-.64 1.283-.64 2.056h.559c0-.665.18-1.238.534-1.73l-.453-.326zm-.36 1.777h-1.848v.558h1.848v-.558zm-1.569.279c0-1.177.282-2.213.839-3.116l-.476-.293c-.616 1-.922 2.139-.922 3.409h.559zm.838-3.115a6.238 6.238 0 012.36-2.203l-.267-.491a6.79 6.79 0 00-2.567 2.399l.474.295zm2.36-2.203c.992-.54 2.109-.811 3.358-.811v-.559c-1.333 0-2.543.291-3.625.879l.267.49zm3.358-.811c1.307 0 2.463.282 3.473.84l.269-.49c-1.102-.608-2.352-.909-3.742-.909v.559zm3.478.842c1.025.537 1.826 1.331 2.407 2.392l.49-.269c-.631-1.153-1.512-2.028-2.638-2.618l-.259.495zm2.409 2.395c.597 1.055.902 2.364.902 3.94h.559c0-1.647-.32-3.056-.975-4.215l-.486.275zm.902 3.94v7.166h.559v-7.165h-.559zm0 7.166c0 .356-.118.643-.357.88l.394.396c.348-.345.522-.777.522-1.276h-.559zm-.357.88c-.215.214-.493.327-.859.327v.558c.495 0 .92-.159 1.253-.489l-.394-.396zm-12.915.327a1.26 1.26 0 01-.896-.334l-.379.41c.349.324.78.482 1.275.482v-.558zm-.882-.32a1.238 1.238 0 01-.335-.887h-.559c0 .493.161.923.487 1.27l.407-.383zm-.335-.887V22.166h-.559v12.991h.559zm0-12.991c0-.385.116-.669.328-.88l-.393-.396c-.335.332-.494.767-.494 1.276h.559zm.321-.873c.238-.22.53-.333.896-.333v-.56c-.495 0-.926.16-1.275.483l.379.41zm.896-.333c.389 0 .676.115.888.326l.394-.396c-.335-.333-.772-.49-1.282-.49v.56zm.888.326c.213.211.328.495.328.88h.559c0-.509-.158-.944-.493-1.276l-.394.396zm.328.88v12.991h.559V22.166h-.559zm0 12.991c0 .362-.113.651-.334.887l.407.383c.326-.347.486-.777.486-1.27h-.559zm-.328.88c-.212.211-.499.327-.888.327v.558c.51 0 .947-.156 1.282-.489l-.394-.396z" fill="#222" mask="url(#a)"/><path d="M96.659 12.251h0l.004.004a.88.88 0 00.64.26h5.168a.88.88 0 00.64-.26.854.854 0 00.261-.623.837.837 0 00-.259-.607.857.857 0 00-.642-.275h-3.523l2.941-3.316h.001c.2-.228.396-.483.585-.766.202-.287.367-.59.493-.906.138-.324.208-.647.208-.968 0-.697-.134-1.309-.411-1.829a2.882 2.882 0 00-1.143-1.208c-.496-.286-1.077-.425-1.735-.425-.652 0-1.246.15-1.777.453h0-.001c-.52.302-.933.717-1.236 1.242-.306.52-.457 1.11-.457 1.767 0 .234.09.44.26.61a.863.863 0 00.627.258.834.834 0 00.628-.261.837.837 0 00.259-.607c0-.334.073-.633.216-.902.154-.28.357-.498.61-.657h.001c.26-.167.548-.25.87-.25.336 0 .614.076.842.222h0l.004.002c.229.139.406.338.532.605.127.268.193.593.193.98 0 .222-.068.466-.215.734h0l-.003.004a4.695 4.695 0 01-.619.882h0l-3.963 4.6a.848.848 0 00-.242.618.88.88 0 00.243.62zm8.948-3.817l2.988-3.904v3.904h-2.988zm-2.376.822h0l.001.01c.023.206.11.388.255.543.161.172.379.25.631.25h4.477v1.573c0 .238.081.447.242.62a.804.804 0 00.603.262.833.833 0 00.63-.263.88.88 0 00.243-.619V10.06h.663a.92.92 0 00.617-.223h0l.005-.004a.778.778 0 00.265-.586c0-.271-.08-.507-.288-.645a1.061 1.061 0 00-.599-.167h-.663V2.228a.926.926 0 00-.225-.628.775.775 0 00-.606-.268.87.87 0 00-.419.104h0l-.006.004a1.106 1.106 0 00-.298.262h0l-.003.003-5.349 6.963h0l-.002.003a.885.885 0 00-.174.585z" fill="#219653" stroke="#219653" stroke-width=".349"/><mask id="b" maskUnits="userSpaceOnUse" x=".397" y="23.393" width="50" height="13" fill="#000"><path fill="#fff" d="M.397 23.393h50v13h-50z"/><path d="M2.123 35.227a.705.705 0 01-.517-.208.695.695 0 01-.209-.514v-9.39c0-.213.07-.384.21-.514a.705.705 0 01.516-.208c.28 0 .494.13.643.389l4.372 8.697H6.69l4.26-8.697c.15-.26.363-.389.643-.389.205 0 .377.07.517.208.14.13.21.3.21.514v9.39a.673.673 0 01-.224.514.688.688 0 01-.503.208.705.705 0 01-.517-.208.695.695 0 01-.21-.514v-7.393l.28-.07-3.66 7.408c-.158.24-.368.36-.628.36-.308 0-.531-.143-.67-.43L2.57 27.181l.28-.069v7.393c0 .204-.07.375-.21.514a.705.705 0 01-.517.208zm15.693.055c-.68 0-1.29-.166-1.83-.5a3.72 3.72 0 01-1.285-1.373c-.308-.582-.461-1.239-.461-1.97 0-.73.167-1.386.502-1.969a3.775 3.775 0 011.383-1.373 3.837 3.837 0 011.97-.513c.726 0 1.378.17 1.956.513a3.67 3.67 0 011.368 1.373c.345.583.517 1.24.517 1.97h-.545c0 .73-.158 1.387-.474 1.97a3.621 3.621 0 01-1.272 1.373c-.54.333-1.15.499-1.83.499zm.279-1.248c.475 0 .899-.111 1.271-.333a2.49 2.49 0 00.88-.93 2.76 2.76 0 00.321-1.331c0-.5-.107-.944-.321-1.332a2.36 2.36 0 00-.88-.93 2.36 2.36 0 00-1.271-.346c-.466 0-.89.116-1.271.347a2.46 2.46 0 00-.894.93 2.712 2.712 0 00-.321 1.33c0 .49.107.935.32 1.332.224.389.522.698.895.93a2.48 2.48 0 001.27.333zm3.129 1.206a.732.732 0 01-.517-.194.72.72 0 01-.196-.513v-2.122l.266-1.47 1.16.499v3.093c0 .203-.07.374-.21.513a.683.683 0 01-.503.194zm5.263.042a5.495 5.495 0 01-1.816-.291c-.55-.204-.977-.458-1.285-.763a.613.613 0 01-.181-.5.696.696 0 01.279-.471c.186-.148.368-.208.545-.18a.732.732 0 01.475.235c.158.176.41.343.754.5.354.148.745.222 1.173.222.54 0 .95-.088 1.23-.264.288-.176.437-.402.446-.68.01-.277-.125-.517-.405-.72-.27-.204-.768-.37-1.494-.5-.94-.185-1.625-.463-2.054-.832-.419-.37-.628-.823-.628-1.36 0-.472.14-.86.419-1.165a2.46 2.46 0 011.075-.694 4.018 4.018 0 011.37-.235c.614 0 1.159.097 1.634.29.475.195.852.463 1.131.805a.65.65 0 01.182.472.531.531 0 01-.238.402.689.689 0 01-.53.097 1.004 1.004 0 01-.517-.25 1.906 1.906 0 00-.755-.457 3.184 3.184 0 00-.936-.125c-.41 0-.759.07-1.047.208-.28.139-.42.342-.42.61 0 .167.043.32.127.458.093.13.27.25.53.36.261.103.643.204 1.146.306.698.139 1.248.314 1.648.527.41.213.703.463.88.75.177.277.265.6.265.97a2 2 0 01-.349 1.151c-.223.343-.559.615-1.006.819-.437.203-.987.305-1.648.305zm7.235-.055a2.34 2.34 0 01-1.257-.347 2.542 2.542 0 01-.88-.971 2.902 2.902 0 01-.321-1.373v-6.617c0-.203.065-.37.195-.5a.683.683 0 01.503-.193c.205 0 .373.064.503.194s.196.296.196.5v6.616c0 .37.102.68.307.929.205.25.456.374.754.374h.475a.53.53 0 01.42.195c.12.13.18.296.18.499s-.078.37-.237.5c-.149.129-.344.194-.586.194h-.252zm-3.1-6.118a.675.675 0 01-.476-.166.541.541 0 01-.181-.416c0-.185.06-.333.181-.444a.675.675 0 01.475-.166h3.227c.196 0 .354.055.475.166a.573.573 0 01.181.444c0 .166-.06.305-.181.416a.675.675 0 01-.475.166h-3.227zm9.168 6.173c-.773 0-1.462-.162-2.068-.485a3.746 3.746 0 01-1.41-1.36c-.336-.582-.503-1.248-.503-1.997 0-.759.158-1.424.475-1.998a3.498 3.498 0 011.34-1.359c.569-.333 1.22-.5 1.956-.5.726 0 1.35.163 1.872.486.521.315.917.754 1.187 1.318.28.555.42 1.197.42 1.928a.601.601 0 01-.182.444.656.656 0 01-.461.166h-5.63v-1.11h5.588l-.573.389a2.904 2.904 0 00-.28-1.235 2.102 2.102 0 00-.754-.873c-.326-.213-.721-.32-1.187-.32-.53 0-.987.116-1.369.347-.372.232-.656.55-.852.957a3.05 3.05 0 00-.293 1.36c0 .508.116.961.349 1.36.233.397.554.711.964.942.41.232.88.347 1.41.347.29 0 .583-.05.88-.152a2.88 2.88 0 00.74-.375.746.746 0 01.448-.153.597.597 0 01.433.14c.158.138.242.29.251.457.01.166-.065.31-.223.43-.317.25-.712.453-1.187.61a4.188 4.188 0 01-1.341.236zm5.42-4.799c0-.555.136-1.05.406-1.485a3.108 3.108 0 012.654-1.443c.558 0 .973.093 1.243.278.28.176.386.389.321.638a.547.547 0 01-.168.305.543.543 0 01-.265.125.834.834 0 01-.335-.014c-.596-.12-1.132-.129-1.607-.027-.474.102-.852.291-1.131.569-.27.277-.405.628-.405 1.054h-.712zm.015 4.744c-.224 0-.396-.056-.517-.167-.121-.12-.182-.296-.182-.527v-6.2c0-.222.06-.393.182-.514.12-.12.293-.18.517-.18.232 0 .405.06.516.18.121.111.182.283.182.514v6.2c0 .222-.06.393-.182.513-.111.12-.284.18-.516.18z"/></mask><path d="M2.123 35.227a.705.705 0 01-.517-.208.695.695 0 01-.209-.514v-9.39c0-.213.07-.384.21-.514a.705.705 0 01.516-.208c.28 0 .494.13.643.389l4.372 8.697H6.69l4.26-8.697c.15-.26.363-.389.643-.389.205 0 .377.07.517.208.14.13.21.3.21.514v9.39a.673.673 0 01-.224.514.688.688 0 01-.503.208.705.705 0 01-.517-.208.695.695 0 01-.21-.514v-7.393l.28-.07-3.66 7.408c-.158.24-.368.36-.628.36-.308 0-.531-.143-.67-.43L2.57 27.181l.28-.069v7.393c0 .204-.07.375-.21.514a.705.705 0 01-.517.208zm15.693.055c-.68 0-1.29-.166-1.83-.5a3.72 3.72 0 01-1.285-1.373c-.308-.582-.461-1.239-.461-1.97 0-.73.167-1.386.502-1.969a3.775 3.775 0 011.383-1.373 3.837 3.837 0 011.97-.513c.726 0 1.378.17 1.956.513a3.67 3.67 0 011.368 1.373c.345.583.517 1.24.517 1.97h-.545c0 .73-.158 1.387-.474 1.97a3.621 3.621 0 01-1.272 1.373c-.54.333-1.15.499-1.83.499zm.279-1.248c.475 0 .899-.111 1.271-.333a2.49 2.49 0 00.88-.93 2.76 2.76 0 00.321-1.331c0-.5-.107-.944-.321-1.332a2.36 2.36 0 00-.88-.93 2.36 2.36 0 00-1.271-.346c-.466 0-.89.116-1.271.347a2.46 2.46 0 00-.894.93 2.712 2.712 0 00-.321 1.33c0 .49.107.935.32 1.332.224.389.522.698.895.93a2.48 2.48 0 001.27.333zm3.129 1.206a.732.732 0 01-.517-.194.72.72 0 01-.196-.513v-2.122l.266-1.47 1.16.499v3.093c0 .203-.07.374-.21.513a.683.683 0 01-.503.194zm5.263.042a5.495 5.495 0 01-1.816-.291c-.55-.204-.977-.458-1.285-.763a.613.613 0 01-.181-.5.696.696 0 01.279-.471c.186-.148.368-.208.545-.18a.732.732 0 01.475.235c.158.176.41.343.754.5.354.148.745.222 1.173.222.54 0 .95-.088 1.23-.264.288-.176.437-.402.446-.68.01-.277-.125-.517-.405-.72-.27-.204-.768-.37-1.494-.5-.94-.185-1.625-.463-2.054-.832-.419-.37-.628-.823-.628-1.36 0-.472.14-.86.419-1.165a2.46 2.46 0 011.075-.694 4.018 4.018 0 011.37-.235c.614 0 1.159.097 1.634.29.475.195.852.463 1.131.805a.65.65 0 01.182.472.531.531 0 01-.238.402.689.689 0 01-.53.097 1.004 1.004 0 01-.517-.25 1.906 1.906 0 00-.755-.457 3.184 3.184 0 00-.936-.125c-.41 0-.759.07-1.047.208-.28.139-.42.342-.42.61 0 .167.043.32.127.458.093.13.27.25.53.36.261.103.643.204 1.146.306.698.139 1.248.314 1.648.527.41.213.703.463.88.75.177.277.265.6.265.97a2 2 0 01-.349 1.151c-.223.343-.559.615-1.006.819-.437.203-.987.305-1.648.305zm7.235-.055a2.34 2.34 0 01-1.257-.347 2.542 2.542 0 01-.88-.971 2.902 2.902 0 01-.321-1.373v-6.617c0-.203.065-.37.195-.5a.683.683 0 01.503-.193c.205 0 .373.064.503.194s.196.296.196.5v6.616c0 .37.102.68.307.929.205.25.456.374.754.374h.475a.53.53 0 01.42.195c.12.13.18.296.18.499s-.078.37-.237.5c-.149.129-.344.194-.586.194h-.252zm-3.1-6.118a.675.675 0 01-.476-.166.541.541 0 01-.181-.416c0-.185.06-.333.181-.444a.675.675 0 01.475-.166h3.227c.196 0 .354.055.475.166a.573.573 0 01.181.444c0 .166-.06.305-.181.416a.675.675 0 01-.475.166h-3.227zm9.168 6.173c-.773 0-1.462-.162-2.068-.485a3.746 3.746 0 01-1.41-1.36c-.336-.582-.503-1.248-.503-1.997 0-.759.158-1.424.475-1.998a3.498 3.498 0 011.34-1.359c.569-.333 1.22-.5 1.956-.5.726 0 1.35.163 1.872.486.521.315.917.754 1.187 1.318.28.555.42 1.197.42 1.928a.601.601 0 01-.182.444.656.656 0 01-.461.166h-5.63v-1.11h5.588l-.573.389a2.904 2.904 0 00-.28-1.235 2.102 2.102 0 00-.754-.873c-.326-.213-.721-.32-1.187-.32-.53 0-.987.116-1.369.347-.372.232-.656.55-.852.957a3.05 3.05 0 00-.293 1.36c0 .508.116.961.349 1.36.233.397.554.711.964.942.41.232.88.347 1.41.347.29 0 .583-.05.88-.152a2.88 2.88 0 00.74-.375.746.746 0 01.448-.153.597.597 0 01.433.14c.158.138.242.29.251.457.01.166-.065.31-.223.43-.317.25-.712.453-1.187.61a4.188 4.188 0 01-1.341.236zm5.42-4.799c0-.555.136-1.05.406-1.485a3.108 3.108 0 012.654-1.443c.558 0 .973.093 1.243.278.28.176.386.389.321.638a.547.547 0 01-.168.305.543.543 0 01-.265.125.834.834 0 01-.335-.014c-.596-.12-1.132-.129-1.607-.027-.474.102-.852.291-1.131.569-.27.277-.405.628-.405 1.054h-.712zm.015 4.744c-.224 0-.396-.056-.517-.167-.121-.12-.182-.296-.182-.527v-6.2c0-.222.06-.393.182-.514.12-.12.293-.18.517-.18.232 0 .405.06.516.18.121.111.182.283.182.514v6.2c0 .222-.06.393-.182.513-.111.12-.284.18-.516.18z" fill="#219653"/><path d="M1.607 35.019l-.197.198.197-.198zm0-10.418l.19.205.006-.006-.196-.199zm1.159.18l.25-.125-.004-.007-.004-.007-.242.14zm4.372 8.698v.28h.453l-.203-.406-.25.126zm-.447 0l-.25-.123-.198.402h.448v-.28zm4.26-8.697l-.242-.14-.005.008-.004.009.251.123zm1.16-.18l-.197.198.007.006.19-.205zm-.014 10.417l-.19-.205-.007.006.197.199zm-1.23-7.907l-.067-.271-.212.052v.219h.28zm.28-.07l.25.124.267-.54-.585.145.068.272zm-3.66 7.408l.233.153.01-.014.008-.015-.25-.124zm-1.299-.07l.251-.122-.001-.003-.25.125zM2.57 27.181l-.067-.27-.34.083.158.313.25-.126zm.28-.069h.279v-.357l-.347.086.068.271zm13.136 7.67l-.15.237.003.002.147-.238zM14.7 33.41l-.248.13.003.005.245-.135zm.041-3.939l-.24-.142-.002.003.242.14zm1.383-1.373l.14.242h.001l-.14-.242zm3.925 0l-.142.24.003.002.14-.242zm1.37 1.373l-.243.14.002.002.24-.142zm-.029 1.97v-.28h-.279v.28h.28zm-.474 1.97l-.246-.134v.002l.245.131zm-1.272 1.373l.147.237.003-.001-.15-.236zm-.279-1.082l.143.24.004-.003-.147-.237zm.88-.93l.245.135.001-.002-.246-.133zm0-2.663l-.246.133.001.002.245-.135zm-.88-.93l-.147.238.004.003.143-.24zm-2.542 0l.143.24h.002l-.145-.24zm-.894.93l-.244-.137v.002l.244.135zm0 2.663l-.246.133.004.007.242-.14zm.894.93l-.148.237.007.004.14-.241zm3.883 1.345l-.204.191.007.008.007.006.19-.205zm-.196-2.635l-.274-.05-.005.025v.025h.28zm.266-1.47l.11-.257-.323-.14-.062.347.275.05zm.95 4.105l.197.198-.197-.198zm2.944-.055l-.097.262.005.002.092-.264zm-1.285-.763l-.203.192.006.006.197-.198zm-.181-.5l-.277-.04-.001.012.278.028zm.279-.471l.169.222.005-.003-.174-.22zm.545-.18l-.044.276h.008l.008.002.028-.278zm.475.235l.207-.187-.004-.004-.203.191zm.754.5l-.116.254.008.003.108-.257zm2.402-.042l-.145-.239-.003.003.148.236zm.447-.68l.28.01-.28-.01zm-.405-.72l-.168.222.004.003.164-.226zm-1.494-.5l-.054.274h.005l.049-.274zm-2.054-.832l-.184.209.002.002.182-.211zm-.21-2.525l.207.189.003-.004-.21-.185zm1.076-.694l.09.265.005-.002-.095-.263zm3.004.056l.105-.259-.105.259zm1.131.804l-.216.177.006.008.21-.185zm.182.472l.279.017v-.001l-.28-.016zm-.238.402l.158.231.01-.007-.168-.224zm-.53.097l-.05.275.05-.275zm-.517-.25l-.193.203.003.003.19-.205zm-.755-.457l-.082.267.082-.267zm-1.983.083l-.121-.252-.003.002.124.25zm-.294 1.068l-.239.145.006.01.007.008.226-.163zm.531.36l-.11.258.009.003.101-.26zm1.146.306l-.056.274h.001l.055-.274zm1.648.527l-.131.247.002.001.129-.248zm.88.75l-.238.146.002.003.236-.15zm-.084 2.121l-.23-.157-.004.005.234.152zm-1.006.819l-.115-.254h-.002l.117.254zm4.33-.097l-.151.234.004.003.147-.237zm-.88-.971l-.247.13.247-.13zm.88-8.49l.197-.198-.197.199zm.503 8.046l.216-.177-.216.177zm1.648.569l-.211.182.007.008.204-.19zm-.056.998l-.177-.216-.006.005.183.211zm-4.414-6.089l-.188.206.188-.206zm0-.86l-.188-.206.188.206zm4.177 0l.189-.206-.19.206zm0 .86l.189.206-.19-.206zm3.4 5.854l-.137.244.005.002.131-.246zm-1.411-1.36l-.243.14.003.004.24-.144zm-.028-3.995l-.244-.136-.001.001.245.135zm1.34-1.359l.139.243.003-.002-.142-.241zm3.828-.014l-.148.238.004.001.144-.239zm1.187 1.318l-.252.12.003.005.25-.125zm.238 2.372l.188.206.008-.008-.196-.198zm-6.09.166h-.28v.28h.28v-.28zm0-1.11v-.279h-.28v.28h.28zm5.587 0l.157.232.752-.51h-.91v.279zm-.573.389l-.28.006.011.514.426-.289-.157-.231zm-.28-1.235l-.251.121v.003l.252-.124zm-3.31-.846l-.145-.239-.002.002.147.237zm-.852.957l.25.124.002-.003-.252-.12zm.056 2.72l-.241.14.241-.14zm.964.942l.137-.243-.137.243zm2.29.195l.09.264.005-.002-.094-.262zm.74-.375l-.164-.226-.002.002.167.224zm.448-.153v.28h.015l-.015-.28zm.433.14l.184-.211-.004-.004-.18.214zm.251.457l.28-.016-.28.016zm-.223.43l-.17-.223-.003.004.173.219zm-1.187.61l-.088-.265h-.002l.09.265zm4.08-4.563h-.28v.279h.28v-.28zm.405-1.485l-.237-.148v.001l.237.148zm1.117-1.054l-.136-.244.136.244zm2.78-.11l-.158.23.01.006.148-.237zm.321.637l-.27-.07-.003.011.273.06zm-.168.305l.184.211.001-.001-.184-.21zm-.265.125l-.05-.274.05.274zm-.335-.014l.062-.272-.007-.001-.055.273zm-2.738.541l-.197-.198-.003.004.2.194zm-.405 1.055v.279h.28v-.28h-.28zm-1.215 4.577l-.197.198.008.008.189-.206zm0-7.24l.197.198-.197-.199zm1.033 0l-.204.19.007.008.009.007.188-.206zm0 7.226l-.197-.198-.007.008.204.19zm-43.618-.099a.426.426 0 01-.32-.127l-.393.397a.982.982 0 00.713.289v-.559zm-.32-.127a.416.416 0 01-.127-.315h-.558c0 .275.097.519.292.712l.393-.397zm-.127-.315v-9.39h-.558v9.39h.558zm0-9.39c0-.145.045-.239.12-.309l-.38-.41a.945.945 0 00-.298.719h.558zm.127-.315a.426.426 0 01.32-.127v-.56a.984.984 0 00-.713.29l.393.397zm.32-.127c.172 0 .297.068.4.248l.485-.279c-.195-.338-.497-.528-.885-.528v.559zm.393.234l4.372 8.697.5-.25-4.373-8.698-.499.251zM7.138 33.2H6.69v.56h.447v-.56zm-.196.403l4.26-8.697-.502-.246-4.26 8.697.502.246zm4.251-8.681c.104-.18.23-.248.4-.248v-.56c-.387 0-.69.191-.884.53l.484.278zm.4-.248c.135 0 .236.042.32.127l.394-.397a.984.984 0 00-.713-.29v.56zm.328.133c.075.07.12.164.12.309h.559c0-.28-.096-.53-.3-.718l-.38.41zm.12.309v9.39h.559v-9.39h-.56zm0 9.39a.395.395 0 01-.135.309l.381.409a.952.952 0 00.313-.718h-.56zm-.141.315a.41.41 0 01-.306.127v.559c.27 0 .508-.099.7-.29l-.394-.396zm-.306.127a.426.426 0 01-.32-.127l-.394.397a.983.983 0 00.714.289v-.559zm-.32-.127a.416.416 0 01-.127-.315h-.559c0 .275.098.519.292.712l.394-.397zm-.127-.315v-7.393h-.559v7.393h.559zm-.212-7.122l.28-.07-.136-.541-.279.069.135.542zm-.039-.464l-3.66 7.407.502.248 3.66-7.408-.502-.247zm-3.642 7.377c-.113.172-.24.235-.395.235v.559c.365 0 .658-.177.861-.487l-.466-.307zm-.395.235a.444.444 0 01-.248-.063.495.495 0 01-.172-.21l-.502.245c.088.18.21.33.373.435a1 1 0 00.549.152v-.559zm-.421-.276l-3.618-7.2-.5.252 3.618 7.199.5-.251zm-3.8-6.803l.279-.069-.135-.542-.279.07.135.541zm-.068-.34v7.393h.559v-7.393H2.57zm0 7.393c0 .132-.042.23-.127.315l.394.397a.974.974 0 00.292-.712H2.57zm-.127.315a.426.426 0 01-.32.127v.559a.98.98 0 00.714-.29l-.394-.396zm15.373.183a3.14 3.14 0 01-1.684-.458l-.293.475a3.699 3.699 0 001.977.541v-.558zm-1.68-.456a3.453 3.453 0 01-1.19-1.273l-.49.27a4.01 4.01 0 001.38 1.475l.3-.472zm-1.188-1.268c-.284-.538-.429-1.15-.429-1.84h-.559c0 .772.163 1.474.493 2.1l.495-.26zm-.429-1.84c0-.685.157-1.293.466-1.83l-.485-.278c-.361.628-.54 1.334-.54 2.109h.56zm.464-1.827c.32-.542.747-.965 1.282-1.273l-.28-.484a4.06 4.06 0 00-1.483 1.473l.481.284zm1.283-1.274a3.558 3.558 0 011.829-.475v-.559c-.772 0-1.478.183-2.11.552l.281.482zm1.829-.475c.68 0 1.282.16 1.813.474l.285-.48c-.624-.37-1.326-.553-2.098-.553v.559zm1.816.476c.534.308.955.73 1.266 1.27l.485-.278a3.95 3.95 0 00-1.472-1.476l-.28.484zm1.268 1.273c.317.536.478 1.143.478 1.828h.559c0-.777-.184-1.483-.556-2.112l-.481.284zm.757 1.548h-.545v.56h.545v-.56zm-.824.28c0 .689-.149 1.299-.44 1.836l.49.267c.341-.628.509-1.33.509-2.103h-.559zm-.442 1.838a3.343 3.343 0 01-1.174 1.269l.299.472a3.9 3.9 0 001.368-1.478l-.493-.263zm-1.17 1.266a3.137 3.137 0 01-1.683.458v.558c.727 0 1.389-.178 1.976-.54l-.293-.476zm-1.404-.232c.52 0 .994-.122 1.414-.372l-.286-.48a2.156 2.156 0 01-1.128.293v.559zm1.418-.375a2.77 2.77 0 00.978-1.032l-.49-.27a2.212 2.212 0 01-.782.827l.294.475zm.979-1.034c.238-.442.355-.932.355-1.464h-.56c0 .448-.096.845-.287 1.199l.492.265zm.355-1.464a2.99 2.99 0 00-.356-1.467l-.49.27c.19.342.287.739.287 1.197h.559zm-.355-1.464a2.639 2.639 0 00-.983-1.037l-.286.48c.327.195.586.466.777.822l.492-.265zm-.979-1.035a2.64 2.64 0 00-1.418-.388v.558c.427 0 .8.104 1.124.305l.294-.475zm-1.418-.388c-.514 0-.988.128-1.416.387l.29.478a2.122 2.122 0 011.126-.307v-.558zm-1.414.386a2.74 2.74 0 00-.995 1.032l.487.274c.201-.357.466-.63.794-.826l-.286-.48zm-.996 1.034a2.99 2.99 0 00-.356 1.467h.559c0-.458.098-.855.286-1.197l-.489-.27zm-.356 1.467c0 .532.117 1.022.355 1.464l.492-.265a2.484 2.484 0 01-.288-1.2h-.559zm.359 1.47c.246.428.576.772.989 1.028l.294-.475a2.324 2.324 0 01-.799-.831l-.484.279zm.995 1.032c.427.248.9.371 1.412.371v-.559c-.42 0-.794-.099-1.13-.295l-.282.483zm4.54 1.019a.453.453 0 01-.326-.12l-.38.41c.195.181.437.269.707.269v-.559zm-.312-.106a.442.442 0 01-.12-.322h-.559a1 1 0 00.271.704l.408-.382zm-.12-.322v-2.122h-.559v2.122h.559zm-.005-2.073l.266-1.47-.55-.1-.265 1.471.55.1zm-.12-1.263l1.16.5.22-.514-1.159-.5-.22.514zm.99.243v3.093h.56V31.44h-.56zm0 3.093c0 .132-.041.23-.126.315l.393.396a.973.973 0 00.293-.711h-.56zm-.126.315a.405.405 0 01-.306.113v.559c.27 0 .51-.088.7-.276l-.394-.396zm4.957.155a5.215 5.215 0 01-1.724-.276l-.184.528a5.775 5.775 0 001.908.306v-.558zm-1.719-.274c-.524-.194-.914-.43-1.185-.7l-.394.397c.344.341.81.614 1.385.827l.194-.524zm-1.179-.693c-.09-.095-.116-.184-.106-.28l-.556-.056a.892.892 0 00.256.72l.406-.384zm-.108-.268a.418.418 0 01.172-.289l-.338-.445a.975.975 0 00-.387.655l.553.08zm.177-.292c.146-.117.25-.136.327-.123l.087-.553c-.277-.043-.535.058-.762.238l.348.438zm.343-.121a.453.453 0 01.3.149l.406-.383a1.011 1.011 0 00-.65-.323l-.056.556zm.295.144c.195.216.485.402.846.567l.232-.509c-.328-.15-.54-.296-.663-.432l-.415.374zm.854.57c.392.164.82.244 1.281.244v-.559c-.395 0-.75-.068-1.065-.2l-.216.515zm1.281.244c.563 0 1.034-.09 1.378-.306l-.297-.473c-.215.135-.563.22-1.08.22v.559zm1.375-.304c.349-.213.567-.516.58-.91l-.558-.018c-.005.162-.084.311-.313.45l.29.478zm.58-.91c.014-.392-.186-.713-.52-.956l-.328.452c.225.164.296.324.29.486l.559.019zm-.515-.953c-.328-.247-.884-.421-1.614-.551l-.098.55c.722.129 1.162.287 1.375.447l.337-.446zm-1.61-.55c-.921-.182-1.55-.447-1.924-.77l-.365.423c.482.417 1.223.706 2.182.895l.108-.548zm-1.922-.768c-.362-.32-.534-.697-.534-1.15h-.558c0 .62.246 1.149.723 1.569l.37-.419zm-.534-1.15c0-.412.12-.73.346-.976l-.412-.378c-.333.364-.492.823-.492 1.354h.558zm.349-.98c.244-.274.56-.48.956-.614l-.179-.53c-.479.163-.88.42-1.195.773l.418.371zm.96-.616a3.752 3.752 0 011.275-.219v-.559c-.506 0-.994.084-1.463.253l.189.525zm1.275-.219c.586 0 1.094.093 1.529.27l.211-.517c-.514-.21-1.096-.312-1.74-.312v.559zm1.529.27c.439.18.775.422 1.02.723l.434-.353c-.314-.384-.732-.678-1.243-.887l-.211.518zm1.027.731c.092.104.117.191.113.271l.558.032a.925.925 0 00-.251-.672l-.42.37zm.113.27c-.004.06-.03.124-.126.195l.334.448a.81.81 0 00.35-.61l-.558-.033zm-.116.189a.414.414 0 01-.324.052l-.1.55a.967.967 0 00.739-.141l-.315-.461zm-.324.052a.725.725 0 01-.377-.18l-.38.41c.183.17.405.275.658.32l.099-.55zm-.374-.177a2.184 2.184 0 00-.864-.522l-.165.534c.223.069.438.197.644.393l.385-.405zm-.864-.522a3.46 3.46 0 00-1.019-.137v.558c.333 0 .616.04.854.113l.165-.534zm-1.019-.137c-.44 0-.833.074-1.168.235l.242.504c.242-.116.547-.18.926-.18v-.56zm-1.171.237a1.08 1.08 0 00-.42.349.888.888 0 00-.155.512h.56a.33.33 0 01.055-.196c.037-.053.1-.11.208-.165l-.248-.5zm-.575.86c0 .216.056.42.166.603l.479-.29a.589.589 0 01-.086-.313h-.559zm.179.621c.138.192.372.337.648.455l.219-.514c-.246-.105-.366-.2-.414-.267l-.453.326zm.656.458c.283.11.683.216 1.191.319l.111-.548c-.498-.1-.861-.198-1.1-.291l-.202.52zm1.192.32c.685.135 1.205.304 1.572.499l.262-.493c-.434-.231-1.013-.414-1.725-.555l-.109.548zm1.574.5c.381.198.629.417.771.648l.476-.293c-.212-.343-.55-.623-.99-.85l-.257.495zm.773.651c.145.228.222.498.222.821h.559c0-.416-.1-.793-.31-1.121l-.47.3zm.222.821c0 .371-.1.7-.3.994l.461.315a2.28 2.28 0 00.398-1.309h-.56zm-.304.999c-.189.29-.479.53-.887.717l.231.508c.485-.22.866-.525 1.124-.92l-.468-.305zm-.89.718c-.39.18-.895.279-1.53.279v.558c.688 0 1.28-.105 1.766-.33l-.235-.508zm5.705.223c-.417 0-.784-.103-1.11-.305l-.294.475c.42.26.89.389 1.404.389v-.559zm-1.105-.302a2.26 2.26 0 01-.785-.866l-.494.26c.236.448.561.808.976 1.075l.303-.469zm-.785-.866a2.624 2.624 0 01-.289-1.243h-.558c0 .549.115 1.052.353 1.503l.494-.26zm-.289-1.243v-6.617h-.558v6.617h.558zm0-6.617c0-.138.042-.23.113-.301l-.393-.396a.952.952 0 00-.279.697h.56zm.113-.301a.405.405 0 01.306-.113v-.559c-.27 0-.51.088-.7.275l.394.397zm.306-.113c.14 0 .234.042.306.113l.394-.396a.962.962 0 00-.7-.276v.559zm.306.113a.395.395 0 01.113.301h.559a.954.954 0 00-.278-.698l-.394.397zm.113.301v6.617h.559v-6.617h-.559zm0 6.617c0 .424.12.8.371 1.106l.432-.354c-.158-.193-.244-.437-.244-.752h-.559zm.371 1.106c.253.308.58.477.97.477v-.559c-.206 0-.381-.081-.538-.272l-.432.354zm.97.477h.475v-.559h-.475v.559zm.475 0c.085 0 .148.028.208.097l.423-.365a.81.81 0 00-.63-.29v.558zm.215.105c.066.07.106.165.106.309h.56a.98.98 0 00-.258-.69l-.408.381zm.106.309c0 .12-.04.206-.135.283l.354.433a.895.895 0 00.34-.716h-.559zm-.14.288c-.088.076-.214.126-.404.126v.559c.293 0 .559-.08.77-.263l-.367-.422zm-.404.126h-.252v.559h.252v-.559zM30.62 28.83c-.14 0-.226-.038-.286-.093l-.377.412c.182.167.412.24.663.24v-.559zm-.286-.093a.263.263 0 01-.09-.21h-.56a.82.82 0 00.273.622l.377-.412zm-.09-.21c0-.118.034-.187.09-.238l-.377-.412a.851.851 0 00-.273.65h.56zm.09-.238c.06-.055.146-.093.286-.093v-.559a.953.953 0 00-.663.24l.377.412zm.286-.093h3.227v-.559H30.62v.559zm3.227 0c.14 0 .226.038.286.093l.378-.412a.953.953 0 00-.664-.24v.559zm.286.093c.056.051.091.12.091.238h.559a.852.852 0 00-.272-.65l-.378.412zm.091.238c0 .09-.028.153-.09.21l.377.412a.82.82 0 00.272-.622h-.559zm-.09.21c-.06.055-.147.093-.287.093v.559a.953.953 0 00.664-.24l-.378-.412zm-.287.093H30.62v.559h3.227v-.559zm5.942 6.173c-.733 0-1.376-.153-1.936-.453l-.263.493c.65.348 1.386.518 2.199.518v-.558zm-1.931-.45a3.466 3.466 0 01-1.308-1.26l-.479.288c.37.616.877 1.103 1.514 1.46l.273-.488zm-1.305-1.255c-.309-.536-.466-1.152-.466-1.858h-.559c0 .792.178 1.507.54 2.137l.485-.28zm-.466-1.858c0-.719.15-1.337.44-1.863l-.489-.27c-.343.621-.51 1.335-.51 2.133h.559zm.44-1.861c.301-.54.712-.955 1.235-1.253l-.277-.486a3.78 3.78 0 00-1.446 1.466l.487.273zm1.238-1.255c.52-.305 1.122-.461 1.814-.461v-.559c-.78 0-1.481.177-2.097.538l.283.482zm1.814-.461c.684 0 1.255.152 1.724.444l.295-.475c-.573-.356-1.25-.528-2.019-.528v.559zm1.728.445a2.75 2.75 0 011.08 1.2l.503-.242a3.308 3.308 0 00-1.295-1.436l-.288.478zm1.082 1.204c.256.51.389 1.108.389 1.803h.558c0-.767-.146-1.454-.448-2.054l-.5.252zm.389 1.803c0 .104-.033.18-.1.246l.394.396a.88.88 0 00.264-.642h-.558zm-.091.238a.378.378 0 01-.272.093v.559c.246 0 .47-.076.65-.24l-.378-.412zm-.272.093h-5.63v.559h5.63v-.56zm-5.35.28v-1.11h-.559v1.11h.559zm-.28-.831h5.588v-.559h-5.588v.559zm5.43-.51l-.572.388.314.462.573-.388-.314-.463zm-.136.613c-.01-.497-.11-.95-.307-1.352l-.502.247c.156.318.242.689.25 1.117l.56-.012zm-.306-1.35a2.38 2.38 0 00-.854-.986l-.305.468c.28.183.499.434.655.76l.504-.241zm-.854-.986c-.38-.248-.83-.365-1.34-.365v.559c.422 0 .762.096 1.035.273l.305-.467zm-1.34-.365c-.572 0-1.08.125-1.514.387l.29.478c.33-.2.735-.306 1.224-.306v-.559zm-1.516.389c-.42.26-.739.62-.957 1.073l.504.242c.173-.36.422-.638.748-.84l-.295-.475zm-.956 1.071a3.32 3.32 0 00-.322 1.483h.56c0-.472.09-.882.264-1.236l-.502-.247zm-.322 1.483c0 .553.127 1.055.388 1.5l.482-.282a2.361 2.361 0 01-.31-1.218h-.56zm.388 1.5c.258.442.616.79 1.068 1.046l.274-.487a2.264 2.264 0 01-.86-.841l-.482.282zm1.068 1.046c.456.257.975.383 1.548.383v-.56c-.49 0-.911-.105-1.274-.31l-.274.487zm1.548.383c.322 0 .645-.057.97-.168l-.18-.529a2.433 2.433 0 01-.79.138v.558zm.974-.17c.324-.116.598-.253.813-.413l-.334-.448a2.64 2.64 0 01-.668.336l.19.525zm.81-.411c.097-.07.19-.1.283-.1v-.558c-.223 0-.429.073-.611.206l.328.452zm.298-.1a.319.319 0 01.238.074l.36-.428a.876.876 0 00-.628-.204l.03.558zm.234.07c.117.103.152.19.156.264l.558-.032c-.014-.26-.147-.477-.346-.652l-.368.42zm.156.264c.004.055-.012.115-.113.191l.338.445c.216-.164.349-.39.333-.668l-.558.032zm-.117.195a3.587 3.587 0 01-1.102.564l.175.53a4.136 4.136 0 001.273-.656l-.346-.438zm-1.104.565a3.909 3.909 0 01-1.251.22v.56c.462 0 .94-.086 1.43-.251l-.179-.53zm4.449-4.3c0-.507.123-.95.363-1.336l-.475-.295c-.3.483-.447 1.03-.447 1.632h.559zm.362-1.335a2.768 2.768 0 011.017-.959l-.272-.488a3.327 3.327 0 00-1.218 1.15l.473.297zm1.017-.959a2.829 2.829 0 011.4-.353v-.559a3.39 3.39 0 00-1.672.424l.272.488zm1.4-.353c.539 0 .885.091 1.086.229l.316-.461c-.34-.232-.822-.327-1.401-.327v.56zm1.095.235c.113.07.166.134.19.18a.2.2 0 01.01.15l.54.142a.757.757 0 00-.052-.543 1.043 1.043 0 00-.39-.402l-.298.473zm.197.342a.27.27 0 01-.08.155l.37.419a.826.826 0 00.256-.456l-.546-.118zm-.078.154a.265.265 0 01-.132.06l.1.55a.822.822 0 00.399-.189l-.367-.421zm-.132.06a.557.557 0 01-.223-.01l-.125.544c.151.034.302.043.448.016l-.1-.55zm-.23-.012c-.624-.126-1.2-.139-1.72-.027l.117.546c.43-.092.925-.086 1.493.028l.11-.547zm-1.72-.027c-.515.11-.944.32-1.27.643l.394.397c.233-.232.558-.4.993-.494l-.117-.546zm-1.273.647c-.326.335-.484.758-.484 1.249h.558c0-.36.112-.64.326-.86l-.4-.39zm-.205.97h-.712v.558h.712v-.559zm-.698 4.743c-.18 0-.275-.044-.328-.093l-.378.412c.189.173.438.24.706.24v-.559zm-.32-.085c-.052-.051-.1-.145-.1-.329h-.558c0 .278.073.536.264.725l.394-.396zm-.1-.329v-6.2h-.558v6.2h.559zm0-6.2c0-.171.046-.262.1-.315l-.394-.397c-.189.187-.264.439-.264.712h.559zm.1-.315c.054-.054.146-.1.32-.1v-.558c-.274 0-.526.074-.714.261l.394.397zm.32-.1c.188 0 .272.049.312.092l.409-.38c-.184-.198-.444-.27-.721-.27v.559zm.328.107c.043.04.09.122.09.308h.56c0-.277-.074-.537-.273-.72l-.377.412zm.09.308v6.2h.56v-6.2h-.56zm0 6.2c0 .17-.045.262-.099.315l.394.396c.189-.187.264-.438.264-.711h-.558zm-.106.323c-.04.043-.124.091-.312.091v.559c.277 0 .537-.072.721-.27l-.41-.38z" fill="#219653" mask="url(#b)"/></svg>