<svg width="21" height="21" viewBox="0 0 21 21" fill="none" xmlns="http://www.w3.org/2000/svg">
<path d="M12.4462 10.9062L20.5856 2.81668C20.7685 2.6044 20.8641 2.33134 20.8532 2.05206C20.8424 1.77278 20.7259 1.50786 20.527 1.31023C20.3282 1.11261 20.0616 0.996832 19.7806 0.986045C19.4996 0.975257 19.2249 1.07025 19.0113 1.25205L10.8719 9.34154L2.73255 1.24095C2.51896 1.05916 2.24422 0.964161 1.96322 0.974949C1.68222 0.985736 1.41566 1.10151 1.21682 1.29914C1.01797 1.49676 0.901484 1.76168 0.89063 2.04096C0.879777 2.32024 0.975357 2.5933 1.15827 2.80558L9.29765 10.9062L1.14711 18.9957C1.03023 19.0951 0.935301 19.2176 0.868285 19.3552C0.801268 19.4929 0.763607 19.6429 0.757668 19.7957C0.751729 19.9485 0.777638 20.1009 0.833771 20.2433C0.889903 20.3857 0.975046 20.515 1.08386 20.6232C1.19267 20.7313 1.32279 20.8159 1.46607 20.8717C1.60934 20.9275 1.76268 20.9533 1.91644 20.9474C2.07021 20.9415 2.22109 20.904 2.35961 20.8374C2.49813 20.7708 2.6213 20.6765 2.72139 20.5603L10.8719 12.4708L19.0113 20.5603C19.2249 20.7421 19.4996 20.8371 19.7806 20.8263C20.0616 20.8155 20.3282 20.6997 20.527 20.5021C20.7259 20.3045 20.8424 20.0396 20.8532 19.7603C20.8641 19.481 20.7685 19.208 20.5856 18.9957L12.4462 10.9062Z" fill="#222222"/>
</svg>
