<svg width="20" height="20" viewBox="0 0 20 20" fill="none" xmlns="http://www.w3.org/2000/svg">
<path fill-rule="evenodd" clip-rule="evenodd" d="M10 0C4.48 0 0 4.48 0 10C0 15.52 4.48 20 10 20C15.52 20 20 15.52 20 10C20 4.48 15.52 0 10 0ZM10.8569 15.9999H9.14258V14.2856H10.8569V15.9999ZM11.8602 10.1457L12.6317 9.35714C13.1202 8.86857 13.4288 8.18286 13.4288 7.42857C13.4288 5.53429 11.8945 4 10.0002 4C8.10594 4 6.57166 5.53429 6.57166 7.42857H8.28594C8.28594 6.48571 9.05737 5.71429 10.0002 5.71429C10.9431 5.71429 11.7145 6.48571 11.7145 7.42857C11.7145 7.9 11.5259 8.32857 11.2088 8.63714L10.1459 9.71714C9.5288 10.3429 9.14308 11.2 9.14308 12.1429V12.5714H10.8574C10.8574 11.2857 11.2431 10.7714 11.8602 10.1457Z" fill="#7198CB"/>
</svg>
