<svg width="30" height="30" viewBox="0 0 30 30" fill="none" xmlns="http://www.w3.org/2000/svg">
<circle cx="15" cy="15" r="15" fill="#FEFEFE"/>
<path d="M20.0077 9H9.99231C8.86154 9 8 9.80001 8 10.85V20.1501C8 21.2002 8.86154 22.0002 9.99231 22.0002H20.0077C21.1385 22.0002 22 21.2002 22 20.1501V10.85C22 9.80001 21.1385 9 20.0077 9ZM15 19.4001C17.3154 19.4001 19.2 17.7001 19.2 15.6501C19.2 15.3001 19.1462 14.9001 19.0385 14.6001H20.2231V19.9001C20.2231 20.1501 20.0077 20.4001 19.6846 20.4001H10.3154C10.0462 20.4001 9.77692 20.2001 9.77692 19.9001V14.5501H11.0154C10.9077 14.9001 10.8538 15.2501 10.8538 15.6001C10.8 17.7001 12.6846 19.4001 15 19.4001ZM15 17.9001C13.4923 17.9001 12.3077 16.8001 12.3077 15.4501C12.3077 14.1001 13.4923 13.0001 15 13.0001C16.5077 13.0001 17.6923 14.1001 17.6923 15.4501C17.6923 16.8501 16.5077 17.9001 15 17.9001ZM20.1692 12.55C20.1692 12.85 19.9 13.1001 19.5769 13.1001H18.0692C17.7462 13.1001 17.4769 12.85 17.4769 12.55V11.2C17.4769 10.9 17.7462 10.65 18.0692 10.65H19.5769C19.9 10.65 20.1692 10.9 20.1692 11.2V12.55Z" fill="#343A40"/>
</svg>
