<svg width="21" height="20" viewBox="0 0 21 20" fill="none" xmlns="http://www.w3.org/2000/svg">
<path d="M20.2691 0.242683C20.1565 0.13075 20.0142 0.0532513 19.859 0.0192998C19.7038 -0.0146517 19.5422 -0.00364489 19.393 0.0510261L1.03842 6.71735C0.880125 6.77732 0.743843 6.88397 0.647674 7.02313C0.551505 7.16229 0.5 7.32738 0.5 7.49648C0.5 7.66557 0.551505 7.83066 0.647674 7.96982C0.743843 8.10899 0.880125 8.21563 1.03842 8.2756L8.20507 11.1338L13.4945 5.83406L14.6709 7.009L9.3564 12.3171L12.2264 19.475C12.2882 19.6301 12.3952 19.763 12.5336 19.8566C12.6719 19.9502 12.8352 20.0002 13.0023 20C13.1709 19.9965 13.3345 19.9421 13.4715 19.844C13.6085 19.7458 13.7126 19.6084 13.7699 19.45L20.4443 1.11764C20.5011 0.970209 20.5148 0.809679 20.4838 0.654765C20.4528 0.49985 20.3783 0.356935 20.2691 0.242683Z" fill="#FEFEFE"/>
</svg>
