<svg width="50" height="50" viewBox="0 0 50 50" fill="none" xmlns="http://www.w3.org/2000/svg">
<path d="M32.7578 4.33945C33.1624 4.33945 33.4902 4.01162 33.4902 3.60703V0.732421C33.4902 0.327832 33.1624 0 32.7578 0C32.3532 0 32.0254 0.327832 32.0254 0.732421V3.60703C32.0254 4.01152 32.3533 4.33945 32.7578 4.33945Z" fill="#219653"/>
<path d="M25.884 5.2366C26.0288 5.40388 26.2329 5.48963 26.438 5.48963C26.608 5.48963 26.7786 5.43084 26.9171 5.31091C27.223 5.04617 27.2563 4.58367 26.9914 4.27781L25.126 2.12322C24.8613 1.81726 24.3987 1.78406 24.0929 2.04891C23.7871 2.31365 23.7538 2.77615 24.0186 3.08201L25.884 5.2366Z" fill="#219653"/>
<path d="M38.5998 5.31088C38.7383 5.4309 38.9089 5.48959 39.0789 5.48959C39.284 5.48959 39.488 5.40385 39.6329 5.23657L41.4983 3.08198C41.7631 2.77612 41.7298 2.31362 41.424 2.04887C41.1181 1.78403 40.6555 1.81733 40.3909 2.12319L38.5254 4.27778C38.2606 4.58364 38.2939 5.04614 38.5998 5.31088Z" fill="#219653"/>
<path d="M31.2406 27.2731C31.666 27.6822 32.2121 27.8867 32.7581 27.8867C33.3041 27.8867 33.8502 27.6822 34.2756 27.2731L45.5422 16.4409C46.3393 15.6745 46.4392 14.43 45.7744 13.5463L44.2622 11.5361C44.0191 11.2129 43.5598 11.1479 43.2366 11.3912C42.9132 11.6343 42.8484 12.0935 43.0917 12.4168L44.3902 14.143H38.5765L37.0321 9.0448H40.1933C40.4198 9.0448 40.6362 9.15281 40.7724 9.33376L41.3313 10.0765C41.5745 10.3998 42.0337 10.4647 42.3569 10.2215C42.6802 9.97829 42.7451 9.51912 42.5018 9.19587L41.9429 8.4531C41.5316 7.90632 40.8775 7.57996 40.1933 7.57996H25.323C24.6388 7.57996 23.9847 7.90642 23.5733 8.4531L19.742 13.5463C19.0771 14.43 19.1769 15.6743 19.9741 16.4409L31.2406 27.2731ZM26.8998 15.6079L31.094 25.1002L21.2211 15.6079H26.8998ZM44.2951 15.6079L34.4225 25.0998L38.6167 15.6078H44.2951V15.6079ZM32.7582 25.242L28.5012 15.6079H37.0151L32.7582 25.242ZM35.5015 9.0448L37.0459 14.143H28.4705L30.0147 9.0448H35.5015ZM24.7438 9.33376C24.8801 9.15281 25.0965 9.0448 25.323 9.0448H28.4843L26.9399 14.143H21.126L24.7438 9.33376Z" fill="#219653"/>
<path d="M44.7322 36.349L40.2464 39.0777C35.8775 41.7353 30.5978 42.3072 25.7613 40.647C25.0524 40.4037 24.5664 39.8154 24.4612 39.0735C24.356 38.3316 24.6591 37.6313 25.2724 37.2004L29.9376 33.922C31.1524 33.0684 31.4591 31.4318 30.6357 30.1964C30.011 29.2586 28.8965 28.8087 27.7954 29.0502L15.81 31.6797V31.5284C15.81 30.481 14.958 29.629 13.9107 29.629H7.90496C7.50037 29.629 7.17254 29.9569 7.17254 30.3615C7.17254 30.7661 7.50037 31.0939 7.90496 31.0939H13.9106C14.1502 31.0939 14.3451 31.2888 14.3451 31.5284V48.1008C14.3451 48.3403 14.1502 48.5351 13.9106 48.5351H1.49726C1.47939 48.5351 1.46484 48.5207 1.46484 48.5028V31.1262C1.46484 31.1083 1.47939 31.0939 1.49726 31.0939H4.97665C5.38124 31.0939 5.70907 30.7661 5.70907 30.3615C5.70907 29.9569 5.38124 29.629 4.97665 29.629H1.49726C0.671678 29.629 0 30.3007 0 31.1262V48.5029C0 49.3283 0.671678 50 1.49726 50H13.9106C14.958 50 15.8099 49.1479 15.8099 48.1008V47.7284L16.2389 47.8521C19.476 48.7861 22.7928 49.2553 26.1413 49.2552C27.3965 49.2552 28.6568 49.1892 29.918 49.0571C34.5832 48.5685 39.0372 47.1983 43.1562 44.9847C43.5125 44.7932 43.6462 44.349 43.4547 43.9928C43.2633 43.6365 42.8191 43.5025 42.4628 43.6943C38.5124 45.8175 34.2404 47.1315 29.7654 47.6003C25.3279 48.0648 20.9133 47.6762 16.645 46.4447L15.8099 46.2038V33.1794L28.1093 30.4811C28.6163 30.3697 29.1289 30.5769 29.4166 31.0086C29.7956 31.5773 29.6545 32.3305 29.0952 32.7235L24.43 36.0019C23.3732 36.7445 22.8293 38.0005 23.0109 39.2794C23.1924 40.5583 24.064 41.6132 25.2857 42.0325C30.5352 43.8345 36.2656 43.2139 41.0076 40.3292L45.4935 37.6005C46.7796 36.818 48.5722 37.6704 48.5345 38.9429C48.523 39.3352 48.3425 39.7031 48.0396 39.9526C47.0691 40.7516 46.0447 41.5047 44.9948 42.1911C44.6562 42.4125 44.5613 42.8664 44.7826 43.205C45.0042 43.5437 45.4581 43.6385 45.7965 43.4172C46.891 42.7016 47.959 41.9164 48.9706 41.0836C49.5999 40.5655 49.9747 39.8011 49.9987 38.9862C50.0734 36.4625 46.9297 35.012 44.7322 36.349Z" fill="#7198CB"/>
<path d="M10.627 43.4837V41.8951C10.627 41.4906 10.2991 41.1627 9.89453 41.1627C9.48994 41.1627 9.16211 41.4906 9.16211 41.8951V43.4837C9.16211 43.8883 9.48994 44.2161 9.89453 44.2161C10.2991 44.2161 10.627 43.8882 10.627 43.4837Z" fill="#7198CB"/>
</svg>
