<svg width="50" height="48" viewBox="0 0 50 48" fill="none" xmlns="http://www.w3.org/2000/svg">
<path d="M47.6806 29.0937C48.0344 28.585 48.2426 27.9677 48.2426 27.3025V26.571C48.2426 24.8367 46.8316 23.4258 45.0974 23.4258H44.4812C44.0766 23.4258 43.7487 23.7536 43.7487 24.1582C43.7487 24.5628 44.0766 24.8906 44.4812 24.8906H45.0974C46.0239 24.8906 46.7777 25.6444 46.7777 26.571V27.3025C46.7777 28.2291 46.0239 28.983 45.0974 28.983H37.4219C36.4953 28.983 35.7414 28.2291 35.7414 27.3025V26.571C35.7414 25.6444 36.4953 24.8906 37.4219 24.8906H41.5527C41.9573 24.8906 42.2852 24.5628 42.2852 24.1582C42.2852 23.7536 41.9573 23.4258 41.5527 23.4258H37.4219C36.7108 23.4258 36.0544 23.6632 35.5271 24.0626H31.3014C31.1163 24.0626 30.9473 23.9859 30.8253 23.8467C30.7033 23.7075 30.6496 23.5298 30.6739 23.3464L31.5294 16.9023C31.5302 16.8964 31.531 16.8906 31.5314 16.8846C31.656 15.7339 31.2839 14.5798 30.5107 13.7184C29.7375 12.8572 28.6303 12.3632 27.4729 12.3632H26.7246C25.7958 12.3632 25.0197 13.0576 24.9164 13.9799L23.9884 21.3142C23.8209 22.6377 22.8385 23.6861 21.5856 23.9799C21.4555 22.9448 20.5704 22.1414 19.5007 22.1414H2.30293C1.03311 22.1414 0 23.1745 0 24.4443V43.4954C0 44.7652 1.03311 45.7983 2.30293 45.7983H4.21924C4.62383 45.7983 4.95166 45.4705 4.95166 45.0659C4.95166 44.6613 4.62383 44.3335 4.21924 44.3335H2.30293C1.84082 44.3335 1.46484 43.9575 1.46484 43.4954V24.4443C1.46484 23.9822 1.84082 23.6062 2.30293 23.6062H19.5007C19.8521 23.6062 20.1379 23.8922 20.1379 24.2434V43.6962C20.1379 44.0475 19.852 44.3334 19.5007 44.3334H7.14766C6.74307 44.3334 6.41523 44.6612 6.41523 45.0658C6.41523 45.4704 6.74307 45.7982 7.14766 45.7982H19.5007C20.4098 45.7982 21.1857 45.218 21.4782 44.4086C23.059 45.7412 25.0622 46.4829 27.174 46.4829H33.9096C34.4369 46.8822 35.0934 47.1197 35.8044 47.1197H42.4478C44.1821 47.1197 45.5931 45.7088 45.5931 43.9744V43.2428C45.5931 42.6251 45.4133 42.0488 45.1044 41.5623C46.8354 41.5583 48.2425 40.1491 48.2425 38.4172V37.6856C48.2425 37.0204 48.0343 36.4031 47.6805 35.8944C49.0154 35.5306 50 34.3084 50 32.8598V32.1283C50 30.6798 49.0154 29.4575 47.6806 29.0937ZM21.6028 42.4818V25.4687C23.5887 25.1486 25.1821 23.5483 25.4417 21.498L26.3705 14.1576C26.3711 14.1532 26.3716 14.1488 26.3721 14.1444C26.3916 13.9639 26.5433 13.8279 26.7247 13.8279H27.4729C28.2151 13.8279 28.925 14.1446 29.4207 14.6969C29.9147 15.2471 30.1533 15.9836 30.0762 16.7187L29.222 23.1534C29.1425 23.7527 29.3253 24.3571 29.7236 24.8118C30.1219 25.2665 30.6971 25.5272 31.3015 25.5272H34.4554C34.2477 26.0383 34.2727 26.7477 34.2767 27.3024C34.2767 28.7509 35.2612 29.9732 36.596 30.3369C36.2422 30.8456 36.034 31.4629 36.034 32.1282V32.8597C36.034 33.525 36.2422 34.1423 36.596 34.651C35.2611 35.0148 34.2767 36.237 34.2767 37.6855V38.4171C34.2767 39.097 34.4942 39.7268 34.8625 40.2419C33.5869 40.643 32.6592 41.8366 32.6592 43.2427C32.6554 43.799 32.6301 44.5054 32.8379 45.018H27.1741C25.0234 45.0181 23.0074 44.097 21.6028 42.4818ZM44.1283 43.9744C44.1283 44.901 43.3744 45.6549 42.4478 45.6549H35.8045C34.8779 45.6549 34.124 44.901 34.124 43.9744V43.2428C34.124 42.3163 34.8779 41.5625 35.8045 41.5625H42.4478C43.3744 41.5625 44.1283 42.3163 44.1283 43.2428V43.9744ZM46.7777 38.4172C46.7777 39.3437 46.0238 40.0976 45.0973 40.0976H37.4219C36.4953 40.0976 35.7414 39.3437 35.7414 38.4172V37.6856C35.7414 36.7591 36.4953 36.0051 37.4219 36.0051H45.0973C46.0238 36.0051 46.7777 36.7591 46.7777 37.6856V38.4172ZM48.5352 32.8598C48.5352 33.7864 47.7812 34.5403 46.8547 34.5403H39.1792C38.2526 34.5403 37.4987 33.7864 37.4987 32.8598V32.1283C37.4987 31.2017 38.2526 30.4478 39.1792 30.4478H46.8547C47.7812 30.4478 48.5352 31.2017 48.5352 32.1283V32.8598Z" fill="#7198CB"/>
<path d="M14.8132 28.7059C15.2178 28.7059 15.5456 28.3781 15.5456 27.9735C15.5456 27.5689 15.2178 27.2411 14.8132 27.2411H12.3926C11.988 27.2411 11.6602 27.5689 11.6602 27.9735C11.6602 28.3781 11.988 28.7059 12.3926 28.7059H14.8132Z" fill="#7198CB"/>
<path d="M1.74237 12.0312L1.56522 14.2257C1.53592 14.5889 1.69432 14.9335 1.98924 15.1477C2.28348 15.3615 2.65995 15.4064 2.99696 15.2659L5.02928 14.4193L7.06141 15.2659C7.39764 15.4059 7.7745 15.3619 8.06922 15.1477C8.36415 14.9335 8.52254 14.5888 8.49325 14.2256L8.316 12.0313L9.7493 10.3603C9.98651 10.0836 10.0608 9.71157 9.94823 9.36509C9.83563 9.0186 9.55672 8.76138 9.20233 8.6772L7.06053 8.16763L5.91405 6.28804C5.7244 5.977 5.39364 5.79136 5.02928 5.79126C5.02928 5.79126 5.02918 5.79126 5.02909 5.79126C4.66483 5.79126 4.33407 5.9769 4.14413 6.28804L2.99784 8.16753L0.856138 8.677C0.501646 8.76128 0.222837 9.01851 0.110142 9.36499C-0.00245572 9.71157 0.0718607 10.0835 0.309068 10.3602L1.74237 12.0312ZM3.51073 9.55122C3.77733 9.48774 4.01229 9.31714 4.15555 9.08267L5.02909 7.65034L5.90311 9.08315C6.04598 9.31714 6.28084 9.48774 6.54784 9.55122L8.18006 9.9396L7.08768 11.2132C6.90917 11.4214 6.81942 11.6976 6.84139 11.9714L6.97655 13.6437L5.42782 12.9986C5.1745 12.8929 4.88397 12.893 4.63065 12.9986L3.08192 13.6437L3.21698 11.9719C3.23924 11.6982 3.1496 11.4217 2.97079 11.2131L1.8784 9.9396L3.51073 9.55122Z" fill="#219653"/>
<path d="M12.5767 10.0074L12.2549 13.9901C12.2194 14.4296 12.4112 14.8467 12.7678 15.1059C12.9869 15.265 13.2433 15.3466 13.5028 15.3466C13.666 15.3466 13.8303 15.3144 13.9874 15.2489L17.6759 13.7122L21.3645 15.2489C21.7713 15.4183 22.2273 15.3651 22.584 15.1059C22.9407 14.8468 23.1325 14.4296 23.0969 13.9902L22.7752 10.0074L25.3766 6.97402C25.6635 6.63936 25.7536 6.18926 25.6174 5.77002C25.4811 5.35078 25.1438 5.03965 24.715 4.9376L20.8275 4.01269L20.7868 3.9459C20.5762 3.60059 20.1255 3.4915 19.78 3.70215C19.4347 3.91279 19.3256 4.36348 19.5363 4.70889L19.6226 4.85029C19.7956 5.13389 20.0801 5.34062 20.403 5.41738L24.0398 6.28262L21.6063 9.12012C21.3901 9.37207 21.2813 9.70654 21.308 10.0377L21.6089 13.7639L18.1583 12.3262C17.8515 12.1983 17.5002 12.1983 17.1934 12.3262L13.7427 13.7639L14.0437 10.0375C14.0704 9.70644 13.9616 9.37207 13.7456 9.12021L11.3118 6.28252L14.9484 5.41738C15.2716 5.34062 15.5562 5.13389 15.7291 4.85029L17.6757 1.65879L18.0102 2.20713C18.2209 2.55264 18.6719 2.66143 19.017 2.45107C19.3623 2.24043 19.4714 1.78975 19.2609 1.44434L18.7465 0.601074C18.517 0.224707 18.1168 0 17.6757 0C17.2348 0 16.8346 0.224707 16.6051 0.601074L14.5242 4.0125L10.6367 4.9374C10.2079 5.03945 9.87047 5.35059 9.73424 5.76973C9.59801 6.18896 9.68795 6.63906 9.97496 6.97393L12.5767 10.0074Z" fill="#219653"/>
</svg>
