<svg width="50" height="37" viewBox="0 0 50 37" fill="none" xmlns="http://www.w3.org/2000/svg">
<path d="M11.529 26.6731C11.1913 26.4523 10.7386 26.5469 10.5177 26.8846C10.2968 27.2222 10.3915 27.6749 10.7292 27.8959C11.6632 28.5068 12.3012 28.689 13.125 28.7353V29.5254C13.125 29.929 13.4519 30.2559 13.8555 30.2559C14.2591 30.2559 14.5861 29.929 14.5861 29.5254V28.6773C16.2251 28.3557 17.1826 27.0041 17.3947 25.7416C17.6677 24.1185 16.8186 22.7072 15.2317 22.1463C15.0195 22.0713 14.8025 21.9926 14.5861 21.9107V18.3899C15.226 18.4739 15.6248 18.7309 15.6576 18.7527C15.9882 18.979 16.4399 18.8972 16.6697 18.5679C16.9006 18.237 16.8193 17.7816 16.4884 17.5509C16.4449 17.5205 15.7191 17.026 14.5862 16.9226V16.2636C14.5862 15.8601 14.2592 15.5331 13.8556 15.5331C13.452 15.5331 13.125 15.8601 13.125 16.2636V17.0237C13.0163 17.0485 12.9063 17.0766 12.7942 17.1104C11.7491 17.4252 10.9682 18.3195 10.7563 19.4444C10.563 20.4701 10.8916 21.4592 11.6139 22.0257C11.9966 22.3259 12.4728 22.6008 13.1251 22.8912V27.2717C12.5613 27.2299 12.1695 27.0919 11.529 26.6731ZM12.5154 20.8759C12.224 20.6474 12.1 20.2025 12.192 19.7149C12.2743 19.278 12.5627 18.7531 13.125 18.5408V21.2654C12.8956 21.141 12.6881 21.0113 12.5154 20.8759ZM14.7446 23.5238C16.0946 24.0009 16.0115 25.1566 15.9539 25.4993C15.8415 26.1681 15.3757 26.8771 14.5861 27.1596V23.467C14.6388 23.4858 14.6904 23.5045 14.7446 23.5238Z" fill="#219653"/>
<path d="M49.2694 11.149C49.673 11.149 50 10.822 50 10.4184V1.65241C50 0.843242 49.3417 0.185059 48.5327 0.185059H42.1983C41.3893 0.185059 40.7311 0.84334 40.7311 1.65241V2.11159L30.6647 1.75897C30.2606 1.74309 29.9232 2.06025 29.909 2.46342C29.8948 2.86659 30.2103 3.20499 30.6135 3.21911L40.731 3.57358V12.9091C40.2021 12.9686 39.0086 12.6486 37.9453 13.6324L32.6933 18.492C29.5109 21.4367 26.3855 21.6348 22.9277 22.9287C22.9187 22.9315 22.9098 22.9346 22.901 22.9378C22.2392 23.1777 21.4945 22.914 21.1306 22.3097C20.7331 21.6495 20.9341 20.772 21.5883 20.3119C21.5926 20.3089 21.5969 20.3059 21.6012 20.3027L28.7417 15.0461C30.6979 13.6632 30.5713 10.717 28.4997 9.50843L26.1582 8.14258C25.173 7.56797 23.9375 7.54713 22.9338 8.08832L19.2955 10.0496C18.1201 9.55674 16.8946 9.23179 15.6336 9.07779L18.3403 6.36801C20.5262 4.17945 23.554 2.98144 26.6428 3.08021L27.6923 3.11693C27.7011 3.11732 27.7097 3.11742 27.7184 3.11742C28.1101 3.11742 28.4342 2.80688 28.448 2.41248C28.4622 2.00921 28.1466 1.67091 27.7435 1.65679L26.6918 1.61997C23.198 1.50863 19.7771 2.86221 17.3064 5.33558L13.669 8.97697C6.10892 9.11178 0 15.3027 0 22.8946C0 25.7866 0.879104 28.5603 2.54224 30.9155C2.68465 31.117 2.91034 31.2248 3.13974 31.2248C3.28536 31.2248 3.43245 31.1813 3.56044 31.0909C3.89007 30.8581 3.96848 30.4024 3.73587 30.0727C2.24768 27.9652 1.46111 25.4832 1.46111 22.8946C1.46111 15.7651 7.49483 9.96595 14.8024 10.4669C18.7806 10.7501 22.4078 12.9357 24.5182 16.341L20.741 19.1217C19.4679 20.022 19.0891 21.7518 19.8789 23.0636C20.6003 24.2615 22.0736 24.785 23.3851 24.3164L26.3706 23.3618C26.1239 30.0164 20.6344 35.3543 13.9206 35.3543C10.8285 35.3543 7.86303 34.2132 5.57025 32.1416C5.27111 31.8712 4.80911 31.8944 4.53841 32.1938C4.26791 32.4931 4.29129 32.955 4.59062 33.2256C7.15235 35.5406 10.4657 36.8155 13.9205 36.8155C21.5763 36.8155 27.8412 30.5918 27.8412 22.8917C28.0238 22.8118 30.9414 22.1039 33.6856 19.5648L38.9376 14.7051C39.4749 14.208 40.0624 14.4215 40.7309 14.3705V15.876C40.7309 16.6851 41.3892 17.3433 42.1981 17.3433H48.5325C49.3416 17.3433 49.9998 16.685 49.9998 15.876V13.3396C49.9998 12.936 49.6728 12.609 49.2692 12.609C48.8657 12.609 48.5387 12.936 48.5387 13.3396L48.5325 15.8823L42.1919 15.8761L42.198 1.64646L48.5387 1.6527V10.4186C48.5389 10.8219 48.8659 11.149 49.2694 11.149ZM20.8908 10.8495L23.6271 9.37439C24.186 9.07311 24.8736 9.0847 25.4219 9.40469L27.7634 10.7705C28.914 11.4417 28.9954 13.0813 27.8942 13.8557C27.8899 13.8587 27.8857 13.8618 27.8814 13.865L25.6977 15.4726C24.4772 13.5398 22.8175 11.9646 20.8908 10.8495Z" fill="#7198CB"/>
<path d="M15.6336 9.07775C15.6336 9.07775 18.1201 9.5567 19.2955 10.0496L20.8908 10.8495C22.8175 11.9645 24.4772 13.5398 25.6977 15.4726L24.5182 16.3409C22.4078 12.9357 18.7806 10.75 14.8024 10.4669C7.49483 9.96591 1.46111 15.7651 1.46111 22.8945C1.46111 25.4831 2.24768 27.9652 3.73587 30.0727C3.96848 30.4023 3.89007 30.8581 3.56044 31.0909C3.43245 31.1813 3.28536 31.2247 3.13974 31.2247C2.91034 31.2247 2.68465 31.117 2.54224 30.9155C0.879104 28.5602 0 25.7866 0 22.8945C0 15.3027 6.10892 9.11174 13.669 8.97693L15.6336 9.07775Z" fill="#219653"/>
<path d="M13.9206 35.3542C20.6344 35.3542 26.1239 30.0164 26.3706 23.3618L27.8412 22.8917C27.8412 30.5918 21.5763 36.8154 13.9205 36.8154C10.4657 36.8154 7.15235 35.5406 4.59062 33.2256C4.29129 32.955 4.26791 32.4931 4.53841 32.1937C4.80911 31.8944 5.27111 31.8711 5.57025 32.1415C7.86303 34.2132 10.8285 35.3542 13.9206 35.3542Z" fill="#219653"/>
</svg>
