<svg width="50" height="61" viewBox="0 0 50 61" fill="none" xmlns="http://www.w3.org/2000/svg">
<path d="M18.917 42.2783V43.8494C18.917 44.3358 19.3111 44.7299 19.7975 44.7299C20.2839 44.7299 20.678 44.3358 20.678 43.8494V42.2783C20.678 41.7919 20.2839 41.3978 19.7975 41.3978C19.3111 41.3978 18.917 41.7921 18.917 42.2783Z" fill="#7198CB"/>
<path d="M24.8502 7.14583C25.3366 7.14583 25.7307 6.75171 25.7307 6.26532V0.880505C25.7307 0.394114 25.3366 0 24.8502 0C24.3638 0 23.9697 0.394114 23.9697 0.880505V6.26532C23.9697 6.75171 24.364 7.14583 24.8502 7.14583Z" fill="#219653"/>
<path d="M41.3264 7.21643L37.5186 11.0242C37.1748 11.3682 37.1748 11.9256 37.5186 12.2695C37.6906 12.4413 37.916 12.5273 38.1413 12.5273C38.3666 12.5273 38.592 12.4413 38.764 12.2695L42.5718 8.4617C42.9157 8.11771 42.9157 7.5603 42.5718 7.21643C42.2278 6.87268 41.6704 6.87268 41.3264 7.21643Z" fill="#219653"/>
<path d="M49.1198 23.9697H43.735C43.2486 23.9697 42.8545 24.3638 42.8545 24.8502C42.8545 25.3366 43.2486 25.7307 43.735 25.7307H49.1198C49.6062 25.7307 50.0003 25.3366 50.0003 24.8502C50.0003 24.3638 49.6062 23.9697 49.1198 23.9697Z" fill="#219653"/>
<path d="M6.26544 24.2692H0.880505C0.394114 24.2692 0 24.6633 0 25.1497C0 25.6361 0.394114 26.0302 0.880505 26.0302H6.26532C6.75171 26.0302 7.14583 25.6361 7.14583 25.1497C7.14583 24.6633 6.75171 24.2692 6.26544 24.2692Z" fill="#219653"/>
<path d="M12.2699 11.2358L8.46215 7.4281C8.11817 7.08435 7.56075 7.08435 7.21688 7.4281C6.87302 7.77208 6.87302 8.3295 7.21688 8.67337L11.0247 12.481C11.1966 12.6529 11.4221 12.7388 11.6474 12.7388C11.8726 12.7388 12.0981 12.6529 12.27 12.481C12.6138 12.1372 12.6138 11.5797 12.2699 11.2358Z" fill="#219653"/>
<path d="M37.3012 18.1114C37.3012 16.4415 35.9427 15.0831 34.2728 15.0831H33.6215C33.1596 15.0831 32.7215 15.1875 32.3294 15.3733C32.1419 13.8821 30.8668 12.7245 29.3256 12.7245H28.6744C28.1419 12.7245 27.6413 12.8632 27.2059 13.1056C26.7692 11.9692 25.6668 11.1602 24.3785 11.1602H23.7272C22.4389 11.1602 21.3366 11.9692 20.8998 13.1056C20.4646 12.8632 19.964 12.7245 19.4314 12.7245H18.7801C17.1102 12.7245 15.7517 14.0831 15.7517 15.753V20.3588C13.8214 20.9004 12.4014 22.6747 12.4014 24.7756V26.7577C12.4014 29.2944 13.9803 31.4854 16.3186 32.3094V33.8086H16.2324C15.2614 33.8086 14.4714 34.5986 14.4714 35.5696V58.3165C14.4714 59.2875 15.2614 60.0775 16.2324 60.0775H27.9321C28.4185 60.0775 28.8126 59.6834 28.8126 59.197C28.8126 58.7106 28.4185 58.3165 27.9321 58.3165H16.2324V35.5697H34.9733L34.9732 58.3166H31.4527C30.9663 58.3166 30.5722 58.7107 30.5722 59.1971C30.5722 59.6835 30.9663 60.0776 31.4527 60.0776H34.9732C35.9442 60.0776 36.7343 59.2876 36.7343 58.3166V35.5697C36.7343 34.6754 36.0637 33.9365 35.1993 33.8249C36.1885 32.4591 36.7343 30.8087 36.7343 29.0777V25.7862C37.0905 25.2896 37.3011 24.6818 37.3011 24.0254V21.8122C37.3011 21.3258 36.907 20.9316 36.4206 20.9316C35.9342 20.9316 35.5401 21.3258 35.5401 21.8122V24.0254C35.5401 24.7243 34.9715 25.2928 34.2726 25.2928H33.6214C32.9225 25.2928 32.354 24.7243 32.354 24.0254V18.1114C32.354 17.4127 32.9225 16.8441 33.6214 16.8441H34.2726C34.9715 16.8441 35.5401 17.4127 35.5401 18.1114V18.2917C35.5401 18.778 35.9342 19.1722 36.4206 19.1722C36.907 19.1722 37.3011 18.778 37.3011 18.2917V18.1114H37.3012ZM28.6745 14.4855H29.3257C30.0246 14.4855 30.5932 15.0541 30.5932 15.753V22.5856C30.5932 23.2844 30.0246 23.8529 29.3257 23.8529H28.6745C27.9756 23.8529 27.4071 23.2844 27.4071 22.5856V15.753C27.4071 15.0541 27.9756 14.4855 28.6745 14.4855ZM22.4599 14.1885C22.4599 13.4896 23.0285 12.921 23.7274 12.921H24.3786C25.0775 12.921 25.646 13.4896 25.646 14.1885V21.0211C25.646 21.7199 25.0775 22.2884 24.3786 22.2884C24.0103 22.2796 23.4532 22.3443 23.1279 22.1379C22.9761 21.7492 22.7474 21.3989 22.46 21.1059V14.1885H22.4599ZM18.7802 14.4855H19.4316C20.1303 14.4855 20.6989 15.0541 20.6989 15.753V20.2176C20.5612 20.1986 20.4208 20.1879 20.2779 20.1879H17.5129V15.753C17.5129 15.0541 18.0814 14.4855 18.7802 14.4855ZM33.6215 27.0537C34.0246 27.0517 34.5897 27.078 34.9734 26.9711V29.0777C34.9734 30.8971 34.2061 32.6046 32.8577 33.8087H18.0798V31.665C18.0798 31.6638 18.0798 31.6625 18.0798 31.6614C18.0753 31.6496 18.0863 30.9442 17.3917 30.7893C15.4905 30.3638 14.1626 28.7059 14.1626 26.7578V24.7757C14.1626 23.2171 15.4307 21.949 16.9893 21.949H20.278C20.9937 21.949 21.5759 22.5312 21.5759 23.2469C21.5759 23.785 21.2521 24.2594 20.7511 24.4554L16.8786 25.9712C16.4257 26.1485 16.2022 26.6592 16.3795 27.1121C16.5568 27.565 17.0677 27.7881 17.5204 27.6112L21.3931 26.0954C22.3299 25.7286 23.0021 24.9485 23.2405 24.0088C23.5405 24.0684 24.0693 24.0461 24.3787 24.0497C24.9112 24.0497 25.4118 23.911 25.8471 23.6686C26.2839 24.805 27.3863 25.6141 28.6746 25.6141H29.3258C29.875 25.6141 30.3901 25.4664 30.8347 25.2097C31.2964 26.2926 32.3718 27.0537 33.6215 27.0537Z" fill="#7198CB"/>
</svg>
