<svg width="15" height="15" viewBox="0 0 15 15" fill="none" xmlns="http://www.w3.org/2000/svg">
<path fill-rule="evenodd" clip-rule="evenodd" d="M7.4925 0C3.3525 0 0 3.36 0 7.5C0 11.64 3.3525 15 7.4925 15C11.64 15 15 11.64 15 7.5C15 3.36 11.64 0 7.4925 0ZM7.49937 13.4999C4.18437 13.4999 1.49937 10.8149 1.49937 7.4999C1.49937 4.1849 4.18437 1.4999 7.49937 1.4999C10.8144 1.4999 13.4994 4.1849 13.4994 7.4999C13.4994 10.8149 10.8144 13.4999 7.49937 13.4999ZM6.74979 3.75H7.87479V7.62295L11.2498 9.59262L10.6873 10.5L6.74979 8.17623V3.75Z" fill="#7198CB"/>
</svg>
