<svg width="51" height="50" viewBox="0 0 51 50" fill="none" xmlns="http://www.w3.org/2000/svg">
<path d="M39.5592 8.83883C39.4249 8.70453 26.8011 -3.71775 11.2901 8.77168C11.1558 8.90597 11.0215 9.10742 11.0215 9.30886V46.3742C11.0215 46.7771 11.2901 47.0457 11.693 47.0457H39.0891C39.492 47.0457 39.7606 46.7771 39.7606 46.3742V9.30886C39.7606 9.10742 39.6935 8.97312 39.5592 8.83883ZM24.7196 45.7028H12.3644V33.4819H24.7196V45.7028ZM24.7196 32.139H12.3644V19.5824H24.7196V32.139ZM24.7196 18.2395H12.3644V9.6446C16.8633 6.08578 21.0936 4.74283 24.7196 4.54139V18.2395ZM38.4176 45.7028H26.0625V33.4819H38.4176V45.7028ZM38.4176 32.139H26.0625V19.5824H38.4176V32.139ZM38.4176 18.2395H26.0625V4.54139C32.7101 4.74283 37.4104 8.70453 38.4176 9.6446V18.2395Z" fill="#219653"/>
<path d="M42.6481 6.82418C42.5138 6.68989 27.0699 -8.41829 8.26859 6.75703C8.13429 6.89133 8 7.09277 8 7.29421V49.3285C8 49.7314 8.26859 50 8.67147 50H42.1781C42.5809 50 42.8495 49.7314 42.8495 49.3285V7.29421C42.8495 7.09277 42.7824 6.95848 42.6481 6.82418ZM41.5066 48.6571H9.34295V7.62995C26.197 -5.73239 39.6265 5.88412 41.5066 7.62995V48.6571Z" fill="#219653"/>
</svg>
