<svg width="51" height="50" viewBox="0 0 51 50" fill="none" xmlns="http://www.w3.org/2000/svg">
<path d="M47.6025 19.3411H46.7956V16.9207C46.7956 15.5862 45.7097 14.5002 44.3752 14.5002H38.6928L24.2678 0.652106C23.3626 -0.217638 21.8199 -0.216831 20.9155 0.6513L0.744379 20.0164C0.278041 20.4642 0.0142131 21.0669 0.000497237 21.7115C-0.0124118 22.3586 0.226405 22.9718 0.673379 23.4357C1.12681 23.9101 1.76419 24.182 2.42094 24.182C3.04864 24.182 3.64406 23.9424 4.09669 23.5083L4.84137 22.7935V46.7728H31.5219L31.4727 47.4642C31.4678 47.5215 31.4662 47.5788 31.4662 47.6352C31.4662 48.9398 32.5272 50 33.831 50H35.5559C36.8597 50 37.9207 48.9398 37.9207 47.6352C37.9207 47.5788 37.9191 47.5207 37.9151 47.4666L37.1655 36.9756C37.105 36.1349 36.3982 35.4774 35.5559 35.4774H35.5003V31.4433C35.5003 30.9979 35.8625 30.6365 36.3071 30.6365H47.6025C48.9369 30.6365 50.0229 29.5505 50.0229 28.2161V21.7616C50.0229 20.4271 48.9369 19.3411 47.6025 19.3411ZM45.182 16.9207V23.3752C45.182 23.8205 44.8198 24.182 44.3752 24.182H25.0117C24.5671 24.182 24.2049 23.8205 24.2049 23.3752V16.9207C24.2049 16.4753 24.5671 16.1139 25.0117 16.1139H44.3752C44.8198 16.1139 45.182 16.4753 45.182 16.9207ZM2.97925 22.3441C2.67024 22.6402 2.13532 22.6297 1.83761 22.3191C1.68916 22.1642 1.61009 21.9608 1.61412 21.7446C1.61816 21.526 1.70368 21.3307 1.86181 21.1798L22.0329 1.81472C22.3339 1.52669 22.8478 1.52588 23.1496 1.81553L36.3627 14.5002H34.0327L22.5913 3.51629L2.97925 22.3441ZM22.5913 5.75278L31.7026 14.5002H25.0117C23.6772 14.5002 22.5913 15.5862 22.5913 16.9207V23.3752C22.5913 24.7097 23.6772 25.7956 25.0117 25.7956H29.0458V33.8637C29.0458 34.7537 28.322 35.4774 27.4321 35.4774C26.5422 35.4774 25.8185 34.7537 25.8185 33.8637V31.4433C25.8185 30.1088 24.7325 29.0229 23.3981 29.0229C22.0636 29.0229 20.9776 30.1088 20.9776 31.4433V40.3182C20.9776 41.2082 20.2539 41.9319 19.364 41.9319C18.4741 41.9319 17.7504 41.2082 17.7504 40.3182V25.7956C17.7504 24.0158 16.303 22.5684 14.5231 22.5684C12.7433 22.5684 11.2959 24.0158 11.2959 25.7956V31.4433C11.2959 31.8887 10.9336 32.2501 10.4891 32.2501C10.0445 32.2501 9.68225 31.8887 9.68225 31.4433V28.2161C9.68225 26.8816 8.59628 25.7956 7.26181 25.7956H6.455V21.2444L22.5913 5.75278ZM35.5559 48.3864H33.831C33.4163 48.3864 33.0798 48.0491 33.0814 47.582L33.6002 40.3182H35.7851L36.3071 47.6352C36.3071 48.0491 35.9706 48.3864 35.5559 48.3864ZM35.6705 38.7046H33.7156L33.831 37.091H35.5559L35.6705 38.7046ZM48.4093 28.2161C48.4093 28.6614 48.047 29.0229 47.6025 29.0229H36.3071C34.9726 29.0229 33.8866 30.1088 33.8866 31.4433V35.4774H33.831C32.9887 35.4774 32.2819 36.1349 32.2214 36.9756L31.6372 45.1591H6.455V27.4092H7.26181C7.70637 27.4092 8.06862 27.7707 8.06862 28.2161V31.4433C8.06862 32.7778 9.15459 33.8637 10.4891 33.8637C11.8235 33.8637 12.9095 32.7778 12.9095 31.4433V25.7956C12.9095 24.9057 13.6332 24.182 14.5231 24.182C15.413 24.182 16.1368 24.9057 16.1368 25.7956V40.3182C16.1368 42.0981 17.5842 43.5455 19.364 43.5455C21.1438 43.5455 22.5913 42.0981 22.5913 40.3182V31.4433C22.5913 30.9979 22.9535 30.6365 23.3981 30.6365C23.8426 30.6365 24.2049 30.9979 24.2049 31.4433V33.8637C24.2049 35.6436 25.6523 37.091 27.4321 37.091C29.212 37.091 30.6594 35.6436 30.6594 33.8637V25.7956H44.3752C45.7097 25.7956 46.7956 24.7097 46.7956 23.3752V20.9547H47.6025C48.047 20.9547 48.4093 21.3162 48.4093 21.7616V28.2161Z" fill="#219653"/>
</svg>
