<svg width="51" height="50" viewBox="0 0 51 50" fill="none" xmlns="http://www.w3.org/2000/svg">
<path d="M48.5806 33.871H42.9355V32.2581C42.9355 31.3685 42.2121 30.6452 41.3226 30.6452V3.22581C41.3226 1.44677 39.8758 0 38.0968 0C36.3177 0 34.871 1.44677 34.871 3.22581V30.6452C33.9815 30.6452 33.2581 31.3685 33.2581 32.2581V33.871H28.2508C27.6339 33.871 27.046 34.1032 26.596 34.5258L23.1766 37.7323C22.3532 36.9589 21.3177 36.396 20.1419 36.1347L18.5669 35.7839C18.1952 35.7016 17.9355 35.3774 17.9355 34.9968V33.871C17.9355 32.9815 17.2121 32.2581 16.3226 32.2581V3.22581C16.3226 1.44677 14.8758 0 13.0968 0C11.3177 0 9.87097 1.44677 9.87097 3.22581V32.2581C8.98145 32.2581 8.25806 32.9815 8.25806 33.871V34.9968C8.25806 35.3782 7.99839 35.7016 7.62661 35.7839L6.05242 36.1347C3.07742 36.7944 1 39.3839 1 42.4315V48.3871C1 49.2766 1.72339 50 2.6129 50H46.9677C49.1911 50 51 48.1911 51 45.9677V36.2903C51 34.9565 49.9145 33.871 48.5806 33.871ZM38.0968 1.6129C38.9863 1.6129 39.7097 2.33629 39.7097 3.22581V6.45161H36.4839V3.22581C36.4839 2.33629 37.2073 1.6129 38.0968 1.6129ZM36.4839 8.06452H39.7097V30.6452H36.4839V8.06452ZM34.871 32.2581H41.3226V33.871H34.871V32.2581ZM27.6984 35.7024C27.8492 35.5613 28.0452 35.4839 28.2508 35.4839H43.3153L39.8742 38.7097H29.3903L25.1935 42.6444V42.4315C25.1935 41.1669 24.8355 39.9806 24.204 38.979L27.6984 35.7024ZM14.7097 27.4194H11.4839V8.06452H14.7097V27.4194ZM13.0968 1.6129C13.9863 1.6129 14.7097 2.33629 14.7097 3.22581V6.45161H11.4839V3.22581C11.4839 2.33629 12.2073 1.6129 13.0968 1.6129ZM11.4839 29.0323H14.7097V32.2581H11.4839V29.0323ZM6.40242 37.7089L7.97661 37.3581C9.09194 37.1105 9.87097 36.1395 9.87097 34.9968V33.871H16.3226V34.9968C16.3226 36.1395 17.1016 37.1105 18.2169 37.3589L19.7919 37.7097C21.8581 38.1677 23.3298 39.8726 23.5387 41.9363H2.65484C2.86371 39.8718 4.33629 38.1669 6.40242 37.7089ZM7.45161 43.5484V48.3871H5.83871V43.5484H7.45161ZM9.06452 43.5484H10.6774V48.3871H9.06452V43.5484ZM12.2903 43.5484H13.9032V48.3871H12.2903V43.5484ZM15.5161 43.5484H17.129V48.3871H15.5161V43.5484ZM18.7419 43.5484H20.3548V48.3871H18.7419V43.5484ZM2.6129 43.5484H4.22581V48.3871H2.6129V43.5484ZM21.9677 48.3871V43.5484H23.5806V48.3871H21.9677ZM25.1935 44.8556L30.029 40.3226H38.1548L33.6653 44.5315C32.5798 45.5492 31.8911 46.9234 31.7032 48.3871H25.1935V44.8556ZM49.3871 45.9677C49.3871 47.3016 48.3016 48.3871 46.9677 48.3871H33.3331C33.5089 47.3694 34.0073 46.421 34.7686 45.7081L45.6742 35.4839H48.5806C49.025 35.4839 49.3871 35.8452 49.3871 36.2903V45.9677Z" fill="#219653"/>
</svg>
