<svg width="51" height="50" viewBox="0 0 51 50" fill="none" xmlns="http://www.w3.org/2000/svg">
<path d="M14.7966 2.53162C13.9297 2.53284 13.0988 2.87779 12.4859 3.4908C11.8731 4.10381 11.5283 4.93485 11.5273 5.80167C11.5273 5.9975 11.6051 6.18532 11.7436 6.32379C11.8821 6.46227 12.0699 6.54007 12.2657 6.54007C12.4616 6.54007 12.6494 6.46227 12.7879 6.32379C12.9263 6.18532 13.0041 5.9975 13.0041 5.80167C13.0046 5.3262 13.1937 4.87034 13.5299 4.53414C13.8661 4.19794 14.3219 4.00886 14.7974 4.00841H19.6029C19.7987 4.00841 19.9865 3.93062 20.125 3.79214C20.2635 3.65367 20.3413 3.46585 20.3413 3.27001C20.3413 3.07418 20.2635 2.88636 20.125 2.74789C19.9865 2.60941 19.7987 2.53162 19.6029 2.53162H14.7966Z" fill="#219653"/>
<path d="M24.0269 2.53162H22.7189C22.523 2.53162 22.3352 2.60941 22.1967 2.74789C22.0583 2.88636 21.9805 3.07418 21.9805 3.27001C21.9805 3.46585 22.0583 3.65367 22.1967 3.79214C22.3352 3.93062 22.523 4.00841 22.7189 4.00841H24.0269C24.2227 4.00841 24.4105 3.93062 24.549 3.79214C24.6875 3.65367 24.7653 3.46585 24.7653 3.27001C24.7653 3.07418 24.6875 2.88636 24.549 2.74789C24.4105 2.60941 24.2227 2.53162 24.0269 2.53162Z" fill="#219653"/>
<path d="M19.9718 1.4768H24.0262C24.2221 1.4768 24.4099 1.399 24.5484 1.26053C24.6868 1.12205 24.7646 0.934234 24.7646 0.738399C24.7646 0.542563 24.6868 0.354749 24.5484 0.216272C24.4099 0.0777954 24.2221 0 24.0262 0H19.9718C19.776 0 19.5881 0.0777954 19.4497 0.216272C19.3112 0.354749 19.2334 0.542563 19.2334 0.738399C19.2334 0.934234 19.3112 1.12205 19.4497 1.26053C19.5881 1.399 19.776 1.4768 19.9718 1.4768Z" fill="#219653"/>
<path d="M9.73365 6.5401C9.8307 6.54027 9.92684 6.52129 10.0165 6.48425C10.1063 6.44721 10.1878 6.39284 10.2564 6.32425C10.3251 6.25566 10.3796 6.1742 10.4167 6.08454C10.4539 5.99487 10.4729 5.89876 10.4729 5.8017C10.4741 4.65519 10.9301 3.55597 11.7407 2.74519C12.5513 1.9344 13.6504 1.47825 14.797 1.4768H16.7463C16.9422 1.4768 17.13 1.399 17.2685 1.26053C17.4069 1.12205 17.4847 0.934234 17.4847 0.738399C17.4847 0.542563 17.4069 0.354749 17.2685 0.216272C17.13 0.0777954 16.9422 0 16.7463 0H14.797C13.2589 0.0018986 11.7844 0.613784 10.6969 1.70143C9.60944 2.78907 8.99777 4.26366 8.99609 5.8017C8.99604 5.89862 9.01507 5.99459 9.05211 6.08415C9.08914 6.1737 9.14346 6.25509 9.21194 6.32366C9.28043 6.39222 9.36175 6.44663 9.45127 6.48377C9.54078 6.5209 9.63674 6.54005 9.73365 6.5401Z" fill="#219653"/>
<path d="M34.0054 2.53162C33.1384 2.53262 32.3073 2.87747 31.6942 3.4905C31.0812 4.10354 30.7364 4.9347 30.7354 5.80167C30.7354 5.9975 30.8131 6.18532 30.9516 6.32379C31.0901 6.46227 31.2779 6.54007 31.4738 6.54007C31.6696 6.54007 31.8574 6.46227 31.9959 6.32379C32.1344 6.18532 32.2121 5.9975 32.2121 5.80167C32.2126 5.3262 32.4017 4.87034 32.7379 4.53414C33.0741 4.19794 33.5299 4.00886 34.0054 4.00841H36.232C36.4278 4.00841 36.6156 3.93062 36.7541 3.79214C36.8926 3.65367 36.9704 3.46585 36.9704 3.27001C36.9704 3.07418 36.8926 2.88636 36.7541 2.74789C36.6156 2.60941 36.4278 2.53162 36.232 2.53162H34.0054Z" fill="#219653"/>
<path d="M38.6055 3.27001C38.6054 3.367 38.6245 3.46304 38.6616 3.55265C38.6987 3.64227 38.753 3.72369 38.8216 3.79227C38.8902 3.86084 38.9716 3.91523 39.0612 3.95232C39.1508 3.98941 39.2469 4.00847 39.3439 4.00841H43.2354C43.4313 4.00841 43.6191 3.93062 43.7576 3.79214C43.896 3.65367 43.9738 3.46585 43.9738 3.27001C43.9738 3.07418 43.896 2.88636 43.7576 2.74789C43.6191 2.60941 43.4313 2.53162 43.2354 2.53162H39.3439C39.2469 2.53156 39.1508 2.55062 39.0612 2.58771C38.9716 2.6248 38.8902 2.67919 38.8216 2.74776C38.753 2.81634 38.6987 2.89776 38.6616 2.98738C38.6245 3.07699 38.6054 3.17303 38.6055 3.27001Z" fill="#219653"/>
<path d="M42.2179 1.4768H43.2352C43.431 1.4768 43.6188 1.399 43.7573 1.26053C43.8958 1.12205 43.9736 0.934234 43.9736 0.738399C43.9736 0.542563 43.8958 0.354749 43.7573 0.216272C43.6188 0.0777954 43.431 0 43.2352 0H42.2179C42.0221 0 41.8342 0.0777954 41.6958 0.216272C41.5573 0.354749 41.4795 0.542563 41.4795 0.738399C41.4795 0.934234 41.5573 1.12205 41.6958 1.26053C41.8342 1.399 42.0221 1.4768 42.2179 1.4768Z" fill="#219653"/>
<path d="M28.9425 6.5401C29.1383 6.5401 29.3261 6.46231 29.4646 6.32383C29.6031 6.18535 29.6809 5.99754 29.6809 5.8017C29.6821 4.65504 30.1382 3.5557 30.949 2.74489C31.7598 1.93408 32.8591 1.47803 34.0058 1.4768H38.1573C38.3531 1.4768 38.5409 1.399 38.6794 1.26053C38.8179 1.12205 38.8957 0.934234 38.8957 0.738399C38.8957 0.542563 38.8179 0.354749 38.6794 0.216272C38.5409 0.0777954 38.3531 0 38.1573 0H34.0058C32.4676 0.00167529 30.9929 0.613462 29.9052 1.70113C28.8176 2.7888 28.2058 4.26351 28.2041 5.8017C28.204 5.89869 28.2231 5.99473 28.2602 6.08434C28.2973 6.17395 28.3517 6.25538 28.4202 6.32395C28.4888 6.39253 28.5702 6.44692 28.6599 6.48401C28.7495 6.5211 28.8455 6.54016 28.9425 6.5401Z" fill="#219653"/>
<path d="M45.1984 24.4659C45.0025 24.4659 44.8147 24.5437 44.6762 24.6822C44.5378 24.8207 44.46 25.0085 44.46 25.2043V27.736C44.46 27.9318 44.5378 28.1196 44.6762 28.2581C44.8147 28.3966 45.0025 28.4744 45.1984 28.4744C45.3942 28.4744 45.582 28.3966 45.7205 28.2581C45.859 28.1196 45.9368 27.9318 45.9368 27.736V25.2043C45.9368 25.0085 45.859 24.8207 45.7205 24.6822C45.582 24.5437 45.3942 24.4659 45.1984 24.4659Z" fill="#219653"/>
<path d="M50.2617 45.9914H48.4685V19.7888L50.3499 19.5626C50.5408 19.5352 50.7134 19.4341 50.8307 19.281C50.9481 19.128 51.0009 18.9351 50.9778 18.7436C50.9548 18.5521 50.8577 18.3772 50.7074 18.2564C50.5571 18.1355 50.3655 18.0782 50.1735 18.0968L35.1343 19.9036L34.7292 11.4073C34.8591 11.3494 34.9695 11.255 35.047 11.1356C35.1245 11.0163 35.1658 10.8771 35.1659 10.7348V8.20312C35.1658 8.00732 35.088 7.81957 34.9495 7.68112C34.8111 7.54266 34.6233 7.46483 34.4275 7.46472H25.9887C25.7928 7.46472 25.605 7.54252 25.4665 7.68099C25.3281 7.81947 25.2503 8.00728 25.2503 8.20312V10.7348C25.25 10.8777 25.2914 11.0176 25.3692 11.1375C25.447 11.2573 25.558 11.352 25.6887 11.4099L25.2288 21.096L16.0334 22.1998L15.522 11.4065C15.6517 11.3485 15.7618 11.2542 15.8391 11.135C15.9165 11.0158 15.9577 10.8768 15.9578 10.7348V8.20312C15.9578 8.00728 15.88 7.81947 15.7416 7.68099C15.6031 7.54252 15.4153 7.46472 15.2194 7.46472H6.78061C6.58477 7.46472 6.39696 7.54252 6.25848 7.68099C6.12 7.81947 6.04221 8.00728 6.04221 8.20312V10.7348C6.0422 10.8779 6.08385 11.018 6.16207 11.1378C6.24029 11.2577 6.3517 11.3522 6.48271 11.4099L5.13545 39.6623H4.57385C4.38415 39.6623 4.20172 39.7353 4.0644 39.8662C3.92708 39.997 3.8454 40.1758 3.83629 40.3652L3.56625 45.9914H1.7384C1.64142 45.9914 1.54537 46.0104 1.45576 46.0475C1.36615 46.0846 1.28473 46.139 1.21615 46.2076C1.14757 46.2761 1.09318 46.3576 1.05609 46.4472C1.01901 46.5368 0.999945 46.6328 1 46.7298V49.2615C0.999945 49.3584 1.01901 49.4545 1.05609 49.5441C1.09318 49.6337 1.14757 49.7151 1.21615 49.7837C1.28473 49.8523 1.36615 49.9067 1.45576 49.9438C1.54537 49.9809 1.64142 49.9999 1.7384 49.9999H50.2617C50.3587 49.9999 50.4548 49.9809 50.5444 49.9438C50.634 49.9067 50.7154 49.8523 50.784 49.7837C50.8526 49.7151 50.907 49.6337 50.944 49.5441C50.9811 49.4545 51.0002 49.3584 51.0001 49.2615V46.7298C51.0002 46.6328 50.9811 46.5368 50.944 46.4472C50.907 46.3576 50.8526 46.2761 50.784 46.2076C50.7154 46.139 50.634 46.0846 50.5444 46.0475C50.4548 46.0104 50.3587 45.9914 50.2617 45.9914ZM42.8486 45.9914V38.291C42.8486 38.0951 42.7708 37.9073 42.6324 37.7688C42.4939 37.6304 42.3061 37.5526 42.1102 37.5526H37.0469C36.9499 37.5525 36.8539 37.5716 36.7643 37.6087C36.6747 37.6458 36.5933 37.7001 36.5247 37.7687C36.4561 37.8373 36.4017 37.9187 36.3646 38.0083C36.3275 38.0979 36.3085 38.194 36.3085 38.291V45.9914H35.1693V38.291C35.1693 38.0951 35.0915 37.9073 34.953 37.7688C34.8145 37.6304 34.6267 37.5526 34.4309 37.5526H29.3676C29.2706 37.5525 29.1746 37.5716 29.0849 37.6087C28.9953 37.6458 28.9139 37.7001 28.8453 37.7687C28.7768 37.8373 28.7224 37.9187 28.6853 38.0083C28.6482 38.0979 28.6291 38.194 28.6292 38.291V45.9914H11.7384V24.2036L46.9917 19.9669V45.9914H42.8486ZM41.3718 45.9914H37.7853V39.0294H41.3718V45.9914ZM33.6925 45.9914H30.106V39.0294H33.6925V45.9914ZM26.7304 8.94152H33.6925V9.99637H26.7304V8.94152ZM27.1676 11.4732H33.2541L33.6642 20.0808L26.7174 20.9158L27.1676 11.4732ZM7.52154 8.94152H14.481V9.99637H7.51901L7.52154 8.94152ZM7.96078 11.4732H14.0469L14.5629 22.3762L8.37934 23.12C8.1929 23.1429 8.02218 23.2359 7.90192 23.3802C7.78166 23.5245 7.72091 23.7092 7.73205 23.8967C7.74318 24.0842 7.82535 24.2604 7.96183 24.3895C8.09832 24.5185 8.27885 24.5907 8.46669 24.5914C8.49643 24.5913 8.52616 24.5896 8.55572 24.5863L10.2616 24.3808V39.6623H6.61394L7.96078 11.4732ZM5.27765 41.1391H10.2616V45.9914H5.04474L5.27765 41.1391ZM49.5233 48.5231H2.4768V47.4682H49.5233V48.5231Z" fill="#219653"/>
<path d="M24.5015 35.0918H16.0626C15.8668 35.0918 15.679 35.1696 15.5405 35.3081C15.402 35.4465 15.3242 35.6344 15.3242 35.8302C15.3242 36.026 15.402 36.2138 15.5405 36.3523C15.679 36.4908 15.8668 36.5686 16.0626 36.5686H24.5015C24.6973 36.5686 24.8851 36.4908 25.0236 36.3523C25.1621 36.2138 25.2399 36.026 25.2399 35.8302C25.2399 35.6344 25.1621 35.4465 25.0236 35.3081C24.8851 35.1696 24.6973 35.0918 24.5015 35.0918Z" fill="#219653"/>
<path d="M24.5015 30.0278H16.0626C15.8668 30.0278 15.679 30.1056 15.5405 30.2441C15.402 30.3826 15.3242 30.5704 15.3242 30.7662C15.3242 30.9621 15.402 31.1499 15.5405 31.2884C15.679 31.4268 15.8668 31.5046 16.0626 31.5046H24.5015C24.6973 31.5046 24.8851 31.4268 25.0236 31.2884C25.1621 31.1499 25.2399 30.9621 25.2399 30.7662C25.2399 30.5704 25.1621 30.3826 25.0236 30.2441C24.8851 30.1056 24.6973 30.0278 24.5015 30.0278Z" fill="#219653"/>
<path d="M24.5015 32.5602H16.0626C15.8668 32.5602 15.679 32.638 15.5405 32.7765C15.402 32.9149 15.3242 33.1027 15.3242 33.2986C15.3242 33.4944 15.402 33.6822 15.5405 33.8207C15.679 33.9592 15.8668 34.037 16.0626 34.037H24.5015C24.6973 34.037 24.8851 33.9592 25.0236 33.8207C25.1621 33.6822 25.2399 33.4944 25.2399 33.2986C25.2399 33.1027 25.1621 32.9149 25.0236 32.7765C24.8851 32.638 24.6973 32.5602 24.5015 32.5602Z" fill="#219653"/>
<path d="M33.1636 31.2944H30.632C30.535 31.2944 30.4389 31.3134 30.3493 31.3505C30.2597 31.3876 30.1783 31.442 30.1097 31.5106C30.0411 31.5792 29.9867 31.6606 29.9497 31.7502C29.9126 31.8398 29.8935 31.9358 29.8936 32.0328V34.5645C29.8935 34.6615 29.9126 34.7575 29.9497 34.8471C29.9867 34.9367 30.0411 35.0182 30.1097 35.0867C30.1783 35.1553 30.2597 35.2097 30.3493 35.2468C30.4389 35.2839 30.535 35.3029 30.632 35.3029H33.1636C33.3594 35.3029 33.5473 35.2251 33.6857 35.0866C33.8242 34.9481 33.902 34.7603 33.902 34.5645V32.0328C33.902 31.837 33.8242 31.6492 33.6857 31.5107C33.5473 31.3722 33.3594 31.2944 33.1636 31.2944ZM32.4252 33.8261H31.3704V32.7712H32.4252V33.8261Z" fill="#219653"/>
<path d="M40.8443 31.2944H38.3126C38.2156 31.2944 38.1196 31.3134 38.03 31.3505C37.9404 31.3876 37.8589 31.442 37.7904 31.5106C37.7218 31.5792 37.6674 31.6606 37.6303 31.7502C37.5932 31.8398 37.5742 31.9358 37.5742 32.0328V34.5645C37.5742 34.6615 37.5932 34.7575 37.6303 34.8471C37.6674 34.9367 37.7218 35.0182 37.7904 35.0867C37.8589 35.1553 37.9404 35.2097 38.03 35.2468C38.1196 35.2839 38.2156 35.3029 38.3126 35.3029H40.8443C41.0401 35.3029 41.2279 35.2251 41.3664 35.0866C41.5049 34.9481 41.5827 34.7603 41.5827 34.5645V32.0328C41.5827 31.837 41.5049 31.6492 41.3664 31.5107C41.2279 31.3722 41.0401 31.2944 40.8443 31.2944ZM40.1059 33.8261H39.051V32.7712H40.1059V33.8261Z" fill="#219653"/>
</svg>
