<svg width="51" height="50" viewBox="0 0 51 50" fill="none" xmlns="http://www.w3.org/2000/svg">
<path d="M31.2062 43.5484C31.2062 43.4565 31.2022 43.3645 31.1951 43.2742C32.5758 42.7903 33.6346 41.6944 34.1092 40.3226H51L42.7505 28.1492C41.7561 26.6823 40.1154 25.8065 38.3603 25.8065C36.6052 25.8065 34.9645 26.6823 33.9693 28.1492L30.2738 33.6032C29.7889 31.4532 27.9058 29.8387 25.6419 29.8387C24.8168 29.8387 24.0124 30.0564 23.3033 30.4629C22.4361 29.0944 20.9226 28.2258 19.2827 28.2258C17.5037 28.2258 15.9521 29.221 15.1325 30.6895L14.9211 30.0758C15.1588 29.7935 15.3082 29.4323 15.3082 29.0323V28.2258C15.3082 26.9008 14.2526 25.8242 12.9505 25.8089L13.7184 2.41935V2.11129C13.7184 0.947581 12.7852 0 11.6374 0C11.3162 0 10.9943 0.0774194 10.7065 0.222581L9.22085 0.976613C8.07222 1.55887 7.3592 2.72984 7.3592 4.06129L8.12469 25.8097C6.82344 25.8258 5.7694 26.9016 5.7694 28.2258V29.0323C5.7694 29.4323 5.91884 29.7935 6.15731 30.0758L1.15819 44.5669C1.05326 44.871 1 45.1879 1 45.5097C1 46.5976 1.59618 47.5758 2.55482 48.0613L5.22728 49.4177C5.97846 49.7984 6.82026 50 7.66126 50C8.04202 50 8.42595 49.9589 8.80194 49.8774L18.1651 47.8427C18.8042 47.704 19.3352 47.3048 19.6762 46.775H50.2838V45.1621H30.7642C31.0377 44.6847 31.2062 44.1387 31.2062 43.5484ZM35.2793 29.0629C35.9772 28.0339 37.129 27.4194 38.3603 27.4194C39.5916 27.4194 40.7434 28.0339 41.4405 29.0629L47.9778 38.7097H34.3858C34.3858 36.796 33.2769 35.1532 31.6847 34.3685L35.2793 29.0629ZM9.93149 2.41935L11.4172 1.66532C11.7296 1.50645 12.1286 1.76048 12.1286 2.11129V2.39274L11.3599 25.8065H9.71608L8.949 4.03226C8.949 3.34435 9.32578 2.72661 9.93149 2.41935ZM7.3592 28.2258C7.3592 27.7806 7.71611 27.4194 8.1541 27.4194H12.9235C13.3615 27.4194 13.7184 27.7806 13.7184 28.2258L13.7192 29.0323H7.3592V28.2258ZM14.5459 33.871H13.1922L12.3631 30.6452H13.433L14.5459 33.871ZM11.5491 33.871H9.52848L10.3584 30.6452H10.72L11.5491 33.871ZM7.64457 30.6452H8.7145L7.88542 33.871H6.53171L7.64457 30.6452ZM4.45304 47.221L3.26546 46.6185C2.84894 46.4073 2.5898 45.9823 2.5898 45.5097C2.5898 45.3694 2.61285 45.2315 2.65816 45.0992L5.97528 35.4839H7.47049L4.45304 47.221ZM9.7439 48.0234L8.46967 48.3C7.61436 48.4847 6.71056 48.3661 5.93792 47.9742L5.90612 47.9581L9.11354 35.4839H9.7439V48.0234ZM11.3337 47.6782V35.4839H11.9641L14.9004 46.9024L11.3337 47.6782ZM17.832 46.2653L16.456 46.5645L13.6071 35.4839H15.1023L18.4417 45.1637C18.4719 45.2524 18.4878 45.346 18.4878 45.4419C18.4878 45.8363 18.212 46.1831 17.832 46.2653ZM29.5131 42.9815C29.5814 43.1581 29.6164 43.3484 29.6164 43.5484C29.6164 44.4379 28.9034 45.1613 28.0266 45.1613H20.0545C20.0339 44.9806 20.0013 44.8024 19.9417 44.6306L16.1643 33.6823C16.1261 33.479 16.1031 33.2726 16.1031 33.0645C16.1031 31.2855 17.5291 29.8387 19.2827 29.8387C20.6038 29.8387 21.8025 30.6847 22.266 31.9435L22.6714 33.0444L23.5378 32.2637C24.1292 31.7331 24.8565 31.4516 25.6419 31.4516C27.3954 31.4516 28.8215 32.8984 28.8215 34.6774V35.4839H29.6164C31.3699 35.4839 32.796 36.9306 32.796 38.7097C32.796 40.3016 31.6736 41.6387 30.1267 41.8887L29.149 42.0468L29.5131 42.9815Z" fill="#219653"/>
<path d="M26.4368 36.2909C25.7882 36.2909 25.161 36.4974 24.6364 36.8627C23.9074 36.0248 22.8534 35.4845 21.6674 35.4845C20.5275 35.4845 19.4409 35.9821 18.6865 36.8498L19.8789 37.9159C20.3312 37.3958 20.9838 37.0974 21.6674 37.0974C22.9822 37.0974 24.0521 38.1829 24.0521 39.5168C24.0521 40.8506 22.9822 41.9361 21.6674 41.9361V43.549C23.8589 43.549 25.6419 41.7401 25.6419 39.5168C25.6419 39.0797 25.5553 38.6659 25.4281 38.2716C25.7087 38.0361 26.06 37.9039 26.4368 37.9039C27.3136 37.9039 28.0266 38.6272 28.0266 39.5168H29.6164C29.6164 37.7377 28.1903 36.2909 26.4368 36.2909Z" fill="#219653"/>
<path d="M39.1553 35.4845H43.9247V37.0974H39.1553V35.4845Z" fill="#219653"/>
<path d="M34.3857 32.2581H38.3602V33.871H34.3857V32.2581Z" fill="#219653"/>
<path d="M36.7705 29.0317H38.3603V30.6446H36.7705V29.0317Z" fill="#219653"/>
<path d="M35.9756 35.4845H37.5654V37.0974H35.9756V35.4845Z" fill="#219653"/>
<path d="M39.9502 32.2581H41.54V33.871H39.9502V32.2581Z" fill="#219653"/>
</svg>
