<svg width="51" height="50" viewBox="0 0 51 50" fill="none" xmlns="http://www.w3.org/2000/svg">
<path d="M35.6333 30.6452C35.9672 31.5815 36.8543 32.2581 37.9043 32.2581H45.9688C47.3027 32.2581 48.3882 31.1726 48.3882 29.8387V17.7419C49.2777 17.7419 50.0011 17.0185 50.0011 16.129V14.5161C50.0011 13.6266 49.2777 12.9032 48.3882 12.9032H48.3325C48.0769 10.9774 46.9123 9.30081 45.1623 8.38226V6.45161C46.0519 6.45161 46.7752 5.72823 46.7752 4.83871V3.22581C46.7752 2.33629 46.0519 1.6129 45.1623 1.6129H40.3236C39.4341 1.6129 38.7107 2.33629 38.7107 3.22581V4.83871C38.7107 5.72823 39.4341 6.45161 40.3236 6.45161V8.38145C39.2882 8.92581 38.4623 9.73548 37.9043 10.7065C37.3462 9.73548 36.5204 8.92581 35.4849 8.38145V6.45161C36.3744 6.45161 37.0978 5.72823 37.0978 4.83871V3.22581C37.0978 2.33629 36.3744 1.6129 35.4849 1.6129H30.6462C29.7567 1.6129 29.0333 2.33629 29.0333 3.22581V4.83871C29.0333 5.72823 29.7567 6.45161 30.6462 6.45161V8.38145C28.8962 9.30081 27.7317 10.9774 27.4761 12.9032H25.8075C24.918 12.9032 24.1946 13.6266 24.1946 14.5161V16.129C24.1946 17.0185 24.918 17.7419 25.8075 17.7419V37.0968H22.4333C22.5236 36.8435 22.5817 36.5742 22.5817 36.2903V29.0323C23.4712 29.0323 24.1946 28.3089 24.1946 27.4194V25.8065C24.1946 24.9169 23.4712 24.1935 22.5817 24.1935H20.9688V13.9782L22.2591 12.2581C24.5478 9.20726 25.8075 5.42661 25.8075 1.6129C25.8075 0.723387 25.0841 0 24.1946 0H12.9043C12.0148 0 11.2914 0.723387 11.2914 1.6129C11.2914 5.42661 12.5519 9.20726 14.8398 12.2581L16.1301 13.9782V24.1935H13.0559L6.18493 8.39032C5.67283 7.2121 4.51154 6.45081 3.22686 6.45081C2.77928 6.45081 2.34622 6.54113 1.94057 6.71935C1.15186 7.0621 0.542993 7.69355 0.226864 8.49597C-0.0892649 9.29839 -0.0747487 10.175 0.2688 10.9645L6.02122 24.1935H4.83977C3.95025 24.1935 3.22686 24.9169 3.22686 25.8065V27.4194C3.22686 28.3089 3.95025 29.0323 4.83977 29.0323V36.2903C4.83977 36.5742 4.89783 36.8435 4.98815 37.0968H1.61396C0.724445 37.0968 0.00105771 37.8202 0.00105771 38.7097V41.9355C0.00105771 42.825 0.724445 43.5484 1.61396 43.5484H2.42525C1.90912 44.2371 1.61396 45.0831 1.61396 45.9677C1.61396 48.1911 3.42283 50 5.64622 50C7.86961 50 9.67848 48.1911 9.67848 45.9677C9.67848 45.0831 9.38332 44.2371 8.86719 43.5484H33.9196C34.3228 47.1718 37.4011 50 41.1301 50C44.8591 50 47.9373 47.1718 48.3406 43.5484H50.0011V42.7419C50.0011 37.8508 46.0212 33.871 41.1301 33.871C38.3809 33.871 35.9204 35.1282 34.2922 37.0968H30.6462V30.6452H35.6333ZM41.7099 17.7419L40.6535 21.9694C40.5632 22.329 40.2414 22.5806 39.8704 22.5806H30.6462V17.7419H41.7099ZM30.6462 24.1935H35.4849V25.8065H30.6462V24.1935ZM30.6462 27.4194H35.4849V29.0323H30.6462V27.4194ZM46.7752 29.8387C46.7752 30.2831 46.4132 30.6452 45.9688 30.6452H37.9043C37.4599 30.6452 37.0978 30.2831 37.0978 29.8387V24.1935H39.8704C40.9825 24.1935 41.9478 23.4395 42.218 22.3613L43.3728 17.7419H46.7752V29.8387ZM40.3236 3.22581H45.1623L45.1632 4.83871H40.3236V3.22581ZM43.5494 6.45161V8.06452H41.9365V6.45161H43.5494ZM41.1494 9.7621L41.3204 9.67742H44.1656L44.3357 9.7621C45.5946 10.3919 46.4454 11.5556 46.693 12.9032H38.793C39.0406 11.5556 39.8914 10.3919 41.1494 9.7621ZM30.6462 3.22581H35.4849L35.4857 4.83871H30.6462V3.22581ZM33.872 6.45161V8.06452H32.2591V6.45161H33.872ZM31.472 9.7621L31.643 9.67742H34.4882L34.6583 9.7621C35.9172 10.3919 36.768 11.5556 37.0156 12.9032H29.1156C29.3632 11.5556 30.214 10.3919 31.472 9.7621ZM25.8075 14.5161H48.3882L48.389 16.129H25.8075V14.5161ZM19.7591 12.9032H17.3398L16.1301 11.2903H20.9688L19.7591 12.9032ZM19.3559 9.67742V1.6129H20.9527C20.8769 4.35565 20.4148 7.0629 19.5744 9.67742H19.3559ZM17.743 9.67742H17.5244C16.6841 7.0629 16.222 4.35565 16.1462 1.6129H17.743V9.67742ZM22.0164 9.67742H21.2632C22.0567 7.05645 22.4938 4.35161 22.5656 1.6129H24.1946C24.1946 4.4371 23.4228 7.23548 22.0164 9.67742ZM14.5333 1.6129C14.6051 4.35161 15.0414 7.05645 15.8357 9.67742H15.0825C13.6761 7.23548 12.9043 4.4371 12.9043 1.6129H14.5333ZM17.743 14.5161H19.3559V24.1935H17.743V14.5161ZM1.72767 9.08629C1.88574 8.68468 2.18977 8.36935 2.58493 8.19677C3.3688 7.85242 4.36073 8.23952 4.7059 9.03306L5.77767 11.4976L2.7817 12.696L1.74864 10.3194C1.57686 9.92581 1.5688 9.4879 1.72767 9.08629ZM3.42444 14.1766L6.42041 12.9782L11.297 24.1935H7.78009L3.42444 14.1766ZM4.83977 25.8065H22.5817L22.5825 27.4194H4.83977V25.8065ZM6.45267 36.2903V29.0323H20.9688V36.2903C20.9688 36.7347 20.6067 37.0968 20.1623 37.0968H19.3559V30.6452H17.743V37.0968H14.5172V30.6452H12.9043V37.0968H9.67848V30.6452H8.06557V37.0968H7.25912C6.81477 37.0968 6.45267 36.7347 6.45267 36.2903ZM4.83977 43.5484H6.45267V44.3548C6.45267 44.7992 6.09057 45.1613 5.64622 45.1613C5.20186 45.1613 4.83977 44.7992 4.83977 44.3548V43.5484ZM5.64622 48.3871C4.31235 48.3871 3.22686 47.3016 3.22686 45.9677C3.22686 45.6911 3.28977 45.4274 3.37928 45.1734C3.71638 46.104 4.60106 46.7742 5.64622 46.7742C6.69138 46.7742 7.57606 46.104 7.91315 45.1734C8.00267 45.4274 8.06557 45.6911 8.06557 45.9677C8.06557 47.3016 6.98009 48.3871 5.64622 48.3871ZM41.1301 48.3871C38.2922 48.3871 35.943 46.2798 35.5494 43.5484H37.1793C37.5543 45.3863 39.1825 46.7742 41.1301 46.7742C43.0777 46.7742 44.7059 45.3863 45.0809 43.5484H46.7107C46.3172 46.2798 43.968 48.3871 41.1301 48.3871ZM38.8591 43.5484H43.4002C43.0664 44.4847 42.1793 45.1613 41.1293 45.1613C40.0793 45.1613 39.193 44.4847 38.8591 43.5484ZM41.1301 35.4839C44.8599 35.4839 47.9414 38.3113 48.3438 41.9355H33.9164C34.3188 38.3113 37.4002 35.4839 41.1301 35.4839ZM32.2954 41.9355H1.61396V38.7097H33.2301C32.7253 39.6936 32.3994 40.7831 32.2954 41.9355ZM27.4204 37.0968V17.7419H29.0333V37.0968H27.4204Z" fill="#219653"/>
</svg>
