<svg width="46" height="40" viewBox="0 0 46 40" fill="none" xmlns="http://www.w3.org/2000/svg">
<path d="M43.9375 14.0851L30.388 12.2602L24.331 0.880338C24.1655 0.568764 23.8934 0.316538 23.5572 0.163224C22.714 -0.222535 21.6894 0.0989307 21.2678 0.880338L15.2108 12.2602L1.66126 14.0851C1.2877 14.1346 0.946163 14.2978 0.684671 14.5451C0.368543 14.8462 0.194342 15.2513 0.200346 15.6714C0.206349 16.0915 0.392067 16.4922 0.716691 16.7854L10.5199 25.643L8.20388 38.1505C8.14957 38.4415 8.18431 38.7407 8.30417 39.0143C8.42402 39.2879 8.6242 39.5249 8.88199 39.6984C9.13979 39.8719 9.44488 39.975 9.76269 39.996C10.0805 40.017 10.3983 39.9551 10.68 39.8172L22.7994 33.9121L34.9187 39.8172C35.2496 39.9804 35.6338 40.0348 36.002 39.9754C36.9306 39.8271 37.555 39.0111 37.3949 38.1505L35.0788 25.643L44.8821 16.7854C45.1489 16.5431 45.325 16.2266 45.3783 15.8804C45.5224 15.0149 44.8714 14.2137 43.9375 14.0851Z" fill="#D2D2D2"/>
</svg>
