<svg width="16" height="15" viewBox="0 0 16 15" fill="none" xmlns="http://www.w3.org/2000/svg">
<path d="M15.4829 5.27849L10.6864 4.59458L8.54222 0.329912C8.48365 0.213148 8.38731 0.118624 8.26829 0.061169C7.96981 -0.0833961 7.6071 0.0370749 7.45786 0.329912L5.3137 4.59458L0.517213 5.27849C0.384974 5.29702 0.26407 5.35818 0.171503 5.45085C0.0595945 5.5637 -0.0020722 5.71552 5.31712e-05 5.87295C0.00217854 6.03038 0.0679221 6.18055 0.182838 6.29044L3.65316 9.60988L2.83328 14.2971C2.81405 14.4062 2.82635 14.5183 2.86878 14.6208C2.91121 14.7234 2.98207 14.8122 3.07333 14.8772C3.16459 14.9422 3.27259 14.9809 3.38509 14.9887C3.4976 14.9966 3.6101 14.9734 3.70983 14.9217L8.00004 12.7088L12.2902 14.9217C12.4074 14.9829 12.5434 15.0033 12.6737 14.981C13.0024 14.9254 13.2235 14.6196 13.1668 14.2971L12.3469 9.60988L15.8172 6.29044C15.9117 6.19963 15.974 6.08101 15.9929 5.95127C16.0439 5.62693 15.8135 5.32668 15.4829 5.27849Z" fill="#F5C520"/>
</svg>
