<svg width="46" height="40" viewBox="0 0 46 40" fill="none" xmlns="http://www.w3.org/2000/svg">
<path d="M43.7373 14.0851L30.1878 12.2602L24.1308 0.880338C23.9653 0.568764 23.6932 0.316538 23.357 0.163224C22.5138 -0.222535 21.4892 0.0989307 21.0676 0.880338L15.0106 12.2602L1.46107 14.0851C1.08751 14.1346 0.745968 14.2978 0.484476 14.5451C0.168348 14.8462 -0.00585372 15.2513 0.000150202 15.6714C0.00615412 16.0915 0.191872 16.4922 0.516495 16.7854L10.3198 25.643L8.00369 38.1505C7.94938 38.4415 7.98412 38.7407 8.10397 39.0143C8.22383 39.2879 8.424 39.5249 8.6818 39.6984C8.93959 39.8719 9.24469 39.975 9.56249 39.996C9.8803 40.017 10.1981 39.9551 10.4799 39.8172L22.5992 33.9121L34.7185 39.8172C35.0494 39.9804 35.4336 40.0348 35.8018 39.9754C36.7304 39.8271 37.3548 39.0111 37.1947 38.1505L34.8786 25.643L44.6819 16.7854C44.9487 16.5431 45.1248 16.2266 45.1782 15.8804C45.3222 15.0149 44.6712 14.2137 43.7373 14.0851Z" fill="#F5C520"/>
</svg>
