<svg width="30" height="30" viewBox="0 0 30 30" fill="none" xmlns="http://www.w3.org/2000/svg">
<circle cx="15" cy="15" r="15" fill="#2F89CE"/>
<path d="M7.01218 15.2823L10.4607 16.5682L11.8051 20.8935C11.8635 21.1857 12.2143 21.2442 12.4481 21.0688L14.3769 19.4907C14.5523 19.3153 14.8445 19.3153 15.0783 19.4907L18.5269 22.004C18.7607 22.1794 19.1114 22.0625 19.1698 21.7702L21.7416 9.4957C21.8001 9.20345 21.5078 8.9112 21.2156 9.0281L7.01218 14.5224C6.66147 14.6393 6.66147 15.1654 7.01218 15.2823ZM11.6298 15.9252L18.41 11.7753C18.5269 11.7168 18.6438 11.8922 18.5269 11.9506L12.9741 17.1527C12.7987 17.328 12.6234 17.5618 12.6234 17.8541L12.4481 19.2569C12.4481 19.4322 12.1558 19.4907 12.0973 19.2569L11.3959 16.6851C11.2206 16.3928 11.3375 16.0421 11.6298 15.9252Z" fill="white"/>
</svg>
