<svg width="30" height="31" viewBox="0 0 30 31" fill="none" xmlns="http://www.w3.org/2000/svg">
<ellipse cx="15" cy="15.1333" rx="15" ry="14.9902" fill="#F4F4F4"/>
<path d="M22.8514 19.1036C22.8514 19.0352 22.7877 19.0352 22.7877 18.9667C22.5331 18.4191 21.9601 17.7346 21.1962 16.9817C20.8143 16.6394 20.6233 16.3656 20.4959 16.2287C20.305 15.9549 20.305 15.7496 20.3686 15.4758C20.4323 15.2704 20.6869 14.9282 21.1326 14.3121C21.3872 13.9699 21.5145 13.7646 21.7055 13.5592C22.6604 12.1902 23.106 11.3004 22.9787 10.8897L22.915 10.8212C22.8514 10.7528 22.7877 10.6843 22.6604 10.6843C22.5331 10.6159 22.3421 10.6159 22.1511 10.6843H19.732C19.6684 10.6843 19.6684 10.6843 19.541 10.6843C19.4774 10.6843 19.4137 10.6843 19.4137 10.6843H19.3501H19.2864L19.2227 10.7528C19.1591 10.8212 19.1591 10.8212 19.1591 10.8897C18.9044 11.6426 18.5861 12.2587 18.2678 12.9432C18.0769 13.2854 17.8859 13.6277 17.6949 13.9015C17.5039 14.1753 17.3766 14.3806 17.2493 14.5175C17.122 14.6544 16.9946 14.7228 16.931 14.8597C16.8673 14.9282 16.74 14.9966 16.74 14.9282C16.6763 14.9282 16.6127 14.9282 16.6127 14.8597C16.549 14.7913 16.4854 14.7228 16.4217 14.6544C16.358 14.5859 16.358 14.449 16.2944 14.3121C16.2944 14.1752 16.2944 14.0383 16.2944 13.9699C16.2944 13.9014 16.2944 13.6961 16.2944 13.5592C16.2944 13.3539 16.2944 13.217 16.2944 13.1485C16.2944 12.9432 16.2944 12.6694 16.2944 12.3956C16.2944 12.1218 16.2944 11.9164 16.2944 11.7795C16.2944 11.6426 16.2944 11.4373 16.2944 11.3004C16.2944 11.095 16.2944 10.9581 16.2944 10.8897C16.2944 10.8212 16.2307 10.6843 16.2307 10.6159C16.1671 10.5474 16.1034 10.479 16.0397 10.4105C15.9761 10.3421 15.8488 10.3421 15.7851 10.2736C15.4668 10.2052 15.0848 10.1367 14.6392 10.1367C13.6207 10.1367 12.9204 10.2052 12.6658 10.3421C12.5384 10.4105 12.4111 10.479 12.3475 10.6159C12.2201 10.7528 12.2201 10.8212 12.2838 10.8212C12.6021 10.8897 12.8567 11.0266 12.9841 11.2319L13.0477 11.3688C13.1114 11.4373 13.1114 11.5742 13.175 11.7795C13.2387 11.9849 13.2387 12.1902 13.2387 12.464C13.2387 12.8747 13.2387 13.2854 13.2387 13.5592C13.2387 13.9015 13.175 14.1068 13.175 14.3121C13.175 14.5175 13.1114 14.6544 13.0477 14.7228C12.9841 14.8597 12.9841 14.9282 12.9204 14.9282C12.9204 14.9282 12.9204 14.9966 12.8567 14.9966C12.7931 14.9966 12.7294 15.0651 12.6021 15.0651C12.5384 15.0651 12.4111 14.9966 12.3475 14.9282C12.2201 14.8597 12.0928 14.7228 12.0292 14.586C11.9018 14.4491 11.7745 14.2437 11.6472 13.9699C11.5199 13.6961 11.3289 13.4223 11.2016 13.0116L11.0743 12.7378C11.0106 12.6009 10.8833 12.3271 10.756 11.9849C10.6286 11.6426 10.5013 11.3688 10.374 11.0266C10.3103 10.8897 10.2467 10.8212 10.183 10.7528H10.1194C10.1194 10.7528 10.0557 10.6843 9.99203 10.6843C9.92836 10.6843 9.86471 10.6159 9.80105 10.6159H7.50928C7.25464 10.6159 7.12732 10.6843 7.06366 10.7528L7 10.8212C7 10.8212 7 10.8897 7 10.9581C7 11.0266 7 11.095 7.06366 11.2319C7.38196 12.0533 7.76392 12.8747 8.14588 13.6961C8.52785 14.449 8.90981 15.1335 9.16445 15.6127C9.48275 16.0918 9.73739 16.571 10.0557 16.9817C10.374 17.3924 10.565 17.6662 10.6286 17.8031C10.7559 17.94 10.8196 18.0084 10.8833 18.0769L11.0743 18.2822C11.2016 18.4191 11.3926 18.6245 11.6472 18.8298C11.9018 19.0352 12.2201 19.2405 12.5384 19.4459C12.8567 19.6512 13.2387 19.7881 13.6207 19.925C14.0663 20.0619 14.4482 20.1304 14.8302 20.0619H15.7851C15.9761 20.0619 16.1034 19.9935 16.2307 19.8566L16.2944 19.7881C16.2944 19.7197 16.358 19.7197 16.358 19.6512C16.358 19.5828 16.358 19.5143 16.358 19.3774C16.358 19.1036 16.358 18.8983 16.4217 18.6929C16.4854 18.4876 16.4854 18.3507 16.549 18.2138C16.6127 18.0769 16.6763 18.0084 16.74 17.94C16.8037 17.8715 16.8673 17.8031 16.8673 17.8031H16.931C17.0583 17.7346 17.2493 17.8031 17.3766 17.94C17.5676 18.0769 17.7586 18.2822 17.8859 18.4876C18.0132 18.6929 18.2042 18.8983 18.4588 19.1721C18.7135 19.4459 18.9045 19.6512 19.0318 19.7197L19.2227 19.8566C19.3501 19.925 19.4774 19.9935 19.6684 20.0619C19.8594 20.1304 19.9867 20.1304 20.114 20.1304L22.2784 20.0619C22.4694 20.0619 22.6604 19.9935 22.7877 19.925C22.915 19.8566 22.9787 19.7881 22.9787 19.6512C22.9787 19.5828 22.9787 19.4459 22.9787 19.3774C22.8514 19.2405 22.8514 19.1721 22.8514 19.1036Z" fill="#343A40"/>
</svg>
