<svg width="30" height="30" viewBox="0 0 30 30" fill="none" xmlns="http://www.w3.org/2000/svg">
<circle cx="15" cy="15" r="15" fill="#48C95F"/>
<path d="M20.9451 9.04602C19.4634 7.56946 17.4878 6.74915 15.4024 6.74915C11.0671 6.74915 7.55488 10.2491 7.55488 14.5695C7.55488 15.9366 7.93902 17.3038 8.59756 18.4523L7.5 22.4991L11.6707 21.4054C12.8232 22.007 14.0854 22.3351 15.4024 22.3351C19.7378 22.3351 23.25 18.8351 23.25 14.5148C23.1951 12.4913 22.4268 10.5226 20.9451 9.04602ZM19.189 17.3585C19.0244 17.796 18.2561 18.2335 17.872 18.2882C17.5427 18.3429 17.1037 18.3429 16.6646 18.2335C16.3902 18.1241 16.0061 18.0148 15.5671 17.796C13.5915 16.9757 12.3293 15.007 12.2195 14.8429C12.1098 14.7335 11.3963 13.8038 11.3963 12.8195C11.3963 11.8351 11.8902 11.3976 12.0549 11.1788C12.2195 10.9601 12.439 10.9601 12.6037 10.9601C12.7134 10.9601 12.878 10.9601 12.9878 10.9601C13.0976 10.9601 13.2622 10.9054 13.4268 11.2882C13.5915 11.671 13.9756 12.6554 14.0305 12.7101C14.0854 12.8195 14.0854 12.9288 14.0305 13.0382C13.9756 13.1476 13.9207 13.257 13.811 13.3663C13.7012 13.4757 13.5915 13.6398 13.5366 13.6945C13.4268 13.8038 13.3171 13.9132 13.4268 14.0773C13.5366 14.296 13.9207 14.8976 14.5244 15.4445C15.2927 16.1007 15.8963 16.3195 16.1159 16.4288C16.3354 16.5382 16.4451 16.4835 16.5549 16.3741C16.6646 16.2648 17.0488 15.8273 17.1585 15.6085C17.2683 15.3898 17.4329 15.4445 17.5976 15.4991C17.7622 15.5538 18.75 16.046 18.9146 16.1554C19.1341 16.2648 19.2439 16.3195 19.2988 16.3741C19.3537 16.5382 19.3537 16.921 19.189 17.3585Z" fill="white"/>
</svg>
