<svg width="30" height="31" viewBox="0 0 30 31" fill="none" xmlns="http://www.w3.org/2000/svg">
<ellipse cx="15" cy="15.1333" rx="15" ry="14.9902" fill="#F4F4F4"/>
<path d="M22 13.9727C22 13.6698 21.9489 13.3165 21.9489 12.9127C21.8978 12.5089 21.8467 12.1052 21.7956 11.7519C21.6934 11.3481 21.5401 11.0452 21.2336 10.7929C20.9781 10.5405 20.6204 10.3891 20.2628 10.3386C19.0876 10.1872 17.3504 10.1367 15 10.1367C12.6496 10.1367 10.8613 10.1872 9.73722 10.3386C9.37956 10.3891 9.0219 10.5405 8.76642 10.7929C8.51095 11.0452 8.30657 11.3481 8.20438 11.7519C8.10219 12.1052 8.0511 12.4585 8.0511 12.9127C8 13.3165 8 13.6698 8 13.9727C8 14.2755 8 14.6288 8 15.1335C8 15.6383 8 16.0421 8 16.2944C8 16.5973 8.0511 16.9506 8.0511 17.3544C8.10219 17.7581 8.15328 18.1619 8.20438 18.5152C8.30657 18.919 8.45985 19.2219 8.76642 19.4742C9.0219 19.7266 9.37956 19.878 9.73722 19.9285C10.9124 20.0799 12.6496 20.1304 15 20.1304C17.3504 20.1304 19.1387 20.0799 20.2628 19.9285C20.6204 19.878 20.9781 19.7266 21.2336 19.4742C21.4891 19.2219 21.6934 18.919 21.7956 18.5152C21.8978 18.1619 21.9489 17.8086 21.9489 17.3544C22 16.9506 22 16.5973 22 16.2944C22 15.9916 22 15.6383 22 15.1335C22 14.6288 22 14.225 22 13.9727ZM17.708 15.5373L13.6715 18.0105C13.6204 18.061 13.5183 18.1115 13.4161 18.1115C13.3139 18.1115 13.2628 18.1114 13.1606 18.061C13.0073 17.96 12.9051 17.8086 12.9051 17.6067V12.6099C12.9051 12.408 13.0073 12.2566 13.1606 12.1556C13.3139 12.0547 13.5183 12.0547 13.6715 12.1556L17.708 14.6288C17.8613 14.7298 17.9635 14.8812 17.9635 15.0326C17.9635 15.184 17.8613 15.4364 17.708 15.5373Z" fill="#343A40"/>
</svg>
