<svg width="80" height="80" fill="none" xmlns="http://www.w3.org/2000/svg"><path d="M20.017 19.843h-8.463v-6.796h5.83a1.563 1.563 0 100-3.125h-5.83V3.125h8.463a1.563 1.563 0 100-3.125H9.991c-.863 0-1.563.7-1.563 1.562v19.844c0 .863.7 1.562 1.563 1.562h10.026a1.563 1.563 0 100-3.125zM60.007 0c-6.335 0-11.488 5.152-11.488 11.484 0 6.333 5.153 11.484 11.488 11.484 6.334 0 11.488-5.151 11.488-11.484C71.495 5.152 66.34 0 60.007 0zm0 19.843c-4.611 0-8.362-3.75-8.362-8.359 0-4.61 3.75-8.359 8.362-8.359 4.61 0 8.362 3.75 8.362 8.36 0 4.609-3.752 8.358-8.362 8.358zm-17.579-2.448c-3.26 3.26-8.566 3.26-11.826 0-3.26-3.259-3.26-8.562 0-11.821 3.26-3.26 8.565-3.26 11.826 0a1.564 1.564 0 002.21-2.21c-4.479-4.478-11.767-4.478-16.246 0-4.48 4.477-4.48 11.763 0 16.24a11.454 11.454 0 008.123 3.359c2.942 0 5.884-1.12 8.123-3.358a1.562 1.562 0 10-2.21-2.21z" fill="#219653"/><path d="M78.872 34.757l-.013-.043a1.563 1.563 0 00-1.026-1.115c-.192-.064-4.777-1.555-11.323-1.096-6.026.423-14.933 2.65-23.15 10.864-8.216 8.213-10.444 17.117-10.866 23.14-.46 6.545 1.032 11.127 1.096 11.319.155.468.523.835.991.99.167.056 3.635 1.184 8.82 1.184.796 0 1.632-.026 2.502-.088 6.026-.422 14.933-2.65 23.15-10.862 14.537-14.533 10.73-31.116 9.819-34.293zM62.82 36.132a32.701 32.701 0 013.775-.502 32.07 32.07 0 017.674.35 1.574 1.574 0 00-.222.184L62.82 47.388V36.132zm-3.126.772v13.608L49.217 60.987v-18.47c0-.05-.003-.1-.008-.15 3.242-2.51 6.746-4.334 10.485-5.462zM35.612 66.725c.56-7.988 3.91-15.104 9.959-21.15.172-.172.346-.342.52-.51V64.04c0 .023.002.044.003.066l-10.13 10.127a31.92 31.92 0 01-.352-7.508zm10.206 10.06a32.036 32.036 0 01-7.64-.346l4.882-4.88h18.036c-4.627 3.061-9.742 4.815-15.278 5.225zm21.024-9.946a39.865 39.865 0 01-1.692 1.596H46.185l9.072-9.07h17.369c-1.437 2.493-3.323 5.013-5.784 7.474zm7.37-10.598h-15.83l17.876-17.869a1.56 1.56 0 00.177-.213c.648 3.77 1.058 10.623-2.224 18.082z" fill="#7198CB"/><path d="M36.64 43.366c-8.217-8.213-17.125-10.44-23.15-10.863-6.546-.459-11.131 1.032-11.323 1.096a1.563 1.563 0 00-1.027 1.115l-.012.043c-.911 3.177-4.718 19.76 9.82 34.293 4.611 4.61 9.894 7.815 15.7 9.525a1.565 1.565 0 001.941-1.057 1.562 1.562 0 00-1.057-1.94c-5.3-1.561-10.136-4.501-14.374-8.738-3.695-3.693-6.097-7.522-7.621-11.187h15.49l7.544 7.541c.306.305.706.458 1.106.458a1.562 1.562 0 001.105-2.667l-1.723-1.723V41.105a37.276 37.276 0 015.37 4.471 1.564 1.564 0 002.21-2.21zm-23.37-7.745c.685.048 1.363.118 2.034.206v9.686l-9.441-9.439a1.588 1.588 0 00-.112-.101c1.793-.305 4.41-.57 7.52-.352zM4.428 52.528a31.95 31.95 0 01-.866-14.345c.029.035.059.069.091.101l14.249 14.244H4.427zm21.506 3.61l-7.503-7.5v-12.24a31.254 31.254 0 017.503 2.82v16.92z" fill="#7198CB"/><path d="M29.508 70.25c-3.02-.89-5.888-2.315-8.523-4.237a1.563 1.563 0 00-1.843 2.524c2.926 2.135 6.117 3.72 9.483 4.71a1.565 1.565 0 001.94-1.056 1.562 1.562 0 00-1.057-1.94zm-12.284-7.465l-.005-.006a1.56 1.56 0 00-2.207.003 1.566 1.566 0 001.107 2.67 1.563 1.563 0 001.105-2.667zM40.01 26.619c-.863 0-1.562.7-1.562 1.562V32.6a1.562 1.562 0 103.125 0v-4.42c0-.863-.7-1.563-1.563-1.563zm9.122 4.304c-.61-.61-1.6-.61-2.21 0l-3.188 3.186a1.562 1.562 0 102.21 2.21l3.188-3.186c.61-.61.61-1.6 0-2.21zm-12.862 3.14l-3.192-3.192a1.563 1.563 0 00-2.21 2.21l3.192 3.191c.306.306.706.458 1.106.458a1.562 1.562 0 001.105-2.667z" fill="#7198CB"/></svg>