<svg width="80" height="80" fill="none" xmlns="http://www.w3.org/2000/svg"><path d="M52.413 6.943c.647 0 1.172-.524 1.172-1.172v-4.6a1.172 1.172 0 10-2.344 0v4.6c0 .647.525 1.172 1.172 1.172zM41.415 8.379a1.169 1.169 0 001.653.119c.49-.424.543-1.164.12-1.653l-2.986-3.448a1.172 1.172 0 10-1.771 1.534l2.984 3.448zm20.344.119a1.169 1.169 0 001.653-.119l2.985-3.448a1.172 1.172 0 10-1.772-1.534L61.64 6.845c-.424.49-.37 1.23.119 1.653zM49.985 43.637a3.492 3.492 0 004.856 0l18.026-17.332a3.506 3.506 0 00.372-4.631l-2.42-3.216a1.172 1.172 0 10-1.872 1.409l2.077 2.762h-9.302l-2.47-8.158h5.057c.363 0 .709.173.927.463l.894 1.188a1.172 1.172 0 101.873-1.409l-.894-1.188a3.52 3.52 0 00-2.8-1.397H40.517a3.52 3.52 0 00-2.8 1.397l-6.13 8.149a3.506 3.506 0 00.372 4.631l18.026 17.332zM43.04 24.972l6.71 15.188-15.796-15.188h9.086zm27.832 0L55.076 40.16l6.71-15.187h9.086zM52.413 40.387l-6.811-15.415h13.622l-6.811 15.415zm4.39-25.916l2.47 8.158h-13.72l2.47-8.158h8.78zm-17.213.463c.218-.29.564-.463.927-.463h5.058l-2.471 8.158H33.8l5.789-7.695z" fill="#219653"/><path d="M71.572 58.158l-7.178 4.366a27.372 27.372 0 01-23.176 2.511 3.073 3.073 0 01-2.08-2.517 3.073 3.073 0 011.298-2.997l7.464-5.246a4.317 4.317 0 001.117-5.96 4.316 4.316 0 00-4.544-1.835l-19.177 4.208v-.243a3.042 3.042 0 00-3.039-3.039h-9.61a1.172 1.172 0 100 2.344h9.61c.383 0 .695.312.695.695v26.516a.696.696 0 01-.695.695H2.396a.052.052 0 01-.052-.052V49.803c0-.029.023-.052.052-.052h5.567a1.172 1.172 0 100-2.344H2.396A2.398 2.398 0 000 49.802v27.803A2.398 2.398 0 002.396 80h19.861a3.042 3.042 0 003.039-3.039v-.596l.686.198a57.003 57.003 0 0015.844 2.245c2.008 0 4.025-.105 6.043-.317a57.088 57.088 0 0021.181-6.516 1.172 1.172 0 00-1.11-2.064 54.754 54.754 0 01-20.315 6.25 54.8 54.8 0 01-20.993-1.85l-1.336-.385V53.087l19.679-4.317a1.985 1.985 0 012.092.844c.606.91.38 2.115-.515 2.744l-7.464 5.245a5.446 5.446 0 00-2.27 5.244 5.446 5.446 0 003.64 4.405 29.708 29.708 0 0025.154-2.725l7.178-4.366c2.057-1.252 4.926.112 4.865 2.148a2.176 2.176 0 01-.792 1.615 55.374 55.374 0 01-4.871 3.582 1.172 1.172 0 001.282 1.962 57.71 57.71 0 005.079-3.734 4.518 4.518 0 001.645-3.356c.12-4.038-4.91-6.359-8.427-4.22z" fill="#7198CB"/><path d="M17.004 69.574v-2.542a1.172 1.172 0 10-2.344 0v2.542a1.172 1.172 0 102.344 0z" fill="#7198CB"/></svg>