<svg width="20" height="20" fill="none" xmlns="http://www.w3.org/2000/svg"><path fill-rule="evenodd" clip-rule="evenodd" d="M10 0C4.48 0 0 4.48 0 10s4.48 10 10 10 10-4.48 10-10S15.52 0 10 0zm.857 16H9.143v-1.714h1.714V16zm1.003-5.854l.772-.789a2.728 2.728 0 00.797-1.928A3.428 3.428 0 0010 4a3.428 3.428 0 00-3.428 3.429h1.714A1.72 1.72 0 0110 5.714a1.72 1.72 0 011.714 1.715c0 .471-.188.9-.505 1.208l-1.063 1.08a3.45 3.45 0 00-1.003 2.426v.428h1.714c0-1.285.386-1.8 1.003-2.425z" fill="#7198CB"/></svg>