<svg width="50" height="48" fill="none" xmlns="http://www.w3.org/2000/svg"><path d="M47.68 29.094a3.127 3.127 0 00.563-1.792v-.731a3.149 3.149 0 00-3.146-3.145h-.616a.732.732 0 100 1.465h.616c.927 0 1.68.753 1.68 1.68v.731c0 .927-.753 1.681-1.68 1.681h-7.675c-.927 0-1.68-.754-1.68-1.68v-.732c0-.927.753-1.68 1.68-1.68h4.13a.732.732 0 100-1.465h-4.13c-.711 0-1.368.237-1.895.637h-4.226a.625.625 0 01-.476-.216.625.625 0 01-.151-.5l.855-6.445.002-.017a4.088 4.088 0 00-1.02-3.167 4.088 4.088 0 00-3.038-1.355h-.748c-.93 0-1.705.695-1.809 1.617l-.928 7.334a3.15 3.15 0 01-2.402 2.666 2.105 2.105 0 00-2.086-1.84H2.303A2.306 2.306 0 000 24.444v19.051a2.306 2.306 0 002.303 2.303h1.916a.732.732 0 100-1.465H2.303a.84.84 0 01-.838-.838v-19.05a.84.84 0 01.838-.839H19.5c.351 0 .637.286.637.637v19.453a.638.638 0 01-.637.637H7.148a.732.732 0 100 1.465H19.5c.909 0 1.685-.58 1.977-1.39a8.81 8.81 0 005.696 2.075h6.736c.527.4 1.183.637 1.894.637h6.644a3.149 3.149 0 003.145-3.146v-.731a3.12 3.12 0 00-.489-1.68 3.149 3.149 0 003.139-3.146v-.731c0-.666-.209-1.283-.563-1.792A3.15 3.15 0 0050 32.86v-.732a3.15 3.15 0 00-2.32-3.034zM21.604 42.482V25.469a4.619 4.619 0 003.839-3.971l.928-7.34.002-.014a.354.354 0 01.353-.316h.748a2.62 2.62 0 012.603 2.89l-.854 6.435a2.098 2.098 0 002.08 2.374h3.153c-.207.511-.182 1.22-.178 1.775a3.15 3.15 0 002.319 3.035 3.127 3.127 0 00-.562 1.791v.732c0 .665.208 1.282.562 1.791a3.15 3.15 0 00-2.32 3.034v.732c0 .68.218 1.31.586 1.825a3.15 3.15 0 00-2.203 3c-.004.557-.029 1.263.179 1.776h-5.664a7.354 7.354 0 01-5.571-2.536zm22.525 1.492c0 .927-.754 1.68-1.68 1.68h-6.644c-.926 0-1.68-.753-1.68-1.68v-.731c0-.927.754-1.68 1.68-1.68h6.644c.926 0 1.68.753 1.68 1.68v.731zm2.65-5.557c0 .927-.754 1.68-1.68 1.68h-7.676c-.927 0-1.68-.753-1.68-1.68v-.731c0-.927.753-1.68 1.68-1.68h7.675c.927 0 1.68.753 1.68 1.68v.731zm1.757-5.557c0 .926-.754 1.68-1.68 1.68H39.18c-.926 0-1.68-.754-1.68-1.68v-.732c0-.926.754-1.68 1.68-1.68h7.676c.926 0 1.68.754 1.68 1.68v.732z" fill="#7198CB"/><path d="M14.813 28.706a.732.732 0 100-1.465h-2.42a.732.732 0 100 1.465h2.42z" fill="#7198CB"/><path d="M1.742 12.031l-.177 2.195c-.03.363.13.707.424.922.294.213.67.258 1.008.118l2.032-.847 2.032.847c.337.14.713.096 1.008-.118a1.03 1.03 0 00.424-.922l-.177-2.195 1.433-1.67a1.03 1.03 0 00.2-.996 1.029 1.029 0 00-.747-.688l-2.141-.51-1.147-1.879a1.03 1.03 0 00-.885-.497 1.03 1.03 0 00-.885.497l-1.146 1.88-2.142.509a1.03 1.03 0 00-.746.688 1.03 1.03 0 00.2.995l1.432 1.671zm1.769-2.48c.266-.063.501-.234.645-.468l.873-1.433.874 1.433c.143.234.378.405.645.468l1.632.389-1.092 1.273a1.044 1.044 0 00-.247.758l.136 1.673-1.55-.645a1.042 1.042 0 00-.796 0l-1.55.645.136-1.672a1.043 1.043 0 00-.246-.759L1.878 9.94l1.633-.389zm9.066.456l-.322 3.983c-.036.44.156.857.513 1.116a1.248 1.248 0 001.22.143l3.688-1.537 3.689 1.537c.406.17.862.116 1.219-.143.357-.26.549-.676.513-1.116l-.322-3.983 2.602-3.033c.287-.335.377-.785.24-1.204a1.245 1.245 0 00-.902-.832l-3.887-.925-.041-.067a.732.732 0 00-1.25.763l.086.141c.173.284.457.49.78.567l3.637.866-2.434 2.837a1.262 1.262 0 00-.298.918l.3 3.726-3.45-1.438a1.261 1.261 0 00-.965 0l-3.45 1.438.3-3.726a1.263 1.263 0 00-.297-.918l-2.434-2.837 3.636-.866c.324-.076.608-.283.781-.567l1.947-3.191.334.548a.733.733 0 001.25-.763l-.514-.843A1.245 1.245 0 0017.677 0c-.441 0-.841.225-1.07.601l-2.082 3.412-3.887.924a1.245 1.245 0 00-.903.833c-.136.419-.046.87.241 1.204l2.602 3.033z" fill="#219653"/></svg>