<svg width="50" height="61" fill="none" xmlns="http://www.w3.org/2000/svg"><path d="M18.917 42.278v1.571a.88.88 0 101.761 0v-1.57a.88.88 0 10-1.761 0z" fill="#7198CB"/><path d="M24.85 7.146a.88.88 0 00.88-.88V.88a.88.88 0 10-1.76 0v5.384c0 .487.394.88.88.88zm16.476.07l-3.807 3.808a.88.88 0 001.245 1.246l3.808-3.808a.88.88 0 10-1.246-1.246zM49.12 23.97h-5.385a.88.88 0 100 1.76h5.385a.88.88 0 100-1.76zm-42.855.3H.881a.88.88 0 100 1.76h5.384a.88.88 0 100-1.76zm6.005-13.034L8.462 7.428a.88.88 0 00-1.245 1.245l3.808 3.808a.878.878 0 001.245 0 .88.88 0 000-1.245z" fill="#219653"/><path d="M37.301 18.111a3.032 3.032 0 00-3.028-3.028h-.652c-.461 0-.9.104-1.292.29a3.032 3.032 0 00-3.003-2.648h-.652a3.01 3.01 0 00-1.468.38 3.033 3.033 0 00-2.828-1.945h-.65c-1.29 0-2.391.81-2.828 1.946a3.009 3.009 0 00-1.469-.381h-.65a3.032 3.032 0 00-3.03 3.028v4.606a4.595 4.595 0 00-3.35 4.417v1.982a5.853 5.853 0 003.918 5.551v1.5h-.087c-.97 0-1.76.79-1.76 1.76v22.747c0 .971.79 1.761 1.76 1.761h11.7a.88.88 0 100-1.76h-11.7V35.57h18.741v22.747h-3.52a.88.88 0 100 1.76h3.52c.971 0 1.761-.79 1.761-1.76V35.57c0-.895-.67-1.633-1.535-1.745a8.073 8.073 0 001.535-4.747v-3.292a3.011 3.011 0 00.567-1.76v-2.214a.88.88 0 10-1.76 0v2.213c0 .7-.57 1.268-1.268 1.268h-.652a1.269 1.269 0 01-1.267-1.268v-5.914a1.27 1.27 0 011.267-1.267h.652a1.27 1.27 0 011.267 1.267v.18a.88.88 0 101.761 0v-.18zm-8.627-3.626h.652c.699 0 1.267.57 1.267 1.268v6.833c0 .698-.568 1.267-1.267 1.267h-.652a1.269 1.269 0 01-1.267-1.267v-6.833a1.27 1.27 0 011.267-1.268zm-6.214-.296c0-.7.569-1.268 1.267-1.268h.652a1.27 1.27 0 011.267 1.268v6.832c0 .699-.569 1.267-1.267 1.267-.369-.008-.926.056-1.251-.15a3.068 3.068 0 00-.668-1.032v-6.918zm-3.68.296h.652c.698 0 1.267.57 1.267 1.268v4.465a3.077 3.077 0 00-.421-.03h-2.765v-4.435c0-.699.568-1.268 1.267-1.268zm14.841 12.569c.404-.002.969.024 1.352-.083v2.107c0 1.82-.767 3.527-2.115 4.73H18.08v-2.147c-.005-.011.006-.717-.688-.872a4.108 4.108 0 01-3.23-4.031v-1.982a2.83 2.83 0 012.827-2.827h3.289a1.3 1.3 0 01.473 2.506l-3.872 1.516a.88.88 0 10.641 1.64l3.873-1.516a3.037 3.037 0 001.848-2.086c.3.06.828.037 1.138.04a3.01 3.01 0 001.468-.38 3.033 3.033 0 002.828 1.945h.65c.55 0 1.065-.148 1.51-.404a3.032 3.032 0 002.786 1.844z" fill="#7198CB"/></svg>