<svg width="51" height="50" fill="none" xmlns="http://www.w3.org/2000/svg"><path d="M48.58 33.871h-5.645v-1.613c0-.89-.723-1.613-1.612-1.613V3.225A3.23 3.23 0 0038.097 0a3.229 3.229 0 00-3.226 3.226v27.42c-.89 0-1.613.723-1.613 1.612v1.613h-5.007c-.617 0-1.205.232-1.655.655l-3.42 3.206a6.465 6.465 0 00-3.034-1.597l-1.575-.351a.801.801 0 01-.631-.787V33.87c0-.89-.724-1.613-1.613-1.613V3.226A3.23 3.23 0 0013.097 0 3.229 3.229 0 009.87 3.226v29.032c-.89 0-1.613.723-1.613 1.613v1.126a.8.8 0 01-.631.787l-1.575.35A6.41 6.41 0 001 42.432v5.956C1 49.277 1.723 50 2.613 50h44.355A4.037 4.037 0 0051 45.968V36.29a2.422 2.422 0 00-2.42-2.419zM38.098 1.613c.89 0 1.613.723 1.613 1.613v3.226h-3.226V3.226c0-.89.723-1.613 1.613-1.613zm-1.613 6.452h3.226v22.58h-3.226V8.065zM34.87 32.258h6.452v1.613H34.87v-1.613zm-7.173 3.444a.806.806 0 01.553-.218h15.064l-3.44 3.226H29.39l-4.197 3.934v-.212a6.459 6.459 0 00-.989-3.453l3.494-3.277zM14.71 27.42h-3.226V8.065h3.226v19.354zM13.097 1.613c.89 0 1.613.723 1.613 1.613v3.226h-3.226V3.226c0-.89.723-1.613 1.613-1.613zm-1.613 27.42h3.226v3.225h-3.226v-3.226zm-5.082 8.676l1.575-.35a2.404 2.404 0 001.894-2.362V33.87h6.452v1.126c0 1.142.779 2.114 1.894 2.362l1.575.35a4.792 4.792 0 013.747 4.227H2.655a4.793 4.793 0 013.747-4.227zm1.05 5.84v4.838H5.839v-4.839h1.613zm1.613 0h1.612v4.838H9.065v-4.839zm3.225 0h1.613v4.838H12.29v-4.839zm3.226 0h1.613v4.838h-1.613v-4.839zm3.226 0h1.613v4.838h-1.613v-4.839zm-16.13 0h1.614v4.838H2.613v-4.839zm19.356 4.838v-4.839h1.613v4.84h-1.613zm3.226-3.531l4.835-4.533h8.126l-4.49 4.209a6.412 6.412 0 00-1.962 3.855h-6.51v-3.531zm24.193 1.112a2.422 2.422 0 01-2.42 2.42H33.334a4.789 4.789 0 011.436-2.68l10.905-10.224h2.907c.444 0 .806.361.806.806v9.678z" fill="#219653"/></svg>