<svg width="51" height="50" fill="none" xmlns="http://www.w3.org/2000/svg"><path d="M31.206 43.548a4.13 4.13 0 00-.01-.274 4.758 4.758 0 002.913-2.951H51l-8.25-12.174a5.305 5.305 0 00-4.39-2.343 5.308 5.308 0 00-4.39 2.343l-3.696 5.454c-.485-2.15-2.368-3.764-4.632-3.764a4.7 4.7 0 00-2.339.624c-.867-1.369-2.38-2.237-4.02-2.237-1.78 0-3.33.995-4.15 2.463l-.212-.613c.238-.282.387-.644.387-1.044v-.806c0-1.325-1.055-2.402-2.357-2.417l.767-23.39v-.308C13.718.948 12.785 0 11.638 0c-.322 0-.644.077-.931.223L9.22.977C8.072 1.559 7.359 2.73 7.359 4.06l.766 21.749c-1.302.016-2.356 1.092-2.356 2.416v.806c0 .4.15.762.388 1.044l-4.999 14.49A2.883 2.883 0 001 45.51c0 1.088.596 2.066 1.555 2.551l2.672 1.357A5.41 5.41 0 007.661 50c.381 0 .765-.041 1.14-.123l9.364-2.034a2.414 2.414 0 001.511-1.068h30.608v-1.613h-19.52a3.232 3.232 0 00.442-1.614zm4.073-14.485a3.724 3.724 0 013.081-1.644 3.72 3.72 0 013.08 1.644l6.538 9.647H34.386a4.837 4.837 0 00-2.701-4.342l3.594-5.305zM9.931 2.419l1.486-.754c.313-.159.712.095.712.446v.282l-.77 23.413H9.717L8.95 4.032c0-.688.377-1.305.982-1.613zM7.36 28.226c0-.445.357-.807.795-.807h4.77c.438 0 .794.362.794.807l.001.806H7.36v-.806zm7.187 5.645h-1.354l-.829-3.226h1.07l1.113 3.226zm-2.997 0H9.53l.83-3.226h.361l.83 3.226zm-3.904-3.226h1.07l-.83 3.226H6.532l1.113-3.226zM4.453 47.221l-1.188-.602a1.235 1.235 0 01-.675-1.11c0-.14.023-.278.068-.41l3.317-9.615H7.47L4.453 47.22zm5.29.802L8.47 48.3a3.838 3.838 0 01-2.532-.326l-.032-.016 3.208-12.474h.63v12.54zm1.59-.345V35.484h.631L14.9 46.902l-3.566.776zm6.499-1.413l-1.376.3-2.849-11.081h1.495l3.34 9.68a.843.843 0 01-.61 1.102zm11.681-3.284c.068.177.103.367.103.567 0 .89-.713 1.613-1.59 1.613h-7.971a2.46 2.46 0 00-.113-.53l-3.778-10.949a3.345 3.345 0 01-.06-.617c0-1.78 1.425-3.226 3.179-3.226 1.32 0 2.52.846 2.983 2.105l.405 1.1.867-.78a3.108 3.108 0 012.104-.812c1.753 0 3.18 1.446 3.18 3.225v.807h.794c1.754 0 3.18 1.447 3.18 3.226 0 1.592-1.122 2.929-2.67 3.179l-.977.158.364.934z" fill="#219653"/><path d="M26.437 36.29c-.649 0-1.276.207-1.8.573-.73-.838-1.784-1.379-2.97-1.379a3.95 3.95 0 00-2.98 1.366l1.192 1.066a2.372 2.372 0 011.788-.819c1.315 0 2.385 1.086 2.385 2.42 0 1.334-1.07 2.42-2.385 2.42v1.612c2.192 0 3.975-1.809 3.975-4.032a4.04 4.04 0 00-.214-1.245 1.56 1.56 0 011.009-.368c.877 0 1.59.723 1.59 1.613h1.59c0-1.78-1.427-3.226-3.18-3.226zm12.718-.806h4.77v1.613h-4.77v-1.613zm-4.769-3.226h3.974v1.613h-3.974v-1.613zm2.384-3.226h1.59v1.613h-1.59v-1.613zm-.794 6.452h1.59v1.613h-1.59v-1.613zm3.974-3.226h1.59v1.613h-1.59v-1.613z" fill="#219653"/></svg>