<svg width="51" height="50" fill="none" xmlns="http://www.w3.org/2000/svg"><path d="M47.602 19.341h-.806v-2.42a2.423 2.423 0 00-2.42-2.42h-5.683L24.268.651c-.905-.87-2.448-.869-3.352 0L.744 20.015A2.407 2.407 0 000 21.712a2.4 2.4 0 00.673 1.724 2.432 2.432 0 001.748.746 2.41 2.41 0 001.676-.674l.744-.714v23.979h26.68l-.048.691A2.367 2.367 0 0033.83 50h1.725a2.367 2.367 0 002.36-2.533l-.75-10.491a1.62 1.62 0 00-1.61-1.499H35.5v-4.034c0-.445.362-.806.807-.806h11.295a2.423 2.423 0 002.42-2.42v-6.455a2.423 2.423 0 00-2.42-2.42zm-2.42-2.42v6.454a.808.808 0 01-.807.807H25.012a.808.808 0 01-.807-.807v-6.454c0-.446.362-.807.807-.807h19.363c.445 0 .807.361.807.807zM2.979 22.344a.83.83 0 01-1.141-.025.802.802 0 01-.224-.574.785.785 0 01.248-.565l20.17-19.365a.828.828 0 011.118 0L36.363 14.5h-2.33L22.59 3.516 2.98 22.344zM22.591 5.753l9.112 8.747h-6.691a2.423 2.423 0 00-2.42 2.42v6.455a2.423 2.423 0 002.42 2.42h4.034v8.069a1.614 1.614 0 01-3.227 0v-2.42a2.423 2.423 0 00-2.42-2.421 2.423 2.423 0 00-2.421 2.42v8.875c0 .89-.724 1.614-1.614 1.614-.89 0-1.614-.724-1.614-1.614V25.796a3.23 3.23 0 00-3.227-3.228 3.23 3.23 0 00-3.227 3.228v5.647a.808.808 0 01-1.614 0v-3.227a2.423 2.423 0 00-2.42-2.42h-.807v-4.552L22.591 5.753zm12.965 42.633H33.83c-.415 0-.751-.337-.75-.804l.52-7.264h2.184l.522 7.317a.752.752 0 01-.751.751zm.114-9.681h-1.954l.115-1.614h1.725l.114 1.614zm12.74-10.489a.808.808 0 01-.807.807H36.306a2.423 2.423 0 00-2.42 2.42v4.034h-.056a1.62 1.62 0 00-1.61 1.499l-.584 8.183H6.455V27.41h.807c.444 0 .807.362.807.807v3.227a2.423 2.423 0 002.42 2.42 2.423 2.423 0 002.42-2.42v-5.647c0-.89.724-1.614 1.614-1.614.89 0 1.614.724 1.614 1.614v14.522a3.23 3.23 0 003.227 3.227 3.23 3.23 0 003.227-3.227v-8.875a.808.808 0 011.614 0v2.42a3.23 3.23 0 003.227 3.228 3.23 3.23 0 003.227-3.227v-8.068h13.716a2.423 2.423 0 002.42-2.42v-2.421h.807c.445 0 .807.361.807.807v6.454z" fill="#219653"/></svg>