<svg width="51" height="50" fill="none" xmlns="http://www.w3.org/2000/svg"><path d="M35.633 30.645a2.416 2.416 0 002.271 1.613h8.065a2.422 2.422 0 002.42-2.42V17.743c.889 0 1.612-.724 1.612-1.613v-1.613c0-.89-.723-1.613-1.613-1.613h-.055a5.978 5.978 0 00-3.17-4.52V6.451c.889 0 1.612-.724 1.612-1.613V3.226c0-.89-.723-1.613-1.613-1.613h-4.838c-.89 0-1.613.723-1.613 1.613v1.613c0 .89.723 1.613 1.613 1.613v1.93a5.997 5.997 0 00-2.42 2.325 5.998 5.998 0 00-2.42-2.326v-1.93c.89 0 1.614-.723 1.614-1.612V3.226c0-.89-.724-1.613-1.613-1.613h-4.839c-.89 0-1.613.723-1.613 1.613v1.613c0 .89.724 1.613 1.613 1.613v1.93a5.98 5.98 0 00-3.17 4.521h-1.668c-.89 0-1.613.724-1.613 1.613v1.613c0 .89.723 1.613 1.613 1.613v19.355h-3.375c.09-.254.149-.523.149-.807v-7.258c.89 0 1.613-.723 1.613-1.613v-1.613c0-.89-.724-1.613-1.613-1.613h-1.613V13.979l1.29-1.72a17.85 17.85 0 003.549-10.645c0-.89-.724-1.613-1.613-1.613h-11.29c-.89 0-1.614.723-1.614 1.613 0 3.814 1.26 7.594 3.549 10.645l1.29 1.72v10.216h-3.074L6.185 8.39a3.224 3.224 0 00-5.958.106 3.203 3.203 0 00.042 2.468l5.752 13.23H4.84c-.89 0-1.613.723-1.613 1.613v1.612c0 .89.723 1.613 1.613 1.613v7.258c0 .284.058.553.148.807H1.614c-.89 0-1.613.723-1.613 1.613v3.225c0 .89.723 1.613 1.613 1.613h.811a4.038 4.038 0 00-.811 2.42A4.037 4.037 0 005.646 50a4.037 4.037 0 004.032-4.032c0-.885-.295-1.73-.81-2.42H33.92C34.323 47.172 37.4 50 41.13 50s6.807-2.828 7.21-6.452h1.661v-.806c0-4.891-3.98-8.871-8.87-8.871a8.857 8.857 0 00-6.839 3.226h-3.646v-6.452h4.987zm6.077-12.903l-1.056 4.227a.807.807 0 01-.784.612h-9.224v-4.84H41.71zm-11.064 6.451h4.839v1.613h-4.839v-1.613zm0 3.226h4.839v1.613h-4.839V27.42zm16.13 2.42a.808.808 0 01-.807.806h-8.065a.808.808 0 01-.806-.806v-5.645h2.772a2.417 2.417 0 002.348-1.833l1.155-4.62h3.402V29.84zM40.323 3.226h4.838l.001 1.613h-4.84V3.226zm3.225 3.226v1.613h-1.612V6.452h1.612zm-2.4 3.31l.171-.085h2.846l.17.085a4.38 4.38 0 012.357 3.141h-7.9a4.38 4.38 0 012.356-3.14zM30.646 3.226h4.839v1.613h-4.839V3.226zm3.226 3.226v1.613h-1.613V6.452h1.613zm-2.4 3.31l.171-.085h2.845l.17.085a4.38 4.38 0 012.358 3.141h-7.9a4.38 4.38 0 012.356-3.14zm-5.665 4.754h22.581l.001 1.613H25.807v-1.613zm-6.048-1.613h-2.42L16.13 11.29h4.839l-1.21 1.613zm-.403-3.226V1.613h1.597a28.925 28.925 0 01-1.379 8.064h-.218zm-1.613 0h-.219a28.928 28.928 0 01-1.378-8.064h1.597v8.064zm4.273 0h-.753a30.557 30.557 0 001.303-8.064h1.629c0 2.824-.772 5.622-2.179 8.064zm-7.483-8.064a30.524 30.524 0 001.303 8.064h-.754a16.233 16.233 0 01-2.178-8.064h1.63zm3.21 12.903h1.613v9.678h-1.613v-9.678zM1.728 9.086c.158-.401.462-.717.857-.89.784-.344 1.776.044 2.12.837l1.073 2.465-2.996 1.198-1.033-2.377a1.595 1.595 0 01-.021-1.233zm1.696 5.09l2.996-1.198 4.877 11.216H7.78L3.424 14.177zm1.416 11.63h17.742v1.613H4.84v-1.613zM6.453 36.29v-7.258h14.516v7.258a.808.808 0 01-.807.807h-.806v-6.452h-1.613v6.452h-3.226v-6.452h-1.613v6.452H9.678v-6.452H8.066v6.452h-.807a.808.808 0 01-.806-.807zM4.84 43.548h1.613v.807a.808.808 0 01-.807.806.808.808 0 01-.806-.806v-.807zm.806 4.84a2.422 2.422 0 01-2.42-2.42c0-.277.064-.54.153-.795.337.931 1.222 1.601 2.267 1.601s1.93-.67 2.267-1.6c.09.253.153.517.153.794a2.422 2.422 0 01-2.42 2.42zm35.484 0c-2.838 0-5.187-2.108-5.58-4.84h1.63a4.04 4.04 0 003.95 3.226 4.04 4.04 0 003.95-3.226h1.63c-.393 2.732-2.742 4.84-5.58 4.84zm-2.27-4.84h4.54a2.416 2.416 0 01-2.27 1.613 2.415 2.415 0 01-2.27-1.613zm2.27-8.064c3.73 0 6.811 2.827 7.214 6.451H33.916c.403-3.624 3.484-6.451 7.214-6.451zm-8.835 6.451H1.614V38.71H33.23a8.786 8.786 0 00-.935 3.225zm-4.875-4.838V17.742h1.613v19.355H27.42z" fill="#219653"/></svg>