<svg width="51" height="50" fill="none" xmlns="http://www.w3.org/2000/svg"><path d="M39.56 8.839c-.135-.134-12.759-12.557-28.27-.067-.134.134-.268.335-.268.537v37.065c0 .403.268.672.671.672h27.396c.403 0 .672-.269.672-.672V9.31a.61.61 0 00-.202-.47zM24.72 45.703H12.364V33.482H24.72v12.22zm0-13.564H12.364V19.582H24.72V32.14zm0-13.9H12.364V9.646c4.5-3.56 8.73-4.902 12.356-5.104V18.24zm13.698 27.464H26.063V33.482h12.355v12.22zm0-13.564H26.063V19.582h12.355V32.14zm0-13.9H26.063V4.541c6.647.202 11.347 4.164 12.355 5.104v8.595z" fill="#219653"/><path d="M42.648 6.824c-.134-.134-15.578-15.242-34.38-.067-.134.134-.268.336-.268.537V49.33c0 .402.269.671.671.671h33.507c.403 0 .672-.269.672-.672V7.294a.61.61 0 00-.202-.47zm-1.141 41.833H9.343V7.63c16.854-13.362 30.284-1.746 32.164 0v41.027z" fill="#219653"/></svg>