<svg width="51" height="50" fill="none" xmlns="http://www.w3.org/2000/svg"><path d="M14.797 2.532a3.274 3.274 0 00-3.27 3.27.738.738 0 101.477 0 1.795 1.795 0 011.793-1.794h4.806a.738.738 0 000-1.476h-4.806zm9.23 0h-1.308a.738.738 0 100 1.476h1.308a.738.738 0 000-1.476zm-4.055-1.055h4.054a.739.739 0 100-1.477h-4.054a.738.738 0 100 1.477z" fill="#219653"/><path d="M9.734 6.54a.737.737 0 00.739-.738 4.33 4.33 0 014.324-4.325h1.95a.739.739 0 100-1.477h-1.95a5.808 5.808 0 00-5.8 5.802.738.738 0 00.737.738zm24.271-4.008a3.274 3.274 0 00-3.27 3.27.738.738 0 101.477 0 1.795 1.795 0 011.793-1.794h2.227a.738.738 0 000-1.476h-2.227zm4.6.738a.737.737 0 00.739.738h3.891a.738.738 0 100-1.476h-3.891a.738.738 0 00-.739.738zm3.613-1.793h1.017a.738.738 0 000-1.477h-1.017a.738.738 0 100 1.477z" fill="#219653"/><path d="M28.942 6.54a.738.738 0 00.739-.738 4.33 4.33 0 014.325-4.325h4.151a.738.738 0 000-1.477h-4.151a5.808 5.808 0 00-5.802 5.802.737.737 0 00.738.738zm16.256 17.926a.738.738 0 00-.738.738v2.532a.739.739 0 001.477 0v-2.532a.738.738 0 00-.739-.738z" fill="#219653"/><path d="M50.262 45.991h-1.794V19.79l1.882-.226a.738.738 0 00-.177-1.466l-15.039 1.807-.405-8.497a.736.736 0 00.437-.672V8.203a.739.739 0 00-.738-.738h-8.44a.739.739 0 00-.738.738v2.532a.737.737 0 00.439.675l-.46 9.686-9.196 1.104-.511-10.793a.736.736 0 00.436-.672V8.203a.739.739 0 00-.739-.738H6.781a.738.738 0 00-.739.738v2.532a.737.737 0 00.44.675L5.136 39.662h-.561a.738.738 0 00-.738.703l-.27 5.626H1.738A.739.739 0 001 46.73v2.532a.738.738 0 00.738.738h48.524a.739.739 0 00.738-.74v-2.53a.737.737 0 00-.738-.739zm-7.413 0v-7.7a.739.739 0 00-.739-.738h-5.063a.737.737 0 00-.738.738v7.7h-1.14v-7.7a.738.738 0 00-.738-.738h-5.063a.738.738 0 00-.739.738v7.7H11.74V24.204l35.253-4.237V45.99H42.85zm-1.477 0h-3.587V39.03h3.587v6.962zm-7.68 0h-3.586V39.03h3.587v6.962zM26.73 8.941h6.963v1.055H26.73V8.942zm.438 2.532h6.086l.41 8.608-6.947.835.45-9.443zM7.522 8.942h6.959v1.054H7.519l.003-1.054zm.439 2.531h6.086l.516 10.903-6.184.744a.739.739 0 00.177 1.466l1.706-.205v15.281H6.614L7.96 11.473zM5.278 41.14h4.984v4.852H5.045l.233-4.852zm44.245 7.384H2.477v-1.055h47.046v1.055z" fill="#219653"/><path d="M24.502 35.092h-8.44a.738.738 0 000 1.477h8.44a.738.738 0 000-1.477zm0-5.064h-8.44a.738.738 0 000 1.477h8.44a.739.739 0 000-1.477zm0 2.532h-8.44a.738.738 0 000 1.477h8.44a.738.738 0 000-1.477zm8.662-1.266h-2.532a.739.739 0 00-.738.739v2.532a.737.737 0 00.738.738h2.532a.738.738 0 00.738-.738v-2.532a.738.738 0 00-.738-.739zm-.739 2.532H31.37v-1.055h1.055v1.055zm8.419-2.532h-2.531a.739.739 0 00-.739.739v2.532a.739.739 0 00.739.738h2.531a.738.738 0 00.739-.738v-2.532a.738.738 0 00-.739-.739zm-.738 2.532H39.05v-1.055h1.055v1.055z" fill="#219653"/></svg>