<svg width="46" height="40" fill="none" xmlns="http://www.w3.org/2000/svg"><path d="M43.737 14.085l-13.55-1.825L24.132.88a1.642 1.642 0 00-.774-.717c-.843-.386-1.868-.064-2.29.717l-6.056 11.38-13.55 1.825c-.373.05-.715.213-.977.46-.316.301-.49.706-.484 1.126.006.42.192.821.516 1.114l9.804 8.858-2.316 12.508c-.055.29-.02.59.1.863.12.274.32.51.578.684a1.819 1.819 0 001.798.119l12.12-5.905 12.118 5.905c.331.163.716.218 1.084.158.928-.148 1.553-.964 1.393-1.825L34.88 25.643l9.803-8.858c.267-.242.443-.558.496-.905.144-.865-.507-1.666-1.44-1.795z" fill="#F5C520"/></svg>