<svg width="46" height="40" fill="none" xmlns="http://www.w3.org/2000/svg"><path d="M43.938 14.085l-13.55-1.825L24.331.88a1.642 1.642 0 00-.774-.717C22.714-.223 21.69.1 21.267.88l-6.056 11.38-13.55 1.825a1.76 1.76 0 00-.976.46A1.53 1.53 0 00.2 15.671c.006.42.192.821.517 1.114l9.803 8.858-2.316 12.508c-.054.29-.02.59.1.863.12.274.32.51.578.684a1.818 1.818 0 001.798.119l12.12-5.905 12.119 5.905c.33.163.715.218 1.083.158.929-.148 1.553-.964 1.393-1.825l-2.316-12.507 9.803-8.858c.267-.242.443-.558.496-.905.144-.865-.507-1.666-1.44-1.795z" fill="#D2D2D2"/></svg>