<svg width="30" height="30" fill="none" xmlns="http://www.w3.org/2000/svg"><circle cx="15" cy="15" r="15" fill="#2F89CE"/><path d="M7.012 15.282l3.449 1.286 1.344 4.325c.059.293.41.351.643.176l1.929-1.578c.175-.176.467-.176.701 0l3.449 2.513c.234.175.584.058.643-.234l2.572-12.274c.058-.293-.234-.585-.526-.468L7.012 14.522c-.35.117-.35.643 0 .76zm4.618.643l6.78-4.15c.117-.058.234.117.117.176l-5.553 5.202c-.175.175-.35.409-.35.701l-.176 1.403c0 .175-.292.234-.35 0l-.702-2.572c-.175-.292-.059-.643.234-.76z" fill="#fff"/></svg>