<svg width="30" height="31" fill="none" xmlns="http://www.w3.org/2000/svg"><ellipse cx="15" cy="15.133" rx="15" ry="14.99" fill="#F4F4F4"/><path d="M22.851 19.104c0-.069-.063-.069-.063-.137-.255-.548-.828-1.232-1.592-1.985-.382-.343-.573-.616-.7-.753-.191-.274-.191-.48-.127-.753.063-.206.318-.548.764-1.164.254-.342.382-.547.573-.753.954-1.369 1.4-2.259 1.273-2.67l-.064-.068c-.064-.068-.127-.137-.255-.137-.127-.068-.318-.068-.509 0h-2.865l-.063.069c-.064.068-.064.068-.064.137-.255.753-.573 1.369-.891 2.053-.191.342-.382.685-.573.959-.191.273-.318.479-.446.616-.127.136-.254.205-.318.342-.064.068-.191.137-.191.068-.064 0-.127 0-.127-.068l-.191-.206c-.064-.068-.064-.205-.128-.342V10.89c0-.069-.063-.206-.063-.274l-.191-.205c-.064-.069-.191-.069-.255-.137a5.332 5.332 0 00-1.146-.137c-1.018 0-1.719.068-1.973.205-.128.069-.255.137-.319.274-.127.137-.127.205-.063.205.318.069.573.206.7.41l.064.138c.063.068.063.205.127.41.064.206.064.411.064.685v1.095c0 .343-.064.548-.064.753 0 .206-.064.342-.127.41-.064.138-.064.206-.128.206 0 0 0 .069-.063.069-.064 0-.128.068-.255.068-.064 0-.19-.068-.255-.137a.798.798 0 01-.318-.342 2.404 2.404 0 01-.382-.616c-.127-.274-.318-.548-.445-.958l-.128-.274c-.063-.137-.19-.41-.318-.753-.127-.342-.255-.616-.382-.958a.94.94 0 00-.191-.274h-.064s-.063-.069-.127-.069-.127-.068-.191-.068H7.51c-.254 0-.382.068-.445.137L7 10.82v.137c0 .069 0 .137.064.274.318.821.7 1.643 1.082 2.464.382.753.764 1.438 1.018 1.917.319.479.573.958.892 1.369.318.41.509.684.573.821l.254.274.191.205c.128.137.319.343.573.548.255.205.573.41.891.616.319.205.7.342 1.083.479.445.137.827.205 1.21.137h.954a.56.56 0 00.446-.205l.063-.069c0-.068.064-.068.064-.137v-.274c0-.273 0-.479.064-.684.063-.205.063-.342.127-.48a.94.94 0 01.191-.273l.127-.137h.064c.127-.068.318 0 .446.137.19.137.382.342.509.548.127.205.318.41.573.684.255.274.445.48.573.548l.19.137c.128.068.255.137.446.205.191.068.319.068.446.068l2.164-.068c.191 0 .382-.069.51-.137.127-.068.19-.137.19-.274v-.274c-.127-.136-.127-.205-.127-.273z" fill="#343A40"/></svg>