<svg width="290" height="430" fill="none" xmlns="http://www.w3.org/2000/svg"><path opacity=".5" d="M12.392 401.093c-11.42 8.882-5.873 15.742 12.18 25.346 14.935 7.98 33.06 1.625 45.241-9.929 12.18-11.59 9.425-18.017-7.25-25.744-16.675-7.691-32.698-3.286-50.171 10.327z" fill="#90A4AF"/><path d="M85.927 34.238l145.012 84.012L290 84.012 144.988 0 85.927 34.238z" fill="#EDDDDD"/><path d="M85.926 111.612l145.012 84.038L290 161.438 144.988 77.4l-59.062 34.212z" fill="#C6ADAC"/><path d="M85.926 34.4v76.756L232 195.65v-76.756L85.926 34.4z" fill="#DBC7C6"/><path opacity=".3" d="M229.852 191.35v-65.539L146.459 77.4l-56.236 32.658v.111l139.629 81.181z" fill="#AF9B9A"/><path d="M290 83.85l-58 34.623v77.177l58-34.586V83.85zM90.223 38.7v70.95l55.851-32.92v-5.073L90.223 38.7z" fill="#C1AFAE"/><path d="M227.703 124.7v-4.757L143.926 70.95v5.057l.222-.113 83.555 48.806z" fill="#AF9B9A"/><path d="M214.815 112.498L158.963 79.55v70.95l55.852-33.06v-4.942z" fill="#C1AFAE"/><path d="M158.963 150.5l-4.296-2.338V75.25l4.296 2.338V150.5z" fill="#DBC7C6"/><path d="M285.603 155.091c-.083-.42-.553-.355-.663 0-.249.872-.332 1.777-.553 2.649-.221.904-.552 1.712-.801 2.584-.221.807.801 1.292 1.16.581.746-1.582 1.161-4.037.857-5.814zm-2.118 9.504c-.423-.939-1.171-1.265-1.853-1.795-.683-.53-1.366-1.387-2.179-1.55-.097 0-.195.041-.195.204.033 1.958 2.439 4.323 3.934 4.079.325-.123.455-.653.293-.938zm-44.116-44.036c-1.13.9-1.986 1.999-2.534 3.299-.377.866-.925 2.132-.137 2.898.103.1.274.134.377.034.753-.533.753-1.5 1.061-2.299.479-1.166 1.267-2.133 2.226-2.966.684-.566-.309-1.499-.993-.966zm1.131 6.599c-.037-.411-.733-.411-.769 0a13.796 13.796 0 01-1.282 3.999c-.623 1.196-1.539 2.131-2.088 3.327-.22.448.146 1.121.696.934 2.967-1.233 3.846-5.344 3.443-8.26zm-.033 59.105c-.856-.821-1.875-1.478-2.772-2.299-.979-.904-1.59-2.054-2.406-3.08-.326-.452-1.142-.37-1.142.287.123 2.916 3.018 6.037 5.994 5.873.367 0 .612-.493.326-.781zm4.359-14.046c-.038-.275-.416-.275-.567-.078-.756 1.373-1.21 2.864-1.928 4.237-.605 1.177-1.701 2.276-1.739 3.649 0 .354.378.668.718.55 1.474-.471 2.117-2.315 2.646-3.649.681-1.531 1.097-3.061.87-4.709zm42.454-79.743c-.035-.032-.103-.032-.137 0-.719.61-.651 1.67-.822 2.538-.205 1.092-.65 2.153-.616 3.245 0 .642.958.9 1.301.321.616-.996.684-2.28.753-3.405.102-.9.274-2.056-.479-2.699zm-122.83 41.152c-.199-.518-.996-.38-1.076.138-.279 1.758 0 3.689.319 5.448.159.828 1.754.655 1.714-.207-.08-1.793-.279-3.724-.957-5.379zm5.234 4.162c-.032-.194-.219-.258-.313-.097-.626.903-1.095 1.934-1.721 2.836-.625.935-1.564 1.58-2.158 2.514-.282.452.187 1.193.719.967 2.065-.805 3.692-3.964 3.473-6.22zm30.338-23.807c-.12-.101-.27.068-.24.204.21.849.51 1.664.659 2.547.18 1.019.12 1.936.06 2.921-.06.849 1.169 1.052 1.319.203.36-2.003-.18-4.686-1.798-5.875zm-2.67 4.28c-2.097.564-3.63 2.971-4.006 5.415-.156 1.016 1.127 1.467 1.315.452.438-2.332 1.47-3.836 2.91-5.416.156-.188-.031-.526-.219-.451z" fill="#AF9B9A"/><path d="M41.385 152.37c-.618-.476-.764-1.355-.29-1.977l48.737-65.967c.474-.622 1.347-.769 1.966-.293.619.476.764 1.355.291 1.977l-48.738 65.967c-.473.622-1.347.768-1.966.293z" fill="#513534"/><path d="M92.483 92.64c.332-1.805-2.109-2.455-4.069-1.047 1.22-1.625 2.81-4.224.629-5.343-1.184-.578-2.59-.253-3.847.397 0-.686-.185-1.3-.814-1.552-.74-.325-1.405.108-1.96.722-.074-1.48-.444-2.996-1.48-3.646-1.405-.903-2.514-.072-3.18 1.083-.26-.47-.888-.903-1.59-1.264-1.147-.36-2.294-.505-3.255.29-1.776 1.407-.26 4.006.628 5.739-1.072.794-1.775 2.094-1.553 3.321-1.22-.397-2.7.108-3.107 1.444-.555 1.841.629 3.574 2.108 4.62-1.368.217-2.7.723-2.108 2.275.555 1.516 2.478 1.913 4.18 1.841-.851 1.372-1.184 2.996.665 3.79 1.369.578 3.292-.324 4.66-1.48.296 1.372 1.406 2.563 2.886 2.708a2.453 2.453 0 002.256-1.119c1.664 1.588 3.883 2.888 5.992 1.48.961-.65 1.405-2.058 1.146-3.105.85.072 1.701-.108 2.293-.902a2.27 2.27 0 00.333-2.094c1.406-.397 2.59-1.3 3.144-2.743.259-.723.296-1.589.111-2.383-.37-.722-1.368-2.744-4.069-3.032z" fill="#E52C2C"/><path d="M69.776 109.661c-1.686 3.828-5.49 8.66-4.306 10.073 1.938 2.342 5.418 1.747 5.418 1.747s-1.327 5.91-4.162 7.1c-5.095 2.193-9.007 3.382-9.007 3.382s-14.747 31.67-24.687 35.387c-4.126 1.561-7.14-2.416-7.248-5.65-.394-12.155 16.255-30.108 26.84-38.435 3.48-2.676 10.011-14.013 17.152-13.604z" fill="#FFC9B6"/><path d="M64.444 122.833s.802-1.956 2.697-3.183c1.896-1.227 2.042-3.116 4.338-3.481 2.296-.332 5.103.53 2.916 2.586-2.15 2.089-1.895 4.177-4.593 5.537-2.697 1.458-5.358-1.459-5.358-1.459z" fill="#FFC9B6"/><path d="M13.399 271.845c-15.823-16.66-.742-34.239 6.854-39.645 4.04 4.928 28.013 14.711 28.161 15.299 2.89 12.246.26 25.044-3.409 36.886-2.26 7.392-4.224 19.859-9.522 40.086 2.445 10.04-.334 25.302-1.371 36.666-.704 7.944-3.891 28.759-4.373 30.524 1.445-.441 3.854-2.574 7.115-3.677 3.038-1.03 6.929-1.104 8.67-.442 5.41 2.133 6.966 4.082 5.521 7.539-2.149 5.075-8.967 6.694-13.784 7.723-7.3 1.508-11.412 13.019-19.194 5.075-2-2.059-.222-7.428.445-10.26-.148-1.986.445-19.455-1.779-32.768-2.705-16.034-4.113-34.018 5.336-43.432-10.634-26.81-10.264-41.373-8.67-49.574z" fill="#F9BBA7"/><path d="M17.36 397.527s4.556 1.619 7.482 2.538c2.926.92 9.964 1.288 15.371-3.899 2.112-2.024 3.593-4.562 2.852-5.997-1.37-2.723-7.296-1.361-7.296-1.361s10.149-6.99 15.853-2.392c2.63 2.134 3.296 6.439-1.148 11-2.63 2.723-10.372 7.579-17.076 11.111-4.37 2.318-11.445 6.916-16.26 2.281-4.853-4.562.222-13.281.222-13.281z" fill="#2C1D1B"/><path d="M28.436 284.745c-15.822-16.66-.741-34.239 6.855-39.645 4.039 4.928 28.012 14.711 28.16 15.299 2.89 12.247.26 25.045-3.408 36.887-2.26 7.392-4.224 19.859-9.523 40.086 2.445 10.039-.334 25.302-1.371 36.665-.704 7.944-3.89 28.759-4.373 30.525 1.445-.442 3.854-2.575 7.115-3.678 3.038-1.03 6.929-1.103 8.67-.441 5.41 2.133 6.967 4.082 5.521 7.539-2.149 5.075-8.967 6.693-13.784 7.723-7.3 1.508-11.412 13.018-19.194 5.075-2-2.06-.222-7.429.445-10.261-.148-1.986.445-19.454-1.779-32.767-2.704-16.035-4.113-34.018 5.336-43.433-10.634-26.846-10.227-41.373-8.67-49.574z" fill="#FFC9B6"/><path d="M32.38 410.427s4.559 1.619 7.486 2.538c2.928.92 9.968 1.288 15.378-3.899 2.112-2.024 3.595-4.562 2.854-5.997-1.371-2.686-7.3-1.361-7.3-1.361s10.153-6.991 15.86-2.392c2.63 2.134 3.297 6.439-1.15 11.001-2.63 2.722-10.375 7.578-17.082 11.11-4.373 2.318-11.45 6.917-16.267 2.281-4.818-4.562.222-13.281.222-13.281z" fill="#2C1D1B"/><path d="M10.726 159.856c6.887-2.522 15.297 1.484 15.66 8.754 3.805 6.603.072 16.285-5.873 20.699-6.924 5.119-17.581-.074-19.865-8.012-2.392-8.235 2.03-18.473 10.078-21.441z" fill="#FF9E55"/><path d="M27.235 179.676c6.252 1.962 11.87.339 17.876-.642-3.722-4.226-8.464-8.338-4.811-19.959-4.741-1.396-9.026-3.396-13.205-6.188-.843-.566-2.177-.076-2.353 1.019-.948 5.282-2.142 11.432-5.338 14.035.035 1.887-.07 1.51-.07 3.358v4.113c2.001 2.264 5.022 3.396 7.901 4.264z" fill="#FFC9B6"/><path d="M23.84 140.572c.789-7.067 6.764-16.429 14.92-15.846 8.305.619 13.98 12.567 14.618 18.14 1.09 9.471.226 27.32-15.183 21.565-11.988-4.444-15.52-13.332-14.356-23.859z" fill="#FFC9B6"/><path d="M6.966 201.355c-5.175-16.223-2.004-26.989 2.552-32.298 1.895-2.175 7.581-8.554 12.466-4.13-1.568 7.374 12.757 11.357 21.87 11.357 6.925 5.235 10.133 9.143 14.106 16.222 4.191 7.485 7.69 13.642-1.24 19.099 2.734 8.185-3.062 18.104-.692 39.083-8.347 6.71-24.385 6.636-33.242 1.18-6.926-4.24-10.607-8.997-10.243-14.122 2.297-4.977 3.244-6.01 2.99-12.204-.329-7.779-6.197-16.739-8.567-24.187z" fill="#FFB65F"/><path d="M54.658 191.35c1.227.187 7.295 12.395 7.602 17 .307 4.606-1.398 13.743-1.875 18.461-.477 4.718-1.125 12.582-1.125 12.582l-9.852 3.557s2.795-6.216 3.306-14.828c.512-8.613-2.25-27.71-2.25-27.71l4.194-9.062z" fill="#28A745"/><path d="M23.172 344.965c15.985 9.952 20.128 8.478 31.383 5.05 8.176-2.507 11.952-8.515 13.785-14.891.734-25.581.477-61.961-.916-71.692-2.603-18.172-6.71-21.194-6.71-21.194l-29.256 3.022-17.231-10.91s-8.982 11.574-11.255 22.521C.698 267.855-.365 279.982.112 296.716c.55 19.535 1.43 27.608 0 37.302 2.823 13.49 13.345 4.902 23.06 10.947z" fill="#28A745"/><path d="M47.259 178.158s-9.46-2.449-13.942 4.342c-4.517 6.79-2.987 19.296-2.845 29.39.142 10.093-.213 31.06-.213 31.06l-4.482-1.67s.96-12.84.747-27.015c-.213-14.176 0-28.203 3.165-33.658 3.166-5.455 13.017-6.457 13.017-6.457l4.553 4.008zm-36.677 15.413c-.641-9.33-.035-13.173 2.246-17.726 3.137-6.157 7.558-9.628 10.053-11.232.25-.598.5-1.157.749-1.754-1.212-.672-2.389-1.68-3.066-1.605-6.132.634-12.014 8.06-13.725 18.509-1.354 8.21.998 21.122 3.743 31.31 3.173 11.941 4.136 14.441 4.136 22.614 0 1.866 5.24 4.963 5.24 4.963s-1.176-9.404-3.672-19.927c-2.21-9.367-5.312-19.704-5.704-25.152z" fill="#28A745"/><path d="M58.93 236.16l1.218 5.721s-15.35 11.013-30.294 6.382c-15.239-4.709-19.113-10.858-19.113-10.858l2.25-7.355c2.251 2.413 10.037 10.041 20.738 11.792 5.977 1.012 17.084-1.829 25.201-5.682zm-39.596 54.09s.79 9.42 3.523 20.504c2.732 11.084 5.07 18.196 5.07 18.196s-.432-10.025-2.482-21.374c-2.049-11.349-6.111-17.326-6.111-17.326zm30.812-8.6s-1.229 14.123-.516 24.781c.714 10.657 6.222 24.669 6.222 24.669s-1.15-18.334-1.387-28.098c-.238-9.726-4.32-21.352-4.32-21.352z" fill="#23923C"/><path d="M62.933 199.053c2.664 3.018 5.868 7.104 7.38 10.895 1.728 4.342 5.292 10.931 6.84 14.685 3.528 1.693 9.648 3.754 17.136 8.244 7.704 4.601 10.692 6.809 14.58 6.919 3.96.111 6.624.92 9.359 1.399 5.472.957.864 3.018-.756 3.239-1.872.257-4.895.883-4.895.883s6.371 8.649 9.251 14.464c2.952 5.963-5.399 12.403-10.547 6.846-5.184-5.631-9.216-14.133-10.692-16.562-1.44-2.429-15.3-6.367-19.584-7.324-1.332-.295-7.776-1.73-9.144-2.025-2.196-.405-2.88-1.693-5.148-3.975-2.592-2.613-3.132-2.723-8.964-10.305-5.004-6.514-8.243-9.385-10.26-17.777-2.231-9.201 12.384-13.065 15.444-9.606z" fill="#FFC9B6"/><path d="M50.483 180.89c9.513 1.876 18.118 16.627 17.937 26.236 2.577 3.415-11.074 15.539-15.54 14.225-7.19-.976-13.797-11.148-15.83-21.92-2.433-12.724 3.74-20.456 13.434-18.541z" fill="#FF9E55"/><path d="M68.931 206.4l1.922 4.385s.711 3.553-4.198 8.128c-4.946 4.536-10.817 4.687-10.817 4.687l-2.134-2.835s6.12-1.701 10.069-5.292c3.984-3.554 5.158-9.073 5.158-9.073z" fill="#28A745"/><path d="M55.798 132.83c.755-.94 1.293-1.952 1.4-2.928.396-2.964-4.308-3.723-7.217-3-4.13-6.688-14.76-9.11-20.756-2.964-6.177.867-10.019 3.976-11.204 10.085-2.442 12.579.862 13.808 4.812 29.026 5.458 1.808 10.522-3.723 14.4-8.458 2.226-2.711 5.027-7.591 7.29-13.845 7.828 2.964 14.292.832 15.441-3 .862-2.82-1.436-4.446-4.166-4.916z" fill="#2C1D1B"/><path d="M40.815 147.585s-5.479-4.039-6.347 1.68c-.869 5.719 4.342 7.685 4.342 7.685l2.005-9.365z" fill="#FFC9B6"/><path d="M24.42 118.264c-2.399-.138-4.798.757-6.169 2.65-2.36 3.338-.19 6.573.686 7.674 3.198 3.992 9.29 2.994 12.185-.757 3.389-4.371-1.676-9.292-6.702-9.567z" fill="#fff"/><path d="M24.97 121.701c-3.622-2.507-9.573-5.604-17.594-1.327S-.645 137.41.612 143.936c1.256 6.527 5.507 11.689 6.394 17.368 1.257 8.185-5.1 11.135-5.1 11.135s5.766 5.384 12.345-2.95c6.58-8.333 4.583-17.551 4.398-26.659-.221-9.108 6.838-11.726 8.502-14.012 1.663-2.286.517-5.236-2.18-7.117z" fill="#3F2A28"/><path d="M128.346 53.367c-.555-.808-1.37-1.139-2.296-1.212.666-.882 1.037-1.874.37-3.124-.482-.919-1.519-1.323-2.964-.808 1.149-1.727-.185-4.851-3-3.712-.408-1.91-3.26-3.234-4.483-2.205.186-5.218-4.63-3.895-5.297-1.506-1.26-.698-3.445-1.066-4.668 0-.889.771-1.148 1.8-1.074 2.793-.556-.11-1.149-.147-1.778.073-1.445.515-1.815 1.654-1.741 2.903-1.001-.184-2.112.11-2.853.919-.926.992-.963 2.499-.407 3.711a2.722 2.722 0 00-1.371.625c-.89.735-1.074 1.8-.963 2.83-.815-.258-1.667-.258-2.408.073-1.852.809-1.963 2.793-1.63 4.557-1.037-.147-2.075.22-2.853 1.066-1 1.139-1.037 2.719-.555 4.078.778.846 1.445 2.058 1.704 3.05.74-.587 1.704-.808 2.741-.404 1.186.478 1.778 1.544 2 2.683.482-.368 1.075-.478 1.742-.11.666.367.926.955 1 1.617 1.519-.441 3.001-.11 4.112 1.433.556.735.519 1.69.148 2.572 1.186-.992 4.223-.404 4.075 2.242 3.186-.368 4.408 1.25 5.075 4.152.111 0 .223.037.334.037.889-.037 1.778-.478 2.408-1.103a3.453 3.453 0 001-3.086 3.424 3.424 0 002.334-1.176c.555-.662.815-1.47.815-2.315 1.222.44 2.37.294 2.778-1.47.222-.956.185-2.095-.111-3.16 1.926.587 3.853.514 4.408-1.58.334-1.213-.148-2.536-1.037-3.565 1.667-.368 3.26-1.544 3.89-3.014.481-1.065.333-2.204-.482-3.05.408-.294.741-.698 1.037-1.139.667-1.102.778-2.572 0-3.675z" fill="#69A042"/><path d="M106.385 77.897c.153-2.71-2.99-3.274-4.216-2.296.345-.903.383-1.881-.153-2.634-1.189-1.58-2.683-1.92-4.255-1.468-.076-.677-.383-1.279-1.034-1.655-.69-.377-1.265-.264-1.802.113-.23-1.167-.805-2.258-2.07-2.747-1.073-.414-2.069-.189-2.836.413-.268-1.016-.958-2.258-1.763-3.123 0 .038.039.113.039.15-1.035-.15-2.108.151-2.875.941-1.073 1.13-1.035 2.672-.421 3.952-.958.338-1.802 1.053-2.032 2.145-.153.715.039 1.693.575 2.257-1.073-.376-2.26-.338-3.18.527-1.265 1.167-.767 3.161-.23 4.855-.844-.301-1.687-.376-2.224.414-.536.828-.575 1.881-.344 2.86-.077-.038-.154-.038-.23-.076.728.377 1.38.828 1.647 1.317.69-1.204 1.802-2.07 3.297-1.128 1.073.677 1.456 2.258 1.533 3.8.536-.64 1.264-1.091 2.03-.752.652.3.844.903.844 1.618 1.303-.677 2.798-1.016 3.986-.414 2.3 1.166.613 3.876-.652 5.57 2.032-1.468 4.561-.79 4.216 1.09 2.798.264 3.833 2.371 4.178 3.086.46.076.92.038 1.38-.112 1.456-.452 2.567-1.882 2.376-3.5 2.683.075 4.829-2.107 4.101-4.742 1.993-.226 3.794-1.204 4.829-3.01.575-1.016.766-2.258.46-3.274-.613-2.898-1.878-4.591-5.174-4.177z" fill="#F9A83D"/><path d="M113.719 383.564c-2.667 1.539-2.667 5.388-.001 6.928l54.364 31.394a4 4 0 004.001 0l63.985-36.945c2.666-1.539 2.666-5.388 0-6.928l-54.364-31.394a3.998 3.998 0 00-4 0l-63.985 36.945z" fill="#C3CED4"/><path d="M165.407 402.05v12.339c0 1.498 2.387 2.711 5.371 2.711 2.946 0 5.37-1.213 5.37-2.711V402.05h-10.741zM116 371.95v12.339c0 1.498 2.387 2.711 5.37 2.711 2.947 0 5.371-1.213 5.371-2.711V371.95H116zm107.407-4.3v12.339c0 1.498 2.387 2.711 5.371 2.711 2.946 0 5.37-1.213 5.37-2.711V367.65h-10.741z" fill="#352221"/><path d="M113.853 298.162L170.69 331.1l65.607-38.013-56.837-32.937-65.607 38.012z" fill="#EDDDDD"/><path d="M113.852 377.713l56.837 32.937 65.607-38.013-56.837-32.937-65.607 38.013z" fill="#DEC9C5"/><path d="M236.296 294.55v77.961l-66.592 38.139v-77.962l66.592-38.138z" fill="#C1AFAE"/><path d="M176.148 333.069L229.852 301v17.38l-53.704 32.07v-17.381zm0 20.792l53.704-31.361v46.074L176.148 399.9v-46.039z" fill="#fff"/><path d="M113.852 298.85v78.518l55.852 33.282v-78.519l-55.852-33.281z" fill="#DBC7C6"/><path d="M193.333 327.807c0-.47.283-1.013.637-1.23a.504.504 0 01.389-.036h.036s.035 0 .035.036l3.219 1.99c1.167.688 3.042.796 4.033.217l12.982-7.669c.247-.145.389-.29.389-.435 0-.144-.142-.47-.743-.832l-3.36-1.989c-.142-.073-.213-.254-.213-.507 0-.47.283-1.013.637-1.23.142-.108.283-.072.425-.036l3.466 2.062c1.061.651 1.698 1.556 1.698 2.496 0 .832-.495 1.628-1.344 2.135l-12.982 7.669c-.708.435-1.663.652-2.653.652-1.132 0-2.335-.29-3.29-.832l-3.113-1.918a.66.66 0 01-.248-.543zm0 23.623c0-.47.283-1.011.636-1.228a.504.504 0 01.389-.036h.035s.035 0 .035.036l3.25 1.985c1.166.686 3.038.794 4.027.217l12.962-7.651c.247-.145.389-.289.389-.433 0-.145-.142-.47-.742-.83l-3.355-1.985c-.142-.073-.212-.253-.212-.506 0-.469.282-1.01.635-1.227.142-.108.283-.072.424-.036l3.462 2.057c1.059.65 1.695 1.552 1.695 2.491 0 .83-.494 1.624-1.342 2.129l-12.998 7.687c-.707.433-1.66.65-2.649.65-1.13 0-2.331-.289-3.285-.83l-3.108-1.913c-.142-.144-.248-.289-.248-.577z" fill="#422C2A"/><path d="M120.238 377.503c-.401-.881-.802-1.761-.973-2.744-.172-.847-.086-1.761-.315-2.608-.058-.237-.315-.271-.43-.068-.888 1.728-.029 4.641.945 6.098.372.575 1.031-.102.773-.678zm5.154-1.918c-.696-.71-1.664-1.421-2.663-1.485-.272 0-.363.355-.211.549.605.774 1.452 1.291 2.117 2.033.545.582.878 1.518 1.664 1.711.182.033.363-.064.394-.258.272-1.001-.666-1.937-1.301-2.55zm2.925-63.832c-1.023.127-1.681 1.012-2.559 1.603-1.023.674-2.157 1.096-3.144 1.855-.219.168-.256.716.073.801 1.865.295 5.557-1.097 6.179-3.373.11-.422-.183-.928-.549-.886zm.972 4.301a.351.351 0 00-.35.526c.389.833 1.011 1.49 1.439 2.323.506.964.739 1.928 1.089 2.936.311.921 1.828.921 1.712-.263-.273-2.147-1.829-5.04-3.89-5.522zm-9.012-5.821c.141-.565-.509-.883-.764-.388-1.132 2.226-1.669 5.124-1.188 7.74.17.954 1.414.742 1.386-.248-.142-2.545-.085-4.7.566-7.104zm41.706 77.082a19.805 19.805 0 01-2.489 3.126c-.883.898-1.891 1.641-2.648 2.735-.063.117-.031.273.095.273 2.395.039 4.664-2.657 6.114-4.767.662-.938-.441-2.305-1.072-1.367zm-.395 8.295c-.293-.06-.544.15-.46.331.376.842 1.171 1.534 1.715 2.286.501.691.669 1.353 1.714 1.654.21.06.544-.03.67-.181.92-1.353-1.883-3.639-3.639-4.09z" fill="#AF9B9A"/></svg>