<svg width="183" height="64" viewBox="0 0 183 64" fill="none" xmlns="http://www.w3.org/2000/svg">
<path fill-rule="evenodd" clip-rule="evenodd" d="M5.84878 11.4312H7.33153L6.67253 28.5165H1.48291L5.84878 11.4312Z" fill="#219653"/>
<path fill-rule="evenodd" clip-rule="evenodd" d="M10.7104 11.4312H12.1931L12.4403 28.5165H7.33301L10.7104 11.4312Z" fill="#219653"/>
<path fill-rule="evenodd" clip-rule="evenodd" d="M16.3938 11.4312H17.7942L18.2884 28.5165H13.1812L16.3938 11.4312Z" fill="#219653"/>
<path fill-rule="evenodd" clip-rule="evenodd" d="M21.6653 11.4312H23.0657L24.1365 28.5165H19.0293L21.6653 11.4312Z" fill="#219653"/>
<path fill-rule="evenodd" clip-rule="evenodd" d="M27.1021 11.4312H28.5024L29.9852 28.5165H24.8779L27.1021 11.4312Z" fill="#219653"/>
<path fill-rule="evenodd" clip-rule="evenodd" d="M32.5392 11.4312H33.9395L35.8342 28.5165H30.6445L32.5392 11.4312Z" fill="#219653"/>
<path fill-rule="evenodd" clip-rule="evenodd" d="M38.3878 11.4312H39.7882L41.6828 28.5165H36.4932L38.3878 11.4312Z" fill="#219653"/>
<path fill-rule="evenodd" clip-rule="evenodd" d="M43.8241 11.4312H45.2244L47.5309 28.5165H42.3413L43.8241 11.4312Z" fill="#219653"/>
<path fill-rule="evenodd" clip-rule="evenodd" d="M49.2608 11.4312H50.7436L53.3796 28.5165H48.1899L49.2608 11.4312Z" fill="#219653"/>
<path fill-rule="evenodd" clip-rule="evenodd" d="M54.5318 11.4312H55.9322L59.2272 28.5165H54.0376L54.5318 11.4312Z" fill="#219653"/>
<path fill-rule="evenodd" clip-rule="evenodd" d="M60.2162 11.4312H61.6166L65.0763 28.5165H59.8867L60.2162 11.4312Z" fill="#219653"/>
<path fill-rule="evenodd" clip-rule="evenodd" d="M65.0752 11.4312H66.4756L70.8414 28.5165H65.7342L65.0752 11.4312Z" fill="#219653"/>
<path fill-rule="evenodd" clip-rule="evenodd" d="M69.1949 6.95709L81.7983 0.773837C83.3634 0.0416104 85.0933 0.855196 85.8347 2.48237C86.5761 4.10954 85.7523 6.06214 84.1872 6.79437L71.6662 12.9776C71.5014 13.059 71.3367 13.1403 71.1719 13.1403C70.6777 13.4658 70.1834 13.6285 69.6892 13.6285H3.04787C1.40037 13.6285 0 12.0827 0 10.2928C0 8.5029 1.40037 7.03845 3.04787 7.03845H69.0302C69.1126 6.95709 69.1949 6.95709 69.1949 6.95709Z" fill="#219653"/>
<path fill-rule="evenodd" clip-rule="evenodd" d="M130.759 2.17531V5.55309C130.759 6.49573 129.692 7.28126 128.297 7.28126H83.0801C81.7671 7.28126 80.6182 6.49573 80.6182 5.55309V2.17531C80.6182 1.23267 81.7671 0.447144 83.0801 0.447144H128.297C129.61 0.447144 130.759 1.23267 130.759 2.17531Z" fill="#219653"/>
<path d="M1.40723 61.0787C1.40723 59.9742 2.30266 59.0787 3.40723 59.0787H181C182.104 59.0787 183 59.9742 183 61.0787V63.3018H1.40723V61.0787Z" fill="#219653"/>
<mask id="path-16-outside-1" maskUnits="userSpaceOnUse" x="72.4292" y="17.7805" width="111" height="35" fill="black">
<rect fill="white" x="72.4292" y="17.7805" width="111" height="35"/>
<path d="M89.368 51.6253C87.1382 51.6253 85.0461 51.2152 83.0916 50.3952C81.1646 49.5477 79.4716 48.3859 78.0126 46.9097C76.5812 45.4062 75.4525 43.6567 74.6267 41.6611C73.8284 39.6656 73.4292 37.506 73.4292 35.1824C73.4292 32.8861 73.8284 30.7539 74.6267 28.7857C75.4525 26.7901 76.5812 25.0542 78.0126 23.5781C79.4716 22.0746 81.1646 20.8991 83.0916 20.0517C85.0186 19.2042 87.1107 18.7805 89.368 18.7805C91.4877 18.7805 93.3046 19.0539 94.8186 19.6006C96.3602 20.1473 97.9018 21.0494 99.4434 22.3069C99.6636 22.4709 99.8288 22.6486 99.9389 22.84C100.077 23.004 100.159 23.1817 100.187 23.373C100.242 23.5371 100.269 23.7421 100.269 23.9881C100.269 24.5075 100.077 24.9449 99.6911 25.3003C99.3332 25.6283 98.8928 25.8197 98.3698 25.8743C97.8467 25.9017 97.3374 25.724 96.8419 25.3413C95.8234 24.4665 94.7636 23.7968 93.6624 23.332C92.5888 22.8673 91.1574 22.635 89.368 22.635C87.7439 22.635 86.2161 22.963 84.7846 23.6191C83.3531 24.2751 82.0868 25.1773 80.9857 26.3254C79.9121 27.4735 79.0725 28.813 78.4669 30.3438C77.8612 31.8474 77.5584 33.4602 77.5584 35.1824C77.5584 36.9319 77.8612 38.5721 78.4669 40.103C79.0725 41.6065 79.9121 42.9323 80.9857 44.0804C82.0868 45.2286 83.3531 46.1307 84.7846 46.7867C86.2161 47.4155 87.7439 47.7298 89.368 47.7298C90.772 47.7298 92.0933 47.4975 93.3321 47.0328C94.5984 46.5407 95.8096 45.871 96.9658 45.0235C97.4613 44.6682 97.9431 44.5178 98.411 44.5725C98.9066 44.5998 99.3195 44.7912 99.6498 45.1465C99.9802 45.4746 100.145 45.9393 100.145 46.5407C100.145 46.8141 100.09 47.0874 99.9802 47.3608C99.87 47.6068 99.7049 47.8392 99.4846 48.0579C97.9981 49.2334 96.4015 50.1218 94.6947 50.7232C93.0155 51.3246 91.2399 51.6253 89.368 51.6253Z"/>
<path d="M109.698 51.2152C108.487 51.2152 107.413 50.8872 106.477 50.2311C105.541 49.5751 104.812 48.6866 104.289 47.5658C103.766 46.4177 103.504 45.1055 103.504 43.6294V21.2408C103.504 20.6394 103.697 20.1473 104.082 19.7646C104.468 19.3819 104.963 19.1906 105.569 19.1906C106.174 19.1906 106.67 19.3819 107.055 19.7646C107.441 20.1473 107.633 20.6394 107.633 21.2408V43.6294C107.633 44.6408 107.826 45.4746 108.212 46.1307C108.597 46.7867 109.092 47.1148 109.698 47.1148H110.73C111.281 47.1148 111.721 47.3061 112.052 47.6888C112.41 48.0716 112.589 48.5636 112.589 49.165C112.589 49.7664 112.327 50.2585 111.804 50.6412C111.281 51.0239 110.606 51.2152 109.781 51.2152H109.698Z"/>
<path d="M123.801 51.3793C121.516 51.3793 119.479 50.9009 117.689 49.9441C115.928 48.96 114.537 47.6205 113.519 45.9256C112.528 44.2034 112.032 42.2352 112.032 40.021C112.032 37.7794 112.5 35.8111 113.436 34.1163C114.4 32.3941 115.721 31.0546 117.4 30.0978C119.08 29.1137 121.007 28.6216 123.181 28.6216C125.328 28.6216 127.173 29.1 128.714 30.0568C130.256 30.9863 131.426 32.2847 132.224 33.9523C133.05 35.5924 133.463 37.4923 133.463 39.6519C133.463 40.1713 133.284 40.6087 132.926 40.9641C132.568 41.2921 132.114 41.4561 131.564 41.4561H114.923V38.1757H131.44L129.747 39.3239C129.719 37.9571 129.444 36.7406 128.921 35.6745C128.398 34.581 127.655 33.7199 126.691 33.0912C125.728 32.4624 124.558 32.1481 123.181 32.1481C121.612 32.1481 120.263 32.4898 119.135 33.1732C118.033 33.8566 117.194 34.7997 116.616 36.0025C116.038 37.178 115.749 38.5175 115.749 40.021C115.749 41.5245 116.093 42.864 116.781 44.0394C117.469 45.2149 118.419 46.1443 119.63 46.8277C120.841 47.5112 122.232 47.8529 123.801 47.8529C124.654 47.8529 125.521 47.7025 126.402 47.4018C127.311 47.0738 128.04 46.7047 128.591 46.2947C129.003 45.994 129.444 45.8436 129.912 45.8436C130.407 45.8163 130.834 45.953 131.192 46.2537C131.66 46.6637 131.908 47.1148 131.935 47.6068C131.963 48.0989 131.743 48.5226 131.275 48.878C130.339 49.6161 129.169 50.2175 127.765 50.6822C126.388 51.1469 125.067 51.3793 123.801 51.3793Z"/>
<path d="M145.172 51.3793C143.162 51.3793 141.359 50.8872 139.763 49.9031C138.166 48.8916 136.9 47.5385 135.964 45.8436C135.055 44.1214 134.601 42.1805 134.601 40.021C134.601 37.8614 135.097 35.9205 136.088 34.1983C137.106 32.4761 138.469 31.1229 140.176 30.1388C141.91 29.1274 143.851 28.6216 145.998 28.6216C148.145 28.6216 150.072 29.1274 151.779 30.1388C153.486 31.1229 154.834 32.4761 155.825 34.1983C156.844 35.9205 157.353 37.8614 157.353 40.021H155.743C155.743 42.1805 155.275 44.1214 154.339 45.8436C153.43 47.5385 152.178 48.8916 150.581 49.9031C148.985 50.8872 147.182 51.3793 145.172 51.3793ZM145.998 47.6888C147.402 47.6888 148.654 47.3608 149.755 46.7047C150.857 46.0213 151.724 45.1055 152.357 43.9574C152.99 42.7819 153.307 41.4698 153.307 40.021C153.307 38.5448 152.99 37.2326 152.357 36.0845C151.724 34.909 150.857 33.9933 149.755 33.3372C148.654 32.6538 147.402 32.3121 145.998 32.3121C144.621 32.3121 143.369 32.6538 142.24 33.3372C141.139 33.9933 140.258 34.909 139.598 36.0845C138.964 37.2326 138.648 38.5448 138.648 40.021C138.648 41.4698 138.964 42.7819 139.598 43.9574C140.258 45.1055 141.139 46.0213 142.24 46.7047C143.369 47.3608 144.621 47.6888 145.998 47.6888ZM155.247 51.2562C154.642 51.2562 154.132 51.0649 153.72 50.6822C153.334 50.2721 153.141 49.7664 153.141 49.165V42.8913L153.926 38.5448L157.353 40.021V49.165C157.353 49.7664 157.147 50.2721 156.734 50.6822C156.348 51.0649 155.853 51.2562 155.247 51.2562Z"/>
<path d="M180.428 51.2562C179.822 51.2562 179.313 51.0649 178.9 50.6822C178.514 50.2721 178.322 49.7664 178.322 49.165V39.0779C178.322 37.5197 178.033 36.2485 177.455 35.2644C176.876 34.2803 176.092 33.5559 175.101 33.0912C174.137 32.5991 173.022 32.3531 171.756 32.3531C170.6 32.3531 169.554 32.5854 168.618 33.0502C167.682 33.5149 166.939 34.1436 166.388 34.9364C165.838 35.7018 165.562 36.5902 165.562 37.6017H162.961C162.961 35.8795 163.374 34.3486 164.2 33.0092C165.053 31.6423 166.209 30.5625 167.668 29.7698C169.127 28.977 170.765 28.5806 172.582 28.5806C174.481 28.5806 176.174 28.9907 177.661 29.8108C179.175 30.6035 180.359 31.779 181.212 33.3372C182.093 34.8954 182.533 36.8089 182.533 39.0779V49.165C182.533 49.7664 182.327 50.2721 181.914 50.6822C181.529 51.0649 181.033 51.2562 180.428 51.2562ZM163.456 51.2562C162.851 51.2562 162.342 51.0649 161.929 50.6822C161.543 50.2721 161.351 49.7664 161.351 49.165V30.8769C161.351 30.2482 161.543 29.7424 161.929 29.3597C162.342 28.977 162.851 28.7857 163.456 28.7857C164.09 28.7857 164.599 28.977 164.984 29.3597C165.37 29.7424 165.562 30.2482 165.562 30.8769V49.165C165.562 49.7664 165.37 50.2721 164.984 50.6822C164.599 51.0649 164.09 51.2562 163.456 51.2562Z"/>
</mask>
<path d="M89.368 51.6253C87.1382 51.6253 85.0461 51.2152 83.0916 50.3952C81.1646 49.5477 79.4716 48.3859 78.0126 46.9097C76.5812 45.4062 75.4525 43.6567 74.6267 41.6611C73.8284 39.6656 73.4292 37.506 73.4292 35.1824C73.4292 32.8861 73.8284 30.7539 74.6267 28.7857C75.4525 26.7901 76.5812 25.0542 78.0126 23.5781C79.4716 22.0746 81.1646 20.8991 83.0916 20.0517C85.0186 19.2042 87.1107 18.7805 89.368 18.7805C91.4877 18.7805 93.3046 19.0539 94.8186 19.6006C96.3602 20.1473 97.9018 21.0494 99.4434 22.3069C99.6636 22.4709 99.8288 22.6486 99.9389 22.84C100.077 23.004 100.159 23.1817 100.187 23.373C100.242 23.5371 100.269 23.7421 100.269 23.9881C100.269 24.5075 100.077 24.9449 99.6911 25.3003C99.3332 25.6283 98.8928 25.8197 98.3698 25.8743C97.8467 25.9017 97.3374 25.724 96.8419 25.3413C95.8234 24.4665 94.7636 23.7968 93.6624 23.332C92.5888 22.8673 91.1574 22.635 89.368 22.635C87.7439 22.635 86.2161 22.963 84.7846 23.6191C83.3531 24.2751 82.0868 25.1773 80.9857 26.3254C79.9121 27.4735 79.0725 28.813 78.4669 30.3438C77.8612 31.8474 77.5584 33.4602 77.5584 35.1824C77.5584 36.9319 77.8612 38.5721 78.4669 40.103C79.0725 41.6065 79.9121 42.9323 80.9857 44.0804C82.0868 45.2286 83.3531 46.1307 84.7846 46.7867C86.2161 47.4155 87.7439 47.7298 89.368 47.7298C90.772 47.7298 92.0933 47.4975 93.3321 47.0328C94.5984 46.5407 95.8096 45.871 96.9658 45.0235C97.4613 44.6682 97.9431 44.5178 98.411 44.5725C98.9066 44.5998 99.3195 44.7912 99.6498 45.1465C99.9802 45.4746 100.145 45.9393 100.145 46.5407C100.145 46.8141 100.09 47.0874 99.9802 47.3608C99.87 47.6068 99.7049 47.8392 99.4846 48.0579C97.9981 49.2334 96.4015 50.1218 94.6947 50.7232C93.0155 51.3246 91.2399 51.6253 89.368 51.6253Z" fill="#FEFEFE"/>
<path d="M109.698 51.2152C108.487 51.2152 107.413 50.8872 106.477 50.2311C105.541 49.5751 104.812 48.6866 104.289 47.5658C103.766 46.4177 103.504 45.1055 103.504 43.6294V21.2408C103.504 20.6394 103.697 20.1473 104.082 19.7646C104.468 19.3819 104.963 19.1906 105.569 19.1906C106.174 19.1906 106.67 19.3819 107.055 19.7646C107.441 20.1473 107.633 20.6394 107.633 21.2408V43.6294C107.633 44.6408 107.826 45.4746 108.212 46.1307C108.597 46.7867 109.092 47.1148 109.698 47.1148H110.73C111.281 47.1148 111.721 47.3061 112.052 47.6888C112.41 48.0716 112.589 48.5636 112.589 49.165C112.589 49.7664 112.327 50.2585 111.804 50.6412C111.281 51.0239 110.606 51.2152 109.781 51.2152H109.698Z" fill="#FEFEFE"/>
<path d="M123.801 51.3793C121.516 51.3793 119.479 50.9009 117.689 49.9441C115.928 48.96 114.537 47.6205 113.519 45.9256C112.528 44.2034 112.032 42.2352 112.032 40.021C112.032 37.7794 112.5 35.8111 113.436 34.1163C114.4 32.3941 115.721 31.0546 117.4 30.0978C119.08 29.1137 121.007 28.6216 123.181 28.6216C125.328 28.6216 127.173 29.1 128.714 30.0568C130.256 30.9863 131.426 32.2847 132.224 33.9523C133.05 35.5924 133.463 37.4923 133.463 39.6519C133.463 40.1713 133.284 40.6087 132.926 40.9641C132.568 41.2921 132.114 41.4561 131.564 41.4561H114.923V38.1757H131.44L129.747 39.3239C129.719 37.9571 129.444 36.7406 128.921 35.6745C128.398 34.581 127.655 33.7199 126.691 33.0912C125.728 32.4624 124.558 32.1481 123.181 32.1481C121.612 32.1481 120.263 32.4898 119.135 33.1732C118.033 33.8566 117.194 34.7997 116.616 36.0025C116.038 37.178 115.749 38.5175 115.749 40.021C115.749 41.5245 116.093 42.864 116.781 44.0394C117.469 45.2149 118.419 46.1443 119.63 46.8277C120.841 47.5112 122.232 47.8529 123.801 47.8529C124.654 47.8529 125.521 47.7025 126.402 47.4018C127.311 47.0738 128.04 46.7047 128.591 46.2947C129.003 45.994 129.444 45.8436 129.912 45.8436C130.407 45.8163 130.834 45.953 131.192 46.2537C131.66 46.6637 131.908 47.1148 131.935 47.6068C131.963 48.0989 131.743 48.5226 131.275 48.878C130.339 49.6161 129.169 50.2175 127.765 50.6822C126.388 51.1469 125.067 51.3793 123.801 51.3793Z" fill="#FEFEFE"/>
<path d="M145.172 51.3793C143.162 51.3793 141.359 50.8872 139.763 49.9031C138.166 48.8916 136.9 47.5385 135.964 45.8436C135.055 44.1214 134.601 42.1805 134.601 40.021C134.601 37.8614 135.097 35.9205 136.088 34.1983C137.106 32.4761 138.469 31.1229 140.176 30.1388C141.91 29.1274 143.851 28.6216 145.998 28.6216C148.145 28.6216 150.072 29.1274 151.779 30.1388C153.486 31.1229 154.834 32.4761 155.825 34.1983C156.844 35.9205 157.353 37.8614 157.353 40.021H155.743C155.743 42.1805 155.275 44.1214 154.339 45.8436C153.43 47.5385 152.178 48.8916 150.581 49.9031C148.985 50.8872 147.182 51.3793 145.172 51.3793ZM145.998 47.6888C147.402 47.6888 148.654 47.3608 149.755 46.7047C150.857 46.0213 151.724 45.1055 152.357 43.9574C152.99 42.7819 153.307 41.4698 153.307 40.021C153.307 38.5448 152.99 37.2326 152.357 36.0845C151.724 34.909 150.857 33.9933 149.755 33.3372C148.654 32.6538 147.402 32.3121 145.998 32.3121C144.621 32.3121 143.369 32.6538 142.24 33.3372C141.139 33.9933 140.258 34.909 139.598 36.0845C138.964 37.2326 138.648 38.5448 138.648 40.021C138.648 41.4698 138.964 42.7819 139.598 43.9574C140.258 45.1055 141.139 46.0213 142.24 46.7047C143.369 47.3608 144.621 47.6888 145.998 47.6888ZM155.247 51.2562C154.642 51.2562 154.132 51.0649 153.72 50.6822C153.334 50.2721 153.141 49.7664 153.141 49.165V42.8913L153.926 38.5448L157.353 40.021V49.165C157.353 49.7664 157.147 50.2721 156.734 50.6822C156.348 51.0649 155.853 51.2562 155.247 51.2562Z" fill="#FEFEFE"/>
<path d="M180.428 51.2562C179.822 51.2562 179.313 51.0649 178.9 50.6822C178.514 50.2721 178.322 49.7664 178.322 49.165V39.0779C178.322 37.5197 178.033 36.2485 177.455 35.2644C176.876 34.2803 176.092 33.5559 175.101 33.0912C174.137 32.5991 173.022 32.3531 171.756 32.3531C170.6 32.3531 169.554 32.5854 168.618 33.0502C167.682 33.5149 166.939 34.1436 166.388 34.9364C165.838 35.7018 165.562 36.5902 165.562 37.6017H162.961C162.961 35.8795 163.374 34.3486 164.2 33.0092C165.053 31.6423 166.209 30.5625 167.668 29.7698C169.127 28.977 170.765 28.5806 172.582 28.5806C174.481 28.5806 176.174 28.9907 177.661 29.8108C179.175 30.6035 180.359 31.779 181.212 33.3372C182.093 34.8954 182.533 36.8089 182.533 39.0779V49.165C182.533 49.7664 182.327 50.2721 181.914 50.6822C181.529 51.0649 181.033 51.2562 180.428 51.2562ZM163.456 51.2562C162.851 51.2562 162.342 51.0649 161.929 50.6822C161.543 50.2721 161.351 49.7664 161.351 49.165V30.8769C161.351 30.2482 161.543 29.7424 161.929 29.3597C162.342 28.977 162.851 28.7857 163.456 28.7857C164.09 28.7857 164.599 28.977 164.984 29.3597C165.37 29.7424 165.562 30.2482 165.562 30.8769V49.165C165.562 49.7664 165.37 50.2721 164.984 50.6822C164.599 51.0649 164.09 51.2562 163.456 51.2562Z" fill="#FEFEFE"/>
<path d="M83.0916 50.3952L82.9791 50.6509L82.9835 50.6528L83.0916 50.3952ZM78.0126 46.9097L77.8103 47.1024L77.814 47.1061L78.0126 46.9097ZM74.6267 41.6611L74.3673 41.7649L74.3685 41.768L74.6267 41.6611ZM74.6267 28.7857L74.3685 28.6788L74.3678 28.6807L74.6267 28.7857ZM78.0126 23.5781L77.8122 23.3835L77.8121 23.3836L78.0126 23.5781ZM83.0916 20.0517L82.9791 19.7959L83.0916 20.0517ZM94.8186 19.6006L94.7237 19.8634L94.7252 19.8639L94.8186 19.6006ZM99.4434 22.3069L99.2666 22.5236L99.2765 22.531L99.4434 22.3069ZM99.9389 22.84L99.6967 22.9793L99.709 23.0007L99.7249 23.0196L99.9389 22.84ZM100.187 23.373L99.9101 23.4128L99.9137 23.4379L99.9218 23.4619L100.187 23.373ZM99.6911 25.3003L99.8799 25.5062L99.8805 25.5056L99.6911 25.3003ZM98.3698 25.8743L98.3843 26.1533L98.3916 26.1529L98.3988 26.1522L98.3698 25.8743ZM96.8419 25.3413L96.6599 25.5532L96.6654 25.5579L96.6712 25.5624L96.8419 25.3413ZM93.6624 23.332L93.5515 23.5884L93.5538 23.5894L93.6624 23.332ZM80.9857 26.3254L80.7841 26.132L80.7816 26.1346L80.9857 26.3254ZM78.4669 30.3438L78.726 30.4482L78.7266 30.4466L78.4669 30.3438ZM78.4669 40.103L78.2071 40.2057L78.2077 40.2073L78.4669 40.103ZM80.9857 44.0804L80.7816 44.2712L80.7841 44.2738L80.9857 44.0804ZM84.7846 46.7867L84.6682 47.0407L84.6722 47.0425L84.7846 46.7867ZM93.3321 47.0328L93.4302 47.2943L93.4333 47.2932L93.3321 47.0328ZM96.9658 45.0235L96.803 44.7965L96.8007 44.7982L96.9658 45.0235ZM98.411 44.5725L98.3786 44.85L98.3871 44.851L98.3957 44.8514L98.411 44.5725ZM99.6498 45.1465L99.445 45.3369L99.453 45.3448L99.6498 45.1465ZM99.9802 47.3608L100.235 47.475L100.239 47.4652L99.9802 47.3608ZM99.4846 48.0579L99.6579 48.277L99.6703 48.2672L99.6815 48.2561L99.4846 48.0579ZM94.6947 50.7232L94.6019 50.4597L94.6005 50.4602L94.6947 50.7232ZM106.477 50.2311L106.317 50.4599L106.477 50.2311ZM104.289 47.5658L104.035 47.6816L104.036 47.684L104.289 47.5658ZM104.082 19.7646L104.279 19.9629V19.9629L104.082 19.7646ZM108.212 46.1307L108.452 45.9892L108.212 46.1307ZM112.052 47.6888L111.84 47.8715L111.848 47.8796L112.052 47.6888ZM111.804 50.6412L111.969 50.8666L111.804 50.6412ZM117.689 49.9441L117.553 50.188L117.558 50.1905L117.689 49.9441ZM113.519 45.9256L113.277 46.065L113.279 46.0695L113.519 45.9256ZM113.436 34.1163L113.192 33.9799L113.192 33.9812L113.436 34.1163ZM117.4 30.0978L117.539 30.3406L117.542 30.3388L117.4 30.0978ZM128.714 30.0568L128.567 30.2942L128.57 30.2961L128.714 30.0568ZM132.224 33.9523L131.972 34.0729L131.975 34.0779L132.224 33.9523ZM132.926 40.9641L133.115 41.1702L133.123 41.1623L132.926 40.9641ZM114.923 41.4561H114.643V41.7355H114.923V41.4561ZM114.923 38.1757V37.8964H114.643V38.1757H114.923ZM131.44 38.1757L131.597 38.407L132.349 37.8964H131.44V38.1757ZM129.747 39.3239L129.467 39.3295L129.478 39.8438L129.904 39.5551L129.747 39.3239ZM128.921 35.6745L128.669 35.795L128.67 35.7975L128.921 35.6745ZM119.135 33.1732L118.99 32.9342L118.987 32.9358L119.135 33.1732ZM116.616 36.0025L116.866 36.1258L116.868 36.1235L116.616 36.0025ZM116.781 44.0394L116.54 44.1806L116.781 44.0394ZM119.63 46.8277L119.767 46.5844L119.63 46.8277ZM126.402 47.4018L126.492 47.6662L126.497 47.6646L126.402 47.4018ZM128.591 46.2947L128.426 46.0688L128.424 46.0706L128.591 46.2947ZM129.912 45.8436V46.123H129.92L129.927 46.1226L129.912 45.8436ZM131.192 46.2537L131.376 46.0435L131.372 46.0398L131.192 46.2537ZM131.935 47.6068L132.214 47.5912L131.935 47.6068ZM131.275 48.878L131.106 48.6555L131.102 48.6586L131.275 48.878ZM127.765 50.6822L127.677 50.417L127.675 50.4175L127.765 50.6822ZM139.763 49.9031L139.613 50.1391L139.616 50.1409L139.763 49.9031ZM135.964 45.8436L135.717 45.974L135.719 45.9787L135.964 45.8436ZM136.088 34.1983L135.847 34.0561L135.846 34.059L136.088 34.1983ZM140.176 30.1388L140.315 30.3808L140.316 30.3801L140.176 30.1388ZM151.779 30.1388L151.636 30.3792L151.639 30.3808L151.779 30.1388ZM155.825 34.1983L155.583 34.3376L155.585 34.3405L155.825 34.1983ZM155.743 40.021V39.7416H155.463V40.021H155.743ZM154.339 45.8436L154.093 45.7102L154.093 45.7117L154.339 45.8436ZM150.581 49.9031L150.728 50.1409L150.731 50.1391L150.581 49.9031ZM149.755 46.7047L149.898 46.9448L149.903 46.9421L149.755 46.7047ZM152.357 43.9574L152.602 44.0923L152.603 44.0899L152.357 43.9574ZM152.357 36.0845L152.111 36.217L152.112 36.2194L152.357 36.0845ZM149.755 33.3372L149.608 33.5746L149.612 33.5772L149.755 33.3372ZM142.24 33.3372L142.383 33.5772L142.385 33.5762L142.24 33.3372ZM139.598 36.0845L139.354 35.9476L139.353 35.9496L139.598 36.0845ZM139.598 43.9574L139.351 44.0899L139.355 44.0967L139.598 43.9574ZM142.24 46.7047L142.093 46.9422L142.1 46.9463L142.24 46.7047ZM153.72 50.6822L153.516 50.8735L153.523 50.8805L153.53 50.8871L153.72 50.6822ZM153.141 42.8913L152.867 42.8417L152.862 42.8663V42.8913H153.141ZM153.926 38.5448L154.036 38.2882L153.714 38.1491L153.651 38.4952L153.926 38.5448ZM156.734 50.6822L156.931 50.8804L156.734 50.6822ZM178.9 50.6822L178.696 50.8735L178.703 50.8805L178.71 50.8871L178.9 50.6822ZM177.455 35.2644L177.214 35.4059L177.455 35.2644ZM175.101 33.0912L174.974 33.3401L174.982 33.3441L175.101 33.0912ZM168.618 33.0502L168.494 32.7999L168.618 33.0502ZM166.388 34.9364L166.615 35.0995L166.618 35.0957L166.388 34.9364ZM165.562 37.6017V37.881H165.842V37.6017H165.562ZM162.961 37.6017H162.682V37.881H162.961V37.6017ZM164.2 33.0092L163.963 32.8612L163.962 32.8625L164.2 33.0092ZM167.668 29.7698L167.802 30.0153L167.668 29.7698ZM177.661 29.8108L177.526 30.0555L177.531 30.0583L177.661 29.8108ZM181.212 33.3372L180.967 33.4714L180.969 33.4747L181.212 33.3372ZM181.914 50.6822L181.717 50.484V50.484L181.914 50.6822ZM161.929 50.6822L161.725 50.8735L161.732 50.8805L161.739 50.8871L161.929 50.6822ZM161.929 29.3597L161.739 29.1547L161.732 29.1615L161.929 29.3597ZM164.984 50.6822L165.181 50.8805L165.188 50.8735L164.984 50.6822ZM89.368 51.3459C87.1734 51.3459 85.1182 50.9425 83.1997 50.1375L82.9835 50.6528C84.974 51.488 87.1031 51.9047 89.368 51.9047V51.3459ZM83.2041 50.1394C81.3088 49.306 79.6452 48.1641 78.2113 46.7134L77.814 47.1061C79.2981 48.6077 81.0204 49.7895 82.9791 50.6509L83.2041 50.1394ZM78.215 46.7171C76.8082 45.2395 75.698 43.5194 74.8848 41.5543L74.3685 41.768C75.207 43.794 76.3542 45.573 77.8103 47.1024L78.215 46.7171ZM74.8861 41.5574C74.102 39.5974 73.7086 37.4734 73.7086 35.1824H73.1498C73.1498 37.5386 73.5547 39.7338 74.3673 41.7649L74.8861 41.5574ZM73.7086 35.1824C73.7086 32.9192 74.1018 30.8229 74.8856 28.8907L74.3678 28.6807C73.5549 30.6849 73.1498 32.8531 73.1498 35.1824H73.7086ZM74.8848 28.8925C75.6979 26.9279 76.8075 25.2221 78.2132 23.7725L77.8121 23.3836C76.3548 24.8863 75.2072 26.6523 74.3685 28.6788L74.8848 28.8925ZM78.2131 23.7726C79.6469 22.2951 81.3099 21.1404 83.2041 20.3074L82.9791 19.7959C81.0193 20.6578 79.2964 21.854 77.8122 23.3835L78.2131 23.7726ZM83.2041 20.3074C85.0931 19.4767 87.1466 19.0599 89.368 19.0599V18.5012C87.0748 18.5012 84.9441 18.9318 82.9791 19.7959L83.2041 20.3074ZM89.368 19.0599C91.465 19.0599 93.248 19.3305 94.7237 19.8634L94.9135 19.3379C93.3611 18.7773 91.5104 18.5012 89.368 18.5012V19.0599ZM94.7252 19.8639C96.2309 20.3979 97.7448 21.2819 99.2668 22.5234L99.6199 22.0904C98.0587 20.8169 96.4895 19.8968 94.912 19.3373L94.7252 19.8639ZM99.2765 22.531C99.4733 22.6776 99.6097 22.8281 99.6967 22.9793L100.181 22.7006C100.048 22.4692 99.8538 22.2643 99.6102 22.0829L99.2765 22.531ZM99.7249 23.0196C99.8328 23.1481 99.8908 23.2784 99.9101 23.4128L100.463 23.3333C100.427 23.085 100.32 22.8599 100.153 22.6604L99.7249 23.0196ZM99.9218 23.4619C99.9641 23.588 99.9898 23.7606 99.9898 23.9881H100.549C100.549 23.7235 100.519 23.4861 100.451 23.2841L99.9218 23.4619ZM99.9898 23.9881C99.9898 24.4287 99.8304 24.7918 99.5017 25.0949L99.8805 25.5056C100.323 25.0979 100.549 24.5864 100.549 23.9881H99.9898ZM99.5023 25.0943C99.1924 25.3785 98.8094 25.5475 98.3407 25.5965L98.3988 26.1522C98.9762 26.0918 99.4741 25.8781 99.8799 25.5062L99.5023 25.0943ZM98.3552 25.5953C97.9114 25.6185 97.4662 25.4704 97.0127 25.1202L96.6712 25.5624C97.2087 25.9776 97.7821 26.1848 98.3843 26.1533L98.3552 25.5953ZM97.024 25.1293C95.9861 24.238 94.9019 23.5519 93.7711 23.0747L93.5538 23.5894C94.6252 24.0416 95.6607 24.695 96.6599 25.5532L97.024 25.1293ZM93.7734 23.0757C92.6512 22.5899 91.1773 22.3556 89.368 22.3556V22.9143C91.1374 22.9143 92.5264 23.1447 93.5515 23.5884L93.7734 23.0757ZM89.368 22.3556C87.705 22.3556 86.1373 22.6918 84.6682 23.3651L84.901 23.873C86.2948 23.2342 87.7827 22.9143 89.368 22.9143V22.3556ZM84.6682 23.3651C83.2044 24.036 81.9093 24.9588 80.7841 26.132L81.1873 26.5188C82.2644 25.3957 83.5018 24.5143 84.901 23.873L84.6682 23.3651ZM80.7816 26.1346C79.683 27.3095 78.825 28.6792 78.2071 30.2411L78.7266 30.4466C79.32 28.9468 80.1412 27.6375 81.1897 26.5162L80.7816 26.1346ZM78.2077 30.2395C77.5879 31.7782 77.2791 33.4267 77.2791 35.1824H77.8378C77.8378 33.4937 78.1346 31.9165 78.726 30.4482L78.2077 30.2395ZM77.2791 35.1824C77.2791 36.9649 77.5877 38.6402 78.2071 40.2057L78.7266 40.0002C78.1348 38.5041 77.8378 36.899 77.8378 35.1824H77.2791ZM78.2077 40.2073C78.8258 41.7418 79.6838 43.0971 80.7816 44.2712L81.1897 43.8896C80.1404 42.7674 79.3191 41.4712 78.726 39.9986L78.2077 40.2073ZM80.7841 44.2738C81.9093 45.447 83.2044 46.3698 84.6682 47.0407L84.901 46.5328C83.5018 45.8915 82.2644 45.0101 81.1873 43.8871L80.7841 44.2738ZM84.6722 47.0425C86.1405 47.6874 87.7067 48.0092 89.368 48.0092V47.4505C87.781 47.4505 86.2916 47.1435 84.8969 46.531L84.6722 47.0425ZM89.368 48.0092C90.8034 48.0092 92.1582 47.7715 93.4302 47.2943L93.234 46.7712C92.0285 47.2234 90.7405 47.4505 89.368 47.4505V48.0092ZM93.4333 47.2932C94.7236 46.7918 95.9562 46.1099 97.131 45.2489L96.8007 44.7982C95.6631 45.632 94.4732 46.2896 93.2309 46.7724L93.4333 47.2932ZM97.1286 45.2505C97.5847 44.9234 97.9981 44.8055 98.3786 44.85L98.4435 44.295C97.888 44.2301 97.3379 44.4129 96.803 44.7965L97.1286 45.2505ZM98.3957 44.8514C98.8208 44.8749 99.1653 45.0357 99.4452 45.3368L99.8544 44.9563C99.4736 44.5467 98.9923 44.3248 98.4264 44.2935L98.3957 44.8514ZM99.453 45.3448C99.7163 45.6063 99.866 45.991 99.866 46.5407H100.425C100.425 45.8876 100.244 45.3429 99.8467 44.9483L99.453 45.3448ZM99.866 46.5407C99.866 46.7756 99.8188 47.0136 99.721 47.2564L100.239 47.4652C100.362 47.1613 100.425 46.8526 100.425 46.5407H99.866ZM99.7252 47.2467C99.631 47.457 99.4873 47.6616 99.2878 47.8597L99.6815 48.2561C99.9225 48.0168 100.109 47.7567 100.235 47.4749L99.7252 47.2467ZM99.3114 47.8388C97.8479 48.996 96.2782 49.869 94.6019 50.4597L94.7876 50.9867C96.5248 50.3745 98.1484 49.4707 99.6579 48.277L99.3114 47.8388ZM94.6005 50.4602C92.953 51.0502 91.2094 51.3459 89.368 51.3459V51.9047C91.2704 51.9047 93.078 51.5989 94.7889 50.9862L94.6005 50.4602ZM109.698 50.9359C108.541 50.9359 107.524 50.6235 106.638 50.0024L106.317 50.4599C107.303 51.1509 108.433 51.4946 109.698 51.4946V50.9359ZM106.638 50.0024C105.745 49.3767 105.046 48.5279 104.542 47.4477L104.036 47.684C104.578 48.8454 105.338 49.7734 106.317 50.4599L106.638 50.0024ZM104.543 47.45C104.039 46.3439 103.784 45.0723 103.784 43.6294H103.225C103.225 45.1388 103.492 46.4915 104.035 47.6816L104.543 47.45ZM103.784 43.6294V21.2408H103.225V43.6294H103.784ZM103.784 21.2408C103.784 20.7051 103.952 20.2873 104.279 19.9629L103.885 19.5664C103.441 20.0074 103.225 20.5737 103.225 21.2408H103.784ZM104.279 19.9629C104.606 19.6383 105.028 19.4699 105.569 19.4699V18.9112C104.899 18.9112 104.329 19.1255 103.885 19.5664L104.279 19.9629ZM105.569 19.4699C106.11 19.4699 106.532 19.6383 106.858 19.9629L107.252 19.5664C106.808 19.1255 106.239 18.9112 105.569 18.9112V19.4699ZM106.858 19.9629C107.185 20.2873 107.354 20.7051 107.354 21.2408H107.913C107.913 20.5737 107.696 20.0074 107.252 19.5664L106.858 19.9629ZM107.354 21.2408V43.6294H107.913V21.2408H107.354ZM107.354 43.6294C107.354 44.6747 107.553 45.5613 107.971 46.2722L108.452 45.9892C108.099 45.3879 107.913 44.607 107.913 43.6294H107.354ZM107.971 46.2722C108.391 46.9883 108.967 47.3941 109.698 47.3941V46.8354C109.218 46.8354 108.803 46.5852 108.452 45.9892L107.971 46.2722ZM109.698 47.3941H110.73V46.8354H109.698V47.3941ZM110.73 47.3941C111.208 47.3941 111.568 47.5561 111.84 47.8714L112.263 47.5063C111.875 47.0562 111.354 46.8354 110.73 46.8354V47.3941ZM111.848 47.8796C112.15 48.2029 112.309 48.6232 112.309 49.165H112.868C112.868 48.504 112.669 47.9402 112.256 47.498L111.848 47.8796ZM112.309 49.165C112.309 49.6695 112.097 50.0809 111.639 50.4157L111.969 50.8666C112.557 50.4361 112.868 49.8633 112.868 49.165H112.309ZM111.639 50.4157C111.176 50.7548 110.564 50.9359 109.781 50.9359V51.4946C110.649 51.4946 111.386 51.2929 111.969 50.8666L111.639 50.4157ZM109.781 50.9359H109.698V51.4946H109.781V50.9359ZM123.801 51.0999C121.556 51.0999 119.565 50.6302 117.821 49.6977L117.558 50.1905C119.392 51.1715 121.476 51.6586 123.801 51.6586V51.0999ZM117.826 49.7002C116.105 48.7393 114.751 47.4339 113.758 45.7817L113.279 46.0695C114.324 47.8071 115.75 49.1806 117.553 50.188L117.826 49.7002ZM113.761 45.7863C112.797 44.1112 112.312 42.192 112.312 40.021H111.753C111.753 42.2784 112.259 44.2957 113.277 46.065L113.761 45.7863ZM112.312 40.021C112.312 37.8191 112.771 35.8987 113.681 34.2513L113.192 33.9812C112.23 35.7236 111.753 37.7396 111.753 40.021H112.312ZM113.68 34.2527C114.619 32.5739 115.905 31.2716 117.539 30.3405L117.262 29.8551C115.538 30.8376 114.18 32.2143 113.192 33.9799L113.68 34.2527ZM117.542 30.3388C119.173 29.3827 121.05 28.901 123.181 28.901V28.3423C120.963 28.3423 118.986 28.8447 117.259 29.8568L117.542 30.3388ZM123.181 28.901C125.286 28.901 127.077 29.3695 128.567 30.2942L128.862 29.8194C127.268 28.8305 125.371 28.3423 123.181 28.3423V28.901ZM128.57 30.2961C130.064 31.1965 131.197 32.4532 131.972 34.0729L132.476 33.8316C131.655 32.1163 130.448 30.776 128.859 29.8176L128.57 30.2961ZM131.975 34.0779C132.778 35.6728 133.184 37.5283 133.184 39.6519H133.742C133.742 37.4564 133.322 35.5121 132.474 33.8266L131.975 34.0779ZM133.184 39.6519C133.184 40.0994 133.033 40.4646 132.729 40.7658L133.123 41.1623C133.536 40.7528 133.742 40.2433 133.742 39.6519H133.184ZM132.737 40.7581C132.438 41.0325 132.054 41.1768 131.564 41.1768V41.7355C132.174 41.7355 132.699 41.5517 133.115 41.17L132.737 40.7581ZM131.564 41.1768H114.923V41.7355H131.564V41.1768ZM115.202 41.4561V38.1757H114.643V41.4561H115.202ZM114.923 38.4551H131.44V37.8964H114.923V38.4551ZM131.283 37.9445L129.59 39.0927L129.904 39.5551L131.597 38.407L131.283 37.9445ZM130.026 39.3183C129.998 37.9168 129.715 36.6593 129.172 35.5514L128.67 35.7975C129.173 36.8219 129.441 37.9973 129.467 39.3295L130.026 39.3183ZM129.173 35.5539C128.629 34.4168 127.852 33.5155 126.844 32.8572L126.538 33.3251C127.457 33.9243 128.167 34.7452 128.669 35.795L129.173 35.5539ZM126.844 32.8572C125.827 32.1934 124.601 31.8687 123.181 31.8687V32.4274C124.514 32.4274 125.629 32.7314 126.538 33.3251L126.844 32.8572ZM123.181 31.8687C121.571 31.8687 120.17 32.2197 118.99 32.9342L119.279 33.4121C120.357 32.7598 121.653 32.4274 123.181 32.4274V31.8687ZM118.987 32.9358C117.84 33.6481 116.964 34.6322 116.364 35.8815L116.868 36.1235C117.423 34.9671 118.227 34.065 119.282 33.4105L118.987 32.9358ZM116.365 35.8792C115.766 37.0983 115.469 38.481 115.469 40.021H116.028C116.028 38.5539 116.31 37.2576 116.866 36.1258L116.365 35.8792ZM115.469 40.021C115.469 41.5688 115.824 42.9579 116.54 44.1806L117.022 43.8983C116.361 42.77 116.028 41.4801 116.028 40.021H115.469ZM116.54 44.1806C117.254 45.3996 118.24 46.3639 119.493 47.0711L119.767 46.5844C118.598 45.9248 117.685 45.0302 117.022 43.8983L116.54 44.1806ZM119.493 47.0711C120.751 47.781 122.19 48.1322 123.801 48.1322V47.5735C122.273 47.5735 120.932 47.2413 119.767 46.5844L119.493 47.0711ZM123.801 48.1322C124.687 48.1322 125.585 47.9759 126.492 47.6662L126.312 47.1374C125.457 47.4291 124.621 47.5735 123.801 47.5735V48.1322ZM126.497 47.6646C127.422 47.3307 128.178 46.9503 128.757 46.5187L128.424 46.0706C127.902 46.4592 127.199 46.8168 126.307 47.139L126.497 47.6646ZM128.755 46.5205C129.125 46.2512 129.508 46.123 129.912 46.123V45.5643C129.379 45.5643 128.882 45.7367 128.426 46.0688L128.755 46.5205ZM129.927 46.1226C130.357 46.0989 130.712 46.2156 131.012 46.4676L131.372 46.0398C130.956 45.6904 130.458 45.5337 129.897 45.5647L129.927 46.1226ZM131.008 46.4638C131.435 46.8381 131.634 47.2238 131.656 47.6224L132.214 47.5912C132.181 47.0057 131.885 46.4894 131.376 46.0436L131.008 46.4638ZM131.656 47.6224C131.678 48.003 131.516 48.3439 131.106 48.6555L131.444 49.1005C131.969 48.7013 132.248 48.1948 132.214 47.5912L131.656 47.6224ZM131.102 48.6586C130.196 49.3724 129.057 49.9601 127.677 50.417L127.853 50.9474C129.28 50.4748 130.481 49.8597 131.448 49.0973L131.102 48.6586ZM127.675 50.4175C126.324 50.8739 125.032 51.0999 123.801 51.0999V51.6586C125.101 51.6586 126.453 51.4199 127.854 50.9469L127.675 50.4175ZM145.172 51.0999C143.21 51.0999 141.459 50.6203 139.909 49.6653L139.616 50.1409C141.26 51.1541 143.115 51.6586 145.172 51.6586V51.0999ZM139.912 49.6671C138.356 48.6814 137.122 47.3634 136.208 45.7086L135.719 45.9787C136.677 47.7136 137.976 49.1019 139.613 50.1391L139.912 49.6671ZM136.211 45.7133C135.326 44.0355 134.881 42.1402 134.881 40.021H134.322C134.322 42.2209 134.785 44.2074 135.717 45.974L136.211 45.7133ZM134.881 40.021C134.881 37.9059 135.365 36.0138 136.33 34.3376L135.846 34.059C134.828 35.8272 134.322 37.8169 134.322 40.021H134.881ZM136.328 34.3405C137.323 32.659 138.651 31.3405 140.315 30.3808L140.036 29.8968C138.287 30.9053 136.89 32.2932 135.847 34.0561L136.328 34.3405ZM140.316 30.3801C142.005 29.3953 143.897 28.901 145.998 28.901V28.3423C143.805 28.3423 141.815 28.8594 140.035 29.8975L140.316 30.3801ZM145.998 28.901C148.099 28.901 149.976 29.3953 151.636 30.3792L151.921 29.8985C150.168 28.8594 148.191 28.3423 145.998 28.3423V28.901ZM151.639 30.3808C153.303 31.3401 154.617 32.6577 155.583 34.3376L156.068 34.059C155.052 32.2945 153.668 30.9057 151.918 29.8968L151.639 30.3808ZM155.585 34.3405C156.576 36.0162 157.074 37.9073 157.074 40.021H157.633C157.633 37.8155 157.112 35.8247 156.066 34.0561L155.585 34.3405ZM157.353 39.7416H155.743V40.3003H157.353V39.7416ZM155.463 40.021C155.463 42.1388 155.005 44.033 154.093 45.7102L154.584 45.977C155.545 44.2098 156.022 42.2223 156.022 40.021H155.463ZM154.093 45.7117C153.207 47.3649 151.987 48.6819 150.432 49.6671L150.731 50.1391C152.369 49.1014 153.654 47.7121 154.585 45.9756L154.093 45.7117ZM150.435 49.6653C148.885 50.6203 147.134 51.0999 145.172 51.0999V51.6586C147.229 51.6586 149.084 51.1541 150.728 50.1409L150.435 49.6653ZM145.998 47.9682C147.447 47.9682 148.75 47.629 149.898 46.9447L149.612 46.4647C148.559 47.0926 147.356 47.4095 145.998 47.4095V47.9682ZM149.903 46.9421C151.045 46.2331 151.946 45.2819 152.602 44.0923L152.112 43.8225C151.502 44.9292 150.668 45.8095 149.608 46.4674L149.903 46.9421ZM152.603 44.0899C153.26 42.8703 153.586 41.512 153.586 40.021H153.027C153.027 41.4276 152.72 42.6936 152.111 43.8249L152.603 44.0899ZM153.586 40.021C153.586 38.5036 153.26 37.144 152.602 35.9496L152.112 36.2194C152.72 37.3212 153.027 38.5859 153.027 40.021H153.586ZM152.603 35.952C151.947 34.734 151.045 33.7802 149.898 33.0972L149.612 33.5772C150.668 34.2063 151.501 35.0841 152.111 36.217L152.603 35.952ZM149.903 33.0998C148.754 32.3867 147.449 32.0327 145.998 32.0327V32.5914C147.354 32.5914 148.555 32.9209 149.608 33.5746L149.903 33.0998ZM145.998 32.0327C144.573 32.0327 143.27 32.3872 142.096 33.0982L142.385 33.5762C143.468 32.9203 144.67 32.5914 145.998 32.5914V32.0327ZM142.097 33.0972C140.952 33.7796 140.037 34.7319 139.354 35.9476L139.841 36.2214C140.479 35.0862 141.326 34.2069 142.383 33.5772L142.097 33.0972ZM139.353 35.9496C138.694 37.144 138.368 38.5036 138.368 40.021H138.927C138.927 38.5859 139.235 37.3212 139.842 36.2194L139.353 35.9496ZM138.368 40.021C138.368 41.512 138.695 42.8703 139.352 44.0899L139.843 43.8249C139.234 42.6936 138.927 41.4276 138.927 40.021H138.368ZM139.355 44.0967C140.039 45.284 140.952 46.2338 142.093 46.9421L142.388 46.4674C141.327 45.8088 140.478 44.9271 139.84 43.8181L139.355 44.0967ZM142.1 46.9463C143.273 47.6285 144.575 47.9682 145.998 47.9682V47.4095C144.668 47.4095 143.464 47.0931 142.381 46.4632L142.1 46.9463ZM155.247 50.9769C154.706 50.9769 154.267 50.8083 153.909 50.4773L153.53 50.8871C153.998 51.3215 154.577 51.5356 155.247 51.5356V50.9769ZM153.923 50.4909C153.59 50.1364 153.421 49.7007 153.421 49.165H152.862C152.862 49.8321 153.078 50.4079 153.516 50.8735L153.923 50.4909ZM153.421 49.165V42.8913H152.862V49.165H153.421ZM153.416 42.9409L154.201 38.5944L153.651 38.4952L152.867 42.8417L153.416 42.9409ZM153.815 38.8014L157.243 40.2775L157.464 39.7644L154.036 38.2882L153.815 38.8014ZM157.074 40.021V49.165H157.633V40.021H157.074ZM157.074 49.165C157.074 49.6948 156.895 50.1283 156.537 50.484L156.931 50.8804C157.398 50.416 157.633 49.8381 157.633 49.165H157.074ZM156.537 50.484C156.21 50.8085 155.788 50.9769 155.247 50.9769V51.5356C155.917 51.5356 156.487 51.3213 156.931 50.8804L156.537 50.484ZM180.428 50.9769C179.887 50.9769 179.447 50.8083 179.09 50.4773L178.71 50.8871C179.179 51.3215 179.757 51.5356 180.428 51.5356V50.9769ZM179.103 50.4909C178.77 50.1364 178.601 49.7007 178.601 49.165H178.042C178.042 49.8321 178.259 50.4079 178.696 50.8735L179.103 50.4909ZM178.601 49.165V39.0779H178.042V49.165H178.601ZM178.601 39.0779C178.601 37.4874 178.306 36.1628 177.695 35.1229L177.214 35.4059C177.759 36.3342 178.042 37.552 178.042 39.0779H178.601ZM177.695 35.1229C177.09 34.0924 176.264 33.328 175.219 32.8382L174.982 33.3441C175.92 33.7838 176.663 34.4682 177.214 35.4059L177.695 35.1229ZM175.228 32.8424C174.219 32.3271 173.059 32.0737 171.756 32.0737V32.6324C172.986 32.6324 174.056 32.8712 174.974 33.34L175.228 32.8424ZM171.756 32.0737C170.562 32.0737 169.472 32.3141 168.494 32.7999L168.742 33.3004C169.636 32.8568 170.638 32.6324 171.756 32.6324V32.0737ZM168.494 32.7999C167.519 33.2838 166.738 33.9424 166.159 34.777L166.618 35.0957C167.139 34.3448 167.845 33.7459 168.742 33.3004L168.494 32.7999ZM166.161 34.7732C165.574 35.5897 165.283 36.5362 165.283 37.6017H165.842C165.842 36.6443 166.101 35.8139 166.615 35.0995L166.161 34.7732ZM165.562 37.3223H162.961V37.881H165.562V37.3223ZM163.24 37.6017C163.24 35.9262 163.641 34.4471 164.438 33.1558L163.962 32.8625C163.106 34.2502 162.682 35.8328 162.682 37.6017H163.24ZM164.437 33.1571C165.264 31.8325 166.384 30.7857 167.802 30.0153L167.535 29.5243C166.035 30.3394 164.842 31.4522 163.963 32.8612L164.437 33.1571ZM167.802 30.0153C169.216 29.2468 170.807 28.86 172.582 28.86V28.3013C170.723 28.3013 169.039 28.7073 167.535 29.5243L167.802 30.0153ZM172.582 28.86C174.44 28.86 176.086 29.2607 177.526 30.0554L177.796 29.5662C176.263 28.7207 174.523 28.3013 172.582 28.3013V28.86ZM177.531 30.0583C178.995 30.8244 180.139 31.9595 180.967 33.4714L181.457 33.203C180.578 31.5985 179.355 30.3827 177.791 29.5633L177.531 30.0583ZM180.969 33.4747C181.821 34.9811 182.254 36.8444 182.254 39.0779H182.813C182.813 36.7734 182.365 34.8096 181.455 33.1997L180.969 33.4747ZM182.254 39.0779V49.165H182.813V39.0779H182.254ZM182.254 49.165C182.254 49.6948 182.075 50.1283 181.717 50.484L182.111 50.8804C182.579 50.416 182.813 49.8381 182.813 49.165H182.254ZM181.717 50.484C181.39 50.8085 180.969 50.9769 180.428 50.9769V51.5356C181.098 51.5356 181.667 51.3213 182.111 50.8804L181.717 50.484ZM163.456 50.9769C162.915 50.9769 162.476 50.8083 162.119 50.4773L161.739 50.8871C162.207 51.3215 162.786 51.5356 163.456 51.5356V50.9769ZM162.132 50.4909C161.799 50.1364 161.63 49.7007 161.63 49.165H161.071C161.071 49.8321 161.287 50.4079 161.725 50.8735L162.132 50.4909ZM161.63 49.165V30.8769H161.071V49.165H161.63ZM161.63 30.8769C161.63 30.3099 161.801 29.8799 162.125 29.558L161.732 29.1615C161.285 29.605 161.071 30.1864 161.071 30.8769H161.63ZM162.119 29.5646C162.476 29.2336 162.915 29.065 163.456 29.065V28.5063C162.786 28.5063 162.207 28.7204 161.739 29.1548L162.119 29.5646ZM163.456 29.065C164.029 29.065 164.463 29.2358 164.787 29.558L165.181 29.1615C164.735 28.7182 164.15 28.5063 163.456 28.5063V29.065ZM164.787 29.558C165.112 29.8799 165.283 30.3099 165.283 30.8769H165.842C165.842 30.1864 165.628 29.605 165.181 29.1615L164.787 29.558ZM165.283 30.8769V49.165H165.842V30.8769H165.283ZM165.283 49.165C165.283 49.7007 165.114 50.1364 164.781 50.4909L165.188 50.8735C165.625 50.4079 165.842 49.8321 165.842 49.165H165.283ZM164.787 50.484C164.463 50.8061 164.029 50.9769 163.456 50.9769V51.5356C164.15 51.5356 164.735 51.3237 165.181 50.8804L164.787 50.484Z" fill="#FEFEFE" mask="url(#path-16-outside-1)"/>
<path d="M136.118 16.8711L136.118 16.8712L136.122 16.8754C136.353 17.1046 136.64 17.219 136.973 17.219H144.248C144.58 17.219 144.868 17.1046 145.098 16.8754C145.328 16.6479 145.445 16.3692 145.445 16.0486C145.445 15.7394 145.326 15.4686 145.1 15.2433C144.871 15.0011 144.583 14.8781 144.248 14.8781H139.13L143.376 10.0918L143.376 10.0914C143.657 9.77303 143.93 9.41594 144.195 9.02053C144.477 8.62026 144.706 8.19935 144.881 7.75792C145.072 7.31 145.17 6.86438 145.17 6.42223C145.17 5.45001 144.982 4.60094 144.599 3.88113C144.23 3.1626 143.703 2.60405 143.018 2.20951C142.331 1.81421 141.527 1.61995 140.61 1.61995C139.704 1.61995 138.881 1.82846 138.144 2.24818L138.144 2.24817L138.143 2.24888C137.422 2.66777 136.85 3.24285 136.428 3.97158C136.005 4.69097 135.795 5.50952 135.795 6.42223C135.795 6.73232 135.914 7.00384 136.142 7.22954L136.264 7.10665L136.142 7.22954C136.371 7.45704 136.651 7.57314 136.973 7.57314C137.304 7.57314 137.587 7.4592 137.806 7.22742C138.031 7.00215 138.15 6.73135 138.15 6.42223C138.15 5.94144 138.255 5.50822 138.463 5.1191C138.686 4.71446 138.98 4.39882 139.346 4.16833L139.346 4.16833L139.348 4.16754C139.725 3.92581 140.144 3.80461 140.61 3.80461C141.094 3.80461 141.499 3.91517 141.834 4.12865L141.834 4.12869L141.837 4.131C142.173 4.33318 142.432 4.62492 142.615 5.01278C142.799 5.40107 142.893 5.86912 142.893 6.42223C142.893 6.75038 142.793 7.10546 142.581 7.48986L142.581 7.48983L142.579 7.49374C142.377 7.8821 142.084 8.30047 141.697 8.7489L141.697 8.74903L136.117 15.2267C135.9 15.4447 135.795 15.7236 135.795 16.0486C135.795 16.3654 135.903 16.6427 136.118 16.8711ZM145.389 12.6993L145.388 12.6994L145.39 12.7095C145.42 12.9834 145.536 13.2262 145.731 13.4342C145.941 13.659 146.227 13.7629 146.566 13.7629H152.939V16.0486C152.939 16.3654 153.047 16.6427 153.262 16.8711C153.477 17.1006 153.746 17.219 154.058 17.219C154.39 17.219 154.673 17.1043 154.893 16.8711C155.107 16.6427 155.215 16.3654 155.215 16.0486V13.7629H156.22C156.535 13.7629 156.812 13.665 157.042 13.4668L157.042 13.4669L157.047 13.4625C157.276 13.2503 157.398 12.9904 157.398 12.6901C157.398 12.3206 157.289 12.0168 157.025 11.8416C156.795 11.6895 156.524 11.6173 156.22 11.6173H155.215V2.80991C155.215 2.48608 155.118 2.20312 154.917 1.97264C154.711 1.73678 154.439 1.61995 154.117 1.61995C153.918 1.61995 153.732 1.6657 153.561 1.75818L153.561 1.75805L153.555 1.76171C153.405 1.8514 153.271 1.96981 153.155 2.11459L153.155 2.11456L153.152 2.11775L145.621 11.9198L145.621 11.9198L145.619 11.9225C145.451 12.151 145.374 12.4125 145.389 12.6993ZM152.939 11.6173H148.518L152.939 5.84009V11.6173Z" fill="#219653" stroke="#219653" stroke-width="0.349206"/>
<mask id="path-19-outside-2" maskUnits="userSpaceOnUse" x="0.966309" y="33.0126" width="70" height="17" fill="black">
<rect fill="white" x="0.966309" y="33.0126" width="70" height="17"/>
<path d="M2.98879 49.2624C2.70039 49.2624 2.45788 49.1648 2.26125 48.9695C2.06462 48.7743 1.96631 48.5334 1.96631 48.2471V35.0279C1.96631 34.7285 2.06462 34.4877 2.26125 34.3055C2.45788 34.1102 2.70039 34.0126 2.98879 34.0126C3.38205 34.0126 3.68354 34.1948 3.89328 34.5593L10.0478 46.8021H9.41859L15.4158 34.5593C15.6255 34.1948 15.927 34.0126 16.3203 34.0126C16.6087 34.0126 16.8512 34.1102 17.0478 34.3055C17.2445 34.4877 17.3428 34.7285 17.3428 35.0279V48.2471C17.3428 48.5334 17.2379 48.7743 17.0282 48.9695C16.8315 49.1648 16.5956 49.2624 16.3203 49.2624C16.0319 49.2624 15.7894 49.1648 15.5928 48.9695C15.3961 48.7743 15.2978 48.5334 15.2978 48.2471V37.8397L15.6911 37.742L10.5394 48.169C10.3165 48.5074 10.0216 48.6766 9.65454 48.6766C9.22196 48.6766 8.90735 48.4749 8.71072 48.0713L3.618 37.9373L4.01126 37.8397V48.2471C4.01126 48.5334 3.91295 48.7743 3.71632 48.9695C3.51969 49.1648 3.27718 49.2624 2.98879 49.2624Z"/>
<path d="M25.0786 49.3405C24.1217 49.3405 23.2631 49.1062 22.5028 48.6376C21.7425 48.1559 21.1395 47.5116 20.6938 46.7045C20.2612 45.8844 20.0449 44.9602 20.0449 43.9318C20.0449 42.9034 20.2809 41.9792 20.7528 41.1591C21.2378 40.339 21.8867 39.6947 22.6994 39.226C23.5253 38.7444 24.4494 38.5036 25.4719 38.5036C26.4944 38.5036 27.412 38.7444 28.2247 39.226C29.0375 39.6947 29.6798 40.339 30.1517 41.1591C30.6367 41.9792 30.8792 42.9034 30.8792 43.9318H30.1124C30.1124 44.9602 29.8895 45.8844 29.4438 46.7045C29.0112 47.5116 28.4148 48.1559 27.6545 48.6376C26.8942 49.1062 26.0356 49.3405 25.0786 49.3405ZM25.4719 47.5832C26.1404 47.5832 26.7369 47.427 27.2612 47.1146C27.7856 46.7891 28.1985 46.353 28.5 45.8063C28.8015 45.2466 28.9522 44.6217 28.9522 43.9318C28.9522 43.2289 28.8015 42.604 28.5 42.0573C28.1985 41.4976 27.7856 41.0615 27.2612 40.7491C26.7369 40.4236 26.1404 40.2609 25.4719 40.2609C24.8165 40.2609 24.22 40.4236 23.6826 40.7491C23.1582 41.0615 22.7387 41.4976 22.4241 42.0573C22.1226 42.604 21.9719 43.2289 21.9719 43.9318C21.9719 44.6217 22.1226 45.2466 22.4241 45.8063C22.7387 46.353 23.1582 46.7891 23.6826 47.1146C24.22 47.427 24.8165 47.5832 25.4719 47.5832ZM29.8764 49.2819C29.588 49.2819 29.3455 49.1908 29.1489 49.0086C28.9654 48.8133 28.8736 48.5725 28.8736 48.2861V45.2986L29.2472 43.2289L30.8792 43.9318V48.2861C30.8792 48.5725 30.7809 48.8133 30.5843 49.0086C30.4008 49.1908 30.1648 49.2819 29.8764 49.2819Z"/>
<path d="M37.2855 49.3405C36.3679 49.3405 35.5159 49.2038 34.7293 48.9305C33.9559 48.6441 33.3529 48.2861 32.9203 47.8565C32.7237 47.6483 32.6385 47.414 32.6647 47.1536C32.704 46.8802 32.8351 46.6589 33.058 46.4897C33.3201 46.2814 33.5758 46.1968 33.8248 46.2359C34.087 46.2619 34.3099 46.3726 34.4934 46.5678C34.7162 46.8152 35.0702 47.0495 35.5552 47.2708C36.0533 47.479 36.6039 47.5832 37.2069 47.5832C37.9672 47.5832 38.544 47.4595 38.9372 47.2122C39.3436 46.9649 39.5533 46.6459 39.5664 46.2554C39.5795 45.8649 39.3895 45.5264 38.9962 45.2401C38.6161 44.9537 37.9147 44.7194 36.8923 44.5371C35.5683 44.2768 34.6048 43.8862 34.0018 43.3656C33.4119 42.8449 33.117 42.207 33.117 41.452C33.117 40.7881 33.3136 40.2414 33.7069 39.8118C34.1001 39.3692 34.6048 39.0438 35.2209 38.8355C35.837 38.6142 36.4793 38.5036 37.1479 38.5036C38.0131 38.5036 38.7799 38.6402 39.4485 38.9136C40.117 39.187 40.6479 39.5645 41.0412 40.0461C41.2247 40.2544 41.3099 40.4757 41.2968 40.71C41.2837 40.9313 41.1722 41.1201 40.9625 41.2763C40.7528 41.4195 40.5037 41.465 40.2153 41.4129C39.9269 41.3609 39.6844 41.2437 39.4878 41.0615C39.1601 40.7491 38.8061 40.5343 38.426 40.4171C38.0458 40.3 37.6067 40.2414 37.1086 40.2414C36.5318 40.2414 36.0402 40.339 35.6338 40.5343C35.2406 40.7295 35.0439 41.0159 35.0439 41.3934C35.0439 41.6277 35.1029 41.8425 35.2209 42.0378C35.352 42.22 35.6011 42.3892 35.9681 42.5455C36.3351 42.6886 36.8726 42.8318 37.5805 42.975C38.5636 43.1703 39.337 43.4176 39.9007 43.717C40.4775 44.0164 40.8904 44.3679 41.1395 44.7714C41.3885 45.162 41.5131 45.6176 41.5131 46.1383C41.5131 46.7371 41.3492 47.2773 41.0215 47.7589C40.7069 48.2406 40.235 48.6246 39.6058 48.911C38.9896 49.1973 38.2162 49.3405 37.2855 49.3405Z"/>
<path d="M47.4703 49.2624C46.8149 49.2624 46.225 49.0997 45.7007 48.7743C45.1763 48.4358 44.7634 47.9802 44.4619 47.4074C44.1604 46.8347 44.0097 46.1903 44.0097 45.4744V36.1604C44.0097 35.8741 44.1014 35.6397 44.2849 35.4575C44.4685 35.2753 44.7044 35.1841 44.9928 35.1841C45.2812 35.1841 45.5172 35.2753 45.7007 35.4575C45.8842 35.6397 45.976 35.8741 45.976 36.1604V45.4744C45.976 45.9951 46.1202 46.4311 46.4085 46.7826C46.6969 47.1341 47.0509 47.3098 47.4703 47.3098H48.1389C48.3748 47.3098 48.5715 47.4009 48.7288 47.5832C48.8992 47.7654 48.9844 47.9997 48.9844 48.2861C48.9844 48.5725 48.873 48.8068 48.6501 48.9891C48.4404 49.1713 48.1651 49.2624 47.8243 49.2624H47.4703ZM43.1052 40.6514C42.8299 40.6514 42.607 40.5733 42.4366 40.4171C42.2662 40.2609 42.181 40.0656 42.181 39.8313C42.181 39.571 42.2662 39.3627 42.4366 39.2065C42.607 39.0503 42.8299 38.9722 43.1052 38.9722H47.6473C47.9226 38.9722 48.1454 39.0503 48.3158 39.2065C48.4863 39.3627 48.5715 39.571 48.5715 39.8313C48.5715 40.0656 48.4863 40.2609 48.3158 40.4171C48.1454 40.5733 47.9226 40.6514 47.6473 40.6514H43.1052Z"/>
<path d="M56.0113 49.3405C54.9233 49.3405 53.9532 49.1127 53.1012 48.6571C52.2622 48.1885 51.6002 47.5506 51.1152 46.7436C50.6433 45.9235 50.4074 44.9862 50.4074 43.9318C50.4074 42.8644 50.6302 41.9271 51.0759 41.1201C51.5347 40.3 52.1639 39.6621 52.9635 39.2065C53.7632 38.7379 54.6808 38.5036 55.7164 38.5036C56.7388 38.5036 57.6171 38.7314 58.3512 39.187C59.0853 39.6296 59.6424 40.2479 60.0226 41.042C60.4158 41.823 60.6124 42.7277 60.6124 43.7561C60.6124 44.0034 60.5272 44.2117 60.3568 44.3809C60.1864 44.5371 59.9701 44.6152 59.708 44.6152H51.7838V43.0531H59.649L58.8428 43.5999C58.8297 42.949 58.6986 42.3697 58.4495 41.862C58.2005 41.3414 57.8465 40.9313 57.3877 40.6319C56.9289 40.3325 56.3718 40.1828 55.7164 40.1828C54.9692 40.1828 54.3268 40.3455 53.7894 40.671C53.265 40.9964 52.8652 41.4455 52.5899 42.0183C52.3147 42.578 52.177 43.2159 52.177 43.9318C52.177 44.6478 52.3409 45.2856 52.6686 45.8454C52.9963 46.4051 53.4486 46.8477 54.0253 47.1731C54.6021 47.4986 55.2641 47.6613 56.0113 47.6613C56.4177 47.6613 56.8306 47.5897 57.2501 47.4465C57.6827 47.2903 58.03 47.1146 58.2922 46.9193C58.4888 46.7761 58.6986 46.7045 58.9214 46.7045C59.1574 46.6915 59.3606 46.7566 59.531 46.8998C59.7538 47.095 59.8718 47.3098 59.8849 47.5441C59.898 47.7784 59.7932 47.9802 59.5703 48.1494C59.1246 48.5009 58.5675 48.7873 57.899 49.0086C57.2435 49.2299 56.6143 49.3405 56.0113 49.3405Z"/>
<path d="M63.6424 42.5845C63.6424 41.8035 63.8325 41.107 64.2126 40.4952C64.6059 39.8704 65.1302 39.3757 65.7857 39.0112C66.4411 38.6468 67.1621 38.4645 67.9486 38.4645C68.7351 38.4645 69.3185 38.5947 69.6986 38.855C70.0919 39.1024 70.2426 39.4018 70.1508 39.7532C70.1115 39.9355 70.0329 40.0787 69.9149 40.1828C69.81 40.2739 69.6855 40.3325 69.5413 40.3585C69.3971 40.3846 69.2398 40.3781 69.0694 40.339C68.2304 40.1698 67.4767 40.1568 66.8081 40.3C66.1396 40.4432 65.6087 40.71 65.2154 41.1005C64.8353 41.4911 64.6452 41.9857 64.6452 42.5845H63.6424ZM63.6621 49.2624C63.3475 49.2624 63.1049 49.1843 62.9345 49.0281C62.7641 48.8589 62.6789 48.6116 62.6789 48.2861V39.558C62.6789 39.2456 62.7641 39.0047 62.9345 38.8355C63.1049 38.6663 63.3475 38.5817 63.6621 38.5817C63.9898 38.5817 64.2323 38.6663 64.3896 38.8355C64.56 38.9917 64.6452 39.2325 64.6452 39.558V48.2861C64.6452 48.5985 64.56 48.8394 64.3896 49.0086C64.2323 49.1778 63.9898 49.2624 63.6621 49.2624Z"/>
</mask>
<path d="M2.98879 49.2624C2.70039 49.2624 2.45788 49.1648 2.26125 48.9695C2.06462 48.7743 1.96631 48.5334 1.96631 48.2471V35.0279C1.96631 34.7285 2.06462 34.4877 2.26125 34.3055C2.45788 34.1102 2.70039 34.0126 2.98879 34.0126C3.38205 34.0126 3.68354 34.1948 3.89328 34.5593L10.0478 46.8021H9.41859L15.4158 34.5593C15.6255 34.1948 15.927 34.0126 16.3203 34.0126C16.6087 34.0126 16.8512 34.1102 17.0478 34.3055C17.2445 34.4877 17.3428 34.7285 17.3428 35.0279V48.2471C17.3428 48.5334 17.2379 48.7743 17.0282 48.9695C16.8315 49.1648 16.5956 49.2624 16.3203 49.2624C16.0319 49.2624 15.7894 49.1648 15.5928 48.9695C15.3961 48.7743 15.2978 48.5334 15.2978 48.2471V37.8397L15.6911 37.742L10.5394 48.169C10.3165 48.5074 10.0216 48.6766 9.65454 48.6766C9.22196 48.6766 8.90735 48.4749 8.71072 48.0713L3.618 37.9373L4.01126 37.8397V48.2471C4.01126 48.5334 3.91295 48.7743 3.71632 48.9695C3.51969 49.1648 3.27718 49.2624 2.98879 49.2624Z" fill="#219653"/>
<path d="M25.0786 49.3405C24.1217 49.3405 23.2631 49.1062 22.5028 48.6376C21.7425 48.1559 21.1395 47.5116 20.6938 46.7045C20.2612 45.8844 20.0449 44.9602 20.0449 43.9318C20.0449 42.9034 20.2809 41.9792 20.7528 41.1591C21.2378 40.339 21.8867 39.6947 22.6994 39.226C23.5253 38.7444 24.4494 38.5036 25.4719 38.5036C26.4944 38.5036 27.412 38.7444 28.2247 39.226C29.0375 39.6947 29.6798 40.339 30.1517 41.1591C30.6367 41.9792 30.8792 42.9034 30.8792 43.9318H30.1124C30.1124 44.9602 29.8895 45.8844 29.4438 46.7045C29.0112 47.5116 28.4148 48.1559 27.6545 48.6376C26.8942 49.1062 26.0356 49.3405 25.0786 49.3405ZM25.4719 47.5832C26.1404 47.5832 26.7369 47.427 27.2612 47.1146C27.7856 46.7891 28.1985 46.353 28.5 45.8063C28.8015 45.2466 28.9522 44.6217 28.9522 43.9318C28.9522 43.2289 28.8015 42.604 28.5 42.0573C28.1985 41.4976 27.7856 41.0615 27.2612 40.7491C26.7369 40.4236 26.1404 40.2609 25.4719 40.2609C24.8165 40.2609 24.22 40.4236 23.6826 40.7491C23.1582 41.0615 22.7387 41.4976 22.4241 42.0573C22.1226 42.604 21.9719 43.2289 21.9719 43.9318C21.9719 44.6217 22.1226 45.2466 22.4241 45.8063C22.7387 46.353 23.1582 46.7891 23.6826 47.1146C24.22 47.427 24.8165 47.5832 25.4719 47.5832ZM29.8764 49.2819C29.588 49.2819 29.3455 49.1908 29.1489 49.0086C28.9654 48.8133 28.8736 48.5725 28.8736 48.2861V45.2986L29.2472 43.2289L30.8792 43.9318V48.2861C30.8792 48.5725 30.7809 48.8133 30.5843 49.0086C30.4008 49.1908 30.1648 49.2819 29.8764 49.2819Z" fill="#219653"/>
<path d="M37.2855 49.3405C36.3679 49.3405 35.5159 49.2038 34.7293 48.9305C33.9559 48.6441 33.3529 48.2861 32.9203 47.8565C32.7237 47.6483 32.6385 47.414 32.6647 47.1536C32.704 46.8802 32.8351 46.6589 33.058 46.4897C33.3201 46.2814 33.5758 46.1968 33.8248 46.2359C34.087 46.2619 34.3099 46.3726 34.4934 46.5678C34.7162 46.8152 35.0702 47.0495 35.5552 47.2708C36.0533 47.479 36.6039 47.5832 37.2069 47.5832C37.9672 47.5832 38.544 47.4595 38.9372 47.2122C39.3436 46.9649 39.5533 46.6459 39.5664 46.2554C39.5795 45.8649 39.3895 45.5264 38.9962 45.2401C38.6161 44.9537 37.9147 44.7194 36.8923 44.5371C35.5683 44.2768 34.6048 43.8862 34.0018 43.3656C33.4119 42.8449 33.117 42.207 33.117 41.452C33.117 40.7881 33.3136 40.2414 33.7069 39.8118C34.1001 39.3692 34.6048 39.0438 35.2209 38.8355C35.837 38.6142 36.4793 38.5036 37.1479 38.5036C38.0131 38.5036 38.7799 38.6402 39.4485 38.9136C40.117 39.187 40.6479 39.5645 41.0412 40.0461C41.2247 40.2544 41.3099 40.4757 41.2968 40.71C41.2837 40.9313 41.1722 41.1201 40.9625 41.2763C40.7528 41.4195 40.5037 41.465 40.2153 41.4129C39.9269 41.3609 39.6844 41.2437 39.4878 41.0615C39.1601 40.7491 38.8061 40.5343 38.426 40.4171C38.0458 40.3 37.6067 40.2414 37.1086 40.2414C36.5318 40.2414 36.0402 40.339 35.6338 40.5343C35.2406 40.7295 35.0439 41.0159 35.0439 41.3934C35.0439 41.6277 35.1029 41.8425 35.2209 42.0378C35.352 42.22 35.6011 42.3892 35.9681 42.5455C36.3351 42.6886 36.8726 42.8318 37.5805 42.975C38.5636 43.1703 39.337 43.4176 39.9007 43.717C40.4775 44.0164 40.8904 44.3679 41.1395 44.7714C41.3885 45.162 41.5131 45.6176 41.5131 46.1383C41.5131 46.7371 41.3492 47.2773 41.0215 47.7589C40.7069 48.2406 40.235 48.6246 39.6058 48.911C38.9896 49.1973 38.2162 49.3405 37.2855 49.3405Z" fill="#219653"/>
<path d="M47.4703 49.2624C46.8149 49.2624 46.225 49.0997 45.7007 48.7743C45.1763 48.4358 44.7634 47.9802 44.4619 47.4074C44.1604 46.8347 44.0097 46.1903 44.0097 45.4744V36.1604C44.0097 35.8741 44.1014 35.6397 44.2849 35.4575C44.4685 35.2753 44.7044 35.1841 44.9928 35.1841C45.2812 35.1841 45.5172 35.2753 45.7007 35.4575C45.8842 35.6397 45.976 35.8741 45.976 36.1604V45.4744C45.976 45.9951 46.1202 46.4311 46.4085 46.7826C46.6969 47.1341 47.0509 47.3098 47.4703 47.3098H48.1389C48.3748 47.3098 48.5715 47.4009 48.7288 47.5832C48.8992 47.7654 48.9844 47.9997 48.9844 48.2861C48.9844 48.5725 48.873 48.8068 48.6501 48.9891C48.4404 49.1713 48.1651 49.2624 47.8243 49.2624H47.4703ZM43.1052 40.6514C42.8299 40.6514 42.607 40.5733 42.4366 40.4171C42.2662 40.2609 42.181 40.0656 42.181 39.8313C42.181 39.571 42.2662 39.3627 42.4366 39.2065C42.607 39.0503 42.8299 38.9722 43.1052 38.9722H47.6473C47.9226 38.9722 48.1454 39.0503 48.3158 39.2065C48.4863 39.3627 48.5715 39.571 48.5715 39.8313C48.5715 40.0656 48.4863 40.2609 48.3158 40.4171C48.1454 40.5733 47.9226 40.6514 47.6473 40.6514H43.1052Z" fill="#219653"/>
<path d="M56.0113 49.3405C54.9233 49.3405 53.9532 49.1127 53.1012 48.6571C52.2622 48.1885 51.6002 47.5506 51.1152 46.7436C50.6433 45.9235 50.4074 44.9862 50.4074 43.9318C50.4074 42.8644 50.6302 41.9271 51.0759 41.1201C51.5347 40.3 52.1639 39.6621 52.9635 39.2065C53.7632 38.7379 54.6808 38.5036 55.7164 38.5036C56.7388 38.5036 57.6171 38.7314 58.3512 39.187C59.0853 39.6296 59.6424 40.2479 60.0226 41.042C60.4158 41.823 60.6124 42.7277 60.6124 43.7561C60.6124 44.0034 60.5272 44.2117 60.3568 44.3809C60.1864 44.5371 59.9701 44.6152 59.708 44.6152H51.7838V43.0531H59.649L58.8428 43.5999C58.8297 42.949 58.6986 42.3697 58.4495 41.862C58.2005 41.3414 57.8465 40.9313 57.3877 40.6319C56.9289 40.3325 56.3718 40.1828 55.7164 40.1828C54.9692 40.1828 54.3268 40.3455 53.7894 40.671C53.265 40.9964 52.8652 41.4455 52.5899 42.0183C52.3147 42.578 52.177 43.2159 52.177 43.9318C52.177 44.6478 52.3409 45.2856 52.6686 45.8454C52.9963 46.4051 53.4486 46.8477 54.0253 47.1731C54.6021 47.4986 55.2641 47.6613 56.0113 47.6613C56.4177 47.6613 56.8306 47.5897 57.2501 47.4465C57.6827 47.2903 58.03 47.1146 58.2922 46.9193C58.4888 46.7761 58.6986 46.7045 58.9214 46.7045C59.1574 46.6915 59.3606 46.7566 59.531 46.8998C59.7538 47.095 59.8718 47.3098 59.8849 47.5441C59.898 47.7784 59.7932 47.9802 59.5703 48.1494C59.1246 48.5009 58.5675 48.7873 57.899 49.0086C57.2435 49.2299 56.6143 49.3405 56.0113 49.3405Z" fill="#219653"/>
<path d="M63.6424 42.5845C63.6424 41.8035 63.8325 41.107 64.2126 40.4952C64.6059 39.8704 65.1302 39.3757 65.7857 39.0112C66.4411 38.6468 67.1621 38.4645 67.9486 38.4645C68.7351 38.4645 69.3185 38.5947 69.6986 38.855C70.0919 39.1024 70.2426 39.4018 70.1508 39.7532C70.1115 39.9355 70.0329 40.0787 69.9149 40.1828C69.81 40.2739 69.6855 40.3325 69.5413 40.3585C69.3971 40.3846 69.2398 40.3781 69.0694 40.339C68.2304 40.1698 67.4767 40.1568 66.8081 40.3C66.1396 40.4432 65.6087 40.71 65.2154 41.1005C64.8353 41.4911 64.6452 41.9857 64.6452 42.5845H63.6424ZM63.6621 49.2624C63.3475 49.2624 63.1049 49.1843 62.9345 49.0281C62.7641 48.8589 62.6789 48.6116 62.6789 48.2861V39.558C62.6789 39.2456 62.7641 39.0047 62.9345 38.8355C63.1049 38.6663 63.3475 38.5817 63.6621 38.5817C63.9898 38.5817 64.2323 38.6663 64.3896 38.8355C64.56 38.9917 64.6452 39.2325 64.6452 39.558V48.2861C64.6452 48.5985 64.56 48.8394 64.3896 49.0086C64.2323 49.1778 63.9898 49.2624 63.6621 49.2624Z" fill="#219653"/>
<path d="M2.26125 48.9695L2.0644 49.1678H2.0644L2.26125 48.9695ZM2.26125 34.3055L2.45127 34.5105L2.4581 34.5037L2.26125 34.3055ZM3.89328 34.5593L4.14288 34.4338L4.13935 34.4268L4.13542 34.42L3.89328 34.5593ZM10.0478 46.8021V47.0815H10.5009L10.2974 46.6767L10.0478 46.8021ZM9.41859 46.8021L9.16771 46.6792L8.97066 47.0815H9.41859V46.8021ZM15.4158 34.5593L15.1737 34.42L15.169 34.428L15.1649 34.4364L15.4158 34.5593ZM17.0478 34.3055L16.8509 34.5038L16.8579 34.5104L17.0478 34.3055ZM17.0282 48.9695L16.8377 48.765L16.8313 48.7713L17.0282 48.9695ZM15.2978 37.8397L15.2305 37.5685L15.0185 37.6212V37.8397H15.2978ZM15.6911 37.742L15.9415 37.8658L16.2084 37.3258L15.6238 37.4709L15.6911 37.742ZM10.5394 48.169L10.7727 48.3226L10.7822 48.3082L10.7898 48.2927L10.5394 48.169ZM8.71072 48.0713L8.96188 47.949L8.96034 47.9459L8.71072 48.0713ZM3.618 37.9373L3.55069 37.6662L3.21142 37.7504L3.36838 38.0628L3.618 37.9373ZM4.01126 37.8397H4.29063V37.4825L3.94395 37.5685L4.01126 37.8397ZM22.5028 48.6376L22.3533 48.8736L22.3562 48.8754L22.5028 48.6376ZM20.6938 46.7045L20.4466 46.8349L20.4492 46.8396L20.6938 46.7045ZM20.7528 41.1591L20.5123 41.0169L20.5106 41.0198L20.7528 41.1591ZM22.6994 39.226L22.839 39.468L22.8402 39.4674L22.6994 39.226ZM28.2247 39.226L28.0823 39.4664L28.0852 39.468L28.2247 39.226ZM30.1517 41.1591L29.9095 41.2985L29.9112 41.3013L30.1517 41.1591ZM30.1124 43.9318V43.6524H29.833V43.9318H30.1124ZM29.4438 46.7045L29.1984 46.5711L29.1976 46.5725L29.4438 46.7045ZM27.6545 48.6376L27.8011 48.8754L27.804 48.8736L27.6545 48.6376ZM27.2612 47.1146L27.4042 47.3546L27.4085 47.3519L27.2612 47.1146ZM28.5 45.8063L28.7446 45.9412L28.746 45.9388L28.5 45.8063ZM28.5 42.0573L28.254 42.1898L28.2554 42.1922L28.5 42.0573ZM27.2612 40.7491L27.1139 40.9865L27.1182 40.9891L27.2612 40.7491ZM23.6826 40.7491L23.8256 40.9891L23.8273 40.988L23.6826 40.7491ZM22.4241 42.0573L22.1806 41.9204L22.1795 41.9224L22.4241 42.0573ZM22.4241 45.8063L22.1781 45.9388L22.182 45.9456L22.4241 45.8063ZM23.6826 47.1146L23.5352 47.352L23.5422 47.3561L23.6826 47.1146ZM29.1489 49.0086L28.9453 49.1999L28.9519 49.2069L28.959 49.2135L29.1489 49.0086ZM28.8736 45.2986L28.5987 45.249L28.5942 45.2736V45.2986H28.8736ZM29.2472 43.2289L29.3577 42.9723L29.0347 42.8332L28.9723 43.1792L29.2472 43.2289ZM30.5843 49.0086L30.7811 49.2068L30.5843 49.0086ZM34.7293 48.9305L34.6323 49.1925L34.6376 49.1944L34.7293 48.9305ZM32.9203 47.8565L32.7171 48.0484L32.7235 48.0548L32.9203 47.8565ZM32.6647 47.1536L32.3879 47.1138L32.3868 47.1256L32.6647 47.1536ZM33.058 46.4897L33.227 46.7123L33.2317 46.7085L33.058 46.4897ZM33.8248 46.2359L33.7816 46.5119L33.7894 46.5131L33.7972 46.5139L33.8248 46.2359ZM34.4934 46.5678L34.701 46.3808L34.6969 46.3765L34.4934 46.5678ZM35.5552 47.2708L35.4392 47.5251L35.4474 47.5285L35.5552 47.2708ZM38.9372 47.2122L38.792 46.9735L38.7885 46.9757L38.9372 47.2122ZM39.5664 46.2554L39.8456 46.2648L39.5664 46.2554ZM38.9962 45.2401L38.8281 45.4632L38.8317 45.4659L38.9962 45.2401ZM36.8923 44.5371L36.8384 44.8113L36.8432 44.8121L36.8923 44.5371ZM34.0018 43.3656L33.8169 43.575L33.8192 43.577L34.0018 43.3656ZM33.7069 39.8118L33.9129 40.0005L33.9157 39.9974L33.7069 39.8118ZM35.2209 38.8355L35.3104 39.1002L35.3153 39.0984L35.2209 38.8355ZM39.4485 38.9136L39.5542 38.655L39.4485 38.9136ZM41.0412 40.0461L40.8246 40.2229L40.8315 40.2308L41.0412 40.0461ZM41.2968 40.71L41.5757 40.7265L41.5757 40.7256L41.2968 40.71ZM40.9625 41.2763L41.1202 41.5072L41.1294 41.5003L40.9625 41.2763ZM40.2153 41.4129L40.1657 41.6879L40.2153 41.4129ZM39.4878 41.0615L39.295 41.2637L39.2979 41.2664L39.4878 41.0615ZM38.426 40.4171L38.3437 40.6841V40.6841L38.426 40.4171ZM35.6338 40.5343L35.5128 40.2824L35.5096 40.2841L35.6338 40.5343ZM35.2209 42.0378L34.9818 42.1823L34.9876 42.1918L34.9941 42.2009L35.2209 42.0378ZM35.9681 42.5455L35.8587 42.8026L35.8666 42.8057L35.9681 42.5455ZM37.5805 42.975L37.5251 43.2489L37.526 43.249L37.5805 42.975ZM39.9007 43.717L39.7696 43.9638L39.772 43.965L39.9007 43.717ZM41.1395 44.7714L40.9017 44.9182L40.9039 44.9216L41.1395 44.7714ZM41.0215 47.7589L40.7905 47.6017L40.7876 47.6061L41.0215 47.7589ZM39.6058 48.911L39.49 48.6567L39.488 48.6576L39.6058 48.911ZM45.7007 48.7743L45.5491 49.009L45.5534 49.0116L45.7007 48.7743ZM44.4619 47.4074L44.2147 47.5376L44.4619 47.4074ZM45.7007 35.4575L45.8975 35.2593V35.2593L45.7007 35.4575ZM46.4085 46.7826L46.6245 46.6054L46.4085 46.7826ZM48.7288 47.5832L48.5171 47.7659L48.5247 47.774L48.7288 47.5832ZM48.6501 48.9891L48.4732 48.7727L48.4669 48.7782L48.6501 48.9891ZM42.4366 40.4171L42.2478 40.6231V40.6231L42.4366 40.4171ZM42.4366 39.2065L42.2478 39.0006V39.0006L42.4366 39.2065ZM48.3158 39.2065L48.5046 39.0006V39.0006L48.3158 39.2065ZM48.3158 40.4171L48.5046 40.6231L48.3158 40.4171ZM53.1012 48.6571L52.9649 48.901L52.9695 48.9035L53.1012 48.6571ZM51.1152 46.7436L50.873 46.8829L50.8758 46.8875L51.1152 46.7436ZM51.0759 41.1201L50.8321 40.9837L50.8313 40.985L51.0759 41.1201ZM52.9635 39.2065L53.1019 39.4493L53.1048 39.4475L52.9635 39.2065ZM58.3512 39.187L58.2039 39.4244L58.207 39.4262L58.3512 39.187ZM60.0226 41.042L59.7705 41.1626L59.773 41.1676L60.0226 41.042ZM60.3568 44.3809L60.5458 44.587L60.5537 44.5791L60.3568 44.3809ZM51.7838 44.6152H51.5044V44.8946H51.7838V44.6152ZM51.7838 43.0531V42.7738H51.5044V43.0531H51.7838ZM59.649 43.0531L59.8058 43.2843L60.5586 42.7738H59.649V43.0531ZM58.8428 43.5999L58.5635 43.6055L58.5738 44.1198L58.9996 43.8311L58.8428 43.5999ZM58.4495 41.862L58.1975 41.9826L58.1987 41.9851L58.4495 41.862ZM53.7894 40.671L53.6447 40.432L53.6421 40.4336L53.7894 40.671ZM52.5899 42.0183L52.8406 42.1415L52.8417 42.1393L52.5899 42.0183ZM52.6686 45.8454L52.4275 45.9865L52.6686 45.8454ZM54.0253 47.1731L54.1626 46.9298L54.0253 47.1731ZM57.2501 47.4465L57.3403 47.7109L57.345 47.7093L57.2501 47.4465ZM58.2922 46.9193L58.1278 46.6935L58.1253 46.6952L58.2922 46.9193ZM58.9214 46.7045V46.9839H58.9291L58.9368 46.9834L58.9214 46.7045ZM59.531 46.8998L59.7151 46.6896L59.7107 46.6859L59.531 46.8998ZM59.8849 47.5441L60.1638 47.5285L59.8849 47.5441ZM59.5703 48.1494L59.4013 47.9269L59.3973 47.9301L59.5703 48.1494ZM57.899 49.0086L57.8112 48.7434L57.8096 48.7439L57.899 49.0086ZM63.6424 42.5845H63.363V42.8639H63.6424V42.5845ZM64.2126 40.4952L63.9762 40.3464L63.9753 40.3478L64.2126 40.4952ZM65.7857 39.0112L65.6499 38.7671L65.7857 39.0112ZM69.6986 38.855L69.5406 39.0857L69.5499 39.0915L69.6986 38.855ZM70.1508 39.7532L69.8803 39.6826L69.8778 39.6943L70.1508 39.7532ZM69.9149 40.1828L70.0981 40.3937L70.0998 40.3922L69.9149 40.1828ZM69.5413 40.3585L69.4917 40.0836L69.5413 40.3585ZM69.0694 40.339L69.1318 40.0666L69.1246 40.0652L69.0694 40.339ZM65.2154 41.1005L65.0186 40.9023L65.0153 40.9057L65.2154 41.1005ZM64.6452 42.5845V42.8639H64.9246V42.5845H64.6452ZM62.9345 49.0281L62.7375 49.2265L62.7458 49.234L62.9345 49.0281ZM62.9345 38.8355L63.1314 39.0337L62.9345 38.8355ZM64.3896 38.8355L64.185 39.0257L64.1926 39.0339L64.2008 39.0414L64.3896 38.8355ZM64.3896 49.0086L64.1926 48.8102L64.185 48.8184L64.3896 49.0086ZM2.98879 48.9831C2.7708 48.9831 2.60007 48.9123 2.4581 48.7713L2.0644 49.1678C2.3157 49.4173 2.62999 49.5418 2.98879 49.5418V48.9831ZM2.4581 48.7713C2.31623 48.6304 2.24567 48.4618 2.24567 48.2471H1.68694C1.68694 48.6051 1.81302 48.9181 2.0644 49.1678L2.4581 48.7713ZM2.24567 48.2471V35.0279H1.68694V48.2471H2.24567ZM2.24567 35.0279C2.24567 34.7962 2.31855 34.6333 2.45116 34.5104L2.07135 34.1006C1.8107 34.3421 1.68694 34.6608 1.68694 35.0279H2.24567ZM2.4581 34.5037C2.60007 34.3627 2.7708 34.2919 2.98879 34.2919V33.7332C2.62999 33.7332 2.3157 33.8577 2.0644 34.1072L2.4581 34.5037ZM2.98879 34.2919C3.2739 34.2919 3.48703 34.4134 3.65115 34.6986L4.13542 34.42C3.88006 33.9762 3.49019 33.7332 2.98879 33.7332V34.2919ZM3.64368 34.6848L9.7982 46.9276L10.2974 46.6767L4.14288 34.4338L3.64368 34.6848ZM10.0478 46.5228H9.41859V47.0815H10.0478V46.5228ZM9.66947 46.925L15.6667 34.6822L15.1649 34.4364L9.16771 46.6792L9.66947 46.925ZM15.6579 34.6986C15.8221 34.4134 16.0352 34.2919 16.3203 34.2919V33.7332C15.8189 33.7332 15.429 33.9762 15.1737 34.42L15.6579 34.6986ZM16.3203 34.2919C16.5383 34.2919 16.709 34.3627 16.851 34.5037L17.2447 34.1072C16.9934 33.8577 16.6791 33.7332 16.3203 33.7332V34.2919ZM16.8579 34.5104C16.9905 34.6333 17.0634 34.7962 17.0634 35.0279H17.6221C17.6221 34.6608 17.4984 34.3421 17.2377 34.1006L16.8579 34.5104ZM17.0634 35.0279V48.2471H17.6221V35.0279H17.0634ZM17.0634 48.2471C17.0634 48.4558 16.9908 48.6226 16.8378 48.7651L17.2185 49.174C17.485 48.9259 17.6221 48.6111 17.6221 48.2471H17.0634ZM16.8313 48.7713C16.6866 48.915 16.5213 48.9831 16.3203 48.9831V49.5418C16.6699 49.5418 16.9764 49.4146 17.225 49.1678L16.8313 48.7713ZM16.3203 48.9831C16.1023 48.9831 15.9316 48.9123 15.7896 48.7713L15.3959 49.1678C15.6472 49.4173 15.9615 49.5418 16.3203 49.5418V48.9831ZM15.7896 48.7713C15.6477 48.6304 15.5772 48.4618 15.5772 48.2471H15.0185C15.0185 48.6051 15.1445 48.9181 15.3959 49.1678L15.7896 48.7713ZM15.5772 48.2471V37.8397H15.0185V48.2471H15.5772ZM15.3651 38.1108L15.7584 38.0132L15.6238 37.4709L15.2305 37.5685L15.3651 38.1108ZM15.4406 37.6183L10.2889 48.0452L10.7898 48.2927L15.9415 37.8658L15.4406 37.6183ZM10.3061 48.0153C10.1285 48.2849 9.91662 48.3973 9.65454 48.3973V48.956C10.1266 48.956 10.5045 48.7299 10.7727 48.3226L10.3061 48.0153ZM9.65454 48.3973C9.48311 48.3973 9.35053 48.3579 9.24496 48.2902C9.13878 48.2221 9.04225 48.114 8.96186 47.949L8.45958 48.1937C8.57581 48.4322 8.73491 48.6268 8.94333 48.7605C9.15237 48.8945 9.39339 48.956 9.65454 48.956V48.3973ZM8.96034 47.9459L3.86762 37.8119L3.36838 38.0628L8.4611 48.1968L8.96034 47.9459ZM3.68531 38.2084L4.07857 38.1108L3.94395 37.5685L3.55069 37.6662L3.68531 38.2084ZM3.7319 37.8397V48.2471H4.29063V37.8397H3.7319ZM3.7319 48.2471C3.7319 48.4618 3.66134 48.6304 3.51947 48.7713L3.91317 49.1678C4.16455 48.9181 4.29063 48.6051 4.29063 48.2471H3.7319ZM3.51947 48.7713C3.3775 48.9123 3.20677 48.9831 2.98879 48.9831V49.5418C3.34758 49.5418 3.66187 49.4173 3.91317 49.1678L3.51947 48.7713ZM25.0786 49.0612C24.1696 49.0612 23.3624 48.8393 22.6494 48.3998L22.3562 48.8754C23.1637 49.3731 24.0738 49.6199 25.0786 49.6199V49.0612ZM22.6523 48.4016C21.9326 47.9457 21.3619 47.3365 20.9383 46.5695L20.4492 46.8396C20.917 47.6867 21.5523 48.3662 22.3533 48.8736L22.6523 48.4016ZM20.9409 46.5742C20.5317 45.7985 20.3243 44.9198 20.3243 43.9318H19.7655C19.7655 45.0006 19.9907 45.9703 20.4467 46.8348L20.9409 46.5742ZM20.3243 43.9318C20.3243 42.948 20.5495 42.0725 20.9949 41.2984L20.5106 41.0198C20.0122 41.8859 19.7655 42.8589 19.7655 43.9318H20.3243ZM20.9932 41.3013C21.4542 40.522 22.0686 39.9123 22.839 39.468L22.5599 38.984C21.7048 39.4771 21.0214 40.1561 20.5123 41.0169L20.9932 41.3013ZM22.8402 39.4674C23.6203 39.0124 24.4953 38.7829 25.4719 38.7829V38.2242C24.4035 38.2242 23.4302 38.4764 22.5587 38.9847L22.8402 39.4674ZM25.4719 38.7829C26.4485 38.7829 27.3162 39.0124 28.0823 39.4664L28.3671 38.9857C27.5078 38.4764 26.5402 38.2242 25.4719 38.2242V38.7829ZM28.0852 39.468C28.8549 39.9119 29.462 40.5206 29.9096 41.2984L30.3938 41.0198C29.8976 40.1574 29.22 39.4774 28.3643 38.984L28.0852 39.468ZM29.9112 41.3013C30.3688 42.0749 30.5999 42.9494 30.5999 43.9318H31.1586C31.1586 42.8575 30.9047 41.8835 30.3921 41.0169L29.9112 41.3013ZM30.8792 43.6524H30.1124V44.2112H30.8792V43.6524ZM29.833 43.9318C29.833 44.9184 29.6196 45.796 29.1984 46.5711L29.6893 46.8379C30.1594 45.9728 30.3917 45.0019 30.3917 43.9318H29.833ZM29.1976 46.5725C28.7873 47.338 28.2239 47.9462 27.505 48.4016L27.804 48.8736C28.6057 48.3657 29.2351 47.6852 29.6901 46.8365L29.1976 46.5725ZM27.5079 48.3998C26.7948 48.8393 25.9877 49.0612 25.0786 49.0612V49.6199C26.0835 49.6199 26.9935 49.3731 27.8011 48.8754L27.5079 48.3998ZM25.4719 47.8625C26.1858 47.8625 26.8326 47.6952 27.4042 47.3546L27.1182 46.8746C26.6412 47.1588 26.095 47.3038 25.4719 47.3038V47.8625ZM27.4085 47.3519C27.9741 47.0009 28.4203 46.5294 28.7446 45.9412L28.2554 45.6714C27.9767 46.1767 27.5971 46.5773 27.1139 46.8772L27.4085 47.3519ZM28.746 45.9388C29.0712 45.3349 29.2316 44.6639 29.2316 43.9318H28.6729C28.6729 44.5795 28.5318 45.1582 28.254 45.6738L28.746 45.9388ZM29.2316 43.9318C29.2316 43.1877 29.0717 42.5154 28.7446 41.9224L28.2554 42.1922C28.5313 42.6926 28.6729 43.27 28.6729 43.9318H29.2316ZM28.746 41.9248C28.4215 41.3225 27.9738 40.8485 27.4042 40.5091L27.1182 40.9891C27.5973 41.2745 27.9755 41.6726 28.254 42.1898L28.746 41.9248ZM27.4085 40.5117C26.8363 40.1565 26.188 39.9815 25.4719 39.9815V40.5403C26.0929 40.5403 26.6375 40.6907 27.1139 40.9864L27.4085 40.5117ZM25.4719 39.9815C24.7677 39.9815 24.1209 40.1571 23.5379 40.5101L23.8273 40.988C24.3191 40.6902 24.8652 40.5403 25.4719 40.5403V39.9815ZM23.5396 40.5091C22.9711 40.8478 22.5178 41.3204 22.1806 41.9204L22.6677 42.1942C22.9596 41.6747 23.3454 41.2752 23.8256 40.9891L23.5396 40.5091ZM22.1795 41.9224C21.8525 42.5154 21.6925 43.1877 21.6925 43.9318H22.2512C22.2512 43.27 22.3928 42.6926 22.6688 42.1922L22.1795 41.9224ZM21.6925 43.9318C21.6925 44.6639 21.8529 45.3349 22.1782 45.9388L22.6701 45.6738C22.3924 45.1582 22.2512 44.5795 22.2512 43.9318H21.6925ZM22.182 45.9456C22.5191 46.5315 22.9708 47.0016 23.5352 47.3519L23.8299 46.8772C23.3456 46.5767 22.9584 46.1746 22.6663 45.667L22.182 45.9456ZM23.5422 47.3561C24.1246 47.6946 24.7699 47.8625 25.4719 47.8625V47.3038C24.863 47.3038 24.3154 47.1593 23.823 46.873L23.5422 47.3561ZM29.8764 49.0026C29.6526 49.0026 29.4796 48.9342 29.3388 48.8037L28.959 49.2135C29.2114 49.4474 29.5234 49.5613 29.8764 49.5613V49.0026ZM29.3524 48.8173C29.2212 48.6776 29.153 48.5068 29.153 48.2861H28.5942C28.5942 48.6382 28.7095 48.9491 28.9453 49.1999L29.3524 48.8173ZM29.153 48.2861V45.2986H28.5942V48.2861H29.153ZM29.1485 45.3483L29.5221 43.2785L28.9723 43.1792L28.5987 45.249L29.1485 45.3483ZM29.1367 43.4854L30.7687 44.1884L30.9897 43.6752L29.3577 42.9723L29.1367 43.4854ZM30.5999 43.9318V48.2861H31.1586V43.9318H30.5999ZM30.5999 48.2861C30.5999 48.5009 30.5293 48.6695 30.3874 48.8104L30.7811 49.2068C31.0325 48.9572 31.1586 48.6441 31.1586 48.2861H30.5999ZM30.3874 48.8104C30.2625 48.9344 30.1003 49.0026 29.8764 49.0026V49.5613C30.2293 49.5613 30.539 49.4472 30.7811 49.2068L30.3874 48.8104ZM37.2855 49.0612C36.396 49.0612 35.5752 48.9287 34.821 48.6666L34.6376 49.1944C35.4565 49.479 36.3399 49.6199 37.2855 49.6199V49.0612ZM34.8263 48.6685C34.0779 48.3914 33.5133 48.0517 33.1172 47.6583L32.7235 48.0548C33.1925 48.5206 33.8339 48.8968 34.6323 49.1925L34.8263 48.6685ZM33.1235 47.6648C32.9765 47.5091 32.9254 47.3531 32.9427 47.1816L32.3868 47.1256C32.3516 47.4748 32.4709 47.7874 32.7172 48.0483L33.1235 47.6648ZM32.9412 47.1934C32.97 46.9938 33.0617 46.8377 33.2269 46.7122L32.889 46.2672C32.6086 46.4802 32.4381 46.7667 32.3882 47.1138L32.9412 47.1934ZM33.2317 46.7085C33.4538 46.5321 33.6327 46.4885 33.7816 46.5119L33.8681 45.9599C33.5188 45.9051 33.1865 46.0308 32.8842 46.271L33.2317 46.7085ZM33.7972 46.5139C33.9909 46.5331 34.1517 46.6122 34.2898 46.7592L34.6969 46.3765C34.468 46.133 34.1831 45.9907 33.8524 45.9579L33.7972 46.5139ZM34.2858 46.7548C34.5451 47.0426 34.9379 47.2962 35.4392 47.5249L35.6711 47.0166C35.2024 46.8027 34.8874 46.5878 34.7009 46.3808L34.2858 46.7548ZM35.4474 47.5285C35.9834 47.7526 36.5712 47.8625 37.2069 47.8625V47.3038C36.6365 47.3038 36.1232 47.2054 35.6629 47.013L35.4474 47.5285ZM37.2069 47.8625C37.9896 47.8625 38.6281 47.7366 39.0859 47.4487L38.7885 46.9757C38.4598 47.1824 37.9447 47.3038 37.2069 47.3038V47.8625ZM39.0825 47.4508C39.5492 47.1668 39.8287 46.7707 39.8456 46.2648L39.2872 46.246C39.278 46.5212 39.138 46.763 38.792 46.9735L39.0825 47.4508ZM39.8456 46.2648C39.8626 45.7587 39.608 45.34 39.1607 45.0142L38.8317 45.4659C39.1709 45.7129 39.2965 45.9711 39.2872 46.246L39.8456 46.2648ZM39.1643 45.0169C38.727 44.6875 37.9674 44.445 36.9413 44.2621L36.8432 44.8121C37.862 44.9937 38.5051 45.2198 38.8281 45.4632L39.1643 45.0169ZM36.9462 44.263C35.6407 44.0063 34.7334 43.6282 34.1844 43.1541L33.8192 43.577C34.4762 44.1443 35.4958 44.5472 36.8384 44.8112L36.9462 44.263ZM34.1867 43.1561C33.654 42.6859 33.3963 42.1231 33.3963 41.452H32.8376C32.8376 42.2909 33.1698 43.0038 33.8169 43.575L34.1867 43.1561ZM33.3963 41.452C33.3963 40.8475 33.5734 40.3713 33.9129 40.0005L33.5008 39.6232C33.0538 40.1115 32.8376 40.7288 32.8376 41.452H33.3963ZM33.9157 39.9974C34.2736 39.5946 34.7356 39.2945 35.3104 39.1002L35.1314 38.5709C34.474 38.7931 33.9266 39.1439 33.498 39.6263L33.9157 39.9974ZM35.3153 39.0984C35.9005 38.8882 36.5108 38.7829 37.1479 38.7829V38.2242C36.4478 38.2242 35.7735 38.3402 35.1265 38.5726L35.3153 39.0984ZM37.1479 38.7829C37.9838 38.7829 38.7137 38.915 39.3427 39.1722L39.5542 38.655C38.8461 38.3655 38.0423 38.2242 37.1479 38.2242V38.7829ZM39.3427 39.1722C39.9751 39.4308 40.4654 39.7827 40.8248 40.2228L41.2575 39.8694C40.8304 39.3462 40.2589 38.9432 39.5542 38.655L39.3427 39.1722ZM40.8315 40.2308C40.9761 40.3948 41.0261 40.5466 41.0178 40.6944L41.5757 40.7256C41.5937 40.4048 41.4733 40.114 41.2508 39.8614L40.8315 40.2308ZM41.0179 40.6935C41.0106 40.8174 40.9524 40.9355 40.7956 41.0522L41.1294 41.5003C41.3921 41.3047 41.5568 41.0452 41.5756 40.7265L41.0179 40.6935ZM40.805 41.0455C40.6652 41.141 40.4932 41.1792 40.2649 41.138L40.1657 41.6879C40.5142 41.7508 40.8403 41.6979 41.12 41.507L40.805 41.0455ZM40.2649 41.138C40.024 41.0945 39.8316 40.9992 39.6777 40.8566L39.2979 41.2664C39.5372 41.4882 39.8299 41.6272 40.1657 41.6879L40.2649 41.138ZM39.6805 40.8593C39.3259 40.5212 38.9351 40.2817 38.5083 40.1501L38.3437 40.6841C38.6771 40.7868 38.9943 40.977 39.295 41.2637L39.6805 40.8593ZM38.5083 40.1501C38.0957 40.023 37.6279 39.962 37.1086 39.962V40.5207C37.5855 40.5207 37.9959 40.5769 38.3437 40.6841L38.5083 40.1501ZM37.1086 39.962C36.5012 39.962 35.966 40.0647 35.5128 40.2825L35.7548 40.7861C36.1144 40.6133 36.5623 40.5207 37.1086 40.5207V39.962ZM35.5096 40.2841C35.2814 40.3974 35.0926 40.5459 34.9611 40.7374C34.828 40.9312 34.7646 41.1533 34.7646 41.3934H35.3233C35.3233 41.256 35.3581 41.1462 35.4217 41.0536C35.4869 40.9587 35.593 40.8664 35.7581 40.7845L35.5096 40.2841ZM34.7646 41.3934C34.7646 41.6772 34.8367 41.9422 34.9818 42.1823L35.46 41.8933C35.3691 41.7429 35.3233 41.5783 35.3233 41.3934H34.7646ZM34.9941 42.2009C35.1702 42.4456 35.4763 42.6398 35.8587 42.8025L36.0775 42.2884C35.7258 42.1387 35.5338 41.9944 35.4477 41.8747L34.9941 42.2009ZM35.8666 42.8057C36.2561 42.9577 36.8121 43.1046 37.5251 43.2489L37.6359 42.7012C36.9331 42.559 36.4142 42.4196 36.0696 42.2852L35.8666 42.8057ZM37.526 43.249C38.4958 43.4417 39.2397 43.6823 39.7696 43.9637L40.0317 43.4703C39.4343 43.153 38.6314 42.8989 37.6349 42.701L37.526 43.249ZM39.772 43.965C40.3199 44.2494 40.6873 44.5707 40.9017 44.9182L41.3772 44.6247C41.0935 44.1651 40.6351 43.7835 40.0294 43.4691L39.772 43.965ZM40.9039 44.9216C41.1209 45.2619 41.2337 45.664 41.2337 46.1383H41.7924C41.7924 45.5711 41.6561 45.062 41.375 44.6212L40.9039 44.9216ZM41.2337 46.1383C41.2337 46.6827 41.0858 47.1678 40.7905 47.6018L41.2525 47.9161C41.6126 47.3867 41.7924 46.7914 41.7924 46.1383H41.2337ZM40.7876 47.6061C40.5073 48.0352 40.0808 48.3878 39.49 48.6567L39.7215 49.1652C40.3891 48.8614 40.9064 48.4459 41.2554 47.9117L40.7876 47.6061ZM39.488 48.6576C38.9198 48.9217 38.1897 49.0612 37.2855 49.0612V49.6199C38.2427 49.6199 39.0595 49.4729 39.7235 49.1643L39.488 48.6576ZM47.4703 48.9831C46.8636 48.9831 46.3253 48.8332 45.848 48.5369L45.5534 49.0116C46.1247 49.3662 46.7662 49.5418 47.4703 49.5418V48.9831ZM45.8522 48.5396C45.3697 48.2281 44.9891 47.8092 44.7091 47.2773L44.2147 47.5376C44.5377 48.1512 44.9829 48.6435 45.5492 49.009L45.8522 48.5396ZM44.7091 47.2773C44.4309 46.7488 44.289 46.1499 44.289 45.4744H43.7303C43.7303 46.2308 43.8899 46.9206 44.2147 47.5376L44.7091 47.2773ZM44.289 45.4744V36.1604H43.7303V45.4744H44.289ZM44.289 36.1604C44.289 35.9397 44.357 35.7797 44.4818 35.6557L44.0881 35.2593C43.8458 35.4998 43.7303 35.8084 43.7303 36.1604H44.289ZM44.4818 35.6557C44.6067 35.5316 44.7689 35.4635 44.9928 35.4635V34.9048C44.6399 34.9048 44.3302 35.0189 44.0881 35.2593L44.4818 35.6557ZM44.9928 35.4635C45.2167 35.4635 45.3789 35.5316 45.5038 35.6557L45.8975 35.2593C45.6554 35.0189 45.3457 34.9048 44.9928 34.9048V35.4635ZM45.5038 35.6557C45.6286 35.7797 45.6966 35.9397 45.6966 36.1604H46.2553C46.2553 35.8084 46.1398 35.4998 45.8975 35.2593L45.5038 35.6557ZM45.6966 36.1604V45.4744H46.2553V36.1604H45.6966ZM45.6966 45.4744C45.6966 46.0498 45.8573 46.5512 46.1926 46.9598L46.6245 46.6054C46.383 46.3111 46.2553 45.9403 46.2553 45.4744H45.6966ZM46.1926 46.9598C46.529 47.3698 46.9595 47.5892 47.4703 47.5892V47.0305C47.1422 47.0305 46.8649 46.8984 46.6245 46.6054L46.1926 46.9598ZM47.4703 47.5892H48.1389V47.0305H47.4703V47.5892ZM48.1389 47.5892C48.2917 47.5892 48.4118 47.6435 48.5173 47.7657L48.9403 47.4006C48.7311 47.1583 48.4579 47.0305 48.1389 47.0305V47.5892ZM48.5247 47.774C48.6396 47.8968 48.705 48.0593 48.705 48.2861H49.2638C49.2638 47.9401 49.1588 47.634 48.9328 47.3924L48.5247 47.774ZM48.705 48.2861C48.705 48.4882 48.6316 48.6433 48.4733 48.7728L48.827 49.2053C49.1143 48.9703 49.2638 48.6568 49.2638 48.2861H48.705ZM48.4669 48.7782C48.3188 48.9068 48.1137 48.9831 47.8243 48.9831V49.5418C48.2166 49.5418 48.562 49.4358 48.8334 49.1999L48.4669 48.7782ZM47.8243 48.9831H47.4703V49.5418H47.8243V48.9831ZM43.1052 40.3721C42.8856 40.3721 42.7347 40.3114 42.6254 40.2112L42.2478 40.6231C42.4793 40.8352 42.7741 40.9308 43.1052 40.9308V40.3721ZM42.6254 40.2112C42.5136 40.1087 42.4604 39.9886 42.4604 39.8313H41.9016C41.9016 40.1427 42.0188 40.4131 42.2478 40.6231L42.6254 40.2112ZM42.4604 39.8313C42.4604 39.6384 42.5203 39.5088 42.6254 39.4124L42.2478 39.0006C42.0121 39.2167 41.9016 39.5036 41.9016 39.8313H42.4604ZM42.6254 39.4124C42.7347 39.3122 42.8856 39.2516 43.1052 39.2516V38.6928C42.7741 38.6928 42.4793 38.7884 42.2478 39.0006L42.6254 39.4124ZM43.1052 39.2516H47.6473V38.6928H43.1052V39.2516ZM47.6473 39.2516C47.8668 39.2516 48.0177 39.3122 48.1271 39.4124L48.5046 39.0006C48.2731 38.7884 47.9784 38.6928 47.6473 38.6928V39.2516ZM48.1271 39.4124C48.2322 39.5088 48.2921 39.6384 48.2921 39.8313H48.8508C48.8508 39.5036 48.7404 39.2167 48.5046 39.0006L48.1271 39.4124ZM48.2921 39.8313C48.2921 39.9886 48.2389 40.1087 48.1271 40.2112L48.5046 40.6231C48.7336 40.4131 48.8508 40.1427 48.8508 39.8313H48.2921ZM48.1271 40.2112C48.0177 40.3114 47.8668 40.3721 47.6473 40.3721V40.9308C47.9784 40.9308 48.2731 40.8352 48.5046 40.6231L48.1271 40.2112ZM47.6473 40.3721H43.1052V40.9308H47.6473V40.3721ZM56.0113 49.0612C54.9634 49.0612 54.0396 48.8421 53.2329 48.4108L52.9695 48.9035C53.8669 49.3834 54.8832 49.6199 56.0113 49.6199V49.0612ZM53.2374 48.4132C52.4401 47.9678 51.8141 47.3641 51.3547 46.5997L50.8758 46.8875C51.3864 47.7372 52.0844 48.4091 52.9649 48.901L53.2374 48.4132ZM51.3574 46.6042C50.9125 45.8312 50.6867 44.943 50.6867 43.9318H50.128C50.128 45.0294 50.3741 46.0157 50.8731 46.8829L51.3574 46.6042ZM50.6867 43.9318C50.6867 42.9041 50.901 42.0147 51.3204 41.2551L50.8313 40.985C50.3594 41.8395 50.128 42.8247 50.128 43.9318H50.6867ZM51.3197 41.2565C51.7542 40.4798 52.3474 39.8791 53.1018 39.4492L52.8252 38.9638C51.9804 39.4451 51.3152 40.1202 50.8321 40.9837L51.3197 41.2565ZM53.1048 39.4475C53.8567 39.0069 54.7245 38.7829 55.7164 38.7829V38.2242C54.6371 38.2242 53.6696 38.4689 52.8223 38.9655L53.1048 39.4475ZM55.7164 38.7829C56.6964 38.7829 57.5216 39.0009 58.2039 39.4243L58.4985 38.9496C57.7127 38.4619 56.7812 38.2242 55.7164 38.2242V38.7829ZM58.207 39.4262C58.893 39.8398 59.4133 40.4163 59.7706 41.1626L60.2745 40.9213C59.8715 40.0795 59.2776 39.4193 58.4954 38.9477L58.207 39.4262ZM59.773 41.1676C60.1435 41.9034 60.3331 42.7637 60.3331 43.7561H60.8918C60.8918 42.6917 60.6881 41.7426 60.2721 40.9163L59.773 41.1676ZM60.3331 43.7561C60.3331 43.9315 60.2758 44.0676 60.16 44.1827L60.5537 44.5791C60.7786 44.3557 60.8918 44.0753 60.8918 43.7561H60.3331ZM60.1681 44.175C60.0561 44.2776 59.9103 44.3359 59.708 44.3359V44.8946C60.0299 44.8946 60.3167 44.7967 60.5456 44.5868L60.1681 44.175ZM59.708 44.3359H51.7838V44.8946H59.708V44.3359ZM52.0631 44.6152V43.0531H51.5044V44.6152H52.0631ZM51.7838 43.3325H59.649V42.7738H51.7838V43.3325ZM59.4922 42.8219L58.686 43.3687L58.9996 43.8311L59.8058 43.2843L59.4922 42.8219ZM59.1221 43.5942C59.1083 42.9088 58.9699 42.2884 58.7003 41.739L58.1987 41.9851C58.4273 42.451 58.5511 42.9892 58.5635 43.6055L59.1221 43.5942ZM58.7015 41.7415C58.4316 41.1772 58.0444 40.7269 57.5404 40.3979L57.235 40.8659C57.6486 41.1358 57.9693 41.5055 58.1975 41.9826L58.7015 41.7415ZM57.5404 40.3979C57.0279 40.0635 56.4152 39.9034 55.7164 39.9034V40.4622C56.3284 40.4622 56.8299 40.6015 57.235 40.8659L57.5404 40.3979ZM55.7164 39.9034C54.9279 39.9034 54.2334 40.0755 53.6447 40.432L53.9341 40.9099C54.4203 40.6155 55.0105 40.4622 55.7164 40.4622V39.9034ZM53.6421 40.4336C53.0711 40.7879 52.6357 41.278 52.3382 41.8972L52.8417 42.1393C53.0947 41.6129 53.4589 41.2048 53.9367 40.9083L53.6421 40.4336ZM52.3393 41.895C52.0425 42.4984 51.8977 43.1794 51.8977 43.9318H52.4564C52.4564 43.2523 52.5868 42.6576 52.8406 42.1415L52.3393 41.895ZM51.8977 43.9318C51.8977 44.6921 52.0722 45.3796 52.4275 45.9865L52.9097 45.7042C52.6096 45.1916 52.4564 44.6034 52.4564 43.9318H51.8977ZM52.4275 45.9865C52.7807 46.5898 53.2692 47.0673 53.8881 47.4164L54.1626 46.9298C53.6279 46.6281 53.2119 46.2204 52.9097 45.7042L52.4275 45.9865ZM53.8881 47.4164C54.5119 47.7684 55.2223 47.9406 56.0113 47.9406V47.3819C55.3059 47.3819 54.6924 47.2287 54.1626 46.9298L53.8881 47.4164ZM56.0113 47.9406C56.451 47.9406 56.8944 47.8631 57.3403 47.7109L57.1598 47.1821C56.7668 47.3163 56.3843 47.3819 56.0113 47.3819V47.9406ZM57.345 47.7093C57.7937 47.5472 58.168 47.3601 58.4591 47.1433L58.1253 46.6952C57.8921 46.869 57.5716 47.0334 57.1552 47.1837L57.345 47.7093ZM58.4567 47.1451C58.6101 47.0334 58.7631 46.9839 58.9214 46.9839V46.4251C58.634 46.4251 58.3676 46.5188 58.1278 46.6935L58.4567 47.1451ZM58.9368 46.9834C59.1066 46.9741 59.2388 47.0192 59.3513 47.1137L59.7107 46.6859C59.4823 46.494 59.2081 46.4089 58.906 46.4256L58.9368 46.9834ZM59.3469 47.1099C59.5289 47.2694 59.5981 47.4189 59.606 47.5597L60.1638 47.5285C60.1455 47.2008 59.9787 46.9207 59.7151 46.6897L59.3469 47.1099ZM59.606 47.5597C59.6129 47.6826 59.5666 47.8015 59.4014 47.927L59.7393 48.3719C60.0197 48.1589 60.1832 47.8743 60.1638 47.5285L59.606 47.5597ZM59.3973 47.9301C58.9825 48.2572 58.456 48.5299 57.8112 48.7434L57.9867 49.2738C58.679 49.0447 59.2668 48.7446 59.7433 48.3688L59.3973 47.9301ZM57.8096 48.7439C57.1788 48.9569 56.5798 49.0612 56.0113 49.0612V49.6199C56.6488 49.6199 57.3083 49.5029 57.9883 49.2733L57.8096 48.7439ZM63.9218 42.5845C63.9218 41.851 64.0996 41.2065 64.4499 40.6427L63.9753 40.3478C63.5654 41.0076 63.363 41.7559 63.363 42.5845H63.9218ZM64.4491 40.644C64.8169 40.0596 65.3064 39.5974 65.9214 39.2554L65.6499 38.7671C64.9541 39.154 64.3949 39.6812 63.9762 40.3464L64.4491 40.644ZM65.9214 39.2554C66.5333 38.9151 67.2072 38.7439 67.9486 38.7439V38.1851C67.117 38.1851 66.3489 38.3784 65.6499 38.7671L65.9214 39.2554ZM67.9486 38.7439C68.7143 38.7439 69.2296 38.8725 69.5407 39.0855L69.8565 38.6245C69.4073 38.3169 68.7559 38.1851 67.9486 38.1851V38.7439ZM69.5499 39.0915C69.7194 39.1981 69.8118 39.3007 69.8571 39.3907C69.8992 39.4744 69.9108 39.5667 69.8805 39.6827L70.4212 39.8238C70.4827 39.5883 70.4647 39.3551 70.3561 39.1394C70.2507 38.93 70.0711 38.7593 69.8473 38.6186L69.5499 39.0915ZM69.8778 39.6943C69.8486 39.8293 69.7955 39.9156 69.73 39.9734L70.0998 40.3922C70.2703 40.2417 70.3744 40.0416 70.4239 39.8122L69.8778 39.6943ZM69.7317 39.9719C69.6669 40.0282 69.5892 40.066 69.4917 40.0836L69.5909 40.6335C69.7818 40.599 69.9532 40.5196 70.0981 40.3937L69.7317 39.9719ZM69.4917 40.0836C69.3911 40.1018 69.2724 40.0989 69.1318 40.0667L69.007 40.6113C69.2072 40.6572 69.4032 40.6674 69.5909 40.6335L69.4917 40.0836ZM69.1246 40.0652C68.2573 39.8902 67.4638 39.8738 66.7496 40.0268L66.8666 40.5731C67.4896 40.4397 68.2036 40.4494 69.0142 40.6129L69.1246 40.0652ZM66.7496 40.0268C66.041 40.1786 65.4578 40.4661 65.0186 40.9023L65.4123 41.2988C65.7596 40.9539 66.2382 40.7077 66.8666 40.5731L66.7496 40.0268ZM65.0153 40.9057C64.5791 41.3537 64.3658 41.9208 64.3658 42.5845H64.9246C64.9246 42.0506 65.0915 41.6284 65.4156 41.2954L65.0153 40.9057ZM64.6452 42.3051H63.6424V42.8639H64.6452V42.3051ZM63.6621 48.9831C63.3918 48.9831 63.226 48.9163 63.1233 48.8222L62.7458 49.234C62.9838 49.4523 63.3031 49.5418 63.6621 49.5418V48.9831ZM63.1314 48.8299C63.0304 48.7296 62.9583 48.5643 62.9583 48.2861H62.3995C62.3995 48.6588 62.4979 48.9882 62.7377 49.2263L63.1314 48.8299ZM62.9583 48.2861V39.558H62.3995V48.2861H62.9583ZM62.9583 39.558C62.9583 39.2966 63.0283 39.1361 63.1314 39.0337L62.7377 38.6373C62.4999 38.8734 62.3995 39.1945 62.3995 39.558H62.9583ZM63.1314 39.0337C63.2347 38.9311 63.3975 38.861 63.6621 38.861V38.3023C63.2974 38.3023 62.9752 38.4015 62.7377 38.6373L63.1314 39.0337ZM63.6621 38.861C63.9453 38.861 64.0995 38.9338 64.185 39.0257L64.5942 38.6453C64.365 38.3988 64.0342 38.3023 63.6621 38.3023V38.861ZM64.2008 39.0414C64.2931 39.126 64.3658 39.2781 64.3658 39.558H64.9246C64.9246 39.187 64.8269 38.8574 64.5784 38.6296L64.2008 39.0414ZM64.3658 39.558V48.2861H64.9246V39.558H64.3658ZM64.3658 48.2861C64.3658 48.5475 64.2958 48.708 64.1927 48.8104L64.5864 49.2068C64.8242 48.9707 64.9246 48.6496 64.9246 48.2861H64.3658ZM64.185 48.8184C64.0995 48.9103 63.9453 48.9831 63.6621 48.9831V49.5418C64.0342 49.5418 64.365 49.4453 64.5942 49.1988L64.185 48.8184Z" fill="#219653" mask="url(#path-19-outside-2)"/>
</svg>
