<svg width="183" height="64" fill="none" xmlns="http://www.w3.org/2000/svg"><path fill-rule="evenodd" clip-rule="evenodd" d="M5.849 11.431h1.483l-.66 17.086h-5.19L5.85 11.43zm4.861 0h1.483l.247 17.086H7.333L10.71 11.43zm5.684 0h1.4l.494 17.086h-5.107l3.213-17.086zm5.271 0h1.4l1.072 17.086h-5.108l2.636-17.086zm5.437 0h1.4l1.483 17.086h-5.107l2.224-17.086zm5.438 0h1.4l1.894 17.086h-5.19L32.54 11.43zm5.848 0h1.4l1.895 17.086h-5.19l1.895-17.086zm5.436 0h1.4l2.307 17.086h-5.19l1.483-17.086zm5.436 0h1.484l2.636 17.086h-5.19l1.07-17.086zm5.272 0h1.4l3.295 17.086h-5.19l.495-17.086zm5.684 0h1.4l3.46 17.086h-5.19l.33-17.086zm4.859 0h1.4l4.366 17.086h-5.107l-.659-17.086z" fill="#219653"/><path fill-rule="evenodd" clip-rule="evenodd" d="M69.195 6.957L81.798.774c1.565-.732 3.295.081 4.037 1.708.741 1.628-.083 3.58-1.648 4.312l-12.52 6.184c-.166.081-.33.162-.495.162-.494.326-.989.489-1.483.489H3.048C1.4 13.629 0 12.083 0 10.293c0-1.79 1.4-3.255 3.048-3.255H69.03c.083-.08.165-.08.165-.08z" fill="#219653"/><path fill-rule="evenodd" clip-rule="evenodd" d="M130.759 2.175v3.378c0 .943-1.067 1.728-2.462 1.728H83.08c-1.313 0-2.462-.785-2.462-1.728V2.175c0-.942 1.15-1.728 2.462-1.728h45.217c1.313 0 2.462.786 2.462 1.728z" fill="#219653"/><path d="M1.407 61.079a2 2 0 012-2H181a2 2 0 012 2v2.223H1.407v-2.223z" fill="#219653"/><mask id="a" maskUnits="userSpaceOnUse" x="72.429" y="17.78" width="111" height="35" fill="#000"><path fill="#fff" d="M72.429 17.78h111v35h-111z"/><path d="M89.368 51.625c-2.23 0-4.322-.41-6.276-1.23a16.296 16.296 0 01-5.08-3.485 16.92 16.92 0 01-3.385-5.249c-.799-1.995-1.198-4.155-1.198-6.479 0-2.296.4-4.428 1.198-6.396.826-1.996 1.954-3.732 3.386-5.208a15.965 15.965 0 015.079-3.526c1.927-.848 4.019-1.271 6.276-1.271 2.12 0 3.937.273 5.45.82 1.542.546 3.084 1.448 4.625 2.706a1.8 1.8 0 01.496.533c.138.164.22.342.248.533.055.164.082.37.082.615 0 .52-.192.957-.578 1.312a2.24 2.24 0 01-1.321.574c-.523.028-1.033-.15-1.528-.533-1.019-.875-2.078-1.544-3.18-2.009-1.073-.465-2.505-.697-4.294-.697a10.87 10.87 0 00-4.583.984 12.35 12.35 0 00-3.8 2.706 12.61 12.61 0 00-2.518 4.019c-.606 1.503-.909 3.116-.909 4.838 0 1.75.303 3.39.909 4.921a12.727 12.727 0 002.519 3.977 12.349 12.349 0 003.799 2.707 11.27 11.27 0 004.583.943c1.404 0 2.725-.232 3.964-.697a15.841 15.841 0 003.634-2.01c.495-.355.977-.505 1.445-.45.496.027.909.218 1.239.574.33.328.495.792.495 1.394 0 .273-.055.546-.165.82a2.33 2.33 0 01-.495.697 16.564 16.564 0 01-4.79 2.665c-1.68.602-3.455.902-5.327.902zm20.33-.41c-1.211 0-2.285-.328-3.221-.984-.936-.656-1.665-1.544-2.188-2.665-.523-1.148-.785-2.46-.785-3.937V21.241c0-.602.193-1.094.578-1.476.386-.383.881-.574 1.487-.574.605 0 1.101.19 1.486.574.386.382.578.874.578 1.476v22.388c0 1.012.193 1.846.579 2.502.385.656.88.984 1.486.984h1.032c.551 0 .991.191 1.322.574.358.383.537.875.537 1.476s-.262 1.093-.785 1.476-1.198.574-2.023.574h-.083zm14.103.165c-2.285 0-4.322-.48-6.112-1.436-1.761-.984-3.152-2.324-4.17-4.018-.991-1.723-1.487-3.69-1.487-5.905 0-2.242.468-4.21 1.404-5.905.964-1.722 2.285-3.061 3.964-4.018 1.68-.984 3.607-1.476 5.781-1.476 2.147 0 3.992.478 5.533 1.435 1.542.93 2.712 2.228 3.51 3.895.826 1.64 1.239 3.54 1.239 5.7 0 .52-.179.957-.537 1.312-.358.328-.812.492-1.362.492h-16.641v-3.28h16.517l-1.693 1.148c-.028-1.367-.303-2.583-.826-3.65-.523-1.093-1.266-1.954-2.23-2.583-.963-.629-2.133-.943-3.51-.943-1.569 0-2.918.342-4.046 1.025-1.102.684-1.941 1.627-2.519 2.83-.578 1.175-.867 2.514-.867 4.018s.344 2.843 1.032 4.018a7.517 7.517 0 002.849 2.789c1.211.683 2.602 1.025 4.171 1.025.853 0 1.72-.15 2.601-.451.909-.328 1.638-.697 2.189-1.107a2.2 2.2 0 011.321-.451c.495-.028.922.109 1.28.41.468.41.716.86.743 1.353.028.492-.192.916-.66 1.271-.936.738-2.106 1.34-3.51 1.804-1.377.465-2.698.697-3.964.697zm21.371 0c-2.01 0-3.813-.493-5.409-1.477-1.597-1.011-2.863-2.364-3.799-4.06-.909-1.722-1.363-3.663-1.363-5.822 0-2.16.496-4.1 1.487-5.823a11.152 11.152 0 014.088-4.06c1.734-1.01 3.675-1.516 5.822-1.516 2.147 0 4.074.505 5.781 1.517a10.843 10.843 0 014.046 4.06c1.019 1.721 1.528 3.662 1.528 5.822h-1.61c0 2.16-.468 4.1-1.404 5.823a10.707 10.707 0 01-3.758 4.06c-1.596.983-3.399 1.475-5.409 1.475zm.826-3.691c1.404 0 2.656-.328 3.757-.984a7.354 7.354 0 002.602-2.748c.633-1.175.95-2.487.95-3.936 0-1.476-.317-2.788-.95-3.937-.633-1.175-1.5-2.09-2.602-2.747-1.101-.683-2.353-1.025-3.757-1.025-1.377 0-2.629.342-3.758 1.025-1.101.656-1.982 1.572-2.642 2.747-.634 1.149-.95 2.46-.95 3.937 0 1.449.316 2.76.95 3.936a7.687 7.687 0 002.642 2.748c1.129.656 2.381.984 3.758.984zm9.249 3.567c-.605 0-1.115-.191-1.527-.574-.386-.41-.579-.916-.579-1.517v-6.274l.785-4.346 3.427 1.476v9.144c0 .601-.206 1.107-.619 1.517-.386.383-.881.574-1.487.574zm25.181 0c-.606 0-1.115-.191-1.528-.574-.386-.41-.578-.916-.578-1.517V39.078c0-1.558-.289-2.83-.867-3.814-.579-.984-1.363-1.708-2.354-2.173-.964-.492-2.079-.738-3.345-.738-1.156 0-2.202.232-3.138.697-.936.465-1.679 1.094-2.23 1.886-.55.766-.826 1.654-.826 2.666h-2.601c0-1.722.413-3.253 1.239-4.593.853-1.367 2.009-2.447 3.468-3.24 1.459-.792 3.097-1.188 4.914-1.188 1.899 0 3.592.41 5.079 1.23 1.514.793 2.698 1.968 3.551 3.526.881 1.558 1.321 3.472 1.321 5.74v10.088c0 .601-.206 1.107-.619 1.517-.385.383-.881.574-1.486.574zm-16.972 0c-.605 0-1.114-.191-1.527-.574-.386-.41-.578-.916-.578-1.517V30.877c0-.629.192-1.135.578-1.517.413-.383.922-.574 1.527-.574.634 0 1.143.191 1.528.574.386.382.578.888.578 1.517v18.288c0 .601-.192 1.107-.578 1.517-.385.383-.894.574-1.528.574z"/></mask><path d="M89.368 51.625c-2.23 0-4.322-.41-6.276-1.23a16.296 16.296 0 01-5.08-3.485 16.92 16.92 0 01-3.385-5.249c-.799-1.995-1.198-4.155-1.198-6.479 0-2.296.4-4.428 1.198-6.396.826-1.996 1.954-3.732 3.386-5.208a15.965 15.965 0 015.079-3.526c1.927-.848 4.019-1.271 6.276-1.271 2.12 0 3.937.273 5.45.82 1.542.546 3.084 1.448 4.625 2.706a1.8 1.8 0 01.496.533c.138.164.22.342.248.533.055.164.082.37.082.615 0 .52-.192.957-.578 1.312a2.24 2.24 0 01-1.321.574c-.523.028-1.033-.15-1.528-.533-1.019-.875-2.078-1.544-3.18-2.009-1.073-.465-2.505-.697-4.294-.697a10.87 10.87 0 00-4.583.984 12.35 12.35 0 00-3.8 2.706 12.61 12.61 0 00-2.518 4.019c-.606 1.503-.909 3.116-.909 4.838 0 1.75.303 3.39.909 4.921a12.727 12.727 0 002.519 3.977 12.349 12.349 0 003.799 2.707 11.27 11.27 0 004.583.943c1.404 0 2.725-.232 3.964-.697a15.841 15.841 0 003.634-2.01c.495-.355.977-.505 1.445-.45.496.027.909.218 1.239.574.33.328.495.792.495 1.394 0 .273-.055.546-.165.82a2.33 2.33 0 01-.495.697 16.564 16.564 0 01-4.79 2.665c-1.68.602-3.455.902-5.327.902zm20.33-.41c-1.211 0-2.285-.328-3.221-.984-.936-.656-1.665-1.544-2.188-2.665-.523-1.148-.785-2.46-.785-3.937V21.241c0-.602.193-1.094.578-1.476.386-.383.881-.574 1.487-.574.605 0 1.101.19 1.486.574.386.382.578.874.578 1.476v22.388c0 1.012.193 1.846.579 2.502.385.656.88.984 1.486.984h1.032c.551 0 .991.191 1.322.574.358.383.537.875.537 1.476s-.262 1.093-.785 1.476-1.198.574-2.023.574h-.083zm14.103.165c-2.285 0-4.322-.48-6.112-1.436-1.761-.984-3.152-2.324-4.17-4.018-.991-1.723-1.487-3.69-1.487-5.905 0-2.242.468-4.21 1.404-5.905.964-1.722 2.285-3.061 3.964-4.018 1.68-.984 3.607-1.476 5.781-1.476 2.147 0 3.992.478 5.533 1.435 1.542.93 2.712 2.228 3.51 3.895.826 1.64 1.239 3.54 1.239 5.7 0 .52-.179.957-.537 1.312-.358.328-.812.492-1.362.492h-16.641v-3.28h16.517l-1.693 1.148c-.028-1.367-.303-2.583-.826-3.65-.523-1.093-1.266-1.954-2.23-2.583-.963-.629-2.133-.943-3.51-.943-1.569 0-2.918.342-4.046 1.025-1.102.684-1.941 1.627-2.519 2.83-.578 1.175-.867 2.514-.867 4.018s.344 2.843 1.032 4.018a7.517 7.517 0 002.849 2.789c1.211.683 2.602 1.025 4.171 1.025.853 0 1.72-.15 2.601-.451.909-.328 1.638-.697 2.189-1.107a2.2 2.2 0 011.321-.451c.495-.028.922.109 1.28.41.468.41.716.86.743 1.353.028.492-.192.916-.66 1.271-.936.738-2.106 1.34-3.51 1.804-1.377.465-2.698.697-3.964.697zm21.371 0c-2.01 0-3.813-.493-5.409-1.477-1.597-1.011-2.863-2.364-3.799-4.06-.909-1.722-1.363-3.663-1.363-5.822 0-2.16.496-4.1 1.487-5.823a11.152 11.152 0 014.088-4.06c1.734-1.01 3.675-1.516 5.822-1.516 2.147 0 4.074.505 5.781 1.517a10.843 10.843 0 014.046 4.06c1.019 1.721 1.528 3.662 1.528 5.822h-1.61c0 2.16-.468 4.1-1.404 5.823a10.707 10.707 0 01-3.758 4.06c-1.596.983-3.399 1.475-5.409 1.475zm.826-3.691c1.404 0 2.656-.328 3.757-.984a7.354 7.354 0 002.602-2.748c.633-1.175.95-2.487.95-3.936 0-1.476-.317-2.788-.95-3.937-.633-1.175-1.5-2.09-2.602-2.747-1.101-.683-2.353-1.025-3.757-1.025-1.377 0-2.629.342-3.758 1.025-1.101.656-1.982 1.572-2.642 2.747-.634 1.149-.95 2.46-.95 3.937 0 1.449.316 2.76.95 3.936a7.687 7.687 0 002.642 2.748c1.129.656 2.381.984 3.758.984zm9.249 3.567c-.605 0-1.115-.191-1.527-.574-.386-.41-.579-.916-.579-1.517v-6.274l.785-4.346 3.427 1.476v9.144c0 .601-.206 1.107-.619 1.517-.386.383-.881.574-1.487.574zm25.181 0c-.606 0-1.115-.191-1.528-.574-.386-.41-.578-.916-.578-1.517V39.078c0-1.558-.289-2.83-.867-3.814-.579-.984-1.363-1.708-2.354-2.173-.964-.492-2.079-.738-3.345-.738-1.156 0-2.202.232-3.138.697-.936.465-1.679 1.094-2.23 1.886-.55.766-.826 1.654-.826 2.666h-2.601c0-1.722.413-3.253 1.239-4.593.853-1.367 2.009-2.447 3.468-3.24 1.459-.792 3.097-1.188 4.914-1.188 1.899 0 3.592.41 5.079 1.23 1.514.793 2.698 1.968 3.551 3.526.881 1.558 1.321 3.472 1.321 5.74v10.088c0 .601-.206 1.107-.619 1.517-.385.383-.881.574-1.486.574zm-16.972 0c-.605 0-1.114-.191-1.527-.574-.386-.41-.578-.916-.578-1.517V30.877c0-.629.192-1.135.578-1.517.413-.383.922-.574 1.527-.574.634 0 1.143.191 1.528.574.386.382.578.888.578 1.517v18.288c0 .601-.192 1.107-.578 1.517-.385.383-.894.574-1.528.574z" fill="#FEFEFE"/><path d="M83.092 50.395l-.113.256.005.002.108-.258zm-5.08-3.485l-.202.192.004.004.199-.196zm-3.385-5.249l-.26.104.001.003.259-.107zm0-12.875l-.258-.107-.001.002.259.105zm3.386-5.208l-.2-.194.2.194zm5.079-3.526l-.113-.256.113.256zm11.727-.451l-.095.262h.001l.094-.262zm4.624 2.706l-.176.217.01.007.166-.224zm.496.533l-.242.14.012.02.016.02.214-.18zm.248.533l-.277.04.004.025.008.024.265-.089zm-.496 1.927l.189.206-.189-.206zm-1.321.574l.014.28.008-.001h.007l-.03-.279zm-1.528-.533l-.182.212.005.005.006.004.17-.22zm-3.18-2.009l-.11.256.002.001.108-.257zm-12.676 2.993l-.202-.193-.002.003.204.19zm-2.52 4.019l.26.104v-.001l-.26-.103zm0 9.759l-.259.103v.001l.26-.104zm2.52 3.977l-.204.191.002.003.202-.194zm3.799 2.707l-.117.254.004.002.113-.256zm8.547.246l.098.261h.003l-.1-.261zm3.634-2.01l-.163-.227-.002.002.165.225zm1.445-.45l-.032.277.008.001h.009l.015-.279zm1.239.574l-.205.19.008.008.197-.198zm.33 2.214l.255.114.004-.01-.259-.104zm-.495.697l.173.219.012-.01.011-.01-.196-.2zm-4.79 2.665l-.093-.263H94.6l.095.263zm11.782-.492l-.16.229.16-.229zm-2.188-2.665l-.254.116.001.002.253-.118zm-.207-27.801l.197.198-.197-.198zm4.13 26.366l.24-.142-.24.142zm3.84 1.558l-.212.182.008.009.204-.191zm-.248 2.952l.165.226-.165-.226zm5.885-.697l-.136.244.005.002.131-.246zm-4.17-4.018l-.242.139.002.005.24-.144zm-.083-11.81l-.244-.136v.001l.244.135zm3.964-4.018l.139.243.003-.002-.142-.241zm11.314-.041l-.147.237.003.002.144-.24zm3.51 3.895l-.252.12.003.006.249-.126zm.702 7.012l.189.206.008-.008-.197-.198zm-18.003.492h-.28v.28h.28v-.28zm0-3.28v-.28h-.28v.28h.28zm16.517 0l.157.231.752-.51h-.909v.279zm-1.693 1.148l-.28.006.011.514.426-.289-.157-.231zm-.826-3.65l-.252.121.001.002.251-.122zm-9.786-2.5l-.145-.24-.003.002.148.237zm-2.519 2.828l.25.124.002-.002-.252-.122zm.165 8.037l-.241.142.241-.142zm2.849 2.789l.137-.244-.137.244zm6.772.574l.09.264.005-.001-.095-.263zm2.189-1.107l-.165-.226-.002.002.167.224zm1.321-.451v.279h.015l-.015-.28zm1.28.41l.184-.21-.004-.004-.18.214zm.743 1.353l.279-.016-.279.016zm-.66 1.271l-.169-.222-.004.003.173.219zm-3.51 1.804l-.088-.265h-.002l.09.265zm11.998-.779l-.15.236.003.002.147-.238zm-3.799-4.06l-.247.131.002.005.245-.135zm.124-11.645l-.241-.142-.001.003.242.14zm4.088-4.06l.139.243h.001l-.14-.242zm11.603 0l-.143.241.003.002.14-.242zm4.046 4.06l-.242.14.002.002.24-.142zm-.082 5.823v-.28h-.28v.28h.28zm-1.404 5.823l-.246-.134v.002l.246.132zm-3.758 4.06l.147.237.003-.002-.15-.236zm-.826-3.2l.143.24.005-.002-.148-.237zm2.602-2.747l.245.135.001-.002-.246-.133zm0-7.873l-.246.133.001.002.245-.135zm-2.602-2.747l-.147.238.004.002.143-.24zm-7.515 0l.143.24h.002l-.145-.24zm-2.642 2.747l-.244-.136-.001.002.245.134zm0 7.873l-.247.133.004.007.243-.14zm2.642 2.748l-.147.237.007.004.14-.241zm11.48 3.977l-.204.191.007.008.007.006.19-.205zm-.579-7.79l-.274-.05-.005.024v.025h.279zm.785-4.347l.11-.257-.322-.139-.063.346.275.05zm2.808 12.137l.197.198-.197-.198zm22.166 0l-.204.191.007.008.007.006.19-.205zm-1.445-15.418l-.241.142.241-.142zm-2.354-2.173l-.127.25.008.003.119-.253zm-6.483-.04l-.124-.251.124.25zm-2.23 1.885l.227.163.003-.003-.23-.16zm-.826 2.666v.279h.28v-.28h-.28zm-2.601 0h-.279v.279h.279v-.28zm1.239-4.593l-.237-.148-.001.002.238.146zm3.468-3.24l.134.246-.134-.245zm9.993.042l-.135.244.005.003.13-.247zm3.551 3.526l-.245.134.002.004.243-.138zm.702 17.345l-.197-.198.197.198zm-19.985 0l-.204.191.007.008.007.006.19-.205zm0-21.322l-.19-.205-.007.006.197.199zm3.055 21.322l.197.198.007-.007-.204-.19zm-75.616.664c-2.195 0-4.25-.403-6.168-1.208l-.216.515c1.99.835 4.12 1.252 6.384 1.252v-.56zm-6.164-1.207a16.016 16.016 0 01-4.993-3.426l-.397.393a16.575 16.575 0 005.165 3.545l.225-.512zm-4.989-3.422c-1.407-1.477-2.517-3.198-3.33-5.163l-.517.214c.839 2.026 1.986 3.805 3.442 5.334l.405-.385zm-3.329-5.16c-.784-1.96-1.177-4.084-1.177-6.375h-.56c0 2.357.406 4.552 1.218 6.583l.52-.208zm-1.177-6.375c0-2.263.393-4.36 1.177-6.291l-.518-.21c-.813 2.004-1.218 4.172-1.218 6.501h.559zm1.176-6.29c.813-1.964 1.922-3.67 3.328-5.12l-.4-.388c-1.458 1.502-2.606 3.268-3.445 5.295l.517.213zm3.328-5.12a15.687 15.687 0 014.991-3.465l-.225-.511a16.245 16.245 0 00-5.167 3.588l.401.389zm4.991-3.465c1.89-.83 3.943-1.247 6.164-1.247v-.56c-2.293 0-4.424.43-6.389 1.295l.225.511zm6.164-1.247c2.097 0 3.88.27 5.356.803l.19-.525c-1.553-.56-3.404-.837-5.546-.837v.559zm5.357.804c1.506.534 3.02 1.418 4.542 2.66l.353-.434c-1.561-1.273-3.13-2.193-4.708-2.753l-.187.527zm4.552 2.667c.196.147.333.297.42.448l.484-.278a2.067 2.067 0 00-.57-.618l-.335.448zm.448.489a.775.775 0 01.185.393l.553-.08a1.339 1.339 0 00-.31-.673l-.428.36zm.197.442c.042.126.068.299.068.526h.559c0-.264-.03-.502-.098-.704l-.53.178zm.068.526c0 .44-.16.804-.488 1.107l.379.41c.442-.407.668-.919.668-1.517h-.56zm-.488 1.106c-.31.284-.693.453-1.161.502l.058.556a2.516 2.516 0 001.48-.646l-.377-.412zm-1.147.501c-.444.024-.889-.125-1.342-.475l-.342.442c.538.416 1.111.623 1.713.591l-.029-.558zm-1.331-.466c-1.038-.891-2.122-1.577-3.253-2.054l-.217.514c1.071.453 2.107 1.106 3.106 1.964l.364-.424zm-3.25-2.053c-1.123-.486-2.597-.72-4.406-.72v.558c1.77 0 3.158.23 4.184.674l.221-.512zm-4.406-.72c-1.663 0-3.23.336-4.7 1.01l.233.507a10.59 10.59 0 014.467-.959v-.558zm-4.7 1.01a12.632 12.632 0 00-3.884 2.766l.403.387a12.072 12.072 0 013.714-2.646l-.233-.508zm-3.886 2.769a12.89 12.89 0 00-2.575 4.106l.52.206c.593-1.5 1.414-2.81 2.463-3.93l-.408-.382zm-2.574 4.104c-.62 1.54-.929 3.188-.929 4.943h.559c0-1.688.297-3.266.888-4.734l-.518-.209zm-.929 4.943c0 1.783.309 3.458.928 5.024l.52-.206c-.592-1.496-.89-3.101-.89-4.818h-.558zm.929 5.025a13.008 13.008 0 002.574 4.064l.408-.381a12.447 12.447 0 01-2.464-3.891l-.518.208zm2.576 4.067a12.632 12.632 0 003.884 2.767l.233-.508a12.074 12.074 0 01-3.714-2.646l-.403.387zm3.888 2.768a11.55 11.55 0 004.696.967v-.559c-1.587 0-3.076-.306-4.471-.919l-.225.511zm4.696.967c1.435 0 2.79-.237 4.062-.715l-.196-.523a10.92 10.92 0 01-3.866.68v.558zm4.065-.716a16.124 16.124 0 003.698-2.044l-.33-.45a15.566 15.566 0 01-3.57 1.973l.202.521zm3.696-2.042c.456-.328.87-.445 1.25-.401l.064-.555c-.555-.065-1.105.118-1.64.502l.326.454zm1.267-.4c.425.024.77.185 1.05.486l.408-.38a2.041 2.041 0 00-1.428-.663l-.03.557zm1.057.494c.263.261.413.646.413 1.196h.559c0-.653-.181-1.198-.578-1.593l-.394.397zm.413 1.196c0 .235-.047.473-.145.715l.518.21a2.45 2.45 0 00.186-.925h-.559zm-.14.706a2.05 2.05 0 01-.438.613l.394.396c.24-.24.427-.5.553-.781l-.51-.228zm-.415.592a16.289 16.289 0 01-4.71 2.62l.187.528a16.845 16.845 0 004.87-2.71l-.347-.438zm-4.71 2.621c-1.648.59-3.392.886-5.233.886v.559c1.902 0 3.71-.306 5.42-.919l-.188-.526zm15.097.476c-1.157 0-2.174-.313-3.06-.934l-.321.458c.986.69 2.116 1.035 3.381 1.035v-.56zm-3.06-.934c-.893-.625-1.592-1.474-2.096-2.554l-.506.236c.542 1.161 1.302 2.09 2.281 2.776l.321-.458zm-2.095-2.552c-.504-1.106-.759-2.378-.759-3.82h-.559c0 1.509.267 2.861.81 4.052l.508-.232zm-.759-3.82V21.24h-.559v22.39h.559zm0-22.39c0-.535.168-.953.495-1.277l-.394-.397c-.444.441-.66 1.008-.66 1.675h.559zm.495-1.277c.327-.325.749-.493 1.29-.493v-.559c-.67 0-1.24.214-1.684.655l.394.397zm1.29-.493c.541 0 .963.168 1.289.493l.394-.397c-.444-.44-1.013-.655-1.683-.655v.559zm1.289.493c.327.324.496.742.496 1.278h.559c0-.667-.217-1.234-.661-1.675l-.394.397zm.496 1.278v22.388h.559V21.241h-.559zm0 22.388c0 1.046.199 1.932.617 2.643l.481-.283c-.353-.601-.539-1.382-.539-2.36h-.559zm.617 2.643c.42.716.996 1.122 1.727 1.122v-.559c-.48 0-.895-.25-1.246-.846l-.481.283zm1.727 1.122h1.032v-.559h-1.032v.56zm1.032 0c.478 0 .838.162 1.11.477l.423-.365c-.388-.45-.909-.67-1.533-.67v.558zm1.118.486c.302.323.461.743.461 1.285h.559c0-.661-.199-1.225-.612-1.667l-.408.382zm.461 1.285c0 .505-.212.916-.67 1.25l.33.452c.588-.43.899-1.004.899-1.702h-.559zm-.67 1.25c-.463.34-1.075.52-1.858.52v.56c.868 0 1.605-.202 2.188-.628l-.33-.451zm-1.858.52h-.083v.56h.083v-.56zm14.02.165c-2.245 0-4.236-.47-5.98-1.402l-.263.492c1.834.982 3.918 1.469 6.243 1.469v-.56zm-5.975-1.4c-1.721-.96-3.075-2.266-4.068-3.918l-.479.288c1.045 1.737 2.471 3.11 4.274 4.118l.273-.488zm-4.065-3.914c-.964-1.675-1.449-3.594-1.449-5.765h-.559c0 2.257.506 4.275 1.524 6.044l.484-.279zm-1.449-5.765c0-2.202.459-4.122 1.369-5.77l-.489-.27c-.962 1.743-1.439 3.759-1.439 6.04h.559zm1.368-5.768c.939-1.68 2.225-2.981 3.859-3.913l-.277-.485c-1.724.983-3.082 2.36-4.07 4.125l.488.273zm3.862-3.914c1.631-.956 3.508-1.438 5.639-1.438v-.559c-2.218 0-4.195.503-5.922 1.515l.283.482zm5.639-1.438c2.105 0 3.896.468 5.386 1.393l.295-.475c-1.594-.988-3.491-1.477-5.681-1.477v.559zm5.389 1.395c1.494.9 2.627 2.157 3.402 3.777l.504-.241c-.821-1.716-2.028-3.056-3.617-4.014l-.289.478zm3.405 3.782c.803 1.595 1.209 3.45 1.209 5.574h.558c0-2.196-.42-4.14-1.268-5.825l-.499.25zm1.209 5.574c0 .447-.151.813-.455 1.114l.394.396c.413-.41.619-.919.619-1.51h-.558zm-.447 1.106c-.299.274-.683.419-1.173.419v.559c.61 0 1.135-.184 1.551-.566l-.378-.412zm-1.173.419h-16.641v.559h16.641v-.56zm-16.362.28v-3.281h-.559v3.28h.559zm-.279-3.002h16.517v-.559h-16.517v.56zm16.36-.51l-1.693 1.148.314.462 1.693-1.148-.314-.462zm-1.257 1.373c-.028-1.401-.311-2.659-.854-3.767l-.502.246c.503 1.025.771 2.2.797 3.533l.559-.012zm-.853-3.764c-.544-1.137-1.321-2.038-2.329-2.697l-.306.468c.919.6 1.629 1.42 2.131 2.47l.504-.241zm-2.329-2.697c-1.017-.664-2.243-.988-3.663-.988v.558c1.333 0 2.448.304 3.357.898l.306-.468zm-3.663-.988c-1.61 0-3.011.35-4.191 1.065l.289.478c1.078-.652 2.374-.985 3.902-.985v-.558zm-4.194 1.067c-1.147.712-2.023 1.696-2.623 2.946l.504.242c.555-1.157 1.359-2.059 2.414-2.714l-.295-.474zm-2.622 2.943c-.599 1.22-.896 2.602-.896 4.142h.559c0-1.467.282-2.763.838-3.895l-.501-.247zm-.896 4.142c0 1.548.355 2.937 1.071 4.16l.482-.283c-.661-1.128-.994-2.418-.994-3.877h-.559zm1.071 4.16a7.802 7.802 0 002.953 2.89l.274-.487a7.24 7.24 0 01-2.745-2.686l-.482.283zm2.953 2.89c1.258.71 2.697 1.061 4.308 1.061v-.558c-1.528 0-2.869-.333-4.034-.99l-.274.487zm4.308 1.061a8.29 8.29 0 002.691-.466l-.18-.529a7.742 7.742 0 01-2.511.437v.558zm2.696-.467c.925-.334 1.681-.715 2.26-1.146l-.333-.448c-.522.388-1.225.746-2.117 1.068l.19.526zm2.258-1.145c.37-.269.753-.397 1.157-.397v-.559c-.533 0-1.03.173-1.486.505l.329.451zm1.172-.397c.43-.024.785.093 1.085.345l.36-.428c-.416-.35-.914-.506-1.475-.475l.03.558zm1.081.34c.427.375.626.76.648 1.16l.558-.032c-.033-.585-.329-1.102-.838-1.547l-.368.42zm.648 1.16c.022.38-.14.72-.55 1.033l.338.444c.525-.399.804-.905.77-1.509l-.558.031zm-.554 1.036c-.906.713-2.045 1.301-3.425 1.758l.176.53c1.427-.472 2.628-1.087 3.595-1.85l-.346-.438zm-3.427 1.758c-1.351.457-2.643.683-3.874.683v.559c1.3 0 2.652-.24 4.053-.712l-.179-.53zm17.497.683c-1.962 0-3.713-.48-5.263-1.435l-.293.476c1.644 1.013 3.499 1.518 5.556 1.518v-.56zm-5.26-1.433c-1.556-.986-2.79-2.304-3.704-3.958l-.489.27c.958 1.735 2.257 3.123 3.894 4.16l.299-.472zm-3.701-3.954c-.885-1.678-1.33-3.573-1.33-5.692h-.559c0 2.2.463 4.186 1.395 5.953l.494-.26zm-1.33-5.692c0-2.115.484-4.007 1.449-5.683l-.484-.279c-1.018 1.768-1.524 3.758-1.524 5.962h.559zm1.447-5.68c.995-1.682 2.323-3 3.987-3.96l-.279-.484a11.44 11.44 0 00-4.189 4.16l.481.283zm3.988-3.96c1.689-.986 3.581-1.48 5.682-1.48v-.559c-2.193 0-4.183.517-5.963 1.556l.281.482zm5.682-1.48c2.101 0 3.978.494 5.638 1.478l.285-.48c-1.753-1.04-3.73-1.557-5.923-1.557v.559zm5.641 1.48a10.56 10.56 0 013.944 3.957l.485-.279a11.13 11.13 0 00-4.15-4.162l-.279.484zm3.946 3.96c.991 1.675 1.489 3.566 1.489 5.68h.559c0-2.206-.521-4.196-1.567-5.965l-.481.285zm1.768 5.4h-1.61v.56h1.61v-.56zm-1.89.28c0 2.118-.458 4.012-1.37 5.69l.491.266c.961-1.767 1.438-3.755 1.438-5.956h-.559zm-1.37 5.69a10.426 10.426 0 01-3.661 3.956l.299.472a10.985 10.985 0 003.854-4.163l-.492-.264zm-3.658 3.954c-1.55.955-3.301 1.435-5.263 1.435v.559c2.057 0 3.912-.505 5.556-1.518l-.293-.476zm-4.437-1.697c1.449 0 2.752-.339 3.9-1.023l-.286-.48c-1.053.628-2.256.944-3.614.944v.56zm3.905-1.026a7.643 7.643 0 002.699-2.85l-.49-.27a7.079 7.079 0 01-2.504 2.645l.295.475zm2.7-2.852c.657-1.22.983-2.578.983-4.069h-.559c0 1.407-.307 2.673-.916 3.804l.492.265zm.983-4.069c0-1.517-.326-2.877-.984-4.071l-.49.27c.608 1.101.915 2.366.915 3.801h.559zm-.983-4.069c-.656-1.218-1.558-2.172-2.705-2.855l-.286.48c1.056.63 1.889 1.507 2.499 2.64l.492-.265zm-2.7-2.852c-1.149-.713-2.454-1.067-3.905-1.067v.558c1.356 0 2.557.33 3.61.984l.295-.475zm-3.905-1.067c-1.425 0-2.728.354-3.902 1.065l.289.478c1.083-.656 2.285-.985 3.613-.985v-.558zm-3.901 1.064c-1.145.683-2.06 1.635-2.743 2.85l.487.274c.638-1.135 1.485-2.014 2.542-2.644l-.286-.48zm-2.744 2.853c-.659 1.194-.985 2.554-.985 4.071h.559c0-1.435.308-2.7.915-3.802l-.489-.27zm-.985 4.071c0 1.491.327 2.85.984 4.069l.491-.265c-.609-1.131-.916-2.397-.916-3.804h-.559zm.987 4.076a7.982 7.982 0 002.738 2.845l.295-.475a7.414 7.414 0 01-2.548-2.649l-.485.279zm2.745 2.85c1.173.681 2.475 1.021 3.898 1.021v-.559c-1.33 0-2.534-.316-3.617-.946l-.281.483zm13.147 4.03c-.541 0-.98-.169-1.338-.5l-.379.41c.468.434 1.047.649 1.717.649v-.56zm-1.324-.486c-.333-.355-.502-.79-.502-1.326h-.559c0 .667.216 1.243.654 1.709l.407-.383zm-.502-1.326v-6.274h-.559v6.274h.559zm-.005-6.224l.785-4.347-.55-.099-.784 4.347.549.099zm.399-4.14l3.428 1.477.221-.514-3.428-1.476-.221.513zm3.259 1.22v9.144h.559v-9.144h-.559zm0 9.144c0 .53-.179.963-.537 1.319l.394.396a2.336 2.336 0 00.702-1.715h-.559zm-.537 1.319c-.327.325-.749.493-1.29.493v.559c.67 0 1.24-.215 1.684-.656l-.394-.396zm23.891.493c-.541 0-.981-.169-1.338-.5l-.38.41c.469.434 1.047.649 1.718.649v-.56zm-1.325-.486c-.333-.355-.502-.79-.502-1.326h-.559c0 .667.217 1.243.654 1.709l.407-.383zm-.502-1.326V39.078h-.559v10.087h.559zm0-10.087c0-1.59-.295-2.915-.906-3.955l-.481.283c.545.928.828 2.146.828 3.672h.559zm-.906-3.955c-.605-1.03-1.431-1.795-2.476-2.285l-.237.506c.938.44 1.681 1.124 2.232 2.062l.481-.283zm-2.467-2.28c-1.009-.516-2.169-.77-3.472-.77v.56c1.23 0 2.3.238 3.218.707l.254-.498zm-3.472-.77c-1.194 0-2.284.241-3.262.727l.248.5c.894-.443 1.896-.668 3.014-.668v-.558zm-3.262.727c-.975.484-1.756 1.142-2.335 1.977l.459.319c.521-.751 1.227-1.35 2.124-1.796l-.248-.5zm-2.333 1.973c-.587.817-.878 1.763-.878 2.829h.559c0-.958.259-1.788.773-2.502l-.454-.327zm-.599 2.55h-2.601v.558h2.601v-.559zm-2.322.279c0-1.676.401-3.155 1.198-4.446l-.476-.294c-.856 1.388-1.28 2.97-1.28 4.74h.558zm1.197-4.445c.827-1.324 1.947-2.371 3.365-3.142l-.267-.49c-1.5.814-2.693 1.927-3.572 3.336l.474.296zm3.365-3.142c1.414-.768 3.005-1.155 4.78-1.155v-.559c-1.859 0-3.543.406-5.047 1.223l.267.491zm4.78-1.155c1.858 0 3.504.4 4.944 1.195l.27-.489c-1.533-.845-3.273-1.265-5.214-1.265v.559zm4.949 1.198c1.464.766 2.608 1.901 3.436 3.413l.49-.268c-.879-1.605-2.102-2.82-3.666-3.64l-.26.495zm3.438 3.417c.852 1.506 1.285 3.37 1.285 5.603h.559c0-2.305-.448-4.268-1.358-5.878l-.486.275zm1.285 5.603v10.087h.559V39.078h-.559zm0 10.087c0 .53-.179.963-.537 1.319l.394.396c.468-.464.702-1.042.702-1.715h-.559zm-.537 1.319c-.327.325-.748.493-1.289.493v.559c.67 0 1.239-.215 1.683-.656l-.394-.396zm-18.261.493c-.541 0-.98-.169-1.337-.5l-.38.41c.468.434 1.047.649 1.717.649v-.56zm-1.324-.486c-.333-.355-.502-.79-.502-1.326h-.559c0 .667.216 1.243.654 1.709l.407-.383zm-.502-1.326V30.877h-.559v18.288h.559zm0-18.288c0-.567.171-.997.495-1.319l-.393-.396c-.447.443-.661 1.024-.661 1.715h.559zm.489-1.312c.357-.331.796-.5 1.337-.5v-.559c-.67 0-1.249.214-1.717.649l.38.41zm1.337-.5c.573 0 1.007.17 1.331.493l.394-.396c-.446-.444-1.031-.656-1.725-.656v.559zm1.331.493c.325.322.496.752.496 1.319h.559c0-.69-.214-1.272-.661-1.715l-.394.396zm.496 1.319v18.288h.559V30.877h-.559zm0 18.288c0 .536-.169.971-.502 1.326l.407.383c.437-.466.654-1.042.654-1.709h-.559zm-.496 1.319c-.324.322-.758.493-1.331.493v.559c.694 0 1.279-.212 1.725-.656l-.394-.396z" fill="#FEFEFE" mask="url(#a)"/><path d="M136.118 16.871h0l.004.004c.231.23.518.344.851.344h7.275c.332 0 .62-.114.85-.344.23-.227.347-.506.347-.826 0-.31-.119-.58-.345-.806a1.133 1.133 0 00-.852-.365h-5.118l4.246-4.786h0c.281-.319.554-.676.819-1.071.282-.4.511-.822.686-1.263a3.39 3.39 0 00.289-1.336c0-.972-.188-1.821-.571-2.54a3.987 3.987 0 00-1.581-1.672c-.687-.396-1.491-.59-2.408-.59-.906 0-1.729.208-2.466.628h0-.001a4.656 4.656 0 00-1.715 1.724c-.423.719-.633 1.538-.633 2.45 0 .31.119.582.347.808l.122-.123-.122.123c.229.227.509.343.831.343.331 0 .614-.114.833-.346a1.11 1.11 0 00.344-.805c0-.48.105-.914.313-1.303.223-.405.517-.72.883-.95h0l.002-.001a2.285 2.285 0 011.262-.363c.484 0 .889.11 1.224.324h0l.003.002c.336.202.595.494.778.882.184.388.278.856.278 1.41 0 .327-.1.682-.312 1.067h0l-.002.004a6.698 6.698 0 01-.882 1.255h0l-5.58 6.478a1.122 1.122 0 00-.322.822c0 .316.108.594.323.822zm9.271-4.172h-.001l.002.01c.03.274.146.517.341.725.21.225.496.329.835.329h6.373v2.286c0 .316.108.594.323.822.215.23.484.348.796.348.332 0 .615-.115.835-.348.214-.228.322-.506.322-.822v-2.286h1.005c.315 0 .592-.098.822-.296h0l.005-.005c.229-.212.351-.472.351-.772 0-.37-.109-.673-.373-.848a1.43 1.43 0 00-.805-.225h-1.005V2.81c0-.324-.097-.607-.298-.837a1.02 1.02 0 00-.8-.353c-.199 0-.385.046-.556.138h0l-.006.004a1.5 1.5 0 00-.4.353h0l-.003.003-7.531 9.802h0l-.002.002c-.168.229-.245.49-.23.777zm7.55-1.082h-4.421l4.421-5.777v5.777z" fill="#219653" stroke="#219653" stroke-width=".349"/><mask id="b" maskUnits="userSpaceOnUse" x=".966" y="33.013" width="70" height="17" fill="#000"><path fill="#fff" d="M.966 33.013h70v17h-70z"/><path d="M2.989 49.262a.992.992 0 01-.728-.293.978.978 0 01-.295-.722v-13.22c0-.299.099-.54.295-.721a.992.992 0 01.728-.293c.393 0 .695.182.904.546l6.155 12.243h-.63l5.998-12.243c.21-.364.511-.546.904-.546a.99.99 0 01.728.293c.197.182.295.422.295.722v13.22a.948.948 0 01-.315.721.969.969 0 01-.708.293.992.992 0 01-.727-.293.978.978 0 01-.295-.722V37.84l.393-.098-5.152 10.427c-.223.338-.517.508-.884.508-.433 0-.748-.202-.944-.606L3.618 37.937l.393-.097v10.407a.978.978 0 01-.295.722.992.992 0 01-.727.293zm22.09.078c-.957 0-1.816-.234-2.576-.702a5.253 5.253 0 01-1.81-1.933c-.432-.82-.648-1.745-.648-2.773 0-1.029.236-1.953.708-2.773a5.314 5.314 0 011.946-1.933c.826-.482 1.75-.722 2.773-.722 1.022 0 1.94.24 2.753.722a5.165 5.165 0 011.927 1.933c.485.82.727 1.744.727 2.773h-.767c0 1.028-.222 1.952-.668 2.773a5.098 5.098 0 01-1.79 1.933c-.76.468-1.618.703-2.575.703zm.393-1.757c.668 0 1.265-.156 1.79-.468a3.506 3.506 0 001.238-1.309c.302-.56.452-1.184.452-1.874 0-.703-.15-1.328-.452-1.875a3.322 3.322 0 00-1.239-1.308c-.524-.325-1.12-.488-1.79-.488a3.39 3.39 0 00-1.788.488 3.464 3.464 0 00-1.259 1.308c-.301.547-.452 1.172-.452 1.875 0 .69.15 1.315.452 1.874.315.547.734.983 1.259 1.309a3.495 3.495 0 001.789.468zm4.404 1.699a1.03 1.03 0 01-.727-.273 1.015 1.015 0 01-.275-.723V45.3l.373-2.07 1.632.703v4.354a.978.978 0 01-.295.723.962.962 0 01-.708.273zm7.409.058c-.917 0-1.77-.136-2.556-.41-.773-.286-1.376-.644-1.809-1.074a.863.863 0 01-.255-.702.98.98 0 01.393-.664c.262-.209.518-.293.767-.254.262.026.485.137.668.332.223.247.577.482 1.062.703a4.242 4.242 0 001.652.312c.76 0 1.337-.123 1.73-.37.407-.248.616-.567.63-.958.013-.39-.178-.729-.57-1.015-.38-.286-1.082-.52-2.105-.703-1.324-.26-2.287-.65-2.89-1.171-.59-.521-.885-1.159-.885-1.914 0-.664.197-1.21.59-1.64.393-.443.898-.768 1.514-.976a5.657 5.657 0 011.927-.332c.865 0 1.632.136 2.3.41.669.273 1.2.65 1.593 1.132.184.208.269.43.256.664-.013.221-.125.41-.334.566-.21.143-.46.189-.748.137a1.413 1.413 0 01-.727-.351 2.683 2.683 0 00-1.062-.645 4.482 4.482 0 00-1.317-.176c-.577 0-1.069.098-1.475.293-.393.196-.59.482-.59.86 0 .234.059.449.177.644.131.182.38.351.747.508.367.143.905.286 1.612.429.984.195 1.757.443 2.32.742.578.3.99.65 1.24 1.054.248.391.373.847.373 1.367 0 .6-.164 1.14-.491 1.62-.315.483-.787.867-1.416 1.153-.616.286-1.39.43-2.32.43zm10.185-.078a3.287 3.287 0 01-1.77-.488 3.577 3.577 0 01-1.238-1.367c-.302-.572-.452-1.217-.452-1.933V36.16c0-.286.091-.52.275-.702a.962.962 0 01.708-.274c.288 0 .524.091.708.274a.948.948 0 01.275.702v9.314c0 .521.144.957.432 1.309.289.351.643.527 1.062.527h.669c.236 0 .432.09.59.273.17.182.255.417.255.703s-.111.52-.334.703c-.21.182-.485.273-.826.273h-.354zm-4.365-8.61c-.275 0-.498-.079-.668-.235a.762.762 0 01-.256-.586c0-.26.085-.468.256-.625.17-.156.393-.234.668-.234h4.542c.276 0 .498.078.669.234a.81.81 0 01.255.625c0 .235-.085.43-.255.586-.17.156-.393.234-.669.234h-4.542zm12.906 8.688c-1.088 0-2.058-.227-2.91-.683a5.273 5.273 0 01-1.986-1.913c-.472-.82-.708-1.758-.708-2.812 0-1.068.223-2.005.669-2.812a4.924 4.924 0 011.888-1.913c.8-.47 1.717-.703 2.752-.703 1.023 0 1.901.227 2.635.683a4.265 4.265 0 011.672 1.855c.393.781.59 1.686.59 2.714a.846.846 0 01-.256.625.923.923 0 01-.649.234h-7.924v-1.562h7.865l-.806.547c-.013-.651-.144-1.23-.394-1.738a2.958 2.958 0 00-1.061-1.23c-.46-.3-1.016-.45-1.672-.45-.747 0-1.39.163-1.927.489a3.16 3.16 0 00-1.2 1.347c-.274.56-.412 1.198-.412 1.914s.164 1.354.492 1.913a3.58 3.58 0 001.356 1.328c.577.326 1.24.488 1.986.488.407 0 .82-.071 1.24-.215.432-.156.779-.331 1.041-.527a1.05 1.05 0 01.63-.214.84.84 0 01.609.195c.223.195.34.41.354.644.013.234-.092.436-.315.605-.445.352-1.002.638-1.671.86a5.895 5.895 0 01-1.888.331zm7.631-6.756c0-.78.19-1.477.57-2.089a4.29 4.29 0 011.574-1.484 4.376 4.376 0 012.163-.547c.786 0 1.37.13 1.75.391.393.247.544.547.452.898a.77.77 0 01-.236.43.765.765 0 01-.374.175 1.17 1.17 0 01-.472-.019c-.839-.17-1.592-.182-2.26-.039-.67.143-1.2.41-1.594.8-.38.391-.57.886-.57 1.484h-1.003zm.02 6.678c-.315 0-.557-.078-.727-.234-.17-.17-.256-.416-.256-.742v-8.728c0-.312.085-.553.255-.722.17-.17.413-.254.728-.254.328 0 .57.084.728.254.17.156.255.397.255.722v8.728c0 .313-.085.553-.255.723-.158.169-.4.253-.728.253z"/></mask><path d="M2.989 49.262a.992.992 0 01-.728-.293.978.978 0 01-.295-.722v-13.22c0-.299.099-.54.295-.721a.992.992 0 01.728-.293c.393 0 .695.182.904.546l6.155 12.243h-.63l5.998-12.243c.21-.364.511-.546.904-.546a.99.99 0 01.728.293c.197.182.295.422.295.722v13.22a.948.948 0 01-.315.721.969.969 0 01-.708.293.992.992 0 01-.727-.293.978.978 0 01-.295-.722V37.84l.393-.098-5.152 10.427c-.223.338-.517.508-.884.508-.433 0-.748-.202-.944-.606L3.618 37.937l.393-.097v10.407a.978.978 0 01-.295.722.992.992 0 01-.727.293zm22.09.078c-.957 0-1.816-.234-2.576-.702a5.253 5.253 0 01-1.81-1.933c-.432-.82-.648-1.745-.648-2.773 0-1.029.236-1.953.708-2.773a5.314 5.314 0 011.946-1.933c.826-.482 1.75-.722 2.773-.722 1.022 0 1.94.24 2.753.722a5.165 5.165 0 011.927 1.933c.485.82.727 1.744.727 2.773h-.767c0 1.028-.222 1.952-.668 2.773a5.098 5.098 0 01-1.79 1.933c-.76.468-1.618.703-2.575.703zm.393-1.757c.668 0 1.265-.156 1.79-.468a3.506 3.506 0 001.238-1.309c.302-.56.452-1.184.452-1.874 0-.703-.15-1.328-.452-1.875a3.322 3.322 0 00-1.239-1.308c-.524-.325-1.12-.488-1.79-.488a3.39 3.39 0 00-1.788.488 3.464 3.464 0 00-1.259 1.308c-.301.547-.452 1.172-.452 1.875 0 .69.15 1.315.452 1.874.315.547.734.983 1.259 1.309a3.495 3.495 0 001.789.468zm4.404 1.699a1.03 1.03 0 01-.727-.273 1.015 1.015 0 01-.275-.723V45.3l.373-2.07 1.632.703v4.354a.978.978 0 01-.295.723.962.962 0 01-.708.273zm7.409.058c-.917 0-1.77-.136-2.556-.41-.773-.286-1.376-.644-1.809-1.074a.863.863 0 01-.255-.702.98.98 0 01.393-.664c.262-.209.518-.293.767-.254.262.026.485.137.668.332.223.247.577.482 1.062.703a4.242 4.242 0 001.652.312c.76 0 1.337-.123 1.73-.37.407-.248.616-.567.63-.958.013-.39-.178-.729-.57-1.015-.38-.286-1.082-.52-2.105-.703-1.324-.26-2.287-.65-2.89-1.171-.59-.521-.885-1.159-.885-1.914 0-.664.197-1.21.59-1.64.393-.443.898-.768 1.514-.976a5.657 5.657 0 011.927-.332c.865 0 1.632.136 2.3.41.669.273 1.2.65 1.593 1.132.184.208.269.43.256.664-.013.221-.125.41-.334.566-.21.143-.46.189-.748.137a1.413 1.413 0 01-.727-.351 2.683 2.683 0 00-1.062-.645 4.482 4.482 0 00-1.317-.176c-.577 0-1.069.098-1.475.293-.393.196-.59.482-.59.86 0 .234.059.449.177.644.131.182.38.351.747.508.367.143.905.286 1.612.429.984.195 1.757.443 2.32.742.578.3.99.65 1.24 1.054.248.391.373.847.373 1.367 0 .6-.164 1.14-.491 1.62-.315.483-.787.867-1.416 1.153-.616.286-1.39.43-2.32.43zm10.185-.078a3.287 3.287 0 01-1.77-.488 3.577 3.577 0 01-1.238-1.367c-.302-.572-.452-1.217-.452-1.933V36.16c0-.286.091-.52.275-.702a.962.962 0 01.708-.274c.288 0 .524.091.708.274a.948.948 0 01.275.702v9.314c0 .521.144.957.432 1.309.289.351.643.527 1.062.527h.669c.236 0 .432.09.59.273.17.182.255.417.255.703s-.111.52-.334.703c-.21.182-.485.273-.826.273h-.354zm-4.365-8.61c-.275 0-.498-.079-.668-.235a.762.762 0 01-.256-.586c0-.26.085-.468.256-.625.17-.156.393-.234.668-.234h4.542c.276 0 .498.078.669.234a.81.81 0 01.255.625c0 .235-.085.43-.255.586-.17.156-.393.234-.669.234h-4.542zm12.906 8.688c-1.088 0-2.058-.227-2.91-.683a5.273 5.273 0 01-1.986-1.913c-.472-.82-.708-1.758-.708-2.812 0-1.068.223-2.005.669-2.812a4.924 4.924 0 011.888-1.913c.8-.47 1.717-.703 2.752-.703 1.023 0 1.901.227 2.635.683a4.265 4.265 0 011.672 1.855c.393.781.59 1.686.59 2.714a.846.846 0 01-.256.625.923.923 0 01-.649.234h-7.924v-1.562h7.865l-.806.547c-.013-.651-.144-1.23-.394-1.738a2.958 2.958 0 00-1.061-1.23c-.46-.3-1.016-.45-1.672-.45-.747 0-1.39.163-1.927.489a3.16 3.16 0 00-1.2 1.347c-.274.56-.412 1.198-.412 1.914s.164 1.354.492 1.913a3.58 3.58 0 001.356 1.328c.577.326 1.24.488 1.986.488.407 0 .82-.071 1.24-.215.432-.156.779-.331 1.041-.527a1.05 1.05 0 01.63-.214.84.84 0 01.609.195c.223.195.34.41.354.644.013.234-.092.436-.315.605-.445.352-1.002.638-1.671.86a5.895 5.895 0 01-1.888.331zm7.631-6.756c0-.78.19-1.477.57-2.089a4.29 4.29 0 011.574-1.484 4.376 4.376 0 012.163-.547c.786 0 1.37.13 1.75.391.393.247.544.547.452.898a.77.77 0 01-.236.43.765.765 0 01-.374.175 1.17 1.17 0 01-.472-.019c-.839-.17-1.592-.182-2.26-.039-.67.143-1.2.41-1.594.8-.38.391-.57.886-.57 1.484h-1.003zm.02 6.678c-.315 0-.557-.078-.727-.234-.17-.17-.256-.416-.256-.742v-8.728c0-.312.085-.553.255-.722.17-.17.413-.254.728-.254.328 0 .57.084.728.254.17.156.255.397.255.722v8.728c0 .313-.085.553-.255.723-.158.169-.4.253-.728.253z" fill="#219653"/><path d="M2.261 48.97l-.197.198.197-.199zm0-14.664l.19.205.007-.007-.197-.198zm1.632.253l.25-.125-.004-.007-.004-.007-.242.14zm6.155 12.243v.28h.453l-.204-.405-.25.125zm-.63 0l-.25-.123-.197.402h.448v-.279zm5.998-12.243l-.242-.139-.005.008-.004.008.25.123zm1.632-.253l-.197.198.007.006.19-.204zm-.02 14.663l-.19-.204-.007.006.197.198zm-1.73-11.13l-.068-.27-.212.052v.219h.28zm.393-.097l.25.124.267-.54-.584.145.067.271zM10.54 48.169l.234.154.01-.015.007-.015-.25-.124zm-1.828-.098l.25-.122v-.003l-.25.125zM3.618 37.937l-.067-.27-.34.083.157.313.25-.126zm.393-.097h.28v-.358l-.347.087.067.27zm18.492 10.798l-.15.236.003.001.147-.237zm-1.81-1.933l-.246.13.002.005.245-.136zm.06-5.546l-.24-.142-.002.003.242.14zm1.946-1.933l.14.242h.001l-.14-.242zm5.526 0l-.143.24.003.002.14-.242zm1.927 1.933l-.242.14.001.002.24-.142zm-.04 2.773v-.28h-.279v.28h.28zm-.668 2.773l-.246-.134v.002l.246.132zm-1.79 1.933l.147.237.003-.001-.15-.236zm-.393-1.523l.143.24.005-.003-.148-.237zm1.239-1.309l.245.135.001-.002-.246-.133zm0-3.749l-.246.133.001.002.245-.135zm-1.239-1.308l-.147.237.004.003.143-.24zm-3.578 0l.143.24.001-.001-.144-.239zm-1.259 1.308l-.243-.137-.002.002.245.135zm0 3.75l-.246.132.004.007.242-.14zm1.259 1.308l-.148.237.007.004.14-.241zm5.466 1.894l-.204.19.007.008.007.007.19-.205zm-.275-3.71l-.275-.05-.005.025v.025h.28zm.373-2.07l.11-.257-.322-.139-.063.346.275.05zm1.337 5.78l.197.198-.197-.198zm4.145-.078l-.097.262.006.001.091-.264zm-1.809-1.075l-.203.192.007.007.196-.199zm-.255-.702l-.277-.04-.001.012.278.028zm.393-.664l.169.222.005-.004-.174-.218zm.767-.254l-.043.276.007.001h.008l.028-.277zm.668.332l.208-.187-.004-.005-.204.192zm1.062.703l-.116.254.008.004.108-.258zm3.382-.059l-.145-.239-.004.003.15.236zm.63-.957l.279.01-.28-.01zm-.57-1.015l-.169.223.004.003.164-.226zm-2.105-.703l-.054.274.005.001.05-.275zm-2.89-1.171l-.185.209.002.002.183-.211zm-.295-3.554l.206.189.003-.004-.21-.185zm1.514-.976l.09.264.004-.002-.094-.262zm4.228.078l.105-.259-.105.259zm1.592 1.132l-.216.177.006.008.21-.185zm.256.664l.279.017v-.001l-.28-.016zm-.334.566l.157.231.01-.007-.168-.224zm-.748.137l-.05.275.05-.275zm-.727-.351l-.193.202.003.002.19-.204zm-1.062-.645l-.082.267.082-.267zm-2.792.117l-.121-.252-.003.002.124.25zm-.413 1.504l-.24.144.007.01.006.009.227-.163zm.747.508l-.11.257.009.003.101-.26zm1.612.429l-.055.274h.001l.054-.274zm2.32.742l-.13.247.002.001.129-.248zm1.24 1.054l-.238.147.002.004.235-.15zm-.118 2.988l-.231-.157-.003.004.234.153zm-1.416 1.152l-.116-.254h-.002l.118.254zm6.095-.137l-.152.235.004.003.148-.238zm-1.24-1.367l-.246.13.247-.13zm1.24-11.95l.197-.198-.197.199zm.707 11.326l.216-.178-.216.178zm2.32.8l-.21.183.007.008.204-.19zm-.078 1.406l-.177-.216-.006.005.183.211zm-6.213-8.572l-.19.206.19-.206zm0-1.21l-.19-.206.19.206zm5.879 0l.189-.206-.19.206zm0 1.21l.189.206-.19-.206zm4.785 8.24l-.136.244.004.002.132-.246zm-1.986-1.913l-.242.139.003.005.24-.144zm-.04-5.624l-.243-.136v.001l.244.135zm1.889-1.913l.138.242.003-.002-.141-.24zm5.387-.02l-.147.237.003.002.144-.239zm1.672 1.855l-.253.12.003.006.25-.126zm.334 3.339l.189.206.008-.008-.197-.198zm-8.573.234h-.28v.28h.28v-.28zm0-1.562v-.28h-.28v.28h.28zm7.865 0l.157.231.753-.51h-.91v.28zm-.806.547l-.28.005.01.515.427-.289-.157-.231zm-.394-1.738l-.252.12.002.003.25-.123zm-4.66-1.191l-.144-.239-.003.002.147.237zm-1.2 1.347l.252.123v-.002l-.251-.12zm.08 3.827l-.241.142.24-.142zm1.356 1.328l.138-.243-.138.243zm3.225.273l.09.265.005-.002-.095-.263zm1.042-.527l-.164-.225-.003.001.167.224zm.63-.214v.279h.015l-.016-.28zm.609.195l.184-.21-.004-.004-.18.214zm.354.644l.279-.015-.28.015zm-.315.605l-.169-.222-.004.003.173.22zm-1.671.86l-.088-.266h-.001l.089.266zm5.743-6.425h-.279v.28h.28v-.28zm.57-2.089l-.236-.149v.002l.237.147zm1.574-1.484l-.136-.244.136.244zm3.913-.156l-.158.23.009.007.149-.237zm.452.898l-.27-.07-.003.011.273.06zm-.236.43l.183.21h.002l-.185-.21zm-.374.175l-.05-.274.05.274zm-.472-.019l.063-.272-.007-.002-.056.274zm-3.854.761l-.196-.198-.004.004.2.194zm-.57 1.484v.28h.28v-.28h-.28zm-1.71 6.444l-.198.199.009.007.188-.206zm0-10.192l.196.198-.197-.198zm1.455 0l-.205.19.008.008.008.007.189-.205zm0 10.173l-.197-.199-.008.008.205.19zm-61.401-.026a.713.713 0 01-.53-.212l-.395.397c.252.25.566.374.925.374v-.559zm-.53-.212a.7.7 0 01-.213-.524h-.56c0 .358.127.671.378.92l.394-.396zm-.213-.524v-13.22h-.56v13.22h.56zm0-13.22c0-.23.073-.394.205-.517l-.38-.41c-.26.242-.384.56-.384.928h.559zm.212-.523a.713.713 0 01.53-.212v-.559c-.358 0-.672.125-.924.374l.394.397zm.53-.212c.286 0 .499.121.663.407l.484-.279c-.255-.444-.645-.687-1.146-.687v.559zm.656.393l6.154 12.243.5-.251-6.155-12.243-.5.25zm6.404 11.838h-.63v.558h.63v-.558zm-.379.402l5.998-12.243-.502-.246L9.168 46.68l.501.246zm5.989-12.226c.164-.286.377-.407.662-.407v-.559c-.501 0-.891.243-1.146.687l.484.279zm.662-.407a.71.71 0 01.531.212l.394-.397a1.271 1.271 0 00-.925-.374v.559zm.538.218c.133.123.205.286.205.518h.56c0-.367-.125-.686-.385-.927l-.38.41zm.205.518v13.22h.56v-13.22h-.56zm0 13.22a.67.67 0 01-.225.517l.38.409c.267-.248.404-.563.404-.927h-.559zm-.232.523a.69.69 0 01-.51.212v.559c.349 0 .655-.127.904-.374l-.394-.397zm-.51.212a.713.713 0 01-.531-.212l-.394.397c.251.25.565.374.924.374v-.559zm-.531-.212a.7.7 0 01-.213-.524h-.559c0 .358.127.671.378.92l.394-.396zm-.213-.524V37.84h-.559v10.407h.56zm-.212-10.136l.393-.098-.134-.542-.394.098.135.542zm.076-.493l-5.152 10.427.5.248 5.152-10.427-.5-.248zm-5.135 10.397c-.177.27-.39.382-.651.382v.559c.472 0 .85-.226 1.118-.633l-.467-.308zm-.651.382a.738.738 0 01-.41-.107.81.81 0 01-.283-.341l-.502.245c.116.238.275.433.483.566.21.135.45.196.712.196v-.559zm-.695-.451L3.868 37.812l-.5.25 5.093 10.135.5-.251zm-5.275-9.738l.394-.097-.135-.542-.393.097.134.542zm.047-.368v10.407h.559V37.84h-.56zm0 10.407a.7.7 0 01-.213.524l.394.397c.252-.25.378-.563.378-.92h-.56zm-.213.524a.713.713 0 01-.53.212v.559c.359 0 .673-.125.924-.374l-.394-.397zm21.56.29c-.91 0-1.717-.222-2.43-.661l-.293.475c.808.498 1.718.745 2.723.745v-.559zm-2.427-.66a4.974 4.974 0 01-1.714-1.832l-.489.27a5.532 5.532 0 001.904 2.035l.3-.472zm-1.711-1.827c-.41-.776-.617-1.654-.617-2.642h-.559c0 1.069.226 2.038.682 2.903l.494-.26zm-.617-2.642c0-.984.225-1.86.67-2.634l-.483-.278c-.499.866-.745 1.839-.745 2.912h.558zm.67-2.63a5.036 5.036 0 011.845-1.834l-.28-.484a5.593 5.593 0 00-2.047 2.033l.481.284zm1.846-1.835c.78-.455 1.655-.684 2.632-.684v-.559c-1.069 0-2.042.252-2.913.76l.281.483zm2.632-.684c.976 0 1.844.23 2.61.683l.285-.48c-.86-.51-1.827-.762-2.895-.762v.559zm2.613.685a4.887 4.887 0 011.825 1.83l.484-.278a5.444 5.444 0 00-2.03-2.036l-.279.484zm1.826 1.833c.458.774.689 1.648.689 2.63h.559c0-1.073-.254-2.047-.767-2.914l-.48.284zm.968 2.351h-.767v.56h.767v-.56zm-1.046.28c0 .986-.213 1.864-.635 2.64l.491.266c.47-.865.703-1.836.703-2.906h-.559zm-.635 2.64a4.818 4.818 0 01-1.693 1.83l.299.472a5.378 5.378 0 001.886-2.038l-.492-.264zm-1.69 1.828c-.713.44-1.52.661-2.43.661v.559c1.006 0 1.916-.247 2.723-.745l-.293-.475zm-2.036-.538c.714 0 1.36-.167 1.932-.507l-.286-.48c-.477.284-1.023.429-1.646.429v.558zm1.936-.51a3.783 3.783 0 001.337-1.41l-.49-.27a3.226 3.226 0 01-1.141 1.205l.294.475zm1.338-1.413a4.169 4.169 0 00.486-2.007h-.56c0 .648-.14 1.226-.418 1.742l.492.265zm.486-2.007c0-.744-.16-1.417-.487-2.01l-.49.27c.276.5.418 1.078.418 1.74h.559zm-.486-2.007a3.602 3.602 0 00-1.342-1.416l-.286.48c.48.286.858.684 1.136 1.2l.492-.264zm-1.337-1.413c-.573-.355-1.221-.53-1.937-.53v.558c.62 0 1.165.15 1.642.446l.294-.474zm-1.937-.53c-.704 0-1.351.175-1.934.528l.29.478a3.109 3.109 0 011.644-.448v-.559zm-1.932.527a3.743 3.743 0 00-1.36 1.411l.488.274c.292-.52.677-.919 1.158-1.205l-.286-.48zm-1.36 1.413c-.328.593-.488 1.266-.488 2.01h.56c0-.662.14-1.24.417-1.74l-.49-.27zm-.488 2.01c0 .732.16 1.403.486 2.007l.492-.265a3.61 3.61 0 01-.419-1.742h-.559zm.49 2.014a3.942 3.942 0 001.353 1.406l.295-.475a3.383 3.383 0 01-1.164-1.21l-.484.279zm1.36 1.41a3.775 3.775 0 001.93.506v-.558a3.216 3.216 0 01-1.649-.431l-.28.483zm6.334 1.647a.752.752 0 01-.537-.2l-.38.41c.252.234.564.348.917.348v-.558zm-.524-.186a.737.737 0 01-.199-.53h-.559c0 .351.115.662.351.913l.407-.383zm-.199-.53v-2.988h-.559v2.987h.559zm-.005-2.939l.374-2.07-.55-.099-.373 2.07.55.1zm-.011-1.863l1.632.703.22-.513-1.631-.703-.221.513zm1.463.447v4.354h.559v-4.354h-.56zm0 4.354a.7.7 0 01-.213.524l.394.397c.252-.25.378-.563.378-.92h-.56zm-.213.524a.684.684 0 01-.51.193v.558c.352 0 .662-.114.904-.354l-.394-.397zm6.898.251c-.889 0-1.71-.132-2.464-.394l-.183.527a8.015 8.015 0 002.648.426v-.559zm-2.459-.392c-.748-.278-1.313-.617-1.709-1.01l-.393.396c.469.466 1.11.842 1.908 1.138l.194-.524zm-1.703-1.004c-.146-.156-.198-.312-.18-.483l-.556-.056c-.035.349.084.661.33.922l.407-.383zm-.182-.472c.029-.2.12-.355.286-.48l-.338-.446c-.28.213-.45.5-.5.847l.552.08zm.29-.484c.223-.177.402-.22.55-.197l.087-.552c-.35-.055-.681.07-.984.311l.348.438zm.566-.195c.194.02.355.098.493.245l.407-.383a1.31 1.31 0 00-.845-.418l-.055.556zm.489.24c.26.289.652.542 1.153.77l.232-.507c-.469-.214-.784-.43-.97-.636l-.415.374zm1.161.775a4.52 4.52 0 001.76.333v-.558a3.97 3.97 0 01-1.544-.291l-.216.516zm1.76.333c.783 0 1.421-.125 1.879-.413l-.297-.473c-.33.206-.844.328-1.582.328v.558zm1.876-.411c.466-.284.746-.68.763-1.186l-.559-.019c-.009.275-.149.517-.495.727l.29.478zm.763-1.186c.017-.506-.238-.925-.685-1.25l-.33.45c.34.248.465.506.456.781l.559.019zm-.682-1.248c-.437-.33-1.197-.572-2.223-.755l-.098.55c1.019.182 1.662.408 1.985.651l.336-.446zm-2.218-.754c-1.305-.257-2.213-.635-2.762-1.109l-.365.423c.657.567 1.677.97 3.02 1.234l.107-.548zm-2.76-1.107c-.532-.47-.79-1.033-.79-1.704h-.558c0 .839.332 1.552.979 2.123l.37-.419zm-.79-1.704c0-.605.177-1.08.517-1.451l-.412-.378c-.447.489-.663 1.106-.663 1.829h.558zm.52-1.455a3.19 3.19 0 011.394-.897l-.179-.53c-.657.223-1.204.574-1.633 1.056l.418.371zm1.4-.899a5.378 5.378 0 011.832-.315v-.559c-.7 0-1.375.116-2.022.349l.19.525zm1.832-.315c.836 0 1.566.132 2.195.39l.211-.518c-.708-.29-1.512-.43-2.406-.43v.558zm2.195.39c.632.258 1.122.61 1.482 1.05l.432-.354c-.427-.523-.998-.926-1.703-1.214l-.211.517zm1.488 1.058c.145.164.195.316.187.463l.558.032c.018-.321-.103-.612-.325-.865l-.42.37zm.187.462c-.007.124-.066.242-.222.36l.333.447c.263-.195.428-.455.447-.773l-.558-.033zm-.213.352c-.14.096-.312.134-.54.093l-.1.55c.35.063.675.01.955-.181l-.315-.462zm-.54.093a1.135 1.135 0 01-.587-.281l-.38.41c.24.221.532.36.868.42l.099-.549zm-.584-.279a2.961 2.961 0 00-1.173-.709l-.164.534c.333.103.65.293.951.58l.386-.405zm-1.173-.709a4.759 4.759 0 00-1.4-.188v.559c.478 0 .888.056 1.236.163l.164-.534zm-1.4-.188c-.607 0-1.142.103-1.595.32l.242.504c.36-.173.807-.265 1.354-.265v-.559zm-1.598.322a1.407 1.407 0 00-.549.453 1.137 1.137 0 00-.196.656h.558a.58.58 0 01.099-.34.854.854 0 01.336-.268l-.248-.5zm-.745 1.11c0 .283.072.548.217.788l.478-.289a.943.943 0 01-.137-.5h-.558zm.23.807c.175.245.481.439.864.602l.218-.515c-.351-.15-.543-.294-.63-.413l-.453.326zm.872.605c.39.152.945.299 1.658.443l.11-.548c-.702-.142-1.22-.281-1.565-.416l-.203.52zm1.659.443c.97.193 1.714.433 2.244.715l.262-.494c-.598-.317-1.4-.571-2.397-.769l-.109.548zm2.246.716c.548.284.915.606 1.13.953l.475-.293c-.284-.46-.742-.842-1.348-1.156l-.257.496zm1.132.957c.217.34.33.742.33 1.216h.558c0-.567-.136-1.076-.417-1.517l-.471.3zm.33 1.216c0 .545-.148 1.03-.444 1.464l.462.314c.36-.53.54-1.125.54-1.778h-.558zm-.446 1.468c-.28.43-.707.782-1.298 1.05l.231.51c.668-.305 1.185-.72 1.534-1.254l-.467-.306zm-1.3 1.052c-.568.264-1.298.403-2.203.403v.559c.958 0 1.775-.147 2.439-.456l-.236-.506zm7.982.325a3.01 3.01 0 01-1.622-.446l-.295.475c.572.354 1.213.53 1.917.53v-.559zm-1.618-.443a3.299 3.299 0 01-1.143-1.263l-.494.26a3.856 3.856 0 001.334 1.472l.303-.47zm-1.143-1.263c-.278-.528-.42-1.127-.42-1.803h-.559c0 .757.16 1.447.485 2.064l.494-.26zm-.42-1.803V36.16h-.559v9.314h.559zm0-9.314c0-.22.068-.38.193-.504l-.394-.397c-.242.24-.358.55-.358.901h.559zm.193-.504a.684.684 0 01.51-.192v-.56a1.24 1.24 0 00-.904.355l.394.397zm.51-.192c.225 0 .387.068.512.192l.394-.397a1.24 1.24 0 00-.905-.354v.559zm.512.192a.67.67 0 01.193.504h.558c0-.352-.115-.66-.358-.9l-.393.396zm.193.504v9.314h.558V36.16h-.558zm0 9.314c0 .576.16 1.077.496 1.486l.431-.355c-.241-.294-.369-.665-.369-1.13h-.558zm.496 1.486c.336.41.767.63 1.277.63v-.56c-.328 0-.605-.132-.846-.425l-.431.355zm1.277.63h.669v-.56h-.669v.56zm.669 0c.153 0 .273.053.378.176l.423-.365a1.026 1.026 0 00-.801-.37v.558zm.386.184c.115.123.18.285.18.512h.559c0-.346-.105-.652-.331-.894l-.408.382zm.18.512a.589.589 0 01-.232.487l.354.432c.287-.235.437-.548.437-.919h-.559zm-.238.492c-.148.129-.353.205-.643.205v.559c.393 0 .738-.106 1.01-.342l-.367-.422zm-.643.205h-.354v.559h.354v-.559zm-4.719-8.61c-.22 0-.37-.062-.48-.162l-.377.412c.231.212.526.308.857.308v-.559zm-.48-.162a.483.483 0 01-.165-.38h-.558c0 .312.117.582.346.792l.377-.412zm-.165-.38c0-.193.06-.322.165-.419l-.377-.411a1.085 1.085 0 00-.346.83h.558zm.165-.419c.11-.1.26-.16.48-.16v-.56c-.33 0-.626.096-.857.309l.377.411zm.48-.16h4.542v-.56h-4.542v.56zm4.542 0c.22 0 .37.06.48.16l.378-.411c-.232-.213-.527-.308-.858-.308v.559zm.48.16c.105.097.165.226.165.42h.559c0-.328-.11-.615-.346-.831l-.378.411zm.165.42a.483.483 0 01-.165.38l.378.411c.229-.21.346-.48.346-.792h-.559zm-.165.38c-.11.1-.26.16-.48.16v.559c.331 0 .626-.096.858-.308l-.378-.412zm-.48.16h-4.542v.559h4.542v-.559zm8.364 8.69c-1.048 0-1.971-.22-2.778-.651l-.264.492c.898.48 1.914.717 3.042.717v-.559zm-2.774-.649a4.994 4.994 0 01-1.882-1.813l-.48.288a5.552 5.552 0 002.09 2.013l.272-.488zm-1.88-1.809c-.444-.773-.67-1.661-.67-2.672h-.559c0 1.097.246 2.084.745 2.95l.484-.278zm-.67-2.672c0-1.028.214-1.917.633-2.677l-.489-.27c-.472.855-.703 1.84-.703 2.947h.559zm.633-2.675a4.645 4.645 0 011.782-1.808l-.277-.485a5.202 5.202 0 00-1.993 2.02l.488.273zm1.785-1.81c.752-.44 1.62-.664 2.611-.664v-.559c-1.079 0-2.046.245-2.894.742l.283.481zm2.611-.664c.98 0 1.806.218 2.488.641l.294-.474c-.785-.488-1.717-.726-2.782-.726v.559zm2.491.643a3.99 3.99 0 011.564 1.737l.504-.242a4.544 4.544 0 00-1.78-1.973l-.288.478zm1.566 1.742c.37.735.56 1.596.56 2.588h.559c0-1.064-.204-2.013-.62-2.84l-.499.252zm.56 2.588a.568.568 0 01-.173.427l.394.396c.225-.223.338-.504.338-.823h-.559zm-.165.419a.645.645 0 01-.46.16v.56c.322 0 .609-.098.838-.308l-.378-.412zm-.46.16h-7.924v.56h7.924v-.56zm-7.645.28v-1.562h-.559v1.562h.56zm-.28-1.282h7.866v-.56h-7.865v.56zm7.71-.511l-.807.547.314.462.806-.547-.314-.462zm-.37.772c-.015-.685-.153-1.306-.423-1.855l-.501.246c.228.466.352 1.004.364 1.62l.56-.01zm-.421-1.852a3.238 3.238 0 00-1.162-1.344l-.305.468c.414.27.734.64.962 1.117l.505-.241zm-1.162-1.344c-.512-.335-1.125-.495-1.824-.495v.56c.612 0 1.114.139 1.519.403l.305-.468zm-1.824-.495c-.788 0-1.483.172-2.071.529l.29.478c.485-.294 1.075-.448 1.781-.448v-.559zm-2.074.53a3.438 3.438 0 00-1.304 1.464l.504.242a2.88 2.88 0 011.095-1.23l-.295-.475zm-1.303 1.462c-.297.603-.441 1.284-.441 2.037h.558c0-.68.13-1.274.385-1.79l-.502-.247zm-.441 2.037c0 .76.174 1.448.53 2.054l.482-.282c-.3-.512-.454-1.1-.454-1.772h-.558zm.53 2.054a3.849 3.849 0 001.46 1.43l.275-.486a3.3 3.3 0 01-1.253-1.226l-.482.282zm1.46 1.43c.624.352 1.334.525 2.123.525v-.56c-.705 0-1.319-.152-1.848-.451l-.275.486zm2.123.525c.44 0 .883-.078 1.33-.23l-.181-.529c-.393.134-.776.2-1.149.2v.559zm1.334-.232c.449-.162.823-.349 1.114-.566l-.334-.448c-.233.174-.553.338-.97.489l.19.525zm1.112-.564a.771.771 0 01.464-.161v-.559c-.287 0-.553.094-.793.269l.329.451zm.48-.162a.564.564 0 01.414.13l.36-.427a1.12 1.12 0 00-.805-.26l.03.557zm.41.127c.182.16.251.309.259.45l.558-.032c-.019-.327-.185-.607-.449-.838l-.368.42zm.259.45c.007.123-.04.241-.205.367l.338.445c.28-.213.444-.498.425-.843l-.558.03zm-.209.37c-.414.327-.941.6-1.586.813l.176.53c.692-.228 1.28-.528 1.756-.904l-.346-.439zm-1.587.814a5.618 5.618 0 01-1.799.317v.559a6.16 6.16 0 001.977-.347l-.178-.53zm6.112-6.16c0-.733.178-1.378.528-1.941l-.475-.295c-.41.66-.612 1.408-.612 2.236h.559zm.527-1.94a4.011 4.011 0 011.472-1.389l-.271-.488a4.57 4.57 0 00-1.674 1.58l.473.297zm1.472-1.389a4.096 4.096 0 012.028-.511v-.559c-.832 0-1.6.193-2.3.582l.272.488zm2.028-.511c.765 0 1.28.129 1.592.342l.316-.462c-.45-.307-1.101-.439-1.908-.439v.559zm1.6.348c.17.106.263.209.308.299a.395.395 0 01.023.292l.541.14a.952.952 0 00-.065-.684c-.105-.209-.285-.38-.509-.52l-.297.473zm.329.602a.493.493 0 01-.148.28l.37.418c.17-.15.274-.35.324-.58l-.546-.118zm-.146.278a.486.486 0 01-.24.112l.099.55c.19-.035.362-.114.507-.24l-.366-.422zm-.24.112a.895.895 0 01-.36-.017l-.125.544c.2.046.396.056.584.023l-.1-.55zm-.367-.019c-.868-.175-1.661-.191-2.375-.038l.117.546c.623-.133 1.337-.124 2.147.04l.11-.548zm-2.375-.038c-.709.152-1.292.44-1.731.875l.393.397c.348-.345.826-.591 1.455-.726l-.117-.546zm-1.735.879c-.436.448-.65 1.015-.65 1.678h.56c0-.533.166-.956.49-1.289l-.4-.39zm-.37 1.4h-1.003v.558h1.003v-.559zm-.983 6.677c-.27 0-.436-.067-.539-.16l-.377.411c.238.218.557.308.916.308v-.559zm-.53-.153c-.102-.1-.174-.266-.174-.544H62.4c0 .373.098.702.338.94l.393-.396zm-.174-.544v-8.728H62.4v8.728h.558zm0-8.728c0-.261.07-.422.173-.524l-.393-.397c-.238.236-.338.557-.338.921h.558zm.173-.524c.104-.103.267-.173.531-.173v-.559c-.365 0-.687.1-.924.335l.393.397zm.531-.173c.283 0 .438.073.523.165l.41-.38c-.23-.247-.56-.344-.933-.344v.559zm.539.18c.092.085.165.237.165.517h.559c0-.371-.098-.7-.347-.928l-.377.411zm.165.517v8.728h.559v-8.728h-.56zm0 8.728c0 .261-.07.422-.173.524l.393.397c.238-.236.339-.557.339-.92h-.56zm-.181.532c-.085.092-.24.165-.523.165v.559c.372 0 .703-.097.932-.343l-.409-.38z" fill="#219653" mask="url(#b)"/></svg>