<svg width="80" height="76" fill="none" xmlns="http://www.w3.org/2000/svg"><path d="M76.289 46.55c.566-.814.9-1.802.9-2.866v-1.17a5.038 5.038 0 00-5.033-5.033h-.986a1.172 1.172 0 100 2.344h.986a2.692 2.692 0 012.688 2.688v1.17a2.692 2.692 0 01-2.688 2.69H59.875a2.692 2.692 0 01-2.689-2.69v-1.17a2.692 2.692 0 012.689-2.688h6.61a1.172 1.172 0 100-2.344h-6.61c-1.138 0-2.188.38-3.032 1.019h-6.76a.999.999 0 01-.762-.346 1 1 0 01-.243-.8l1.369-10.31a6.541 6.541 0 00-1.63-5.094 6.541 6.541 0 00-4.86-2.17h-1.198a2.907 2.907 0 00-2.893 2.588l-1.485 11.735a5.041 5.041 0 01-3.844 4.265 3.368 3.368 0 00-3.336-2.942H3.685A3.689 3.689 0 000 39.111v30.481a3.689 3.689 0 003.685 3.685H6.75a1.172 1.172 0 100-2.344H3.685c-.74 0-1.341-.601-1.341-1.34V39.11c0-.74.601-1.341 1.34-1.341h27.517c.562 0 1.02.457 1.02 1.02v31.124a1.02 1.02 0 01-1.02 1.02H11.436a1.172 1.172 0 100 2.343h19.765a3.369 3.369 0 003.164-2.224 14.097 14.097 0 009.113 3.32h10.777a5.006 5.006 0 003.032 1.018h10.63a5.038 5.038 0 005.032-5.032v-1.17a5 5 0 00-.782-2.69 5.038 5.038 0 005.021-5.032v-1.17a5.003 5.003 0 00-.9-2.866A5.04 5.04 0 0080 52.576v-1.17a5.04 5.04 0 00-3.711-4.856zM34.565 67.97V40.75a7.39 7.39 0 006.142-6.353l1.486-11.745.002-.021a.567.567 0 01.565-.506h1.197c1.187 0 2.323.506 3.116 1.39a4.193 4.193 0 011.049 3.235l-1.367 10.295a3.357 3.357 0 003.327 3.798h5.047c-.333.818-.293 1.953-.286 2.84a5.04 5.04 0 003.71 4.856 5.003 5.003 0 00-.899 2.866v1.17c0 1.065.333 2.052.9 2.866a5.04 5.04 0 00-3.711 4.856v1.17c0 1.088.348 2.096.937 2.92a5.041 5.041 0 00-3.525 4.801c-.006.89-.047 2.02.286 2.84h-9.062a11.766 11.766 0 01-8.914-4.057zm36.04 2.389a2.692 2.692 0 01-2.688 2.689h-10.63a2.692 2.692 0 01-2.689-2.69v-1.17a2.692 2.692 0 012.69-2.688h10.629a2.692 2.692 0 012.688 2.688v1.17zm4.24-8.892a2.692 2.692 0 01-2.69 2.689h-12.28a2.692 2.692 0 01-2.689-2.689v-1.17a2.692 2.692 0 012.689-2.689h12.28a2.692 2.692 0 012.69 2.689v1.17zm2.811-8.891a2.692 2.692 0 01-2.689 2.688h-12.28a2.692 2.692 0 01-2.689-2.688v-1.17a2.692 2.692 0 012.689-2.69h12.28a2.692 2.692 0 012.69 2.69v1.17z" fill="#7198CB"/><path d="M23.701 45.93a1.172 1.172 0 100-2.344h-3.873a1.172 1.172 0 100 2.344h3.873z" fill="#7198CB"/><path d="M2.787 19.25l-.283 3.511a1.646 1.646 0 00.678 1.475 1.649 1.649 0 001.613.19l3.251-1.355 3.252 1.354c.538.225 1.14.154 1.612-.189.472-.342.726-.894.679-1.475l-.284-3.51 2.293-2.674c.38-.443.499-1.038.319-1.593a1.646 1.646 0 00-1.194-1.1l-3.427-.816-1.834-3.007a1.647 1.647 0 00-1.416-.795c-.583 0-1.112.297-1.416.795l-1.834 3.007-3.427.815a1.647 1.647 0 00-1.193 1.101c-.18.555-.062 1.15.318 1.592l2.293 2.674zm2.83-3.968a1.67 1.67 0 001.031-.75l1.398-2.291 1.398 2.292c.23.375.605.648 1.032.75l2.612.62-1.748 2.038a1.67 1.67 0 00-.394 1.213l.216 2.676-2.478-1.032a1.668 1.668 0 00-1.275 0L4.93 21.83l.216-2.675a1.67 1.67 0 00-.394-1.214l-1.748-2.037 2.612-.622zm14.505.73l-.514 6.372c-.057.703.25 1.37.82 1.785a1.996 1.996 0 001.951.23l5.902-2.46 5.902 2.46c.65.27 1.38.185 1.951-.23a1.99 1.99 0 00.82-1.785l-.514-6.372 4.162-4.854c.46-.535.603-1.255.386-1.926A1.993 1.993 0 0039.543 7.9l-6.22-1.48-.066-.107a1.172 1.172 0 10-2 1.221l.138.226a2.02 2.02 0 001.248.908l5.82 1.384-3.894 4.54a2.02 2.02 0 00-.478 1.468l.482 5.962-5.521-2.3a2.018 2.018 0 00-1.544 0l-5.521 2.3.482-5.962a2.02 2.02 0 00-.477-1.468l-3.895-4.54 5.819-1.384a2.019 2.019 0 001.25-.908l3.114-5.106.535.877a1.172 1.172 0 002.001-1.22L29.994.96A1.993 1.993 0 0028.281 0c-.706 0-1.346.36-1.713.962l-3.33 5.458-6.22 1.48a1.993 1.993 0 00-1.444 1.332 1.99 1.99 0 00.386 1.926l4.162 4.854z" fill="#219653"/></svg>