<svg width="76" height="80" fill="none" xmlns="http://www.w3.org/2000/svg"><path d="M57.627 4.745c-.742 0-1.343.615-1.343 1.375s.6 1.374 1.343 1.374h2.9c.742 0 1.343-.615 1.343-1.374 0-.76-.601-1.375-1.343-1.375h-2.9z" fill="#219653"/><path d="M27.423 7.73v-.681c0-3.887-3.09-7.049-6.887-7.049-3.797 0-6.887 3.162-6.887 7.049v.676a19.876 19.876 0 00-6.781 4.287 1.398 1.398 0 00-.061 1.943 1.321 1.321 0 001.898.062c3.218-3.09 7.42-4.79 11.831-4.79 9.537 0 17.296 7.941 17.296 17.703v6.392c0 1.118-.888 2.027-1.98 2.027h-.105v-9.122c0-.892-.653-1.657-1.518-1.78-3.519-.498-6.15-1.616-8.046-3.42a1.726 1.726 0 00-2.264-.117c-4.165 3.238-9.61 4.427-16.645 3.635a1.737 1.737 0 00-1.366.448c-.37.34-.583.827-.583 1.337v9.019h-.106c-1.091 0-1.98-.91-1.98-2.027V26.93c0-3.117.803-6.182 2.322-8.864a1.392 1.392 0 00-.488-1.879 1.326 1.326 0 00-1.835.5A20.814 20.814 0 00.553 26.93v6.392c0 2.634 2.093 4.776 4.666 4.776h.155a15.687 15.687 0 003.764 9.098l-2.13 1.015c-3.159 1.505-5.2 4.78-5.2 8.345v20.73C1.809 78.784 2.999 80 4.46 80h3.15c.743 0 1.344-.615 1.344-1.375 0-.759-.601-1.374-1.343-1.374H4.495V56.556c0-2.5 1.431-4.797 3.646-5.852l3.11-1.482a15.11 15.11 0 003.87 2.226l-.924 3.923a3.267 3.267 0 001.424 3.524l3.26 2.045c1.02.64 2.29.64 3.31 0l3.26-2.045a3.266 3.266 0 001.424-3.524l-.923-3.923a15.111 15.111 0 003.868-2.226l3.111 1.482c2.215 1.055 3.646 3.352 3.646 5.852v20.695H12.98c-.742 0-1.343.615-1.343 1.374 0 .76.601 1.375 1.343 1.375h23.632c1.462 0 2.65-1.217 2.65-2.713V56.556c0-3.565-2.04-6.84-5.197-8.345l-2.131-1.015a15.688 15.688 0 003.764-9.098h.154c2.573 0 4.666-2.142 4.666-4.776V26.93c0-8.8-5.46-16.321-13.095-19.2zm-11.085-.8c.062-2.316 1.92-4.18 4.198-4.18 2.278 0 4.138 1.866 4.198 4.183a19.645 19.645 0 00-8.396-.002zm7.926 49.086a.496.496 0 01-.217.535l-3.26 2.045a.47.47 0 01-.503 0l-3.26-2.045a.497.497 0 01-.216-.536l.899-3.818a14.91 14.91 0 002.829.274c.967 0 1.912-.097 2.83-.274l.898 3.819zm8.797-19.114c0 7.069-5.619 12.82-12.525 12.82-6.906 0-12.525-5.751-12.525-12.82v-9.52c6.938.612 12.49-.642 16.92-3.825 2.084 1.761 4.757 2.908 8.13 3.488v9.857z" fill="#7198CB"/><path d="M16.725 32.977c0-.759-.601-1.374-1.343-1.374s-1.343.615-1.343 1.374v.162c0 .76.601 1.374 1.343 1.374s1.343-.615 1.343-1.374v-.162zm8.965-1.374c-.743 0-1.344.615-1.344 1.374v.162c0 .76.601 1.374 1.343 1.374s1.343-.615 1.343-1.374v-.162c0-.759-.601-1.374-1.343-1.374zm-3.316 7.921c-1.254.767-2.422.768-3.676 0a1.326 1.326 0 00-1.842.474 1.393 1.393 0 00.463 1.885c1.053.644 2.135.966 3.217.966 1.082 0 2.165-.322 3.217-.966.637-.39.844-1.234.463-1.885a1.326 1.326 0 00-1.842-.474zm9.558 29.378c.742 0 1.343-.615 1.343-1.374 0-.76-.601-1.375-1.343-1.375h-6.243c-.742 0-1.343.616-1.343 1.375 0 .76.601 1.374 1.343 1.374h6.243z" fill="#7198CB"/><path d="M71 18.76l2.73-14.742C74.11 1.977 72.58.09 70.554.09H65.47c-.742 0-1.343.615-1.343 1.374 0 .76.601 1.375 1.343 1.375h5.084c.344 0 .603.32.539.665L68.657 16.65a16.03 16.03 0 00-19.157 0L47.063 3.505a.557.557 0 01.539-.665H60.1c.742 0 1.343-.615 1.343-1.375 0-.759-.6-1.374-1.343-1.374H47.602c-2.03 0-3.555 1.89-3.178 3.927l2.732 14.742a16.905 16.905 0 00-4.447 11.468c0 9.238 7.343 16.754 16.369 16.754 9.025 0 16.369-7.516 16.369-16.754 0-4.433-1.692-8.468-4.448-11.468zM59.076 44.233c-7.545 0-13.683-6.283-13.683-14.005 0-7.723 6.138-14.005 13.683-14.005S72.76 22.505 72.76 30.228c0 7.722-6.138 14.005-13.683 14.005z" fill="#219653"/><path d="M66.472 26.869l-3.626-1.15-2.188-3.174a1.91 1.91 0 00-3.161 0l-2.188 3.175-3.627 1.149c-1.275.404-1.776 1.982-.976 3.077l2.273 3.11-.053 3.886c-.019 1.374 1.301 2.34 2.558 1.902l3.593-1.252 3.594 1.252c1.264.44 2.575-.535 2.557-1.902l-.053-3.885 2.274-3.111c.8-1.094.3-2.673-.977-3.077zm-3.6 4.751a2.02 2.02 0 00-.386 1.213l.042 3.057-2.827-.985a1.897 1.897 0 00-1.247 0l-2.827.985.042-3.055a2.022 2.022 0 00-.386-1.215l-1.788-2.447 2.854-.905a1.947 1.947 0 001.007-.75l1.721-2.497 1.722 2.497a1.94 1.94 0 001.008.75l2.853.904-1.789 2.448z" fill="#219653"/></svg>