<svg width="30" height="30" fill="none" xmlns="http://www.w3.org/2000/svg"><circle cx="15" cy="15" r="15" fill="#FEFEFE"/><path d="M20.008 9H9.992C8.862 9 8 9.8 8 10.85v9.3C8 21.2 8.862 22 9.992 22h10.016c1.13 0 1.992-.8 1.992-1.85v-9.3C22 9.8 21.139 9 20.008 9zM15 19.4c2.315 0 4.2-1.7 4.2-3.75 0-.35-.054-.75-.162-1.05h1.185v5.3c0 .25-.215.5-.538.5h-9.37c-.269 0-.538-.2-.538-.5v-5.35h1.238c-.107.35-.161.7-.161 1.05-.054 2.1 1.83 3.8 4.146 3.8zm0-1.5c-1.508 0-2.692-1.1-2.692-2.45S13.492 13 15 13c1.508 0 2.692 1.1 2.692 2.45 0 1.4-1.184 2.45-2.692 2.45zm5.17-5.35c0 .3-.27.55-.593.55h-1.508c-.323 0-.592-.25-.592-.55V11.2c0-.3.27-.55.592-.55h1.508c.323 0 .592.25.592.55v1.35z" fill="#343A40"/></svg>