<svg width="50" height="50" fill="none" xmlns="http://www.w3.org/2000/svg"><path d="M32.758 4.34a.732.732 0 00.732-.733V.732a.732.732 0 10-1.465 0v2.875c0 .405.328.732.733.732zm-6.874.897a.73.73 0 001.033.074.732.732 0 00.074-1.033l-1.865-2.155a.732.732 0 10-1.107.959l1.865 2.155zM38.6 5.31a.729.729 0 001.033-.073l1.865-2.155a.732.732 0 10-1.107-.959l-1.866 2.155A.732.732 0 0038.6 5.31zm-7.36 21.963a2.183 2.183 0 003.036 0l11.266-10.832a2.192 2.192 0 00.232-2.895l-1.512-2.01a.732.732 0 10-1.17.88l1.298 1.727h-5.813l-1.545-5.098h3.161a.73.73 0 01.58.289l.558.742a.732.732 0 101.17-.88l-.558-.743a2.2 2.2 0 00-1.75-.873h-14.87a2.2 2.2 0 00-1.75.873l-3.831 5.093a2.191 2.191 0 00.232 2.895l11.267 10.832zM26.9 15.608l4.194 9.492-9.873-9.492H26.9zm17.395 0L34.422 25.1l4.195-9.492h5.678zm-11.537 9.634l-4.257-9.634h8.514l-4.257 9.634zm2.743-16.197l1.545 5.098H28.47l1.544-5.098H35.5zm-10.757.289a.729.729 0 01.579-.29h3.161l-1.544 5.099h-5.814l3.618-4.81z" fill="#219653"/><path d="M44.732 36.349l-4.486 2.729a17.107 17.107 0 01-14.485 1.569 1.92 1.92 0 01-1.3-1.573 1.92 1.92 0 01.811-1.874l4.666-3.278a2.698 2.698 0 00.698-3.726 2.697 2.697 0 00-2.84-1.146L15.81 31.68v-.152a1.902 1.902 0 00-1.9-1.899H7.906a.732.732 0 100 1.465h6.006c.24 0 .434.195.434.434v16.573c0 .24-.195.434-.434.434H1.497a.032.032 0 01-.032-.032V31.126c0-.018.014-.032.032-.032h3.48a.732.732 0 100-1.465h-3.48A1.5 1.5 0 000 31.126v17.377A1.5 1.5 0 001.497 50h12.414a1.902 1.902 0 001.899-1.9v-.372l.429.124a35.628 35.628 0 009.902 1.403 36.27 36.27 0 003.777-.198 35.68 35.68 0 0013.238-4.072.733.733 0 00-.693-1.29A34.221 34.221 0 0129.765 47.6a34.25 34.25 0 01-13.12-1.155l-.835-.241V33.179l12.3-2.698a1.24 1.24 0 011.307.528 1.242 1.242 0 01-.322 1.715l-4.665 3.278a3.404 3.404 0 00-1.42 3.277 3.404 3.404 0 002.276 2.753 18.567 18.567 0 0015.722-1.703l4.485-2.729c1.287-.782 3.08.07 3.041 1.343a1.36 1.36 0 01-.494 1.01 34.585 34.585 0 01-3.045 2.238.733.733 0 00.802 1.226 36.071 36.071 0 003.174-2.333 2.824 2.824 0 001.028-2.098c.074-2.523-3.07-3.974-5.267-2.637z" fill="#7198CB"/><path d="M10.627 43.484v-1.589a.732.732 0 00-1.465 0v1.589a.732.732 0 101.465 0z" fill="#7198CB"/></svg>