<svg width="50" height="37" fill="none" xmlns="http://www.w3.org/2000/svg"><path d="M11.529 26.673a.73.73 0 00-.8 1.223c.934.61 1.572.793 2.396.84v.79a.73.73 0 101.461 0v-.849c1.64-.321 2.597-1.673 2.809-2.935.273-1.623-.576-3.035-2.163-3.596-.212-.075-.43-.153-.646-.235V18.39c.64.084 1.039.34 1.072.363a.73.73 0 00.83-1.202c-.043-.03-.769-.525-1.902-.628v-.66a.73.73 0 10-1.461 0v.76a4.97 4.97 0 00-.33.087c-1.046.315-1.827 1.21-2.039 2.334-.193 1.026.136 2.015.858 2.582.383.3.859.575 1.511.865v4.38c-.564-.041-.956-.18-1.596-.598zm.986-5.797c-.291-.229-.415-.674-.323-1.161.082-.437.37-.962.933-1.174v2.724a4.382 4.382 0 01-.61-.39zm2.23 2.648c1.35.477 1.267 1.633 1.209 1.975-.113.67-.578 1.378-1.368 1.66v-3.692l.159.057z" fill="#219653"/><path d="M49.27 11.149a.73.73 0 00.73-.73V1.651c0-.809-.658-1.467-1.467-1.467h-6.335c-.809 0-1.467.658-1.467 1.467v.46l-10.066-.353a.73.73 0 10-.051 1.46l10.117.355v9.335c-.529.06-1.722-.26-2.786.723l-5.252 4.86c-3.182 2.945-6.307 3.143-9.765 4.437a1.482 1.482 0 01-1.797-.619c-.398-.66-.197-1.538.457-1.998a.514.514 0 00.013-.01l7.14-5.256c1.957-1.383 1.83-4.329-.241-5.538l-2.342-1.365a3.316 3.316 0 00-3.224-.055l-3.639 1.962a13.756 13.756 0 00-3.661-.972l2.706-2.71a11.27 11.27 0 018.303-3.288l1.05.037h.025a.73.73 0 00.026-1.46l-1.052-.037a12.74 12.74 0 00-9.386 3.716L13.67 8.977C6.109 9.112 0 15.303 0 22.895c0 2.892.88 5.665 2.542 8.02a.73.73 0 101.194-.842 12.378 12.378 0 01-2.275-7.178c0-7.13 6.034-12.93 13.341-12.428a12.492 12.492 0 019.716 5.874l-3.777 2.78c-1.273.901-1.652 2.63-.862 3.943a2.945 2.945 0 003.506 1.252l2.986-.954c-.247 6.654-5.737 11.992-12.45 11.992a12.433 12.433 0 01-8.35-3.212.73.73 0 00-.98 1.084 13.89 13.89 0 009.33 3.59c7.655 0 13.92-6.224 13.92-13.924.183-.08 3.1-.788 5.845-3.327l5.252-4.86c.537-.497 1.124-.284 1.793-.335v1.506c0 .81.658 1.467 1.467 1.467h6.334c.81 0 1.468-.658 1.468-1.467V13.34a.73.73 0 10-1.461 0l-.007 2.542-6.34-.006.006-14.23 6.34.007v8.766c0 .403.328.73.731.73zm-28.38-.3l2.737-1.475a1.845 1.845 0 011.795.03l2.341 1.367a1.833 1.833 0 01.118 3.094l-2.183 1.608a13.944 13.944 0 00-4.807-4.623z" fill="#7198CB"/><path d="M15.634 9.078s2.486.479 3.662.972l1.595.8a13.943 13.943 0 014.807 4.623l-1.18.868a12.492 12.492 0 00-9.716-5.874c-7.307-.501-13.34 5.298-13.34 12.428 0 2.588.786 5.07 2.274 7.178a.73.73 0 01-1.194.843A13.832 13.832 0 010 22.895C0 15.303 6.109 9.112 13.669 8.977l1.965.1zM13.92 35.354c6.714 0 12.204-5.338 12.45-11.992l1.471-.47c0 7.7-6.265 13.923-13.92 13.923a13.89 13.89 0 01-9.33-3.59.73.73 0 01.98-1.084 12.433 12.433 0 008.35 3.213z" fill="#219653"/></svg>