<svg width="30" height="30" fill="none" xmlns="http://www.w3.org/2000/svg"><circle cx="15" cy="15" r="15" fill="#7C509A"/><path d="M19.69 7.91a23.237 23.237 0 00-8.685 0c-1.265.272-2.86 1.801-3.134 3.002a17.152 17.152 0 000 7.097c.33 1.2 1.924 2.73 3.134 3.002.055 0 .11.055.11.11v3.439c0 .164.22.273.33.109l1.649-1.692s1.319-1.365 1.539-1.584c0 0 .055-.054.11-.054 1.649.055 3.353-.11 5.002-.382 1.265-.273 2.86-1.802 3.134-3.003a17.15 17.15 0 000-7.097c-.33-1.146-1.924-2.675-3.189-2.948zm.055 10.263c-.274.546-.604.982-1.154 1.255l-.495.164a6.952 6.952 0 01-.55-.164c-1.759-.71-3.408-1.692-4.727-3.111a13.128 13.128 0 01-1.814-2.73c-.22-.491-.44-.928-.605-1.42-.165-.436.11-.873.385-1.2.275-.328.604-.546.99-.71.274-.164.549-.055.769.164.44.546.88 1.091 1.21 1.692.22.382.164.819-.22 1.092-.11.054-.166.109-.276.218-.054.055-.164.11-.22.219a.528.528 0 00-.054.49c.44 1.257 1.264 2.24 2.528 2.785.22.11.385.164.66.164.385-.055.55-.491.825-.71.275-.218.604-.218.934-.054.275.163.55.382.88.6.275.218.55.382.825.6.164.11.22.383.11.656zm-2.309-4.095c-.11 0-.055 0 0 0-.22 0-.274-.109-.33-.273 0-.109 0-.273-.054-.382a1.037 1.037 0 00-.385-.6l-.33-.164c-.165-.055-.275-.055-.44-.055-.165-.054-.22-.163-.22-.327 0-.11.165-.219.275-.219.88.055 1.54.546 1.65 1.584v.218c0 .11-.055.218-.166.218zm-.55-2.402c-.274-.109-.549-.218-.879-.273-.11 0-.275-.054-.385-.054-.165 0-.274-.11-.22-.273 0-.164.11-.273.275-.219.55.055 1.045.164 1.54.383.99.49 1.539 1.31 1.704 2.402v.708c-.055.219-.44.273-.495 0 0-.054-.055-.164-.055-.218 0-.491-.11-.983-.33-1.42a2.949 2.949 0 00-1.154-1.037zm2.97 3.276c-.166 0-.276-.164-.276-.328 0-.327-.054-.655-.11-.982-.22-1.747-1.649-3.167-3.353-3.44-.275-.054-.55-.054-.77-.109-.164 0-.384 0-.44-.218-.054-.164.11-.328.276-.328h.11c2.254.055.11 0 0 0 2.308.055 4.233 1.583 4.617 3.876.055.382.11.764.11 1.201.11.164 0 .328-.165.328z" fill="#fff"/></svg>