<svg width="30" height="30" fill="none" xmlns="http://www.w3.org/2000/svg"><circle cx="15" cy="15" r="15" fill="#48C95F"/><path d="M20.945 9.046a7.821 7.821 0 00-5.543-2.297c-4.335 0-7.847 3.5-7.847 7.82a7.9 7.9 0 001.043 3.883L7.5 22.5l4.17-1.094a8.023 8.023 0 003.732.93c4.336 0 7.848-3.5 7.848-7.82-.055-2.024-.823-3.992-2.305-5.469zm-1.756 8.313c-.165.437-.933.874-1.317.93a3.08 3.08 0 01-1.207-.056c-.275-.109-.659-.218-1.098-.437-1.976-.82-3.238-2.789-3.348-2.953-.11-.11-.823-1.04-.823-2.024s.494-1.421.659-1.64c.165-.219.384-.219.549-.219h.384c.11 0 .274-.055.439.328.165.383.549 1.367.604 1.422a.347.347 0 010 .328 1.13 1.13 0 01-.22.328c-.11.11-.22.274-.274.329-.11.109-.22.218-.11.382.11.219.494.82 1.097 1.367.769.657 1.372.876 1.592.985.22.11.33.055.439-.055.11-.11.494-.547.604-.765.11-.22.274-.165.439-.11.164.055 1.152.547 1.317.656.22.11.329.165.384.22.055.163.055.546-.11.983z" fill="#fff"/></svg>