<svg width="30" height="31" fill="none" xmlns="http://www.w3.org/2000/svg"><ellipse cx="15" cy="15.133" rx="15" ry="14.99" fill="#F4F4F4"/><path d="M22 13.973c0-.303-.051-.657-.051-1.06a69.047 69.047 0 00-.153-1.161c-.103-.404-.256-.707-.562-.96-.256-.252-.614-.403-.971-.453-1.175-.152-2.913-.202-5.263-.202s-4.139.05-5.263.202c-.357.05-.715.201-.97.454a2.01 2.01 0 00-.563.959 4 4 0 00-.153 1.16C8 13.317 8 13.67 8 13.973v2.322c0 .303.051.657.051 1.06.051.404.102.808.153 1.161.103.404.256.707.562.96.256.252.614.403.971.453 1.175.152 2.913.202 5.263.202s4.139-.05 5.263-.201c.357-.051.715-.202.97-.455a2.01 2.01 0 00.563-.959 4 4 0 00.153-1.16c.051-.404.051-.758.051-1.06v-2.322zm-4.292 1.564l-4.036 2.473a.392.392 0 01-.256.101c-.102 0-.153 0-.255-.05a.529.529 0 01-.256-.454V12.61c0-.202.102-.353.256-.454a.467.467 0 01.51 0l4.037 2.473c.153.1.256.252.256.404 0 .151-.103.403-.256.504z" fill="#343A40"/></svg>